<svg xmlns="http://www.w3.org/2000/svg" viewBox="0 0 24 24"><path d="M14.293,17.293,12,19.586,9.707,17.293a1,1,0,0,0-1.414,1.414C11.217,21.5,11.274,22,12,22s.738-.46,3.707-3.293a1,1,0,0,0-1.414-1.414Z"/><path d="M15.707,5.293l-3-3a1,1,0,0,0-1.414,0l-3,3A1,1,0,0,0,9.707,6.707L12,4.414l2.293,2.293a1,1,0,0,0,1.414-1.414Z"/><path d="M5.293,15.707a1,1,0,1,0,1.414-1.414L4.414,12,6.707,9.707A1,1,0,0,0,5.293,8.293l-3,3a1,1,0,0,0,0,1.414Z"/><path d="M17.293,15.707a1,1,0,0,0,1.414,0l3-3a1,1,0,0,0,0-1.414l-3-3a1,1,0,0,0-1.414,1.414L19.586,12l-2.293,2.293A1,1,0,0,0,17.293,15.707Z"/><path d="M12,8a4,4,0,1,0,4,4A4,4,0,0,0,12,8Zm0,6a2,2,0,1,1,2-2A2,2,0,0,1,12,14Z"/></svg>