<svg xmlns="http://www.w3.org/2000/svg" viewBox="0 0 24 24"><path d="M2.3,12.707l3,3a1,1,0,0,0,1.414-1.414L5.415,13H11v5.586L9.708,17.292a1,1,0,0,0-1.414,1.414l3,3a1,1,0,0,0,1.415,0l3-3a1,1,0,0,0-1.414-1.414L13,18.585V13h5.586l-1.293,1.293a1,1,0,1,0,1.414,1.414l3-3a1,1,0,0,0,0-1.416l-3-3a1,1,0,1,0-1.414,1.414L18.587,11H13V5.413l1.293,1.293a1,1,0,1,0,1.414-1.414l-3-3a1,1,0,0,0-1.415,0l-3,3A1,1,0,0,0,9.708,6.706L11,5.413V11H5.415L6.708,9.706A1,1,0,1,0,5.294,8.292l-3,3A1,1,0,0,0,2.3,12.707Z"/></svg>