<svg xmlns="http://www.w3.org/2000/svg" viewBox="0 0 24 24"><path d="M14.567,8.019,8.019,14.567A3.947,3.947,0,0,0,6,14a4,4,0,1,0,3.858,5h4.284a4,4,0,1,0,0-2H9.858a3.915,3.915,0,0,0-.425-1.019l6.548-6.548A3.947,3.947,0,0,0,18,10a4,4,0,1,0-3.858-5H9.858a4,4,0,1,0,0,2h4.284A3.915,3.915,0,0,0,14.567,8.019ZM6,20a2,2,0,0,1,0-4,1.96,1.96,0,0,1,.511.075L5.293,17.293A1,1,0,0,0,6,19H7.722A1.993,1.993,0,0,1,6,20Zm12-4a2,2,0,1,1-1.722,3H18a1,1,0,0,0,0-2H16.278A1.993,1.993,0,0,1,18,16ZM18,4a2,2,0,0,1,0,4,1.96,1.96,0,0,1-.511-.075l1.218-1.218A1,1,0,0,0,18,5H16.278A1.993,1.993,0,0,1,18,4ZM6,8A2,2,0,1,1,7.722,5H6A1,1,0,0,0,6,7H7.722A1.993,1.993,0,0,1,6,8Z"/></svg>