<svg xmlns="http://www.w3.org/2000/svg" viewBox="0 0 24 24"><path d="M2.262,13.959a3,3,0,0,0-.38,4.567l3.027,3.016A4.966,4.966,0,0,0,8.438,23h6.068a4.972,4.972,0,0,0,3.53-1.458,8.833,8.833,0,0,0,2.492-4.972l.422-2.942a1,1,0,1,0-1.979-.283l-.422,2.942a6.824,6.824,0,0,1-1.925,3.839A2.985,2.985,0,0,1,14.506,21H8.438a2.985,2.985,0,0,1-2.118-.874L3.294,17.11a1,1,0,0,1,.134-1.526,1.1,1.1,0,0,1,1.37.19l1.514,1.509a1,1,0,0,0,1.706-.708V4A1.006,1.006,0,0,1,9.2,3.015a1.089,1.089,0,0,1,.829,1.1V9a1,1,0,0,0,1,1H14a1,1,0,0,0,0-2H12.033V4.111A3.088,3.088,0,0,0,9.524,1.04a3.032,3.032,0,0,0-2.449.677A2.991,2.991,0,0,0,6.018,4V14.182A3.087,3.087,0,0,0,2.262,13.959Z"/><path d="M22.706,5.292l-4-4a1,1,0,0,0-1.414,1.414L19.586,5H15a1,1,0,0,0,0,2h4.586L17.293,9.293a1,1,0,1,0,1.414,1.414l4-4A1,1,0,0,0,22.706,5.292Z"/></svg>