<svg xmlns="http://www.w3.org/2000/svg" viewBox="0 0 24 24"><path d="M5.909,21.542A4.97,4.97,0,0,0,9.438,23h6.068a4.97,4.97,0,0,0,3.529-1.458c2.863-2.851,2.5-6.188,2.915-7.913a4.934,4.934,0,0,0-2.507-5.023h0c-1.672-.939-3.219-.489-6.41-.606V4.111a3.087,3.087,0,0,0-2.509-3.07A3.005,3.005,0,0,0,7.018,4V14.182a3.087,3.087,0,0,0-3.756-.223,3,3,0,0,0-.38,4.567ZM4.428,15.584a1.1,1.1,0,0,1,1.37.191l1.514,1.509a1,1,0,0,0,1.706-.709V4a1,1,0,0,1,.353-.76,1.012,1.012,0,0,1,.832-.226,1.09,1.09,0,0,1,.83,1.1V9a1,1,0,0,0,1,1c4.576.092,5.4-.227,6.431.35a2.948,2.948,0,0,1,1.507,3c-.411,1.8-.06,4.5-2.347,6.78A2.983,2.983,0,0,1,15.506,21H9.438a2.983,2.983,0,0,1-2.118-.875L4.294,17.109A1,1,0,0,1,4.428,15.584Z"/></svg>