<svg xmlns="http://www.w3.org/2000/svg" viewBox="0 0 24 24"><path d="M9.691,7.437A3.11,3.11,0,0,0,9.04,3.994L6.955,1.909A3.066,3.066,0,0,0,4.3,1.035,3.1,3.1,0,0,0,2,2.672a8.578,8.578,0,0,0-.727,6.186c1.329,5.28,8.585,12.536,13.865,13.865a8.932,8.932,0,0,0,2.18.274,8.546,8.546,0,0,0,4.006-1,3.108,3.108,0,0,0,.763-4.951L20.006,14.96a3.114,3.114,0,0,0-3.444-.651,4.859,4.859,0,0,0-1.471.987c-.511.511-2.391-.23-4.275-2.112S8.193,9.421,8.7,8.909A4.851,4.851,0,0,0,9.691,7.437ZM9.4,14.6c2.294,2.292,5.378,3.836,7.1,2.112a2.9,2.9,0,0,1,.873-.575,1.1,1.1,0,0,1,1.214.239l2.085,2.085a1.088,1.088,0,0,1,.31.941,1.113,1.113,0,0,1-.591.827,6.518,6.518,0,0,1-4.766.556C11.089,19.64,4.36,12.911,3.217,8.37A6.523,6.523,0,0,1,3.773,3.6,1.113,1.113,0,0,1,4.6,3.013,1.056,1.056,0,0,1,4.768,3a1.087,1.087,0,0,1,.773.323L7.626,5.408a1.1,1.1,0,0,1,.239,1.213A2.9,2.9,0,0,1,7.29,7.5C5.566,9.219,7.109,12.3,9.4,14.6Zm11.021-3.027a6,6,0,0,0-7.994-7.994,1,1,0,1,1-.858-1.806A8,8,0,0,1,22.229,12.429a1,1,0,0,1-1.806-.858Zm-4.009-1.157a2,2,0,0,0,0-2.828,2.047,2.047,0,0,0-2.828,0,1,1,0,0,1-1.414-1.414,4.093,4.093,0,0,1,5.656,0,4,4,0,0,1,0,5.656,1,1,0,0,1-1.414-1.414Z"/></svg>