<svg xmlns="http://www.w3.org/2000/svg" viewBox="0 0 24 24"><path d="M9,3A1,1,0,0,1,8,4H5A1,1,0,0,0,4,5V8A1,1,0,0,1,2,8V5A3,3,0,0,1,5,2H8A1,1,0,0,1,9,3ZM2,19a3,3,0,0,0,3,3H8a1,1,0,0,0,0-2H5a1,1,0,0,1-1-1V16a1,1,0,0,0-2,0Zm19-4a1,1,0,0,0-1,1v3a1,1,0,0,1-1,1H16a1,1,0,0,0,0,2h3a3,3,0,0,0,3-3V16A1,1,0,0,0,21,15ZM19,2H16a1,1,0,0,0,0,2h3a1,1,0,0,1,1,1V8a1,1,0,0,0,2,0V5A3,3,0,0,0,19,2ZM8,9V8A1,1,0,0,0,6,8V9A1,1,0,0,0,8,9ZM18,9V8a1,1,0,0,0-2,0V9a1,1,0,0,0,2,0ZM8.775,14.368a1,1,0,0,0-1.55,1.264,6,6,0,0,0,9.55,0,1,1,0,1,0-1.55-1.264,4,4,0,0,1-6.45,0ZM11,7a1,1,0,0,0-1,1v3.01A3,3,0,0,0,13,14a1,1,0,0,0-.01-2,.991.991,0,0,1-.99-.99V8A1,1,0,0,0,11,7Z"/></svg>