<svg xmlns="http://www.w3.org/2000/svg" viewBox="0 0 24 24"><path d="M21,14a9.01,9.01,0,0,1-9,9,1,1,0,0,1,0-2,7.008,7.008,0,0,0,7-7V10a1,1,0,0,1,2,0ZM3,14a8.96,8.96,0,0,0,3.374,7.025,1,1,0,1,0,1.251-1.56A6.971,6.971,0,0,1,5,14V10a7,7,0,0,1,.875-3.391,1,1,0,0,0-1.75-.97A9.012,9.012,0,0,0,3,10ZM18.246,6a1,1,0,0,0,.779-1.625A9,9,0,0,0,7.5,2.205a1,1,0,1,0,1,1.731,7.005,7.005,0,0,1,8.965,1.689A1,1,0,0,0,18.246,6ZM8,9a1,1,0,0,0-1,1v4a5,5,0,0,0,1.25,3.308,1,1,0,1,0,1.5-1.325A2.989,2.989,0,0,1,9,14V10A1,1,0,0,0,8,9Zm4,10a5.006,5.006,0,0,0,5-5,1,1,0,0,0-2,0,3,3,0,0,1-3,3,1,1,0,0,0,0,2ZM12,5a1,1,0,0,0,0,2,3,3,0,0,1,3,3,1,1,0,0,0,2,0A5.006,5.006,0,0,0,12,5Zm0,10a1,1,0,0,0,1-1V10a1,1,0,0,0-2,0v4A1,1,0,0,0,12,15Z"/></svg>