<svg xmlns="http://www.w3.org/2000/svg" viewBox="0 0 24 24"><path d="M22,7H20.894A4.192,4.192,0,0,0,21,6a3.718,3.718,0,0,0-4-4c-2.164,0-3.969,2.271-5,3.928C10.969,4.271,9.164,2,7,2A3.718,3.718,0,0,0,3,6a4.192,4.192,0,0,0,.106,1H2A1,1,0,0,0,1,8v5a1,1,0,0,0,1,1H3v7a1,1,0,0,0,1,1H20a1,1,0,0,0,1-1V14h1a1,1,0,0,0,1-1V8A1,1,0,0,0,22,7ZM7,4c1.113,0,2.419,1.583,3.308,3H7.556C5,7,5,6.6,5,6,5,4.208,6.142,4,7,4Zm4,16H5V14h6Zm0-8H3V9h8Zm6-8c.858,0,2,.208,2,2,0,.6,0,1-2.556,1H13.692C14.581,5.583,15.887,4,17,4Zm2,16H13V14h6Zm2-8H13V9h8Z"/></svg>