<svg xmlns="http://www.w3.org/2000/svg" viewBox="0 0 24 24"><path d="M12,1A11,11,0,1,0,23,12,11.013,11.013,0,0,0,12,1Zm0,20a9,9,0,1,1,9-9A9.01,9.01,0,0,1,12,21ZM13,5V7a1,1,0,0,1-2,0V5a1,1,0,0,1,2,0Zm0,12v2a1,1,0,0,1-2,0V17a1,1,0,0,1,2,0Zm1.829-7.828a1,1,0,0,1,0-1.414l1.414-1.415a1,1,0,0,1,1.415,1.414L16.243,9.172a1,1,0,0,1-1.414,0ZM9.171,14.828a1,1,0,0,1,0,1.414L7.758,17.657a1,1,0,1,1-1.415-1.414l1.414-1.415A1,1,0,0,1,9.171,14.828ZM17,11h2a1,1,0,0,1,0,2H17a1,1,0,0,1,0-2ZM7,13H5a1,1,0,0,1,0-2H7a1,1,0,0,1,0,2Zm10.657,3.243a1,1,0,0,1-1.415,1.414l-1.414-1.415a1,1,0,0,1,1.415-1.414ZM9.172,7.758A1,1,0,0,1,7.757,9.172L6.343,7.757A1,1,0,1,1,7.758,6.343Z"/></svg>