<svg xmlns="http://www.w3.org/2000/svg" viewBox="0 0 24 24"><path d="M9,3A1,1,0,0,1,8,4H4V8A1,1,0,0,1,2,8V3A1,1,0,0,1,3,2H8A1,1,0,0,1,9,3ZM2,21a1,1,0,0,0,1,1H8a1,1,0,0,0,0-2H4V16a1,1,0,0,0-2,0Zm14,1h5a1,1,0,0,0,1-1V16a1,1,0,0,0-2,0v4H16a1,1,0,0,0,0,2ZM22,3a1,1,0,0,0-1-1H16a1,1,0,0,0,0,2h4V8a1,1,0,0,0,2,0ZM17.662,18.748a1,1,0,0,0,.088-1.411A6.627,6.627,0,0,0,12.757,15H11.244A6.626,6.626,0,0,0,6.25,17.338a1,1,0,0,0,1.5,1.324A4.651,4.651,0,0,1,11.244,17h1.513a4.653,4.653,0,0,1,3.493,1.661A1,1,0,0,0,17.662,18.748ZM16,9v3a1,1,0,0,1-1,1H9a1,1,0,0,1-1-1V9a4,4,0,0,1,8,0ZM14,9a2,2,0,0,0-4,0v2h4Z"/></svg>