<svg xmlns="http://www.w3.org/2000/svg" viewBox="0 0 24 24"><path d="M20,11v4a1,1,0,0,0,2,0V11a1,1,0,0,0-2,0Z"/><path d="M3,16a1,1,0,0,0,1-1V11a1,1,0,0,0-2,0v4A1,1,0,0,0,3,16Z"/><path d="M19.707,2.707a1,1,0,0,0-1.414-1.414c-1.242,1.261-1.875,1.84-2.084,2.127a6.948,6.948,0,0,0-8.418,0c-.221-.3-.675-.7-2.084-2.127A1,1,0,0,0,4.293,2.707C5.478,3.874,6.134,4.582,6.42,4.791A6.955,6.955,0,0,0,5,9v9a1,1,0,0,0,1,1H8v3a1,1,0,0,0,2,0V19h4v3a1,1,0,0,0,2,0V19h2a1,1,0,0,0,1-1V9a6.955,6.955,0,0,0-1.42-4.209C17.884,4.57,18.282,4.111,19.707,2.707ZM12,4a5.006,5.006,0,0,1,5,5v1H7V9A5.006,5.006,0,0,1,12,4Zm5,13H7V12H17Z"/><circle cx="10" cy="7" r="1"/><circle cx="14" cy="7" r="1"/></svg>