<svg xmlns="http://www.w3.org/2000/svg" viewBox="0 0 24 24"><path d="M22,11a1,1,0,0,0-1,1v5H3V5h9a1,1,0,0,0,0-2H2A1,1,0,0,0,1,4V18a1,1,0,0,0,1,1h9v2H8a1,1,0,0,0,0,2h8a1,1,0,0,0,0-2H13V19h9a1,1,0,0,0,1-1V12A1,1,0,0,0,22,11Z"/><path d="M21.587,6.069a.417.417,0,0,1,.381-.269H22.6a.4.4,0,0,0,.4-.4V4.6a.4.4,0,0,0-.4-.4h-.628a.416.416,0,0,1-.381-.27l0-.005a.417.417,0,0,1,.079-.458l.444-.444a.4.4,0,0,0,0-.571l-.56-.561a.4.4,0,0,0-.571,0l-.444.444a.416.416,0,0,1-.458.08l-.006,0a.416.416,0,0,1-.269-.38V1.4a.4.4,0,0,0-.4-.4H18.6a.4.4,0,0,0-.4.4v.628a.415.415,0,0,1-.27.38l0,0a.417.417,0,0,1-.459-.08l-.444-.444a.4.4,0,0,0-.571,0l-.56.561a.4.4,0,0,0,0,.571l.444.444a.415.415,0,0,1,.079.458l0,.005a.415.415,0,0,1-.381.27H15.4a.4.4,0,0,0-.4.4V5.4a.4.4,0,0,0,.4.4h.628a.416.416,0,0,1,.381.269l0,.006a.415.415,0,0,1-.079.458l-.444.444a.4.4,0,0,0,0,.571l.56.561a.4.4,0,0,0,.571,0l.444-.444a.417.417,0,0,1,.459-.08l0,0a.415.415,0,0,1,.27.38V8.6a.4.4,0,0,0,.4.4H19.4a.4.4,0,0,0,.4-.4V7.968a.416.416,0,0,1,.269-.38l.006,0a.416.416,0,0,1,.458.08l.444.444a.4.4,0,0,0,.571,0l.56-.561a.4.4,0,0,0,0-.571l-.444-.444a.417.417,0,0,1-.079-.458ZM19,6.2A1.2,1.2,0,1,1,20.2,5,1.2,1.2,0,0,1,19,6.2Z"/></svg>