<svg xmlns="http://www.w3.org/2000/svg" viewBox="0 0 24 24"><path d="M20,7H18V5h2a1,1,0,0,0,0-2H14a1,1,0,0,0,0,2h2V7H8V5h2a1,1,0,0,0,0-2H4A1,1,0,0,0,4,5H6V7H4a3,3,0,0,0,0,6H6.1a4.955,4.955,0,0,0,.99,2.092A5,5,0,0,0,3,20a1,1,0,0,0,2,0,3,3,0,0,1,3-3h3v2a1,1,0,0,0,2,0V17h3a3,3,0,0,1,3,3,1,1,0,0,0,2,0,5,5,0,0,0-4.091-4.908A4.955,4.955,0,0,0,17.9,13H20a3,3,0,0,0,0-6Zm0,4H17a1,1,0,0,0-1,1,3,3,0,0,1-3,3H11a3,3,0,0,1-3-3,1,1,0,0,0-1-1H4A1,1,0,0,1,4,9H20a1,1,0,0,1,0,2Z"/><path d="M12,10a1.978,1.978,0,0,0-.583.1A1,1,0,1,1,10.1,11.419,1.929,1.929,0,0,0,10,12a2,2,0,1,0,2-2Z"/></svg>