<svg xmlns="http://www.w3.org/2000/svg" viewBox="0 0 24 24"><path d="M8.919,2,2,8.919a2,2,0,0,0,0,2.828L12.252,22a2,2,0,0,0,2.829,0L22,15.081a2,2,0,0,0,0-2.829L11.748,2A2.005,2.005,0,0,0,8.919,2Zm4.748,18.586L3.414,10.333l6.919-6.919L20.586,13.667Z"/><path d="M20.752,8.743a.985.985,0,0,0,.414.09,1,1,0,0,0,.911-.586A4.752,4.752,0,0,0,21.041,2.96a4.751,4.751,0,0,0-5.288-1.037,1,1,0,1,0,.827,1.82,2.75,2.75,0,0,1,3.046.631,2.744,2.744,0,0,1,.63,3.045A1,1,0,0,0,20.752,8.743Z"/><path d="M3.248,15.257a1,1,0,0,0-1.325.5A4.752,4.752,0,0,0,2.959,21.04a4.87,4.87,0,0,0,3.429,1.436,4.481,4.481,0,0,0,1.859-.4,1,1,0,1,0-.827-1.82,2.753,2.753,0,0,1-3.046-.631,2.744,2.744,0,0,1-.63-3.045A1,1,0,0,0,3.248,15.257Z"/><path d="M16.04,16.04a1,1,0,1,0-1.414,0A1,1,0,0,0,16.04,16.04Z"/></svg>