<svg xmlns="http://www.w3.org/2000/svg" viewBox="0 0 24 24"><path d="M6.388,22.476a4.481,4.481,0,0,0,1.859-.4,1,1,0,1,0-.827-1.82,2.753,2.753,0,0,1-3.046-.631,2.744,2.744,0,0,1-.63-3.045,1,1,0,0,0-1.821-.828A4.752,4.752,0,0,0,2.959,21.04,4.87,4.87,0,0,0,6.388,22.476Z"/><path d="M21,5V4a3,3,0,0,0-6,0V5a2,2,0,0,0-2,2v5a2,2,0,0,0,2,2h6a2,2,0,0,0,2-2V7A2,2,0,0,0,21,5ZM17,4a1,1,0,0,1,2,0V5H17Zm4,8H15V7h6Z"/><circle cx="18" cy="9.5" r="1"/><path d="M12.252,22a2,2,0,0,0,2.829,0l4.293-4.293a1,1,0,0,0-1.415-1.414l-4.292,4.293L3.414,10.333l6.919-6.919.959.96A1,1,0,0,0,12.708,2.96L11.748,2A2.005,2.005,0,0,0,8.919,2L2,8.919a2,2,0,0,0,0,2.828Z"/></svg>