<svg xmlns="http://www.w3.org/2000/svg" viewBox="0 0 24 24"><path d="M19,11a1,1,0,0,0-1,1v8a1,1,0,0,1-1,1H5a1,1,0,0,1-1-1V4A1,1,0,0,1,5,3h7a1,1,0,0,0,0-2H5A3,3,0,0,0,2,4V20a3,3,0,0,0,3,3H17a3,3,0,0,0,3-3V12A1,1,0,0,0,19,11Z"/><circle cx="11" cy="18" r="1"/><path d="M22.6,4.2h-.628a.415.415,0,0,1-.38-.27l0-.005a.415.415,0,0,1,.08-.458l.444-.444a.4.4,0,0,0,0-.571l-.561-.561a.4.4,0,0,0-.571,0l-.444.444a.413.413,0,0,1-.458.079l-.006,0a.416.416,0,0,1-.269-.38V1.4a.4.4,0,0,0-.4-.4H18.6a.4.4,0,0,0-.4.4v.628a.416.416,0,0,1-.269.38l-.006,0a.413.413,0,0,1-.458-.079l-.444-.444a.4.4,0,0,0-.571,0l-.561.561a.4.4,0,0,0,0,.571l.444.444a.415.415,0,0,1,.08.458l0,.005a.415.415,0,0,1-.38.27H15.4a.4.4,0,0,0-.4.4V5.4a.4.4,0,0,0,.4.4h.628a.416.416,0,0,1,.38.269l0,.006a.415.415,0,0,1-.08.458l-.444.444a.4.4,0,0,0,0,.571l.561.561a.4.4,0,0,0,.571,0l.444-.444a.415.415,0,0,1,.458-.08l.006,0a.414.414,0,0,1,.269.38V8.6a.4.4,0,0,0,.4.4H19.4a.4.4,0,0,0,.4-.4V7.968a.414.414,0,0,1,.269-.38l.006,0a.415.415,0,0,1,.458.08l.444.444a.4.4,0,0,0,.571,0l.561-.561a.4.4,0,0,0,0-.571l-.444-.444a.415.415,0,0,1-.08-.458l0-.006a.416.416,0,0,1,.38-.269H22.6a.4.4,0,0,0,.4-.4V4.6A.4.4,0,0,0,22.6,4.2ZM19,6.2A1.2,1.2,0,1,1,20.2,5,1.2,1.2,0,0,1,19,6.2Z"/></svg>