<svg xmlns="http://www.w3.org/2000/svg" viewBox="0 0 24 24"><path d="M18.817,13.868h0A3.853,3.853,0,0,1,17,10.716V9a5,5,0,0,0-3.751-4.823C13.57,3.625,14.306,3,16,3a1,1,0,0,0,0-2c-3.191,0-4.487,1.7-4.868,3.088A5,5,0,0,0,7,9v1.509a4.293,4.293,0,0,1-1.923,3.434,4.967,4.967,0,0,0-2.054,4.544A5.133,5.133,0,0,0,8.172,23H15.1c3.258,0,5.621-1.813,5.879-4.513A5.018,5.018,0,0,0,18.817,13.868ZM8.172,21a3.011,3.011,0,0,1-1.925-5.436C9.741,13.045,8.874,9.663,9,9a3,3,0,0,1,6,0v1.716c0,4.529,4.293,4.365,3.986,7.582C18.6,22.317,11.907,20.628,8.172,21Z"/><path d="M12,11.5a2.323,2.323,0,0,0-1.5.75A4.753,4.753,0,0,0,9,15.625C9,16.75,9.75,19,12,19s3-2.25,3-3.375a4.753,4.753,0,0,0-1.5-3.375A2.323,2.323,0,0,0,12,11.5Z"/></svg>