<svg xmlns="http://www.w3.org/2000/svg" viewBox="0 0 24 24"><path d="M20,6a8.043,8.043,0,0,1,.87-3.507A1,1,0,0,0,20,1H4a1,1,0,0,0-.87.507A9.962,9.962,0,0,0,2,6,5.744,5.744,0,0,0,3.168,9.555C5.684,13.329,2,14.184,2,18a11.347,11.347,0,0,0,1.105,4.447A1,1,0,0,0,4,23H20a1,1,0,0,0,.895-1.446A9.383,9.383,0,0,1,20,18c0-2.481,2-2.73,2-6C22,8.762,20,8.464,20,6ZM15.168,9.555C18.184,14.079,12.3,14.169,14.53,21H12.657c-1.183-2.969-.567-4.333.175-5.445a5.929,5.929,0,0,0,0-7.11A3.78,3.78,0,0,1,12,6a8.136,8.136,0,0,1,.62-2.965L12.635,3H14.5C13.466,6.151,14.157,8.039,15.168,9.555ZM6,12C6,7.944,2.5,8.081,4.633,3H6.5c-1.038,3.151-.347,5.039.664,6.555C10.184,14.079,4.3,14.169,6.53,21H4.655C2.521,15.6,6,16.236,6,12Zm5.168,2.445C9.955,16.264,9.542,17.975,10.53,21H8.657C6.531,15.644,10,16.185,10,12c0-4.219-3.539-3.834-1.365-9H10.5C8.32,9.641,14.15,9.973,11.168,14.445ZM18.53,21H16.657c-1.15-2.9-.6-4.279.175-5.445A5.744,5.744,0,0,0,18,12c0-4.048-3.5-3.932-1.365-9H18.5c-1.044,3.177-.333,5.055.668,6.555C22.2,14.105,16.283,14.126,18.53,21Z"/></svg>