<svg xmlns="http://www.w3.org/2000/svg" viewBox="0 0 24 24"><path d="M4.707,13.707,6,12.414l1.293,1.293a1,1,0,0,0,1.414,0L10,12.414l1.293,1.293a1,1,0,0,0,1.414,0L14,12.414l1.293,1.293a1,1,0,0,0,1.414,0L18,12.414l1.293,1.293a1,1,0,0,0,1.414-1.414l-2-2a1,1,0,0,0-1.414,0L16,11.586l-1.293-1.293a1,1,0,0,0-1.414,0L12,11.586l-1.293-1.293a1,1,0,0,0-1.414,0L8,11.586,6.707,10.293a1,1,0,0,0-1.414,0l-2,2a1,1,0,0,0,1.414,1.414Z"/><path d="M4,9H20a1,1,0,0,0,1-1,7.008,7.008,0,0,0-7-7H10A7.008,7.008,0,0,0,3,8,1,1,0,0,0,4,9Zm6-6h4a5.008,5.008,0,0,1,4.9,4H5.1A5.008,5.008,0,0,1,10,3Z"/><path d="M10,23h4a7.008,7.008,0,0,0,7-7,1,1,0,0,0-1-1H16a1,1,0,0,0-.832.445L14,17.2l-1.168-1.752A1,1,0,0,0,12,15H4a1,1,0,0,0-1,1A7.008,7.008,0,0,0,10,23Zm1.465-6,1.7,2.555a1.039,1.039,0,0,0,1.664,0L16.535,17H18.9A5.008,5.008,0,0,1,14,21H10a5.008,5.008,0,0,1-4.9-4Z"/></svg>