<svg xmlns="http://www.w3.org/2000/svg" viewBox="0 0 24 24"><path d="M20,9H2a1,1,0,0,0-1,1v4a9,9,0,0,0,17.941,1H20a3,3,0,0,0,0-6ZM10,21a7.008,7.008,0,0,1-7-7V11H17v3A7.008,7.008,0,0,1,10,21Zm9-8V11c.306.069,2-.366,2,1C21,13.322,19.254,12.943,19,13Z"/><path d="M3.293,7.707a1,1,0,0,0,1.414,0l1.25-1.25A2.049,2.049,0,0,0,6.561,5a2.42,2.42,0,0,0-.6-1.543l.75-.75A1,1,0,0,0,5.293,1.293l-.75.75a2.049,2.049,0,0,0-.6,1.457,2.42,2.42,0,0,0,.6,1.543l-1.25,1.25A1,1,0,0,0,3.293,7.707Z"/><path d="M8.293,7.707a1,1,0,0,0,1.414,0l1.25-1.25A2.049,2.049,0,0,0,11.561,5a2.42,2.42,0,0,0-.6-1.543l.75-.75a1,1,0,0,0-1.414-1.414l-.75.75a2.049,2.049,0,0,0-.6,1.457,2.42,2.42,0,0,0,.6,1.543l-1.25,1.25A1,1,0,0,0,8.293,7.707Z"/><path d="M13.293,7.707a1,1,0,0,0,1.414,0l1.25-1.25A2.049,2.049,0,0,0,16.561,5a2.42,2.42,0,0,0-.6-1.543l.75-.75a1,1,0,0,0-1.414-1.414l-.75.75a2.049,2.049,0,0,0-.6,1.457,2.42,2.42,0,0,0,.6,1.543l-1.25,1.25A1,1,0,0,0,13.293,7.707Z"/></svg>