<svg xmlns="http://www.w3.org/2000/svg" viewBox="0 0 24 24"><path d="M20,9H2a1,1,0,0,0-1,1v4a8.983,8.983,0,0,0,3.356,7H2a1,1,0,0,0,0,2H18a1,1,0,0,0,0-2H15.644a8.995,8.995,0,0,0,3.3-6H20a3,3,0,0,0,0-6ZM10,21a7.008,7.008,0,0,1-7-7V11H7v1a2,2,0,0,0-2,2v3a1,1,0,0,0,1,1h4a1,1,0,0,0,1-1V14a2,2,0,0,0-2-2V11h8v3A7.008,7.008,0,0,1,10,21ZM9,14v2H7V14Zm10-1V11c.306.069,2-.366,2,1C21,13.322,19.254,12.943,19,13Z"/><path d="M4,8a1,1,0,0,0,.707-.293l1.25-1.25A2.049,2.049,0,0,0,6.561,5a2.42,2.42,0,0,0-.6-1.543l.75-.75A1,1,0,0,0,5.293,1.293l-.75.75a2.049,2.049,0,0,0-.6,1.457,2.42,2.42,0,0,0,.6,1.543l-1.25,1.25A1,1,0,0,0,4,8Z"/><path d="M11.707,1.293a1,1,0,0,0-1.414,0l-.75.75a2.049,2.049,0,0,0-.6,1.457,2.42,2.42,0,0,0,.6,1.543l-1.25,1.25A1,1,0,1,0,9.707,7.707l1.25-1.25A2.049,2.049,0,0,0,11.561,5a2.42,2.42,0,0,0-.6-1.543l.75-.75A1,1,0,0,0,11.707,1.293Z"/><path d="M16.707,1.293a1,1,0,0,0-1.414,0l-.75.75a2.049,2.049,0,0,0-.6,1.457,2.42,2.42,0,0,0,.6,1.543l-1.25,1.25a1,1,0,1,0,1.414,1.414l1.25-1.25A2.049,2.049,0,0,0,16.561,5a2.42,2.42,0,0,0-.6-1.543l.75-.75A1,1,0,0,0,16.707,1.293Z"/></svg>