<svg xmlns="http://www.w3.org/2000/svg" viewBox="0 0 24 24"><path d="M16.939,4.432a22.507,22.507,0,0,1-2.817-2.567,3.072,3.072,0,0,0-4.244,0A22.607,22.607,0,0,1,7.061,4.432a9.082,9.082,0,0,0,0,15.136C9.528,21.317,9.94,23.015,12,23.015s2.415-1.657,4.939-3.447a9.082,9.082,0,0,0,0-15.136Zm-1.156,13.5a23.991,23.991,0,0,0-3.076,2.786,1.021,1.021,0,0,1-1.414,0,24.094,24.094,0,0,0-3.076-2.786,7.08,7.08,0,0,1,0-11.866,24,24,0,0,0,3.075-2.786,1,1,0,0,1,1.416,0,24.057,24.057,0,0,0,3.075,2.786,7.08,7.08,0,0,1,0,11.866Z"/><path d="M9.684,7.052C8.342,7.5,6.061,9.368,7.03,13.242A1,1,0,0,0,8,14a1.025,1.025,0,0,0,.244-.03,1,1,0,0,0,.727-1.212C8.232,9.806,10.1,9.027,10.326,8.945a1,1,0,0,0-.642-1.893Z"/></svg>