<svg xmlns="http://www.w3.org/2000/svg" viewBox="0 0 24 24"><ellipse cx="12" cy="3.5" rx="1.5" ry="2.5"/><path d="M14.82,3.058a2.878,2.878,0,0,0-.707,2.829,2.878,2.878,0,0,0,2.829-.707,2.878,2.878,0,0,0,.707-2.829A2.878,2.878,0,0,0,14.82,3.058Z"/><path d="M6.351,2.351A2.878,2.878,0,0,0,7.058,5.18a2.878,2.878,0,0,0,2.829.707A2.833,2.833,0,0,0,6.351,2.351Z"/><path d="M5,18a5.006,5.006,0,0,0,5,5h4a5.006,5.006,0,0,0,5-5V12a5.006,5.006,0,0,0-5-5H10a5.006,5.006,0,0,0-5,5Zm5-9h4a2.982,2.982,0,0,1,2.262,1.051.987.987,0,0,0-.969.242,1,1,0,0,0,0,1.414L17,13.414v2.172l-.293-.293a1,1,0,0,0-1.414,1.414l1.669,1.669A2.994,2.994,0,0,1,14,21H10a2.994,2.994,0,0,1-2.962-2.624l1.669-1.669a1,1,0,0,0-1.414-1.414L7,15.586V13.414l1.707-1.707a1,1,0,0,0,0-1.414.987.987,0,0,0-.969-.242A2.982,2.982,0,0,1,10,9Z"/><path d="M12.707,15.293a1,1,0,0,0-1.414,0l-2,2a1,1,0,0,0,1.414,1.414L12,17.414l1.293,1.293a1,1,0,0,0,1.414-1.414Z"/><path d="M9.293,13.707a1,1,0,0,0,1.414,0L12,12.414l1.293,1.293a1,1,0,0,0,1.414-1.414l-2-2a1,1,0,0,0-1.414,0l-2,2A1,1,0,0,0,9.293,13.707Z"/></svg>