<svg xmlns="http://www.w3.org/2000/svg" viewBox="0 0 24 24"><path d="M16.539,5H13.156A2.682,2.682,0,0,1,16,3a1,1,0,0,0,0-2,4.686,4.686,0,0,0-4.9,4H7.461a4.279,4.279,0,0,0-3.2,1.5,5.38,5.38,0,0,0-.583,6.091l4.539,8.079A4.35,4.35,0,0,0,12,23a4.35,4.35,0,0,0,3.783-2.328l4.539-8.079A5.38,5.38,0,0,0,19.739,6.5,4.279,4.279,0,0,0,16.539,5Zm2.039,6.612C14.272,18.644,14.19,21,12,21s-2.264-2.343-6.578-9.388C4.307,9.63,5.522,7,7.461,7h9.078C18.493,7,19.684,9.646,18.578,11.612Z"/><path d="M8.707,10.707l1-1A1,1,0,0,0,8.293,8.293l-1,1a1,1,0,1,0,1.414,1.414Z"/><path d="M11.5,11a1,1,0,0,0,.707-.293l1-1a1,1,0,0,0-1.414-1.414l-1,1A1,1,0,0,0,11.5,11Z"/><path d="M15.293,8.293l-1,1a1,1,0,1,0,1.414,1.414l1-1a1,1,0,0,0-1.414-1.414Z"/><path d="M11.793,16.293l-1,1a1,1,0,1,0,1.414,1.414l1-1a1,1,0,0,0-1.414-1.414Z"/><path d="M10.707,12.293a1,1,0,0,0-1.414,0l-1,1a1,1,0,1,0,1.414,1.414l1-1A1,1,0,0,0,10.707,12.293Z"/><path d="M14.293,12.293l-1,1a1,1,0,1,0,1.414,1.414l1-1a1,1,0,0,0-1.414-1.414Z"/></svg>