<svg xmlns="http://www.w3.org/2000/svg" viewBox="0 0 24 24"><path d="M17,10.82l-3.09,1.644L15.09,17,12,14.13,8.91,17l1.18-4.536L7,10.82l3.82-.188L12,7l1.18,3.632ZM13,4V2a1,1,0,0,0-2,0V4a1,1,0,0,0,2,0ZM11,20v2a1,1,0,0,0,2,0V20a1,1,0,0,0-2,0ZM19.778,4.222a1,1,0,0,0-1.414,0L16.95,5.636A1,1,0,1,0,18.364,7.05l1.414-1.414A1,1,0,0,0,19.778,4.222ZM4.222,19.778a1,1,0,0,0,1.414,0L7.05,18.364A1,1,0,0,0,5.636,16.95L4.222,18.364A1,1,0,0,0,4.222,19.778ZM22,11H20a1,1,0,0,0,0,2h2a1,1,0,0,0,0-2ZM2,13H4a1,1,0,0,0,0-2H2a1,1,0,0,0,0,2Zm16.364,6.778a1,1,0,0,0,1.414-1.414L18.364,16.95a1,1,0,0,0-1.414,1.414ZM7.05,7.05a1,1,0,0,0,0-1.414L5.636,4.222A1,1,0,0,0,4.222,5.636L5.636,7.05a1,1,0,0,0,1.414,0Z"/></svg>