<svg xmlns="http://www.w3.org/2000/svg" viewBox="0 0 24 24"><path d="M14.4,4.317a5.216,5.216,0,0,0-1.013.108A2.689,2.689,0,0,1,16,3a1,1,0,0,0,0-2,4.638,4.638,0,0,0-4.8,3.578,5.209,5.209,0,0,0-1.6-.261C5.9,4.317,3,7.879,3,12.426,3,16.636,5.632,23,9.6,23a5.255,5.255,0,0,0,1.977-.389,1.121,1.121,0,0,1,.844,0A5.255,5.255,0,0,0,14.4,23c3.968,0,6.6-6.364,6.6-10.574C21,7.879,18.1,4.317,14.4,4.317ZM14.4,21c-1.087,0-1.333-.472-2.4-.472S10.692,21,9.6,21C7.451,21,5,16.433,5,12.426c0-4.832,3.694-7.291,6.465-5.537a1,1,0,0,0,1.07,0C15.341,5.113,19,7.657,19,12.426,19,16.433,16.549,21,14.4,21Z"/></svg>