<svg xmlns="http://www.w3.org/2000/svg" viewBox="0 0 24 24"><path d="M21,18.051V10a8.933,8.933,0,0,0-1.157-4.4c-.008-.016-.018-.028-.026-.043A8.994,8.994,0,0,0,3,10v8.051A2.5,2.5,0,0,0,3.5,23h17a2.5,2.5,0,0,0,.5-4.949ZM19,10v8H15.535l-2.9-4.356a3.98,3.98,0,0,0,2.035-5.235,10.968,10.968,0,0,1,3.72-1.262A6.957,6.957,0,0,1,19,10Zm-8,2a2,2,0,1,1,2-2A2,2,0,0,1,11,12ZM5,10A6.989,6.989,0,0,1,17.189,5.319,13,13,0,0,0,13.41,6.828,3.963,3.963,0,0,0,11,6a3.991,3.991,0,0,0-.574,7.942L13.132,18H5ZM20.5,21H3.5a.5.5,0,0,1,0-1h17a.5.5,0,0,1,0,1Z"/></svg>