<svg xmlns="http://www.w3.org/2000/svg" viewBox="0 0 24 24"><path d="M2,21a1,1,0,0,1-.707-1.707l5.961-5.961A6.475,6.475,0,0,1,6.139,8.939,8.723,8.723,0,0,1,8.721,3.612C11.842.493,16.549.123,19.213,2.787a6.617,6.617,0,0,1,1.525,6.469,1,1,0,1,1-1.933-.512A4.646,4.646,0,0,0,17.8,4.2c-1.884-1.884-5.323-1.515-7.664.825a6.731,6.731,0,0,0-2,4.094A4.371,4.371,0,0,0,9.31,12.69a3.808,3.808,0,0,0,.583.48,1,1,0,0,1-1.118,1.66c-.038-.025-.067-.06-.105-.086L2.707,20.707A1,1,0,0,1,2,21Zm21-4a6,6,0,1,1-6-6A6.006,6.006,0,0,1,23,17Zm-2,0a4,4,0,1,0-4,4A4,4,0,0,0,21,17Z"/></svg>