<svg xmlns="http://www.w3.org/2000/svg" viewBox="0 0 24 24"><path d="M3,12V22a1,1,0,0,0,1,1H20a1,1,0,0,0,1-1V12a1,1,0,0,0-.28-.694c-3.5-3.631-1.8-8.89-1.774-8.984A1,1,0,0,0,18,1H15a1,1,0,0,0-1,1,2,2,0,0,1-4,0A1,1,0,0,0,9,1H6a1,1,0,0,0-.946,1.323c.017.053,1.761,5.317-1.774,8.983A1,1,0,0,0,3,12Zm2,9V19H19v2ZM7.276,3h.851a4,4,0,0,0,7.746,0h.851A10.974,10.974,0,0,0,19,12.392V17H5V12.392A10.974,10.974,0,0,0,7.276,3ZM11,13V10.618l-.553.277a1,1,0,1,1-.894-1.79l2-1A1,1,0,0,1,13,9v4h1a1,1,0,0,1,0,2H10a1,1,0,0,1,0-2Z"/></svg>