<svg xmlns="http://www.w3.org/2000/svg" viewBox="0 0 24 24"><path d="M23,4V2a1,1,0,0,0-1-1H2A1,1,0,0,0,1,2V4A11.012,11.012,0,0,0,8.54,14.434L5.1,21.565a1,1,0,1,0,1.8.87L8.075,20h7.067A3.993,3.993,0,1,0,19,15a3.947,3.947,0,0,0-2.019.567L15.744,14.33A11.009,11.009,0,0,0,23,4ZM3.232,6H12a1,1,0,0,0,0-2H3V3H21V4H16a1,1,0,0,0,0,2h4.768A8.991,8.991,0,0,1,3.232,6ZM21,19a2,2,0,1,1-2-2A2,2,0,0,1,21,19ZM13.5,14.909l2.072,2.072A3.915,3.915,0,0,0,15.142,18H9.04l1.5-3.109A10.851,10.851,0,0,0,12,15a10.959,10.959,0,0,0,1.481-.112C13.487,14.9,13.489,14.9,13.5,14.909Z"/></svg>