<svg xmlns="http://www.w3.org/2000/svg" viewBox="0 0 24 24"><path d="M20,5h0a8.715,8.715,0,0,0-1.145-3.489,1,1,0,0,0-.869-.5H6a1,1,0,0,0-.872.51A8.8,8.8,0,0,0,4,5c-.011,2.153,1.187,4.26,3.143,7.52C8.522,14.813,7,18.306,7,19v3a1,1,0,0,0,1,1h8a1,1,0,0,0,1-1c-.011-1.239.028-3.043-.04-3.277-.532-1.844-1.262-4.369-.146-6.2C18.8,9.259,20.012,7.151,20,5ZM15,21H9V20h6Zm.105-9.52c-1.276,2.1-.92,4.558-.419,6.52H9.307c.471-1.9.817-4.4-.45-6.515C5.9,6.551,5.464,5.439,6.612,3H17.377C18.542,5.44,18.165,6.449,15.105,11.48Z"/></svg>