<svg xmlns="http://www.w3.org/2000/svg" viewBox="0 0 24 24"><path d="M18,15H6a1,1,0,0,0,0,2h.769a6.828,6.828,0,0,1,3,4.229A2.373,2.373,0,0,0,12.015,23a2.364,2.364,0,0,0,2.21-1.771,6.836,6.836,0,0,1,3-4.229H18a1,1,0,0,0,0-2Zm-5.69,5.653c-.065.214-.2.347-.326.347-.076,0-.223-.11-.295-.347A10.27,10.27,0,0,0,9.785,17h4.43A10.286,10.286,0,0,0,12.31,20.653ZM20,2a1,1,0,0,0-2,0V5.668L13.591,10H10.409L6,5.668V2A1,1,0,0,0,4,2V5.585c-.295.556-1.779,3.589-.479,5.9a3.006,3.006,0,0,0,2.833,1.394A11.024,11.024,0,0,0,10.205,12H13.8a11.024,11.024,0,0,0,3.851.883,3.006,3.006,0,0,0,2.833-1.394c1.3-2.315-.184-5.348-.479-5.9ZM5.265,10.511a3.721,3.721,0,0,1,0-2.758L8.16,10.6C6.891,10.946,5.574,11.062,5.265,10.511Zm13.47,0c-.31.552-1.624.435-2.895.084l2.891-2.842A3.726,3.726,0,0,1,18.735,10.511Z"/></svg>