<svg xmlns="http://www.w3.org/2000/svg" viewBox="0 0 24 24"><path d="M13,8H12a3.954,3.954,0,0,0-1.323.242A6,6,0,0,1,16,5a1,1,0,0,0,0-2,8.009,8.009,0,0,0-8,8v1a3.954,3.954,0,0,0,.242,1.323A6,6,0,0,1,5,8,1,1,0,0,0,3,8a8.009,8.009,0,0,0,8,8h1a3.954,3.954,0,0,0,1.323-.242A6,6,0,0,1,8,19a1,1,0,0,0,0,2,8.009,8.009,0,0,0,8-8V12a3.954,3.954,0,0,0-.242-1.323A6,6,0,0,1,19,16a1,1,0,0,0,2,0A8.009,8.009,0,0,0,13,8Zm-1,6a2,2,0,1,1,2-2A2,2,0,0,1,12,14Zm9,6.5A1.5,1.5,0,1,1,19.5,19,1.5,1.5,0,0,1,21,20.5Zm0-17A1.5,1.5,0,1,1,19.5,2,1.5,1.5,0,0,1,21,3.5ZM3,3.5A1.5,1.5,0,1,1,4.5,5,1.5,1.5,0,0,1,3,3.5Zm3,17A1.5,1.5,0,1,1,4.5,19,1.5,1.5,0,0,1,6,20.5Z"/></svg>