<svg xmlns="http://www.w3.org/2000/svg" viewBox="0 0 24 24"><path d="M22.371,4.034A14.393,14.393,0,0,0,12,3.892a14.393,14.393,0,0,0-10.371.142A1,1,0,0,0,1,4.963V20a1,1,0,0,0,1.371.929,12.4,12.4,0,0,1,9.258,0,1.018,1.018,0,0,0,.348.066c.008,0,.015,0,.023,0s.015,0,.023,0a1.018,1.018,0,0,0,.348-.066,12.4,12.4,0,0,1,9.258,0,1,1,0,0,0,.932-.1A1,1,0,0,0,23,20V4.963A1,1,0,0,0,22.371,4.034ZM11,18.609A14.284,14.284,0,0,0,3,18.6V5.659a12.385,12.385,0,0,1,8,.013ZM21,18.6a14.375,14.375,0,0,0-8,0V5.672a12.385,12.385,0,0,1,8-.013Z"/></svg>