<svg xmlns="http://www.w3.org/2000/svg" viewBox="0 0 24 24"><path d="M14,23h4a1,1,0,0,0,.707-.293A9.732,9.732,0,0,0,21,16a10.19,10.19,0,0,0-1.368-5.208A3.951,3.951,0,0,1,19,9a8.342,8.342,0,0,1,.351-1.655c.442-1.635.993-3.669-.083-5.076A3.881,3.881,0,0,0,16,1a3.881,3.881,0,0,0-3.268,1.269c-1.076,1.407-.525,3.441-.083,5.076A8.342,8.342,0,0,1,13,9a3.951,3.951,0,0,1-.632,1.792A10.19,10.19,0,0,0,11,16a9.732,9.732,0,0,0,2.293,6.707A1,1,0,0,0,14,23Zm.32-19.516A2.269,2.269,0,0,1,16,3a2.269,2.269,0,0,1,1.68.484c.475.622.05,2.192-.26,3.338L17.373,7H14.627l-.047-.178C14.27,5.676,13.845,4.106,14.32,3.484Zm-.178,8.234A5.711,5.711,0,0,0,15,9h2a5.711,5.711,0,0,0,.858,2.718A8.2,8.2,0,0,1,19,16a8.3,8.3,0,0,1-1.466,5H14.466A8.3,8.3,0,0,1,13,16,8.2,8.2,0,0,1,14.142,11.718ZM10.554,8.83a7.674,7.674,0,0,0-.3,1.47,2.828,2.828,0,0,0,.383,1.258,1,1,0,0,1-1.793.884A4.7,4.7,0,0,1,8.25,10.3a8.467,8.467,0,0,1,.37-1.98c.269-1.021.638-2.422.236-2.941A1.778,1.778,0,0,0,7.5,5a1.778,1.778,0,0,0-1.356.379c-.4.519-.033,1.92.236,2.941a8.467,8.467,0,0,1,.37,1.98,5.291,5.291,0,0,1-.761,2.482A7.4,7.4,0,0,0,5,16.6,7.609,7.609,0,0,0,6.229,21H9.25a1,1,0,0,1,0,2H5.75a1,1,0,0,1-.717-.3A8.99,8.99,0,0,1,3,16.6a9.445,9.445,0,0,1,1.206-4.724A3.565,3.565,0,0,0,4.75,10.3a7.674,7.674,0,0,0-.3-1.47c-.395-1.5-.888-3.373.114-4.673A3.5,3.5,0,0,1,7.5,3a3.5,3.5,0,0,1,2.94,1.157C11.442,5.457,10.949,7.327,10.554,8.83Z"/></svg>