<svg xmlns="http://www.w3.org/2000/svg" viewBox="0 0 24 24"><path d="M19,5c-2.321,0-4.025,2.127-5,3.779a2.952,2.952,0,0,0-4,0C9.025,7.127,7.32,5,5,5A3.718,3.718,0,0,0,1.48,7.053,4.711,4.711,0,0,0,1,9a6.549,6.549,0,0,0,.753,3A6.549,6.549,0,0,0,1,15a4.711,4.711,0,0,0,.48,1.947A3.718,3.718,0,0,0,5,19c2.32,0,4.025-2.127,5-3.779a2.952,2.952,0,0,0,4,0C14.975,16.873,16.679,19,19,19a3.888,3.888,0,0,0,4-4,6.549,6.549,0,0,0-.753-3A6.549,6.549,0,0,0,23,9,3.888,3.888,0,0,0,19,5ZM5,17a1.881,1.881,0,0,1-2-2,3.927,3.927,0,0,1,.707-2.3,1,1,0,0,0,0-1.414A3.918,3.918,0,0,1,3,9.008,1.884,1.884,0,0,1,5,7c1.71,0,3.288,2.657,3.909,4H7a1,1,0,0,0,0,2H8.909C8.288,14.343,6.71,17,5,17Zm7-3a1,1,0,0,1-1-1V11a1,1,0,0,1,2,0v2A1,1,0,0,1,12,14Zm8.293-1.293A3.918,3.918,0,0,1,21,14.992,1.885,1.885,0,0,1,19,17c-1.711,0-3.288-2.657-3.909-4H17a1,1,0,0,0,0-2H15.091c.621-1.343,2.2-4,3.909-4a1.882,1.882,0,0,1,2,2,3.927,3.927,0,0,1-.707,2.3A1,1,0,0,0,20.293,12.707Z"/></svg>