<svg xmlns="http://www.w3.org/2000/svg" viewBox="0 0 24 24"><path d="M2.343,18.741c.272.242.109.11,9.341,3.208a1,1,0,0,0,.632,0C21,19,21.284,19.073,21.658,18.741a1.143,1.143,0,0,0,.271-.387A1,1,0,0,0,22,18V6a1,1,0,0,0-.071-.354,1.143,1.143,0,0,0-.271-.387c-.363-.322-.567-.24-9.342-3.208a1,1,0,0,0-.632,0C8.9,2.984,2.785,5,2.542,5.125a.951.951,0,0,0-.2.134,1.157,1.157,0,0,0-.272.387A1,1,0,0,0,2,6V18a1,1,0,0,0,.071.354A1.148,1.148,0,0,0,2.343,18.741ZM20,16.612l-3.684-1.227a1,1,0,0,0-.632,1.9L17.838,18,13,19.612V9.721l7-2.333ZM12,4.054,17.838,6,12,7.946,6.162,6ZM4,7.388l7,2.333v9.891L6.162,18l2.154-.718a1,1,0,0,0-.632-1.9L4,16.612Z"/></svg>