<svg xmlns="http://www.w3.org/2000/svg" viewBox="0 0 24 24"><path d="M17.02,3.34A9.8,9.8,0,0,0,12,2,9.8,9.8,0,0,0,6.98,3.34,9.929,9.929,0,0,0,3.34,6.98,9.8,9.8,0,0,0,2,12a9.8,9.8,0,0,0,1.34,5.02,9.929,9.929,0,0,0,3.64,3.64A9.8,9.8,0,0,0,12,22a9.8,9.8,0,0,0,5.02-1.34,9.929,9.929,0,0,0,3.64-3.64A9.8,9.8,0,0,0,22,12a9.8,9.8,0,0,0-1.34-5.02A9.929,9.929,0,0,0,17.02,3.34ZM12,3.66a8.108,8.108,0,0,1,5.32,1.92,9.966,9.966,0,0,1-4.1,2.9A21.266,21.266,0,0,0,9.96,3.94,7.663,7.663,0,0,1,12,3.66ZM5.51,6.8A8.111,8.111,0,0,1,8.22,4.58a20.252,20.252,0,0,1,3.34,4.5,21.948,21.948,0,0,1-6.34.9q-.859,0-1.3-.04A8.549,8.549,0,0,1,5.51,6.8ZM3.66,12c0-.053,0-.12.01-.2s.01-.147.01-.2q.379.019,1.16.02a24.308,24.308,0,0,0,7.44-1.1q.281.56.58,1.26A9.944,9.944,0,0,0,8.8,13.92,11.441,11.441,0,0,0,5.76,17.5,8.065,8.065,0,0,1,3.66,12ZM12,20.34a8.089,8.089,0,0,1-5.1-1.76,11.336,11.336,0,0,1,2.77-3.4,8.533,8.533,0,0,1,3.71-2.02,29.4,29.4,0,0,1,1.56,6.62A8.158,8.158,0,0,1,12,20.34Zm7.08-3.96A8.348,8.348,0,0,1,16.5,19a28.7,28.7,0,0,0-1.38-6.08q1.4-.1,2.5-.1,1.2,0,2.66.1A8.071,8.071,0,0,1,19.08,16.38Zm-1.24-5q-1.74,0-3.22.14-.379-.979-.68-1.62a9.9,9.9,0,0,0,4.4-3.3,8.032,8.032,0,0,1,1.96,4.84Q19.08,11.38,17.84,11.38Z"/></svg>