<svg xmlns="http://www.w3.org/2000/svg" viewBox="0 0 24 24"><path d="M14.667,12A2.667,2.667,0,1,1,12,9.333,2.667,2.667,0,0,1,14.667,12Zm3.846-3.233c.039.844.047,1.1.047,3.233s-.008,2.389-.047,3.233a4.46,4.46,0,0,1-.275,1.486,2.657,2.657,0,0,1-1.519,1.518,4.454,4.454,0,0,1-1.486.275c-.843.039-1.1.046-3.233.046s-2.389-.007-3.232-.046a4.46,4.46,0,0,1-1.486-.275,2.652,2.652,0,0,1-1.518-1.518,4.407,4.407,0,0,1-.275-1.486c-.039-.843-.047-1.1-.047-3.233s.008-2.389.047-3.233a4.439,4.439,0,0,1,.275-1.486A2.644,2.644,0,0,1,7.282,5.763a4.407,4.407,0,0,1,1.486-.275c.843-.039,1.1-.047,3.232-.047s2.389.009,3.233.047a4.433,4.433,0,0,1,1.486.275,2.649,2.649,0,0,1,1.519,1.518A4.407,4.407,0,0,1,18.513,8.767ZM16.108,12A4.108,4.108,0,1,0,12,16.108,4.108,4.108,0,0,0,16.108,12Zm1.123-4.27a.96.96,0,0,0-.96-.96h0a.96.96,0,1,0,.96.96ZM22,3V21a1,1,0,0,1-1,1H3a1,1,0,0,1-1-1V3A1,1,0,0,1,3,2H21A1,1,0,0,1,22,3Zm-2,9c0-2.173-.009-2.445-.048-3.3a5.891,5.891,0,0,0-.371-1.942,4.094,4.094,0,0,0-2.34-2.34A5.873,5.873,0,0,0,15.3,4.048C14.446,4.01,14.174,4,12,4s-2.446.009-3.3.048A5.862,5.862,0,0,0,6.76,4.42,4.094,4.094,0,0,0,4.42,6.76,5.862,5.862,0,0,0,4.048,8.7C4.009,9.555,4,9.827,4,12s.009,2.445.048,3.3A5.862,5.862,0,0,0,4.42,17.24a4.094,4.094,0,0,0,2.34,2.34,5.868,5.868,0,0,0,1.942.372C9.555,19.99,9.828,20,12,20s2.446-.009,3.3-.048a5.873,5.873,0,0,0,1.942-.372,4.094,4.094,0,0,0,2.34-2.34,5.865,5.865,0,0,0,.371-1.942C19.991,14.445,20,14.172,20,12Z"/></svg>