<svg xmlns="http://www.w3.org/2000/svg" viewBox="0 0 24 24"><path d="M12,6.865A5.135,5.135,0,1,0,17.135,12,5.135,5.135,0,0,0,12,6.865Zm0,8.469A3.334,3.334,0,1,1,15.334,12,3.334,3.334,0,0,1,12,15.334Zm6.539-8.672a1.2,1.2,0,1,1-1.2-1.2h0A1.2,1.2,0,0,1,18.539,6.662ZM21.476,5.45a4.917,4.917,0,0,0-1.154-1.772,4.894,4.894,0,0,0-1.77-1.153,7.318,7.318,0,0,0-2.428-.464C15.058,2.012,14.717,2,12,2s-3.057.011-4.124.061a7.326,7.326,0,0,0-2.427.464A4.9,4.9,0,0,0,3.679,3.678,4.882,4.882,0,0,0,2.525,5.45a7.332,7.332,0,0,0-.464,2.427C2.011,8.943,2,9.284,2,12s.011,3.057.061,4.123a7.332,7.332,0,0,0,.464,2.427,4.882,4.882,0,0,0,1.154,1.772A4.915,4.915,0,0,0,5.45,21.475a7.337,7.337,0,0,0,2.427.464C8.944,21.988,9.285,22,12,22s3.057-.011,4.123-.061a7.333,7.333,0,0,0,2.428-.464,5.113,5.113,0,0,0,2.925-2.925,7.306,7.306,0,0,0,.464-2.427c.049-1.067.06-1.407.06-4.123s-.011-3.057-.06-4.123A7.326,7.326,0,0,0,21.476,5.45ZM20.141,16.041A5.52,5.52,0,0,1,19.8,17.9a3.31,3.31,0,0,1-1.9,1.9,5.546,5.546,0,0,1-1.857.344c-1.054.048-1.371.058-4.042.058s-2.986-.01-4.04-.058A5.546,5.546,0,0,1,6.1,19.8a3.1,3.1,0,0,1-1.15-.748,3.092,3.092,0,0,1-.748-1.15,5.494,5.494,0,0,1-.344-1.857C3.812,14.987,3.8,14.671,3.8,12s.01-2.986.058-4.041A5.552,5.552,0,0,1,4.205,6.1a3.1,3.1,0,0,1,.748-1.15A3.072,3.072,0,0,1,6.1,4.2,5.494,5.494,0,0,1,7.96,3.86C9.014,3.811,9.331,3.8,12,3.8s2.987.011,4.042.059A5.552,5.552,0,0,1,17.9,4.2a3.31,3.31,0,0,1,1.9,1.9,5.494,5.494,0,0,1,.344,1.857C20.19,9.014,20.2,9.33,20.2,12S20.19,14.986,20.141,16.041Z"/></svg>