<svg xmlns="http://www.w3.org/2000/svg" viewBox="0 0 24 24"><path d="M12,2.772c-5.523,0-10,3.53-10,7.885,0,2.815,1.872,5.285,4.687,6.68-.153.528-.984,3.4-1.017,3.624,0,0-.02.169.09.234A.3.3,0,0,0,6,21.209c.315-.043,3.649-2.385,4.226-2.792A12.608,12.608,0,0,0,12,18.541c5.523,0,10-3.53,10-7.884S17.523,2.772,12,2.772ZM7.048,12.858a.578.578,0,0,1-1.154,0V9.431h-.9a.565.565,0,1,1,0-1.13H7.948a.565.565,0,1,1,0,1.13h-.9Zm4.849.464a.875.875,0,0,1-.367.079.472.472,0,0,1-.48-.254l-.286-.748H9.005l-.286.748a.472.472,0,0,1-.48.254.874.874,0,0,1-.366-.079c-.159-.074-.312-.275-.137-.819L9.116,8.87a.8.8,0,0,1,1.538,0L12.033,12.5C12.209,13.047,12.056,13.249,11.9,13.322Zm2.916,0H12.962a.542.542,0,0,1-.553-.529V8.878a.589.589,0,0,1,1.178,0v3.389h1.226a.529.529,0,1,1,0,1.058Zm4.292-.054a.566.566,0,0,1-.347.116.573.573,0,0,1-.461-.229l-1.353-1.793-.2.2v1.259a.577.577,0,0,1-1.154,0V8.878a.577.577,0,0,1,1.154,0v1.24l1.609-1.61a.448.448,0,0,1,.32-.128.584.584,0,0,1,.567.536.451.451,0,0,1-.127.351L17.8,10.582l1.42,1.881a.577.577,0,0,1-.113.808ZM9.885,9.74l.576,1.637H9.308Z"/></svg>