<svg xmlns="http://www.w3.org/2000/svg" viewBox="0 0 24 24"><path d="M14.734,12.957a.44.44,0,0,1-.449.43h-1.5a.441.441,0,0,1-.449-.43V9.773a.479.479,0,0,1,.957,0v2.754h1A.44.44,0,0,1,14.734,12.957Zm-2.707-.239c.143.443.018.607-.111.666a.711.711,0,0,1-.3.065.384.384,0,0,1-.39-.207L11,12.634H9.567l-.233.608a.383.383,0,0,1-.39.207.718.718,0,0,1-.3-.065c-.129-.059-.253-.223-.111-.665L9.657,9.767a.653.653,0,0,1,1.249,0ZM10.749,11.8l-.468-1.33L9.813,11.8ZM9.168,9.764a.46.46,0,0,0-.46-.459h-2.4a.459.459,0,1,0,0,.918h.731v2.784a.469.469,0,0,0,.938,0V10.223h.731A.46.46,0,0,0,9.168,9.764Zm7.543,1.394,1.068-1.068a.367.367,0,0,0,.1-.286.472.472,0,0,0-.46-.435.365.365,0,0,0-.26.1l-1.308,1.308V9.773a.469.469,0,0,0-.937,0V12.98a.469.469,0,1,0,.937,0V11.957l.163-.162,1.1,1.456a.469.469,0,0,0,.749-.565ZM22,3V21a1,1,0,0,1-1,1H3a1,1,0,0,1-1-1V3A1,1,0,0,1,3,2H21A1,1,0,0,1,22,3Zm-1.875,8.219c0-3.538-3.638-6.406-8.125-6.406S3.875,7.681,3.875,11.219a6.249,6.249,0,0,0,3.808,5.428c-.124.429-.8,2.761-.826,2.944,0,0-.016.138.073.19a.243.243,0,0,0,.194.012c.255-.036,2.964-1.938,3.433-2.269a10.192,10.192,0,0,0,1.443.1C16.487,17.625,20.125,14.757,20.125,11.219Z"/></svg>