<svg xmlns="http://www.w3.org/2000/svg" viewBox="0 0 24 24"><path d="M14.158,9.842V12.68a.378.378,0,0,1-.111.268h0a.269.269,0,0,1-.093.069.383.383,0,0,1-.179.045h-.032a.391.391,0,0,1-.145-.029.329.329,0,0,1-.149-.11h0c-.01-.012-.019-.025-.028-.038l-1.393-1.9v1.7a.384.384,0,0,1-.383.383h-.032a.383.383,0,0,1-.382-.383V9.842a.383.383,0,0,1,.382-.383h.032a.383.383,0,0,1,.333.194l1.383,1.855V9.842a.383.383,0,0,1,.382-.383h.032A.384.384,0,0,1,14.158,9.842Zm-3.849-.383h-.032a.383.383,0,0,0-.382.383V12.68a.384.384,0,0,0,.382.383h.032a.384.384,0,0,0,.383-.383V9.842A.384.384,0,0,0,10.309,9.459ZM9.2,12.265H8.138V9.842a.384.384,0,0,0-.383-.383H7.723a.383.383,0,0,0-.382.383V12.68a.384.384,0,0,0,.382.383H9.2a.384.384,0,0,0,.383-.383v-.032A.384.384,0,0,0,9.2,12.265ZM22,3V21a1,1,0,0,1-1,1H3a1,1,0,0,1-1-1V3A1,1,0,0,1,3,2H21A1,1,0,0,1,22,3Zm-2.682,8.189c0-3.245-3.285-5.876-7.337-5.876S4.643,7.944,4.643,11.189c0,2.892,2.61,5.3,6.047,5.785h0l.244.031c1.17.243.156,1.708.539,2.007.441.345,3.78-1.888,5.81-3.764a6.385,6.385,0,0,0,.8-.8l0,0a1.766,1.766,0,0,0,.136-.17A5.024,5.024,0,0,0,19.318,11.189ZM16.511,9.466h-1.48a.384.384,0,0,0-.383.383v2.838a.383.383,0,0,0,.383.382h1.48a.383.383,0,0,0,.382-.382v-.032a.383.383,0,0,0-.382-.383H15.445v-.606h1.066a.383.383,0,0,0,.382-.382v-.032a.383.383,0,0,0-.382-.383H15.445v-.606h1.066a.383.383,0,0,0,.382-.383V9.849A.383.383,0,0,0,16.511,9.466Z"/></svg>