<svg xmlns="http://www.w3.org/2000/svg" viewBox="0 0 24 24"><path d="M12,2.641c-5.523,0-10,3.585-10,8.007,0,3.942,3.557,7.219,8.242,7.884h0c.11.015.221.029.332.042,1.595.332.212,2.328.735,2.736.6.47,5.152-2.574,7.918-5.13A8.638,8.638,0,0,0,20.316,15.1l.006-.006a2.071,2.071,0,0,0,.185-.232A6.844,6.844,0,0,0,22,10.648C22,6.226,17.523,2.641,12,2.641ZM8.736,12.681a.522.522,0,0,1-.521.521H6.2a.523.523,0,0,1-.522-.521V8.813A.524.524,0,0,1,6.2,8.291h.043a.524.524,0,0,1,.522.522v3.3H8.215a.522.522,0,0,1,.521.521Zm1.508,0a.523.523,0,0,1-.522.521H9.679a.523.523,0,0,1-.522-.521V8.813a.524.524,0,0,1,.522-.522h.043a.524.524,0,0,1,.522.522Zm4.724,0a.524.524,0,0,1-.151.366h0a.354.354,0,0,1-.127.094.508.508,0,0,1-.244.061H14.4a.52.52,0,0,1-.2-.039.431.431,0,0,1-.2-.15h0a.5.5,0,0,1-.039-.052l-1.9-2.593v2.313a.523.523,0,0,1-.522.521H11.5a.523.523,0,0,1-.522-.521V8.813a.524.524,0,0,1,.522-.522h.043A.524.524,0,0,1,12,8.555l1.885,2.528V8.813a.524.524,0,0,1,.522-.522h.043a.524.524,0,0,1,.522.522ZM18.7,8.865a.523.523,0,0,1-.521.522H16.722v.826h1.452a.522.522,0,0,1,.521.521v.044a.522.522,0,0,1-.521.521H16.722v.826h1.452a.523.523,0,0,1,.521.521v.044a.523.523,0,0,1-.521.522H16.157a.524.524,0,0,1-.522-.522V8.822a.524.524,0,0,1,.522-.522h2.017a.523.523,0,0,1,.521.522Z"/></svg>