<svg xmlns="http://www.w3.org/2000/svg" viewBox="0 0 24 24"><path d="M21,2H3A1,1,0,0,0,2,3V21a1,1,0,0,0,1,1H21a1,1,0,0,0,1-1V3A1,1,0,0,0,21,2ZM19.3,15.931c-.128.3-.774.547-1.868.716-.1.016-.146.182-.2.454-.024.112-.049.222-.083.337a.2.2,0,0,1-.217.162h-.017a1.729,1.729,0,0,1-.311-.039,4.087,4.087,0,0,0-.82-.087,3.649,3.649,0,0,0-.592.05,2.829,2.829,0,0,0-1.123.574,3.256,3.256,0,0,1-1.97.776c-.042,0-.081,0-.112,0s-.048,0-.073,0A3.25,3.25,0,0,1,9.937,18.1a2.853,2.853,0,0,0-1.124-.574,3.649,3.649,0,0,0-.592-.05,4.056,4.056,0,0,0-.82.093,1.808,1.808,0,0,1-.311.044.214.214,0,0,1-.234-.167c-.035-.117-.059-.231-.083-.34-.06-.273-.1-.44-.205-.456-1.094-.168-1.74-.417-1.869-.718a.3.3,0,0,1-.023-.095.176.176,0,0,1,.147-.183,3.818,3.818,0,0,0,2.3-1.365A5.1,5.1,0,0,0,7.9,13.07l0-.008A.781.781,0,0,0,7.98,12.4c-.141-.332-.607-.48-.916-.578-.077-.024-.15-.047-.207-.07-.274-.108-.724-.337-.664-.652a.609.609,0,0,1,.593-.39.422.422,0,0,1,.18.036,1.8,1.8,0,0,0,.742.2.62.62,0,0,0,.428-.131c-.008-.143-.017-.293-.026-.436v0a7.392,7.392,0,0,1,.177-2.951,3.837,3.837,0,0,1,3.562-2.3l.259,0h.036a3.843,3.843,0,0,1,3.568,2.3,7.412,7.412,0,0,1,.176,2.955l0,.047c-.008.136-.016.264-.023.389a.6.6,0,0,0,.388.13,1.865,1.865,0,0,0,.7-.2.548.548,0,0,1,.229-.046.7.7,0,0,1,.261.05l0,0a.484.484,0,0,1,.367.4c0,.153-.11.381-.669.6-.057.022-.13.046-.207.07-.309.1-.776.246-.916.578a.782.782,0,0,0,.074.657l0,.009a4.525,4.525,0,0,0,3.079,2.582.174.174,0,0,1,.146.183A.259.259,0,0,1,19.3,15.931Z"/></svg>