<svg xmlns="http://www.w3.org/2000/svg" viewBox="0 0 24 24"><path d="M21,2H3A1,1,0,0,0,2,3V21a1,1,0,0,0,1,1H21a1,1,0,0,0,1-1V3A1,1,0,0,0,21,2ZM5.094,14.844a.652.652,0,0,1-.093.4.518.518,0,0,1-.323.163.589.589,0,0,1-.462-.108A.514.514,0,0,1,4,14.844V12.685a.531.531,0,0,1,.16-.391.523.523,0,0,1,.384-.16.546.546,0,0,1,.55.551Zm1.713.923a.37.37,0,0,1-.153.324.674.674,0,0,1-.4.108.662.662,0,0,1-.391-.108.37.37,0,0,1-.153-.324V10.734a.546.546,0,0,1,.544-.543.531.531,0,0,1,.391.16.521.521,0,0,1,.16.383Zm1.712.239a.371.371,0,0,1-.152.323.662.662,0,0,1-.391.108.691.691,0,0,1-.4-.108.368.368,0,0,1-.157-.323V11.412a.56.56,0,0,1,.559-.559.516.516,0,0,1,.383.164.543.543,0,0,1,.16.4Zm1.713.022q0,.41-.551.409c-.368,0-.551-.136-.551-.409V8.583a.7.7,0,0,1,.238-.566.536.536,0,0,1,.484-.142q.38.082.38.708Zm9.027-.328a2.427,2.427,0,0,1-1.776.737l-6.477-.007a.171.171,0,0,1-.1-.082.214.214,0,0,1-.034-.1h0v-8.1q0-.387.231-.461a4.218,4.218,0,0,1,.99-.119,4.413,4.413,0,0,1,4.415,4.042,2.525,2.525,0,0,1,2.751.544,2.5,2.5,0,0,1,0,3.551Z"/></svg>