<svg xmlns="http://www.w3.org/2000/svg" viewBox="0 0 24 24"><path d="M3.168,12.368a.665.665,0,0,1,.2.488v2.7a.814.814,0,0,1-.116.493.649.649,0,0,1-.4.205.739.739,0,0,1-.577-.135A.645.645,0,0,1,2,15.555v-2.7a.665.665,0,0,1,.2-.488.651.651,0,0,1,.479-.2A.662.662,0,0,1,3.168,12.368ZM4.82,9.738a.685.685,0,0,0-.679.68v6.291a.463.463,0,0,0,.19.405.826.826,0,0,0,.489.135.843.843,0,0,0,.5-.135.464.464,0,0,0,.191-.405V10.418a.654.654,0,0,0-.2-.479A.666.666,0,0,0,4.82,9.738Zm14.025,1.527a3.044,3.044,0,0,0-1.21.242,5.522,5.522,0,0,0-5.519-5.054,5.321,5.321,0,0,0-1.237.149c-.193.062-.289.255-.289.577V17.305a.275.275,0,0,0,.042.13.214.214,0,0,0,.126.1l8.1.01A3.155,3.155,0,0,0,22,14.4a3.014,3.014,0,0,0-.926-2.215A3.046,3.046,0,0,0,18.845,11.265Zm-11.875-.7a.7.7,0,0,0-.7.7v5.742h0a.46.46,0,0,0,.195.4.866.866,0,0,0,.5.135.825.825,0,0,0,.488-.135.462.462,0,0,0,.191-.4V11.265a.683.683,0,0,0-.2-.494A.647.647,0,0,0,6.97,10.567ZM9.315,6.844a.665.665,0,0,0-.6.177.875.875,0,0,0-.3.707v9.307q0,.512.689.512t.689-.512V7.728Q9.79,6.947,9.315,6.844Z"/></svg>