<svg xmlns="http://www.w3.org/2000/svg" viewBox="0 0 24 24"><path d="M4.815,7.8H9.6a1.8,1.8,0,0,1,0,3.6H4.814a1.8,1.8,0,0,1,0-3.6Zm2.993-3a1.8,1.8,0,0,0,1.8,1.8h1.8V4.8a1.8,1.8,0,1,0-3.594,0Zm11.377,3a1.8,1.8,0,0,0-1.8,1.8v1.8h1.8a1.8,1.8,0,0,0,0-3.6ZM16.192,9.6V4.8a1.8,1.8,0,1,0-3.593,0V9.6a1.8,1.8,0,1,0,3.593,0Zm4.79,4.8a1.8,1.8,0,0,0-1.8-1.8H14.4a1.8,1.8,0,0,0,0,3.6h4.79A1.8,1.8,0,0,0,20.982,14.4Zm-8.384,3v1.8a1.8,1.8,0,1,0,1.8-1.8Zm-4.79-3v4.8a1.8,1.8,0,1,0,3.593,0V14.4a1.8,1.8,0,1,0-3.593,0Zm-4.79,0a1.8,1.8,0,1,0,3.593,0V12.6h-1.8A1.8,1.8,0,0,0,3.018,14.4Z"/></svg>