<svg xmlns="http://www.w3.org/2000/svg" viewBox="0 0 24 24"><path d="M21,2H3A1,1,0,0,0,2,3V21a1,1,0,0,0,1,1H21a1,1,0,0,0,1-1V3A1,1,0,0,0,21,2ZM12.532,5.6a1.6,1.6,0,1,1,3.194,0V9.866a1.6,1.6,0,1,1-3.194,0ZM7.21,14.133a1.6,1.6,0,1,1-1.6-1.6h1.6ZM11.468,18.4a1.6,1.6,0,1,1-3.194,0V14.133a1.6,1.6,0,1,1,3.194,0Zm-1.6-6.933H5.612a1.6,1.6,0,0,1,0-3.2H9.871a1.6,1.6,0,0,1,0,3.2Zm1.6-4.268h-1.6a1.6,1.6,0,1,1,1.6-1.6ZM14.129,20a1.6,1.6,0,0,1-1.6-1.6V16.8h1.6a1.6,1.6,0,0,1,0,3.2Zm4.258-4.267H14.129a1.6,1.6,0,0,1,0-3.2h4.259a1.6,1.6,0,0,1,0,3.2Zm0-4.266h-1.6v-1.6a1.6,1.6,0,1,1,1.6,1.6Z"/></svg>