<svg xmlns="http://www.w3.org/2000/svg" viewBox="0 0 24 24"><path d="M19.643,6.442A8.2,8.2,0,0,0,22,5.8a8.375,8.375,0,0,1-2.05,2.127c.009.176.013.352.013.53A11.594,11.594,0,0,1,8.289,20.127,11.614,11.614,0,0,1,2,18.283a8.329,8.329,0,0,0,.979.058,8.228,8.228,0,0,0,5.1-1.757,4.107,4.107,0,0,1-3.832-2.849,4.186,4.186,0,0,0,.773.072A4.1,4.1,0,0,0,6.1,13.664,4.105,4.105,0,0,1,2.805,9.641V9.589a4.077,4.077,0,0,0,1.858.513A4.107,4.107,0,0,1,3.394,4.624,11.646,11.646,0,0,0,11.85,8.911a4.181,4.181,0,0,1-.105-.935,4.1,4.1,0,0,1,7.1-2.808,8.2,8.2,0,0,0,2.606-1A4.115,4.115,0,0,1,19.643,6.442Z"/></svg>