<svg xmlns="http://www.w3.org/2000/svg" viewBox="0 0 24 24"><path d="M21,2H3A1,1,0,0,0,2,3V21a1,1,0,0,0,1,1H21a1,1,0,0,0,1-1V3A1,1,0,0,0,21,2Zm-4.723,9.855c-.346,2.168-.722,4.538-.722,4.538s-.058.665-.549.78a2.369,2.369,0,0,1-1.445-.52c-.116-.087-2.168-1.387-2.919-2.023a.547.547,0,0,1,.029-.925c1.04-.954,2.283-2.139,3.034-2.89.347-.347.694-1.156-.751-.173-2.052,1.416-4.075,2.745-4.075,2.745a1.7,1.7,0,0,1-1.33.029c-.867-.26-1.878-.607-1.878-.607s-.694-.433.491-.9c0,0,5-2.052,6.734-2.774.665-.289,2.919-1.214,2.919-1.214s1.041-.405.954.578C16.74,8.908,16.509,10.324,16.277,11.855Z"/></svg>