<svg xmlns="http://www.w3.org/2000/svg" viewBox="0 0 24 24"><path d="M21,2H3A1,1,0,0,0,2,3V21a1,1,0,0,0,1,1H21a1,1,0,0,0,1-1V3A1,1,0,0,0,21,2ZM17.1,9.386c.005.113.008.226.008.34a7.481,7.481,0,0,1-11.518,6.3,5.216,5.216,0,0,0,.628.038,5.276,5.276,0,0,0,3.267-1.127,2.633,2.633,0,0,1-2.457-1.826,2.689,2.689,0,0,0,.5.046,2.64,2.64,0,0,0,.693-.092,2.633,2.633,0,0,1-2.11-2.58v-.033a2.621,2.621,0,0,0,1.192.329,2.631,2.631,0,0,1-.814-3.512A7.471,7.471,0,0,0,11.9,10.02a2.632,2.632,0,0,1,4.483-2.4,5.265,5.265,0,0,0,1.671-.639A2.642,2.642,0,0,1,16.9,8.437a5.276,5.276,0,0,0,1.511-.415A5.376,5.376,0,0,1,17.1,9.386Z"/></svg>