<svg xmlns="http://www.w3.org/2000/svg" viewBox="0 0 24 24"><path d="M8.016,12.271A4.818,4.818,0,0,1,7,9.709a2.777,2.777,0,0,1,.867-2.066.911.911,0,0,1,.661-.31c.165,0,.33,0,.475.009s.356-.058.557.425.7,1.715.764,1.839a.453.453,0,0,1,.02.433,1.694,1.694,0,0,1-.247.414c-.124.144-.261.323-.372.433s-.253.258-.109.506A7.474,7.474,0,0,0,11,13.107a6.778,6.778,0,0,0,1.992,1.229c.248.124.393.1.537-.062s.619-.723.784-.971.331-.206.558-.124,1.445.682,1.692.806.413.186.475.289a2.072,2.072,0,0,1-.144,1.178,2.553,2.553,0,0,1-1.672,1.177,3.389,3.389,0,0,1-1.561-.1,14.282,14.282,0,0,1-1.412-.521A11.043,11.043,0,0,1,8.016,12.271ZM2.045,22l1.406-5.136a9.914,9.914,0,1,1,8.591,4.964h0A9.918,9.918,0,0,1,7.3,20.622ZM3.8,11.91a8.217,8.217,0,0,0,1.259,4.384l.2.312-.832,3.04,3.119-.818.3.178a8.223,8.223,0,0,0,4.194,1.148h0A8.24,8.24,0,1,0,3.8,11.91Z"/></svg>