<svg xmlns="http://www.w3.org/2000/svg" viewBox="0 0 24 24"><path d="M20.193,4.692a10.6,10.6,0,0,0-1.537-.184,144.742,144.742,0,0,0-14.639.14A2.65,2.65,0,0,0,1.4,7.029a31.321,31.321,0,0,0-.284,7.749c.162,1.831.316,4.014,2.5,4.459a23.569,23.569,0,0,0,4.359.27l4.513.082c.008,0,.022,0,.022.011,2.513.047,4.962-.1,7.469-.283,2-.14,2.474-1.592,2.722-3.322a28.278,28.278,0,0,0,.215-6.309C22.753,7.6,22.692,5.13,20.193,4.692ZM9.834,15.208V8.752c1.878,1.078,3.727,2.144,5.619,3.228C13.575,13.058,11.723,14.124,9.834,15.208Z"/></svg>