<svg xmlns="http://www.w3.org/2000/svg" viewBox="0 0 24 24"><path d="M4,23H20a1,1,0,0,0,1-1V12.635a3.09,3.09,0,0,0-2-2.9V8.451a4,4,0,0,0,1.986-3.79A4.108,4.108,0,0,0,16.845,1H7.155A4.108,4.108,0,0,0,3.014,4.661,4,4,0,0,0,5,8.451V9.735a3.09,3.09,0,0,0-2,2.9V22A1,1,0,0,0,4,23ZM5.007,4.827A2.1,2.1,0,0,1,7.155,3h9.69a2.1,2.1,0,0,1,2.148,1.827,1.977,1.977,0,0,1-1.328,2.047A1,1,0,0,0,17,7.816V9.353a35.637,35.637,0,0,0-10,0V7.816a1,1,0,0,0-.665-.942A1.977,1.977,0,0,1,5.007,4.827ZM5,12.635a1.081,1.081,0,0,1,.87-1.074,33.639,33.639,0,0,1,12.26,0A1.081,1.081,0,0,1,19,12.635V21H5ZM9,14v4a1,1,0,0,1-2,0V14a1,1,0,0,1,2,0Z"/></svg>