<svg xmlns="http://www.w3.org/2000/svg" viewBox="0 0 24 24"><path d="M17,12a5,5,0,1,0-5,5A5.006,5.006,0,0,0,17,12Zm-5,3a3,3,0,1,1,3-3A3,3,0,0,1,12,15ZM11,4V2a1,1,0,0,1,2,0V4a1,1,0,0,1-2,0Zm1,15a1,1,0,0,1,1,1v2a1,1,0,0,1-2,0V20A1,1,0,0,1,12,19ZM19.778,5.636,18.364,7.05A1,1,0,0,1,16.95,5.636l1.414-1.414a1,1,0,0,1,1.414,1.414ZM4.222,18.364,5.636,16.95A1,1,0,0,1,7.05,18.364L5.636,19.778a1,1,0,0,1-1.414-1.414ZM23,12a1,1,0,0,1-1,1H20a1,1,0,0,1,0-2h2A1,1,0,0,1,23,12ZM2,13a1,1,0,0,1,0-2H4a1,1,0,0,1,0,2Zm14.95,5.364a1,1,0,0,1,1.414-1.414l1.414,1.414a1,1,0,1,1-1.414,1.414ZM4.222,5.636A1,1,0,0,1,5.636,4.222L7.05,5.636A1,1,0,1,1,5.636,7.05Z"/></svg>