<svg xmlns="http://www.w3.org/2000/svg" viewBox="0 0 24 24"><path d="M6,1A3,3,0,0,0,3,4V20a3,3,0,0,0,3,3H18a3,3,0,0,0,3-3V4a3,3,0,0,0-3-3ZM19,4V20a1,1,0,0,1-1,1H6a1,1,0,0,1-1-1V4A1,1,0,0,1,6,3H18A1,1,0,0,1,19,4ZM9,10A1,1,0,1,1,8,9,1,1,0,0,1,9,10Zm4,0a1,1,0,1,1-1-1A1,1,0,0,1,13,10Zm4,0a1,1,0,1,1-1-1A1,1,0,0,1,17,10ZM9,14a1,1,0,1,1-1-1A1,1,0,0,1,9,14Zm4,0a1,1,0,1,1-1-1A1,1,0,0,1,13,14Zm4,0a1,1,0,1,1-1-1A1,1,0,0,1,17,14Zm-4,4a1,1,0,1,1-1-1A1,1,0,0,1,13,18ZM17,6a1,1,0,0,1-1,1H8A1,1,0,0,1,8,5h8A1,1,0,0,1,17,6Z"/></svg>