<svg xmlns="http://www.w3.org/2000/svg" viewBox="0 0 24 24"><path d="M10.165,12.211A.75.75,0,0,1,10.791,11h2.418a.75.75,0,0,1,.626,1.211l-1.209,1.5a.815.815,0,0,1-1.252,0ZM1.051,15.316a1,1,0,0,1,.633-1.265l.363-.121C2.019,13.623,2,13.314,2,13V2a1,1,0,0,1,1.515-.857L8.037,3.855A8.578,8.578,0,0,1,12,3a8.588,8.588,0,0,1,3.964.855l4.521-2.712A1,1,0,0,1,22,2V13c0,.314-.019.623-.047.93l.363.121a1,1,0,0,1-.632,1.9l-.119-.04a9.94,9.94,0,0,1-1.4,2.843l.541.541a1,1,0,0,1-1.414,1.414l-.442-.442a9.948,9.948,0,0,1-13.7,0l-.442.442a1,1,0,0,1-1.414-1.414l.541-.541a9.94,9.94,0,0,1-1.4-2.843C1.659,16.123,1.214,15.8,1.051,15.316Zm2.963-2.042,3.67-1.223a1,1,0,0,1,.632,1.9L4.334,15.276a7.964,7.964,0,0,0,.939,2.037l3.02-3.02a1,1,0,0,1,1.414,1.414L6.563,18.851a7.952,7.952,0,0,0,10.874,0l-3.144-3.144a1,1,0,0,1,1.414-1.414l3.02,3.02a7.964,7.964,0,0,0,.939-2.037l-3.982-1.327a1,1,0,0,1,.632-1.9l3.67,1.223c0-.091.014-.181.014-.274V3.766L16.515,5.857a1,1,0,0,1-1,.019A6.665,6.665,0,0,0,12,5a6.665,6.665,0,0,0-3.518.876,1,1,0,0,1-1-.019L4,3.766V13C4,13.093,4.011,13.183,4.014,13.274Z"/></svg>