<svg xmlns="http://www.w3.org/2000/svg" viewBox="0 0 24 24"><path d="M4,23H20a1,1,0,0,0,.982-1.184l-3-16A1,1,0,0,0,17,5H16A4,4,0,0,0,8,5H7a1,1,0,0,0-.982.816l-3,16A1,1,0,0,0,4,23ZM12,3a2,2,0,0,1,2,2H10A2,2,0,0,1,12,3ZM7.83,7h8.34L18.8,21H5.205Zm.463,6.707a1,1,0,0,1,0-1.414l2-2a1,1,0,0,1,1.414,1.414l-2,2a1,1,0,0,1-1.414,0Zm7.414-3.414a1,1,0,0,1,0,1.414l-2,2a1,1,0,0,1-1.414-1.414l2-2A1,1,0,0,1,15.707,10.293Zm-4,6.414-2,2a1,1,0,0,1-1.414-1.414l2-2a1,1,0,0,1,1.414,1.414Zm4-1.414a1,1,0,0,1,0,1.414l-2,2a1,1,0,0,1-1.414-1.414l2-2A1,1,0,0,1,15.707,15.293Z"/></svg>