<svg xmlns="http://www.w3.org/2000/svg" viewBox="0 0 24 24"><path d="M21.406,4.086l-4.5-2a1,1,0,0,0-.812,0L12,3.905,7.906,2.086a1,1,0,0,0-.812,0l-4.5,2A1,1,0,0,0,2,5v6a1,1,0,0,0,.594.914L6.5,13.65v4.869l-2.125,1.7a1,1,0,0,0,1.25,1.562l2.025-1.62C11.6,21.887,11.6,22,12,22c.377,0,.223-.037,4.35-1.839l2.025,1.62a1,1,0,0,0,1.25-1.562l-2.125-1.7V13.65l3.906-1.736A1,1,0,0,0,22,11V5A1,1,0,0,0,21.406,4.086ZM4,5.649,7.5,4.1,11,5.649v4.7L7.5,11.905,4,10.351Zm8,14.256L8.5,18.351v-4.7L12,12.1l3.5,1.555v4.7Zm8-9.554-3.5,1.554L13,10.35v-4.7L16.5,4.1,20,5.649Z"/></svg>