<svg xmlns="http://www.w3.org/2000/svg" viewBox="0 0 24 24"><path d="M19.97,17.758A1,1,0,0,0,19,17h-.536c-1.377-1.76-1.87-5.044-2-7H17a1,1,0,0,0,0-2h-.064a5.145,5.145,0,0,0,.314-1.75,5.25,5.25,0,0,0-10.5,0A5.145,5.145,0,0,0,7.064,8H7a1,1,0,0,0,0,2h.533c-.127,1.956-.62,5.24-2,7H5a1,1,0,0,0-.97.758l-1,4A1,1,0,0,0,4,23H20a1,1,0,0,0,.97-1.242ZM12,3a3.254,3.254,0,0,1,3.25,3.25A3.158,3.158,0,0,1,14.72,8H9.28a3.158,3.158,0,0,1-.53-1.75A3.254,3.254,0,0,1,12,3ZM9.536,10h4.928a18.915,18.915,0,0,0,1.641,7H7.9A18.915,18.915,0,0,0,9.536,10ZM5.281,21l.5-2H18.219l.5,2Z"/></svg>