<svg xmlns="http://www.w3.org/2000/svg" viewBox="0 0 24 24"><path d="M23,11a5.006,5.006,0,0,1-5,5,1,1,0,0,1,0-2,3,3,0,0,0,0-6,2.963,2.963,0,0,0-1,.187A1,1,0,0,1,15.73,7.6a3.977,3.977,0,0,0-7.46,0A1,1,0,0,1,7,8.187,2.963,2.963,0,0,0,6,8a3,3,0,0,0,0,6,1,1,0,0,1,0,2A5,5,0,0,1,6,6a4.608,4.608,0,0,1,.783.067,5.971,5.971,0,0,1,10.434,0A4.608,4.608,0,0,1,18,6,5.006,5.006,0,0,1,23,11ZM8.5,21a1,1,0,0,0,.961-.725l2-7a1,1,0,1,0-1.922-.55l-2,7a1,1,0,0,0,.686,1.236A.977.977,0,0,0,8.5,21Zm4.725-.039A.977.977,0,0,0,13.5,21a1,1,0,0,0,.961-.725l2-7a1,1,0,1,0-1.922-.55l-2,7A1,1,0,0,0,13.225,20.961Z"/></svg>