<svg xmlns="http://www.w3.org/2000/svg" viewBox="0 0 24 24"><path d="M23,11a5.021,5.021,0,0,1-2.5,4.331,1,1,0,0,1-1-1.732A3,3,0,0,0,18,8a2.979,2.979,0,0,0-1,.188A1,1,0,0,1,15.73,7.6a3.977,3.977,0,0,0-7.46,0A1,1,0,0,1,7,8.188,2.961,2.961,0,0,0,3,11a3.011,3.011,0,0,0,1.5,2.6,1,1,0,0,1-1,1.732A5,5,0,0,1,6,6a4.608,4.608,0,0,1,.783.067,5.971,5.971,0,0,1,10.434,0A4.608,4.608,0,0,1,18,6,5.006,5.006,0,0,1,23,11ZM12,21c-2.579,0-4-1.35-4-3.8,0-3.243,3.237-5.87,3.375-5.981a1,1,0,0,1,1.25,0C12.763,11.33,16,13.957,16,17.2,16,19.65,14.579,21,12,21Zm0-2c1.665,0,2-.688,2-1.8a6.15,6.15,0,0,0-2-3.839A6.15,6.15,0,0,0,10,17.2C10,18.312,10.335,19,12,19Z"/></svg>