<svg xmlns="http://www.w3.org/2000/svg" viewBox="0 0 24 24"><path d="M23,11a5.006,5.006,0,0,1-5,5,1,1,0,0,1,0-2,3,3,0,0,0,0-6,2.965,2.965,0,0,0-1,.188A1,1,0,0,1,15.73,7.6a3.977,3.977,0,0,0-7.46,0A1,1,0,0,1,7,8.188,2.965,2.965,0,0,0,6,8a3,3,0,0,0,0,6,1,1,0,0,1,0,2A5,5,0,0,1,6,6a4.608,4.608,0,0,1,.783.067,5.971,5.971,0,0,1,10.434,0A4.608,4.608,0,0,1,18,6,5.006,5.006,0,0,1,23,11ZM9.293,20.707a1,1,0,0,0,1.414,0l4-4A1,1,0,0,0,14,15H12.414l2.293-2.293a1,1,0,0,0-1.414-1.414l-4,4A1,1,0,0,0,10,17h1.586L9.293,19.293A1,1,0,0,0,9.293,20.707Z"/></svg>