<svg xmlns="http://www.w3.org/2000/svg" viewBox="0 0 24 24"><path d="M4.152,21a3.15,3.15,0,0,1-2.229-5.379l3.805-3.8.7-.824-.7.716a2.01,2.01,0,0,1-.612-1.443,2.1,2.1,0,0,1,.611-1.492l6.849-6.848a3.155,3.155,0,0,1,4.457,0l3.044,3.044a3.158,3.158,0,0,1,0,4.458,1,1,0,0,1-1.415-1.414,1.155,1.155,0,0,0,0-1.63L15.619,3.337a1.154,1.154,0,0,0-1.629,0L7.142,10.186a2.523,2.523,0,0,1,.608,1.563,2.058,2.058,0,0,1-.609,1.48l-3.8,3.8a1.153,1.153,0,0,0,1.63,1.63l3.369-3.37A1,1,0,0,1,9.75,16.707l-3.369,3.37A3.143,3.143,0,0,1,4.152,21ZM23,17a6,6,0,1,1-6-6A6.006,6.006,0,0,1,23,17Zm-2,0a4,4,0,1,0-4,4A4,4,0,0,0,21,17Z"/></svg>