<svg xmlns="http://www.w3.org/2000/svg" viewBox="0 0 24 24"><path d="M5.6,19.9a1,1,0,1,0,0-2,2.6,2.6,0,0,1,0-5.2,2.554,2.554,0,0,1,.864.162,1,1,0,0,0,1.272-.589,3.488,3.488,0,0,1,6.529,0,1.021,1.021,0,0,0,1.272.589,2.334,2.334,0,0,1,1.255-.122A2.594,2.594,0,0,1,16.4,17.9a1,1,0,1,0,0,2,4.587,4.587,0,0,0,2.386-8.513A4.789,4.789,0,0,0,19,10a5.006,5.006,0,0,0-5-5A4.956,4.956,0,0,0,9.329,8.277a5.54,5.54,0,0,0-3.077,2.474A4.212,4.212,0,0,0,5.6,10.7a4.6,4.6,0,0,0,0,9.2ZM14,7a3,3,0,0,1,3,3,2.769,2.769,0,0,1-.1.731,4.422,4.422,0,0,0-1.153.02,5.673,5.673,0,0,0-4.021-2.7h0A2.974,2.974,0,0,1,14,7Zm9,3a1,1,0,0,1-1,1H21a1,1,0,0,1,0-2h1A1,1,0,0,1,23,10ZM14,1a1,1,0,0,1,1,1V3a1,1,0,0,1-2,0V2A1,1,0,0,1,14,1Zm6.364,2.636a1,1,0,0,1,0,1.414l-.707.707a1,1,0,0,1-1.414-1.414l.707-.707A1,1,0,0,1,20.364,3.636Zm-11.314,0,.707.707A1,1,0,1,1,8.343,5.757L7.636,5.05A1,1,0,1,1,9.05,3.636ZM10.4,15.447l-1,2a1,1,0,0,1-1.79-.894l1-2a1,1,0,1,1,1.79.894Zm4,0-1,2a1,1,0,0,1-1.79-.894l1-2a1,1,0,1,1,1.79.894Zm-4,5-1,2a1,1,0,0,1-1.79-.894l1-2a1,1,0,1,1,1.79.894Zm4,0-1,2a1,1,0,0,1-1.79-.894l1-2a1,1,0,1,1,1.79.894Z"/></svg>