<svg xmlns="http://www.w3.org/2000/svg" viewBox="0 0 24 24"><path d="M22.6,4.2h-.628a.415.415,0,0,1-.38-.27l0-.005a.415.415,0,0,1,.08-.458l.444-.444a.4.4,0,0,0,0-.571l-.561-.561a.4.4,0,0,0-.571,0l-.444.444a.413.413,0,0,1-.458.079l-.006,0a.416.416,0,0,1-.269-.38V1.4a.4.4,0,0,0-.4-.4H18.6a.4.4,0,0,0-.4.4v.628a.416.416,0,0,1-.269.38l-.006,0a.413.413,0,0,1-.458-.079l-.444-.444a.4.4,0,0,0-.571,0l-.561.561a.4.4,0,0,0,0,.571l.444.444a.415.415,0,0,1,.08.458l0,.005a.415.415,0,0,1-.38.27H15.4a.4.4,0,0,0-.4.4V5.4a.4.4,0,0,0,.4.4h.628a.416.416,0,0,1,.38.269l0,.006a.415.415,0,0,1-.08.458l-.444.444a.4.4,0,0,0,0,.571l.561.561a.4.4,0,0,0,.571,0l.444-.444a.415.415,0,0,1,.458-.08l.006,0a.414.414,0,0,1,.269.38V8.6a.4.4,0,0,0,.4.4H19.4a.4.4,0,0,0,.4-.4V7.968a.414.414,0,0,1,.269-.38l.006,0a.415.415,0,0,1,.458.08l.444.444a.4.4,0,0,0,.571,0l.561-.561a.4.4,0,0,0,0-.571l-.444-.444a.415.415,0,0,1-.08-.458l0-.006a.416.416,0,0,1,.38-.269H22.6a.4.4,0,0,0,.4-.4V4.6A.4.4,0,0,0,22.6,4.2ZM19,6.2A1.2,1.2,0,1,1,20.2,5,1.2,1.2,0,0,1,19,6.2ZM18,11a1,1,0,0,0-.983.818C16.536,12.245,14.074,13,10,13c-1.676,0-5.975-.3-7-1.171V6.04A23.285,23.285,0,0,0,10,7c.708,0,1.4-.022,2.065-.065a1,1,0,0,0-.13-2C11.316,4.979,10.668,5,10,5A17.475,17.475,0,0,1,3.272,4,17.475,17.475,0,0,1,10,3c.668,0,1.316.021,1.935.062a1,1,0,0,0,.13-2C11.4,1.022,10.708,1,10,1,8.5,1,1,1.145,1,4V20c0,2.855,7.5,3,9,3s9-.145,9-3V12A1,1,0,0,0,18,11Zm-1,8.832c-.518.43-2.971,1.168-7,1.168s-6.482-.738-7-1.168V14.047A22.2,22.2,0,0,0,10,15a22.553,22.553,0,0,0,7-.953Z"/></svg>