<svg xmlns="http://www.w3.org/2000/svg" viewBox="0 0 24 24"><path d="M16,1a6.956,6.956,0,0,0-4,1.264A7,7,0,1,0,5.19,14.407a7,7,0,1,0,13.62,0A7,7,0,0,0,16,1ZM12.881,9.062a6.29,6.29,0,0,0-1.762,0A4.88,4.88,0,0,1,12,5.031a4.88,4.88,0,0,1,.881,4.031Zm-2.387,3.246A4.938,4.938,0,0,1,8.028,13a5.015,5.015,0,0,1,1.9-1.533A7,7,0,0,0,10.494,12.308Zm3.58-.844A5.015,5.015,0,0,1,15.972,13a4.938,4.938,0,0,1-2.466-.689A7,7,0,0,0,14.074,11.464ZM3,8A5.006,5.006,0,0,1,8,3a4.948,4.948,0,0,1,2.494.692,6.911,6.911,0,0,0-1.3,5.9,7.037,7.037,0,0,0-3.264,2.943A5,5,0,0,1,3,8Zm14,8a5,5,0,1,1-9.881-1.062A6.839,6.839,0,0,0,12,13.736a6.839,6.839,0,0,0,4.881,1.2A4.959,4.959,0,0,1,17,16Zm1.074-3.464A7.029,7.029,0,0,0,14.81,9.594a6.913,6.913,0,0,0-1.3-5.9A4.948,4.948,0,0,1,16,3a4.992,4.992,0,0,1,2.074,9.536Z"/></svg>