<svg xmlns="http://www.w3.org/2000/svg" viewBox="0 0 24 24"><path d="M15.707,17.293a1,1,0,0,1,0,1.414C12.738,21.54,12.726,22,12,22s-.783-.5-3.707-3.293a1,1,0,0,1,1.414-1.414L12,19.586l2.293-2.293A1,1,0,0,1,15.707,17.293Zm0-12-3-3a1,1,0,0,0-1.414,0l-3,3A1,1,0,0,0,9.707,6.707L12,4.414l2.293,2.293a1,1,0,0,0,1.414-1.414ZM5.293,15.707a1,1,0,1,0,1.414-1.414L4.414,12,6.707,9.707A1,1,0,0,0,5.293,8.293l-3,3a1,1,0,0,0,0,1.414Zm12,0a1,1,0,0,0,1.414,0l3-3a1,1,0,0,0,0-1.414l-3-3a1,1,0,0,0-1.414,1.414L19.586,12l-2.293,2.293A1,1,0,0,0,17.293,15.707ZM16,12a4,4,0,1,1-4-4A4,4,0,0,1,16,12Zm-2,0a2,2,0,1,0-2,2A2,2,0,0,0,14,12Z"/></svg>