<svg xmlns="http://www.w3.org/2000/svg" viewBox="0 0 24 24"><path d="M2.119,14.085a3.824,3.824,0,0,0,0,5.4A3.744,3.744,0,0,0,3.6,20.4a3.744,3.744,0,0,0,.911,1.482,3.82,3.82,0,0,0,6.272-4.06L12,16.605l1.216,1.216a3.835,3.835,0,0,0,.869,4.06,3.819,3.819,0,0,0,5.4,0A3.742,3.742,0,0,0,20.4,20.4a3.737,3.737,0,0,0,1.482-.911,3.821,3.821,0,0,0-4.061-6.272L16.605,12l1.215-1.216a3.821,3.821,0,0,0,4.061-6.272A3.737,3.737,0,0,0,20.4,3.6a3.73,3.73,0,0,0-.912-1.482,3.911,3.911,0,0,0-5.4,0,3.835,3.835,0,0,0-.869,4.06L12,7.4,10.784,6.179a3.82,3.82,0,0,0-6.272-4.06A3.744,3.744,0,0,0,3.6,3.6a3.744,3.744,0,0,0-1.482.911,3.82,3.82,0,0,0,4.06,6.272L7.4,12,6.179,13.216A3.837,3.837,0,0,0,2.119,14.085Zm16.057,1.183a1.819,1.819,0,1,1,1.256,3.311,1,1,0,0,0-.853.854,1.8,1.8,0,0,1-.506,1.034,1.865,1.865,0,0,1-2.574,0,1.824,1.824,0,0,1-.231-2.29,1,1,0,0,0-.127-1.26l-1.727-1.726,1.777-1.777,1.726,1.727A1,1,0,0,0,18.176,15.268ZM7.083,8.859a1,1,0,0,0-1.26-.126A1.819,1.819,0,1,1,4.568,5.421a1,1,0,0,0,.853-.853A1.816,1.816,0,1,1,8.733,5.823a1,1,0,0,0,.126,1.26l1.727,1.726L8.809,10.586Zm0,6.282,8.058-8.058a1,1,0,0,0,.127-1.26,1.824,1.824,0,0,1,.231-2.29,1.865,1.865,0,0,1,2.574,0,1.8,1.8,0,0,1,.506,1.034,1,1,0,0,0,.853.854,1.816,1.816,0,1,1-1.256,3.311,1,1,0,0,0-1.259.127L8.859,16.917a1,1,0,0,0-.126,1.26,1.819,1.819,0,1,1-3.312,1.255,1,1,0,0,0-.853-.853,1.815,1.815,0,1,1,1.255-3.312A1,1,0,0,0,7.083,15.141Z"/></svg>