<svg xmlns="http://www.w3.org/2000/svg" viewBox="0 0 24 24"><path d="M12,1A11,11,0,1,0,23,12,11.013,11.013,0,0,0,12,1ZM8.149,3.878A4.063,4.063,0,0,1,7.376,6.07c-.394-.2-.86-.457-1.378-.757A9.025,9.025,0,0,1,8.149,3.878ZM6.183,18.855a9,9,0,0,1-2.992-5.012c3.609-1.225,5.149-1.41,5.749-1.41h0a1.775,1.775,0,0,1-.523.735,2.157,2.157,0,0,0-.648.959,1.485,1.485,0,0,0,.5,1.523c.046.427-.983,1.762-1.664,2.646C6.465,18.476,6.324,18.67,6.183,18.855ZM12,21a8.937,8.937,0,0,1-4.156-1.025c.115-.152.231-.311.344-.458,1.353-1.755,2.748-3.566,1.709-5A3.382,3.382,0,0,0,11,12a1.452,1.452,0,0,0-.619-1.2c-.463-.327-1.395-.989-7.371.992A8.941,8.941,0,0,1,4.64,6.837c.738.436,1.379.791,1.913,1.058a1.838,1.838,0,0,0,1.92-.152c1.12-.784,1.7-2.8,1.713-4.559a8.911,8.911,0,0,1,4.787.331C11.758,4.888,11,6.653,11,8c0,3.034,2.017,3.268,3.1,3.394.9.105.9.105.9.606a6.574,6.574,0,0,1-.526,2.455c-.363.973-.911,2.445,1.079,3.44a2.339,2.339,0,0,0,1.061.243,6.4,6.4,0,0,0,2.643-.837A8.987,8.987,0,0,1,12,21Zm8.635-6.485a14.445,14.445,0,0,0-1.969.851c-.786.387-1.862.917-2.219.739a2.835,2.835,0,0,1-.336-.193,4.1,4.1,0,0,1,.237-.76A8.476,8.476,0,0,0,17,12c0-2.283-1.8-2.492-2.67-2.593C13.282,9.286,13,9.253,13,8c0-1.628,2.545-2.677,4.354-3.217a8.939,8.939,0,0,1,3.281,9.732Z"/></svg>