<svg xmlns="http://www.w3.org/2000/svg" viewBox="0 0 24 24"><path d="M20,3a3,3,0,0,0-2.816,2H15V4a1,1,0,0,0-1-1H10A1,1,0,0,0,9,4V5H6.816A3.012,3.012,0,1,0,5.308,8.687,14.764,14.764,0,0,0,4.017,15H3a1,1,0,0,0-1,1v4a1,1,0,0,0,1,1H7a1,1,0,0,0,1-1V16a1,1,0,0,0-1-1H6.02C6.176,10.058,7.5,8.393,9,7.706V8a1,1,0,0,0,1,1h4a1,1,0,0,0,1-1V7.706c1.5.687,2.824,2.352,2.98,7.294H17a1,1,0,0,0-1,1v4a1,1,0,0,0,1,1h4a1,1,0,0,0,1-1V16a1,1,0,0,0-1-1H19.983a14.764,14.764,0,0,0-1.291-6.313A2.966,2.966,0,0,0,20,9a3,3,0,0,0,0-6ZM6,19H4V17H6Zm14,0H18V17h2ZM4,7A1,1,0,1,1,5,6,1,1,0,0,1,4,7Zm9,0H11V5h2Zm7,0a1,1,0,1,1,1-1A1,1,0,0,1,20,7Z"/></svg>