<svg xmlns="http://www.w3.org/2000/svg" viewBox="0 0 24 24"><path d="M8,11V9a1,1,0,0,1,2,0v2a1,1,0,0,1-2,0Zm7,1a1,1,0,0,0,1-1V9a1,1,0,0,0-2,0v2A1,1,0,0,0,15,12Zm8,0A11,11,0,1,1,12,1,11.038,11.038,0,0,1,23,12ZM3.028,11.451l4.485,2.691,2.236-1.127a5.018,5.018,0,0,1,4.5,0l2.236,1.127,4.485-2.691a8.988,8.988,0,0,0-17.944,0ZM20.8,13.888l-2.2,1.319,1.475.743A8.88,8.88,0,0,0,20.8,13.888ZM19,17.647,13.351,14.8a3.01,3.01,0,0,0-2.7,0L5,17.647a8.977,8.977,0,0,0,13.994,0ZM3.926,15.95,5.4,15.207,3.2,13.888A8.88,8.88,0,0,0,3.926,15.95Z"/></svg>