<svg xmlns="http://www.w3.org/2000/svg" viewBox="0 0 24 24"><path d="M6,20a3,3,0,0,0,3,3h6a3,3,0,0,0,3-3V13a2.987,2.987,0,0,0-.766-2,2.985,2.985,0,0,0-1.328-4.845A4,4,0,0,0,13,3.142V2a1,1,0,0,0-2,0V3.142A4,4,0,0,0,8.094,6.155,2.985,2.985,0,0,0,6.766,11,2.987,2.987,0,0,0,6,13ZM12,5a2,2,0,0,1,1.731,1H10.269A2,2,0,0,1,12,5ZM8,19h2a1,1,0,0,0,0-2H8V15h2a1,1,0,0,0,0-2H8a1,1,0,0,1,1-1,1,1,0,0,0,0-2A1,1,0,0,1,9,8h6a1,1,0,0,1,0,2,1,1,0,0,0,0,2,1,1,0,0,1,1,1H14a1,1,0,0,0,0,2h2v2H14a1,1,0,0,0,0,2h2v1a1,1,0,0,1-1,1H9a1,1,0,0,1-1-1Z"/></svg>