<svg xmlns="http://www.w3.org/2000/svg" viewBox="0 0 24 24"><path d="M5.5,3.5A2.5,2.5,0,1,1,8,6,2.5,2.5,0,0,1,5.5,3.5ZM22.707,17.293a1,1,0,0,0-1.414,0L19,19.586V18a1,1,0,0,0-2,0v4a1.01,1.01,0,0,0,.077.382,1,1,0,0,0,.541.541A1.01,1.01,0,0,0,18,23h4a1,1,0,0,0,0-2H20.414l2.293-2.293A1,1,0,0,0,22.707,17.293ZM23,10.5A3.5,3.5,0,0,1,19.5,14H17.9a1.006,1.006,0,0,0-.748.336l-6.21,6.986A5,5,0,0,1,7.2,23H4.5a3.5,3.5,0,0,1,0-7H5V10a3,3,0,0,1,6,0V11l2.06-2.317A5,5,0,0,1,16.8,7h2.7A3.5,3.5,0,0,1,23,10.5ZM7,15.5l2-2.25V10a1,1,0,0,0-2,0ZM21,10.5A1.5,1.5,0,0,0,19.5,9H16.8a3,3,0,0,0-2.242,1.007l-6.21,6.986A3,3,0,0,1,6.1,18H4.5a1.5,1.5,0,0,0,0,3H7.2a3,3,0,0,0,2.242-1.007l6.21-6.986A3,3,0,0,1,17.9,12h1.6A1.5,1.5,0,0,0,21,10.5Z"/></svg>