<svg xmlns="http://www.w3.org/2000/svg" viewBox="0 0 24 24"><path d="M5.5,3.5A2.5,2.5,0,1,1,8,6,2.5,2.5,0,0,1,5.5,3.5ZM7.2,23H4.5a3.5,3.5,0,0,1,0-7H5V10a3,3,0,0,1,6,0V11l2.06-2.317A5,5,0,0,1,16.8,7h2.7a3.5,3.5,0,0,1,0,7H17.9a1.006,1.006,0,0,0-.748.336l-6.21,6.986A5,5,0,0,1,7.2,23ZM7,15.5l2-2.25V10a1,1,0,0,0-2,0ZM4.5,21H7.2a3,3,0,0,0,2.242-1.007l6.21-6.986A3,3,0,0,1,17.9,12h1.6a1.5,1.5,0,0,0,0-3H16.8a3,3,0,0,0-2.242,1.007l-6.21,6.986A3,3,0,0,1,6.1,18H4.5a1.5,1.5,0,0,0,0,3Zm17.882-3.923A1.01,1.01,0,0,0,22,17H18a1,1,0,0,0,0,2h1.586l-2.293,2.293a1,1,0,1,0,1.414,1.414L21,20.414V22a1,1,0,0,0,2,0V18a1,1,0,0,0-.618-.923Z"/></svg>