<svg xmlns="http://www.w3.org/2000/svg" viewBox="0 0 24 24"><path d="M21.707,3.707,5.414,20H9a1,1,0,0,1,0,2H3a1.01,1.01,0,0,1-.382-.077,1,1,0,0,1-.541-.541A1.01,1.01,0,0,1,2,21V15a1,1,0,0,1,2,0v3.586L20.293,2.293a1,1,0,1,1,1.414,1.414ZM2,6a4,4,0,1,1,4,4A4,4,0,0,1,2,6ZM4,6A2,2,0,1,0,6,4,2,2,0,0,0,4,6Zm17.707,9.293a1,1,0,0,0-1.414,0L18.5,17.086l-1.793-1.793a1,1,0,0,0-1.414,1.414L17.086,18.5l-1.793,1.793a1,1,0,1,0,1.414,1.414L18.5,19.914l1.793,1.793a1,1,0,0,0,1.414-1.414L19.914,18.5l1.793-1.793A1,1,0,0,0,21.707,15.293Z"/></svg>