<svg xmlns="http://www.w3.org/2000/svg" viewBox="0 0 24 24"><path d="M20.33,3.67a5.708,5.708,0,0,0-8.063,0L5.618,10.319a1,1,0,0,0-.287.82l.621,5.5L2.293,20.293a1,1,0,0,0,1.414,1.414l3.659-3.659,5.5.622a1.084,1.084,0,0,0,.113.006,1,1,0,0,0,.707-.293c4.031-4.06,6.883-6.812,7.156-7.271A5.692,5.692,0,0,0,20.33,3.67ZM18.916,5.084a3.7,3.7,0,0,1,.541,4.526H15.8l1.2-1.2a1,1,0,0,0-1.414-1.414L12.683,9.9l0,0-.369.37V6.453l1.369-1.369A3.706,3.706,0,0,1,18.916,5.084ZM7.373,11.393l2.939-2.94v3.821L7.761,14.825Zm5.234,5.235-3.433-.389L12.017,13.4l0,0L13.8,11.61h3.822Z"/></svg>