<svg xmlns="http://www.w3.org/2000/svg" viewBox="0 0 24 24"><path d="M16.646,10.705c-.678-.339-.842-1.52-.846-1.909a3.8,3.8,0,0,0-7.6,0c0,.388-.167,1.57-.847,1.91a1,1,0,0,0-.26,1.6A7.134,7.134,0,0,0,12,14a7.131,7.131,0,0,0,4.907-1.693,1,1,0,0,0-.261-1.6ZM12,12a6.09,6.09,0,0,1-2.59-.536A5.243,5.243,0,0,0,10.2,8.8a1.8,1.8,0,0,1,3.6,0,5.241,5.241,0,0,0,.79,2.663A6.066,6.066,0,0,1,12,12ZM12,1A11,11,0,1,0,23,12,11.013,11.013,0,0,0,12,1Zm0,20a9.009,9.009,0,0,1-5.317-1.755,7.419,7.419,0,0,1,10.634,0A9.037,9.037,0,0,1,12,21Zm6.786-3.107a9.405,9.405,0,0,0-13.572,0,9,9,0,1,1,13.572,0Z"/></svg>