<svg xmlns="http://www.w3.org/2000/svg" viewBox="0 0 24 24"><path d="M22,1H13.429a1,1,0,0,0-.707,1.707l1.435,1.436L9.15,9.15a1,1,0,0,0,0,1.414L10.586,12,1.293,21.293a1,1,0,1,0,1.414,1.414L12,13.414l1.436,1.436a1,1,0,0,0,1.414,0l5.007-5.007,1.436,1.435A1,1,0,0,0,23,10.571V2A1,1,0,0,0,22,1ZM14.143,12.729,11.271,9.857l.927-.926,3.828,1.914Zm4.3-4.3-.926.925L13.688,7.44l1.883-1.883ZM21,8.157,15.843,3H21ZM1.293,11.278a1,1,0,0,1,0-1.414L8.436,2.722A1,1,0,1,1,9.85,4.136L2.707,11.278a1,1,0,0,1-1.414,0ZM21.278,14.15a1,1,0,0,1,0,1.414l-7.142,7.143a1,1,0,1,1-1.414-1.414l7.142-7.143A1,1,0,0,1,21.278,14.15Z"/></svg>