<svg xmlns="http://www.w3.org/2000/svg" viewBox="0 0 24 24"><path d="M15.688,7.1A9.546,9.546,0,0,0,12,4.1,8.825,8.825,0,0,0,6.87,10.4,1,1,0,1,1,4.911,10,10.967,10.967,0,0,1,11.6,2.085a1.041,1.041,0,0,1,.21-.065,1.017,1.017,0,0,1,.6.064A11.726,11.726,0,0,1,17.312,5.93,1,1,0,0,1,15.688,7.1Zm-4.821,6.169a1,1,0,0,0-1.334,1.49A3.693,3.693,0,0,0,12,15.7a1,1,0,0,0,0-2A1.7,1.7,0,0,1,10.867,13.267ZM13.7,12a1,1,0,0,0,2,0A3.7,3.7,0,0,0,12,8.3a1,1,0,0,0,0,2A1.7,1.7,0,0,1,13.7,12ZM22,15.6V21a1,1,0,0,1-1,1H3a1,1,0,0,1-1-1V15.6a1,1,0,0,1,1-1H5.165c-.066-.177-.147-.345-.2-.529a1,1,0,0,1,1.925-.542A5.315,5.315,0,0,0,12,17.3c3.2,0,6-2.711,5.131-6.9A1,1,0,1,1,19.09,10a8.433,8.433,0,0,1-.228,4.6H21A1,1,0,0,1,22,15.6Zm-2,1H17.719c-1.473,1.341-2.732,2.7-5.719,2.7a7.487,7.487,0,0,1-5.719-2.7H4V20H20Z"/></svg>