<svg xmlns="http://www.w3.org/2000/svg" viewBox="0 0 24 24"><path d="M15.874,6.2C13.805,4.75,12.65,3.848,12.98,2.2A1,1,0,0,0,11.758,1.03C11.67,1.052,3,3.319,3,12c0,6.683,3.532,11,9,11h.005c.014,0,.081,0,.178-.007C15.336,22.924,21,20.987,21,14,21,9.8,18.158,7.806,15.874,6.2ZM15.84,19.78A8.1,8.1,0,0,1,12.005,21H12a5.919,5.919,0,0,1-3.142-.846,2.766,2.766,0,0,1-1.224-1.961A3.341,3.341,0,0,1,8.749,15.2c1.375-1.585,2.368-2.73,2.381-4.817C13.219,11.147,17,13.136,17,17.5A2.752,2.752,0,0,1,15.84,19.78Zm2.977-4.029c-.974-4.82-5.879-7.151-8.61-7.73A1,1,0,0,0,9.016,9.174c.391,2.214-.2,2.9-1.778,4.716a5.612,5.612,0,0,0-1.505,2.594A12.772,12.772,0,0,1,5,12a9.179,9.179,0,0,1,5.975-8.581C11.3,5.437,13.1,6.7,14.726,7.84,16.924,9.383,19,10.841,19,14A8.741,8.741,0,0,1,18.817,15.751Z"/></svg>