<svg xmlns="http://www.w3.org/2000/svg" viewBox="0 0 24 24"><path d="M12,1a9.01,9.01,0,0,0-9,9V22a1,1,0,0,0,1.8.6L6.829,19.9l1.276,2.552a1,1,0,0,0,1.7.153L12,19.667,14.2,22.6a1,1,0,0,0,1.7-.153L17.171,19.9,19.2,22.6a1,1,0,0,0,.8.4,1,1,0,0,0,1-1V10A9.01,9.01,0,0,0,12,1Zm7,18-1.2-1.6a.991.991,0,0,0-.89-.4,1,1,0,0,0-.8.549l-1.276,2.552L12.8,17.4a1,1,0,0,0-1.6,0L9.171,20.105,7.9,17.553A1,1,0,0,0,7.09,17a.989.989,0,0,0-.89.4L5,19V10a7,7,0,0,1,14,0Zm-9-9v2a1,1,0,0,1-2,0V10a1,1,0,0,1,2,0Zm6,0v2a1,1,0,0,1-2,0V10a1,1,0,0,1,2,0Z"/></svg>