<svg xmlns="http://www.w3.org/2000/svg" viewBox="0 0 24 24"><path d="M12,1A11,11,0,1,0,23,12,11.013,11.013,0,0,0,12,1ZM3.059,13H6.027a15.816,15.816,0,0,0,1.806,6.97A9.014,9.014,0,0,1,3.059,13Zm2.968-2H3.059A9.014,9.014,0,0,1,7.833,4.03,15.816,15.816,0,0,0,6.027,11ZM11,20.666C9.557,19.73,8.225,16.872,8.026,13H11ZM11,11H8.026C8.225,7.128,9.557,4.27,11,3.334Zm2,9.666V13h2.974C15.775,16.872,14.443,19.73,13,20.666ZM13,11V3.334c1.443.936,2.775,3.794,2.974,7.666Zm3.167,8.97A15.816,15.816,0,0,0,17.973,13h2.968A9.014,9.014,0,0,1,16.167,19.97ZM17.973,11a15.816,15.816,0,0,0-1.806-6.97A9.014,9.014,0,0,1,20.941,11Z"/></svg>