<svg xmlns="http://www.w3.org/2000/svg" viewBox="0 0 24 24"><path d="M21,12a5.006,5.006,0,0,0-5-5A4.951,4.951,0,0,0,13,8.03c0-.009.005-.016.005-.025A2.853,2.853,0,0,1,16,5a1,1,0,0,0,0-2,4.709,4.709,0,0,0-3.729,1.54A5.466,5.466,0,0,0,7,1,1,1,0,0,0,6,2,8.362,8.362,0,0,0,7.674,7.033a4.981,4.981,0,0,0-.539,9.88A4.871,4.871,0,0,0,7,18a5,5,0,1,0,9.873-1.088A5,5,0,0,0,21,12ZM10.882,6.851c-1.888-.542-2.539-2.445-2.764-3.7C10.006,3.691,10.657,5.593,10.882,6.851ZM5,12a3,3,0,0,1,6,0C11,15.975,5,15.976,5,12Zm7,9a3,3,0,0,1-3-3,2.868,2.868,0,0,1,.251-1.174A5.049,5.049,0,0,0,11.982,15a3.074,3.074,0,0,1,2.576,1.458A2.98,2.98,0,0,1,12,21Zm4-6h-.018a4.976,4.976,0,0,0-2.64-1.794c-.031-.009-.06-.024-.091-.032A2.868,2.868,0,0,1,13,12a3,3,0,1,1,3,3Z"/></svg>