<svg xmlns="http://www.w3.org/2000/svg" viewBox="0 0 24 24"><path d="M22,21H20V9A8,8,0,0,0,4,9V21H2a1,1,0,0,0,0,2H6a1.007,1.007,0,0,0,1-.993A1.885,1.885,0,0,1,9,20a1.007,1.007,0,0,0,1-.993A1.885,1.885,0,0,1,12,17a1.771,1.771,0,0,1,1.766,1H13a1,1,0,0,0,0,2h1.992A1.884,1.884,0,0,1,17,22a1,1,0,0,0,1,1h4a1,1,0,0,0,0-2Zm-6.1-2.9A3.8,3.8,0,0,0,12,15a3.8,3.8,0,0,0-3.894,3.081A3.6,3.6,0,0,0,6,19.285V9A6,6,0,0,1,18,9V19.277A4.108,4.108,0,0,0,15.9,18.1ZM15,8a1,1,0,0,1-1,1H13v3a1,1,0,0,1-2,0V9H10a1,1,0,0,1,0-2h1V6a1,1,0,0,1,2,0V7h1A1,1,0,0,1,15,8Z"/></svg>