<svg xmlns="http://www.w3.org/2000/svg" viewBox="0 0 24 24"><path d="M8.707,2.707l-.75.75A2.42,2.42,0,0,1,8.561,5a2.049,2.049,0,0,1-.6,1.457l-1.25,1.25A1,1,0,0,1,5.293,6.293l1.25-1.25a2.42,2.42,0,0,1-.6-1.543,2.049,2.049,0,0,1,.6-1.457l.75-.75A1,1,0,0,1,8.707,2.707Zm5-1.414a1,1,0,0,0-1.414,0l-.75.75a2.049,2.049,0,0,0-.6,1.457,2.42,2.42,0,0,0,.6,1.543l-1.25,1.25a1,1,0,0,0,1.414,1.414l1.25-1.25A2.049,2.049,0,0,0,13.561,5a2.42,2.42,0,0,0-.6-1.543l.75-.75A1,1,0,0,0,13.707,1.293Zm5,0a1,1,0,0,0-1.414,0l-.75.75a2.049,2.049,0,0,0-.6,1.457,2.42,2.42,0,0,0,.6,1.543l-1.25,1.25a1,1,0,0,0,1.414,1.414l1.25-1.25A2.049,2.049,0,0,0,18.561,5a2.42,2.42,0,0,0-.6-1.543l.75-.75A1,1,0,0,0,18.707,1.293ZM23,11a9.008,9.008,0,0,1-4.689,7.9l2.4,2.4a1,1,0,0,1-1.414,1.414l-3-3-.008-.012A8.971,8.971,0,0,1,14,20H10a8.971,8.971,0,0,1-2.285-.3l-.008.012-3,3a1,1,0,0,1-1.414-1.414l2.4-2.4A9.008,9.008,0,0,1,1,11a1,1,0,0,1,1-1H22A1,1,0,0,1,23,11Zm-2.071,1H3.071A7.045,7.045,0,0,0,3.3,13H12a1,1,0,0,1,0,2H4.264A6.992,6.992,0,0,0,10,18h4a6.992,6.992,0,0,0,5.736-3H16a1,1,0,0,1,0-2h4.7A7.045,7.045,0,0,0,20.929,12Z"/></svg>