<svg xmlns="http://www.w3.org/2000/svg" viewBox="0 0 24 24"><path d="M20,4a2.984,2.984,0,0,0-1.116.22A2.961,2.961,0,0,0,14.529,2.4a2.983,2.983,0,0,0-5.058,0A2.967,2.967,0,0,0,8,2,3,3,0,0,0,5,5V8.026A4.948,4.948,0,0,0,2,7,1,1,0,0,0,1,8v6a9.01,9.01,0,0,0,9,9h4a9.01,9.01,0,0,0,9-9V8C23,5.051,21.45,4,20,4Zm1,10a7.009,7.009,0,0,1-7,7H10a7.009,7.009,0,0,1-7-7V9.171A3.006,3.006,0,0,1,5,12a1,1,0,0,0,2,0V5A1,1,0,0,1,9,5v5a1,1,0,0,0,2,0V4a1,1,0,0,1,2,0v6a1,1,0,0,0,2,0V5a1,1,0,0,1,2,0v5a1,1,0,0,0,2,0V7a1,1,0,0,1,1-1c.9,0,1,1.4,1,2Z"/></svg>