<svg xmlns="http://www.w3.org/2000/svg" viewBox="0 0 24 24"><path d="M6.121,10.7A6.462,6.462,0,0,0,3,16c0,3.859,4.037,7,9,7s9-3.141,9-7a6.58,6.58,0,0,0-3.121-5.3h0A6.721,6.721,0,0,1,15,5.04V3h1a1,1,0,0,0,0-2H8A1,1,0,0,0,8,3H9V5.04A6.724,6.724,0,0,1,6.121,10.7ZM12,21c-3.171,0-6.9-1.8-6.992-4.892a9.692,9.692,0,0,0,6.363-.179,14.315,14.315,0,0,1,7.539-.673l.008.035C19.629,18.547,15.857,21,12,21ZM13,3V5.04a8.713,8.713,0,0,0,3.768,7.318,6.1,6.1,0,0,1,.91.744,15.626,15.626,0,0,0-7.049.969,7.644,7.644,0,0,1-5.122.1,5.388,5.388,0,0,1,1.725-1.808A8.716,8.716,0,0,0,11,5.04V3Zm2,15a1,1,0,1,1-1-1A1,1,0,0,1,15,18Zm-4-7a1,1,0,1,1,1,1A1,1,0,0,1,11,11Z"/></svg>