<svg xmlns="http://www.w3.org/2000/svg" viewBox="0 0 24 24"><path d="M21.707,11.893a1,1,0,0,1,0,1.414l-4.2,4.2a1,1,0,0,1-1.414-1.414l4.2-4.2A1,1,0,0,1,21.707,11.893Zm-8.014,6.6-1.8,1.8a1,1,0,1,0,1.414,1.414l1.8-1.8a1,1,0,0,0-1.414-1.414ZM7.2,8.2a.993.993,0,0,0,.707-.293l4.2-4.2a1,1,0,0,0-1.414-1.414l-4.2,4.2A1,1,0,0,0,7.2,8.2Zm-1.693.693a1,1,0,0,0-1.414,0l-1.8,1.8a1,1,0,1,0,1.414,1.414l1.8-1.8A1,1,0,0,0,5.507,8.893Zm9,.6a1,1,0,0,0-1.414,0l-4.2,4.2a1,1,0,1,0,1.414,1.414l4.2-4.2A1,1,0,0,0,14.507,9.493Zm-8.014,6.6-1.8,1.8a1,1,0,1,0,1.414,1.414l1.8-1.8a1,1,0,0,0-1.414-1.414Z"/></svg>