<svg xmlns="http://www.w3.org/2000/svg" viewBox="0 0 24 24"><path d="M22,21a1,1,0,0,1-1,1H12a1,1,0,0,1,0-2h9A1,1,0,0,1,22,21Zm1-8a6,6,0,0,1-6,6c-4.531,0-6.208-2.09-7.345-4.349A2.981,2.981,0,0,0,6.983,13H4a1,1,0,0,1-.894-.553l-2-4A1,1,0,0,1,1,8V4a1,1,0,0,1,1.707-.707L6.413,7H13V4H10a1,1,0,0,1,0-2h8a1,1,0,0,1,0,2H15V7h1.786a6.163,6.163,0,0,1,6.187,5.414C22.985,12.54,23,12.762,23,13Zm-2.142,1H16a1,1,0,0,1-1-1V9H6a1,1,0,0,1-.707-.293L3,6.414v1.35L4.617,11H6.983a4.972,4.972,0,0,1,4.46,2.752C12.337,15.529,13.373,17,17,17a4.009,4.009,0,0,0,2.96-1.311A3.928,3.928,0,0,0,20.857,14Zm0-2A4.177,4.177,0,0,0,17,9.02V12Z"/></svg>