<svg xmlns="http://www.w3.org/2000/svg" viewBox="0 0 24 24"><path d="M6.472,22h10.4c4.573,0,5.061-4.847,5.138-4.982A34.416,34.416,0,0,0,23,8.337a5.054,5.054,0,0,0-4.292-4.991l-9.034-1.3A4.105,4.105,0,0,0,5,6.126V8.094a4.876,4.876,0,0,0-4,4.822v2.022a9.668,9.668,0,0,0,1,4.271A4.967,4.967,0,0,0,6.472,22ZM3,12.916a2.878,2.878,0,0,1,2-2.743V14a1,1,0,0,0,2,0V6.126a2.158,2.158,0,0,1,.617-1.507A2.09,2.09,0,0,1,9.1,4c.226,0,2.849.395,9.324,1.325A3.045,3.045,0,0,1,21,8.337a30.114,30.114,0,0,1-.926,8.2c-.145.275-.278,3.462-3.2,3.462H6.472a2.98,2.98,0,0,1-2.681-1.678A7.664,7.664,0,0,1,3,14.938Z"/></svg>