<svg xmlns="http://www.w3.org/2000/svg" viewBox="0 0 24 24"><path d="M15,15a1,1,0,0,1-1,1H10a1,1,0,0,1,0-2h4A1,1,0,0,1,15,15Zm8-6.146V18a1,1,0,0,1-1,1H19v3a1,1,0,0,1-1,1H6a1,1,0,0,1-1-1V19H2a1,1,0,0,1-1-1V8.854A3.98,3.98,0,0,1,3.211,5.276l.705-.352,1.492-.746A8.846,8.846,0,0,1,12,1a8.813,8.813,0,0,1,6.592,3.178l1.492.746.705.352A3.98,3.98,0,0,1,23,8.854ZM19.994,7.121C18.548,9.606,19.137,11.524,19,14h2V8.854A1.985,1.985,0,0,0,19.994,7.121ZM7,18H17V10.728a9.471,9.471,0,0,1,1.188-4.516l-.265-.132L15,7.054V11a1,1,0,0,1-2,0V7.72A3.674,3.674,0,0,1,12,8a3.729,3.729,0,0,1-1-.28V9A1,1,0,0,1,9,9V7.054L6.077,6.08l-.265.132A9.464,9.464,0,0,1,7,10.728ZM7.863,4.567,12,5.946l4.137-1.379a6.244,6.244,0,0,0-8.274,0ZM3,8.854V14H5c-.138-2.494.454-4.383-.994-6.879A1.987,1.987,0,0,0,3,8.854ZM5,17V16H3v1Zm12,4V20H7v1Zm4-4V16H19v1Z"/></svg>