<svg xmlns="http://www.w3.org/2000/svg" viewBox="0 0 24 24"><path d="M2.773,15.251a4.339,4.339,0,0,0,5.976,5.974,5.479,5.479,0,0,0,7.909.173L21.4,16.657a5.474,5.474,0,0,0,0-7.734h0l-.173-.173a4.339,4.339,0,0,0-5.976-5.974A5.479,5.479,0,0,0,7.342,2.6L2.6,7.343a5.475,5.475,0,0,0,0,7.735Zm17.213-.008-4.742,4.741a3.555,3.555,0,0,1-4.907,0l-.083-.083L19.9,10.254l.084.083A3.472,3.472,0,0,1,19.986,15.243ZM19.2,4.806a2.353,2.353,0,0,1,0,3.327L8.132,19.194a2.41,2.41,0,0,1-3.327,0,2.351,2.351,0,0,1,0-3.327L15.868,4.806a2.353,2.353,0,0,1,3.327,0ZM4.014,8.757,8.756,4.016a3.47,3.47,0,0,1,4.907,0l.083.083L4.1,13.746l-.084-.083A3.472,3.472,0,0,1,4.014,8.757ZM14.571,7.143h2.572a1,1,0,0,1,0,2H15.571c-.105.6.437,2.571-1,2.571H13v1.572a1,1,0,0,1-1,1H10.429v1.571c0,1.551-2.243.833-3.572,1a1,1,0,0,1,0-2H8.429V13.286c0-1.437,1.959-.894,2.571-1V10.714c0-1.437,1.959-.893,2.571-1C13.676,9.111,13.135,7.143,14.571,7.143Z"/></svg>