<svg xmlns="http://www.w3.org/2000/svg" viewBox="0 0 24 24"><path d="M23,10a5.006,5.006,0,0,1-5,5H13.974A4.948,4.948,0,0,1,15,18v4a1,1,0,0,1-2,0V18a3,3,0,0,0-3-3H6a1,1,0,0,1,0-2H18a3,3,0,0,0,0-6H7A1,1,0,0,1,7,5h7a1,1,0,0,0,0-2H7A3,3,0,0,0,4.014,6.3,3.118,3.118,0,0,0,7.172,9H18a1,1,0,0,1,0,2H6a3,3,0,0,0-2.986,3.3A3.118,3.118,0,0,0,6.172,17H8a3,3,0,0,1,3,3v2a1,1,0,0,1-2,0V20a1,1,0,0,0-1-1H6.172a5.133,5.133,0,0,1-5.149-4.513A5.022,5.022,0,0,1,2.3,10.638,4.946,4.946,0,0,1,3.632,9.626,4.878,4.878,0,0,1,2.023,6.487,5,5,0,0,1,7,1h7a3,3,0,0,1,3,3,2.966,2.966,0,0,1-.184,1H18A5.006,5.006,0,0,1,23,10Z"/></svg>