<svg xmlns="http://www.w3.org/2000/svg" viewBox="0 0 24 24"><path d="M18,1H6A3,3,0,0,0,3,4V22a1,1,0,0,0,1.707.707L6.845,20.57l1.323,1.984A1,1,0,0,0,8.9,23a.986.986,0,0,0,.806-.288L12,20.414l2.293,2.293a1,1,0,0,0,1.539-.153l1.323-1.984,2.138,2.137A1,1,0,0,0,21,22V4A3,3,0,0,0,18,1Zm1,18.586-1.293-1.293a.984.984,0,0,0-.806-.288,1,1,0,0,0-.733.44L14.845,20.43l-2.138-2.137a1,1,0,0,0-1.414,0L9.155,20.43,7.832,18.445a1,1,0,0,0-1.539-.152L5,19.586V4A1,1,0,0,1,6,3H18a1,1,0,0,1,1,1ZM13,11a1,1,0,0,1-1,1H8a1,1,0,0,1,0-2h4A1,1,0,0,1,13,11Zm0,4a1,1,0,0,1-1,1H8a1,1,0,0,1,0-2h4A1,1,0,0,1,13,15Zm4-4a1,1,0,0,1-1,1H15a1,1,0,0,1,0-2h1A1,1,0,0,1,17,11Zm0,4a1,1,0,0,1-1,1H15a1,1,0,0,1,0-2h1A1,1,0,0,1,17,15Zm0-9a1,1,0,0,1-1,1H8A1,1,0,0,1,8,5h8A1,1,0,0,1,17,6Z"/></svg>