<svg xmlns="http://www.w3.org/2000/svg" viewBox="0 0 24 24"><path d="M20,3H4A3,3,0,0,0,1,6V18a3,3,0,0,0,3,3H20a3,3,0,0,0,3-3V6A3,3,0,0,0,20,3Zm1,15a1,1,0,0,1-1,1H4a1,1,0,0,1-1-1V6A1,1,0,0,1,4,5H20a1,1,0,0,1,1,1Zm-2-2a1,1,0,0,1-1,1H6a1,1,0,0,1,0-2H18A1,1,0,0,1,19,16ZM5,8A1,1,0,0,1,6,7H8A1,1,0,0,1,8,9H6A1,1,0,0,1,5,8Zm5,0a1,1,0,0,1,1-1h2a1,1,0,0,1,0,2H11A1,1,0,0,1,10,8Zm9,0a1,1,0,0,1-1,1H16a1,1,0,0,1,0-2h2A1,1,0,0,1,19,8ZM5,12a1,1,0,0,1,1-1H8a1,1,0,0,1,0,2H6A1,1,0,0,1,5,12Zm5,0a1,1,0,0,1,1-1h2a1,1,0,0,1,0,2H11A1,1,0,0,1,10,12Zm9,0a1,1,0,0,1-1,1H16a1,1,0,0,1,0-2h2A1,1,0,0,1,19,12Z"/></svg>