<svg xmlns="http://www.w3.org/2000/svg" viewBox="0 0 24 24"><path d="M3.615,6.256l8,3.333a.989.989,0,0,0,.77,0l8-3.333a1,1,0,0,0,0-1.845l-8-3.334a1.007,1.007,0,0,0-.77,0l-8,3.334a1,1,0,0,0,0,1.845ZM12,3.083l5.4,2.25L12,7.583,6.6,5.333ZM20.385,10.7l-8,3.333a1,1,0,0,1-.77,0l-8-3.333a1,1,0,1,1,.77-1.846L12,12.028l7.615-3.173a1,1,0,1,1,.77,1.846Zm0,4.444-8,3.334a1,1,0,0,1-.77,0l-8-3.334a1,1,0,1,1,.77-1.846L12,16.472,19.615,13.3a1,1,0,1,1,.77,1.846Zm.538,3.137a1,1,0,0,1-.538,1.307l-8,3.334a1,1,0,0,1-.77,0l-8-3.334a1,1,0,1,1,.77-1.845L12,20.917l7.615-3.173A1,1,0,0,1,20.923,18.282Z"/></svg>