<svg xmlns="http://www.w3.org/2000/svg" viewBox="0 0 24 24"><path d="M2.293,21.707a1,1,0,0,0,1.414,0l3.051-3.051a9.821,9.821,0,0,0,4.261,1.014,9.2,9.2,0,0,0,6.638-2.964C23,11.361,21.936,3.3,21.888,2.963a1,1,0,0,0-.851-.851C20.7,2.063,12.638,1,7.294,6.344a9.091,9.091,0,0,0-1.95,10.9L2.293,20.293A1,1,0,0,0,2.293,21.707ZM8.708,7.758c3.733-3.733,9.236-3.839,11.264-3.73.106,2.029,0,7.531-3.729,11.264a7.063,7.063,0,0,1-7.984,1.863l4.4-4.4a1,1,0,1,0-1.414-1.414l-4.4,4.4A7.063,7.063,0,0,1,8.708,7.758Z"/></svg>