<svg xmlns="http://www.w3.org/2000/svg" viewBox="0 0 24 24"><path d="M21,2C15.637,2,11.6,3.517,9.008,6.507c-3.241,3.736-3.171,8.56-3.05,10.121L2.293,20.293a1,1,0,0,0,1.414,1.414l3.724-3.724c2.045-.1,9.949-.739,11.5-4.612A65.031,65.031,0,0,0,21.98,3.2,1,1,0,0,0,21,2ZM17.071,12.629c-.694,1.735-4.262,2.73-7.432,3.146l3.067-3.067,0,0,4-4a1,1,0,1,0-1.414-1.414L13,9.586V9a1,1,0,0,0-2,0v2.586l-3.04,3.04A11.489,11.489,0,0,1,10.53,7.8c2-2.3,5.1-3.563,9.215-3.773A63.686,63.686,0,0,1,17.071,12.629Z"/></svg>