<svg xmlns="http://www.w3.org/2000/svg" viewBox="0 0 24 24"><path d="M16,18.06a9,9,0,1,0-8,0V19a1,1,0,0,0,1,1h6a1,1,0,0,0,1-1Zm-1.375-1.574a1,1,0,0,0-.625.927V18H10v-.587a1,1,0,0,0-.625-.927,7,7,0,1,1,5.25,0ZM16,22a1,1,0,0,1-1,1H9a1,1,0,0,1,0-2h6A1,1,0,0,1,16,22Zm.555-13.832a1,1,0,0,1,.277,1.387l-2,3A1,1,0,0,1,14.1,13c-.034,0-.066.005-.1.005a1,1,0,0,1-.707-.293L12,11.414l-1.293,1.293a1,1,0,0,1-1.539-.152l-2-3a1,1,0,1,1,1.664-1.11l1.323,1.986,1.138-1.138a1,1,0,0,1,1.414,0l1.138,1.138,1.323-1.986A1,1,0,0,1,16.555,8.168Z"/></svg>