<svg xmlns="http://www.w3.org/2000/svg" viewBox="0 0 24 24"><path d="M6.091,10.945A6.018,6.018,0,0,0,9,17.191V20a3,3,0,0,0,6,0V17.191a6,6,0,1,0-8.909-6.246ZM12.008,8a3.944,3.944,0,0,1,2.513.9,4,4,0,0,1-.922,6.768,1,1,0,0,0-.6.916V20a1,1,0,0,1-2,0V16.578a1,1,0,0,0-.6-.916,4,4,0,0,1,.725-7.571A4.312,4.312,0,0,1,12.008,8ZM12,4a1,1,0,0,1-1-1V2a1,1,0,0,1,2,0V3A1,1,0,0,1,12,4Zm7.778,1.636-.707.707a1,1,0,0,1-1.414-1.414l.707-.707a1,1,0,0,1,1.414,1.414ZM4.929,20.071a1,1,0,0,1-.707-1.707l.706-.707a1,1,0,1,1,1.415,1.414l-.706.707A1,1,0,0,1,4.929,20.071ZM23,12a1,1,0,0,1-1,1H21a1,1,0,0,1,0-2h1A1,1,0,0,1,23,12ZM4,12a1,1,0,0,1-1,1H2a1,1,0,0,1,0-2H3A1,1,0,0,1,4,12Zm15.778,6.364a1,1,0,1,1-1.414,1.414l-.707-.707a1,1,0,0,1,1.414-1.414ZM6.343,4.929A1,1,0,0,1,4.928,6.343l-.706-.707A1,1,0,0,1,5.637,4.222Z"/></svg>