<svg xmlns="http://www.w3.org/2000/svg" viewBox="0 0 24 24"><path d="M22.063,8.226a7.976,7.976,0,0,0-5.521.63,10.063,10.063,0,0,0-3.986-5.687,1,1,0,0,0-1.112,0A10.072,10.072,0,0,0,7.457,8.858a7.964,7.964,0,0,0-5.521-.632,1,1,0,0,0-.732.769,10.771,10.771,0,0,0,2.481,9.149C6.036,20.781,8.873,21,11.816,21h.356c2.947,0,5.786-.219,8.14-2.855A10.764,10.764,0,0,0,22.8,8.994,1,1,0,0,0,22.063,8.226ZM12,5.245a8.36,8.36,0,0,1,2.772,4.73,9.256,9.256,0,0,0-1.089,1.017A10.3,10.3,0,0,0,12,13.515a10.345,10.345,0,0,0-1.687-2.523A9.314,9.314,0,0,0,9.227,9.98,8.362,8.362,0,0,1,12,5.245ZM10.958,18.992c-2.272-.05-4.173-.376-5.78-2.179A8.762,8.762,0,0,1,3.06,10.04a6.63,6.63,0,0,1,5.762,2.341A8.768,8.768,0,0,1,10.958,18.992Zm7.861-2.179c-1.61,1.8-3.513,2.129-5.789,2.179a8.759,8.759,0,0,1,2.138-6.61,6.808,6.808,0,0,1,5.011-2.393,5.528,5.528,0,0,1,.761.052A8.755,8.755,0,0,1,18.819,16.813Z"/></svg>