<svg xmlns="http://www.w3.org/2000/svg" viewBox="0 0 24 24"><path d="M22,12a17.821,17.821,0,0,1-2.222,9.244,3.577,3.577,0,0,1-6.366-.41L12,17.539l-1.412,3.294a3.577,3.577,0,0,1-6.366.411A17.833,17.833,0,0,1,2,12C2,5.934,6.058,3.957,9,3.317V2a1,1,0,0,1,2,0V7a4,4,0,0,1-4,4A1,1,0,0,1,7,9,2,2,0,0,0,9,7V5.382C5.691,6.234,4,8.447,4,12a15.863,15.863,0,0,0,1.94,8.221,1.578,1.578,0,0,0,2.81-.176l2.094-4.884C9.772,15.469,9,16.188,9,17a1,1,0,0,1-2,0c0-2.206,2.243-4,5-4s5,1.794,5,4a1,1,0,0,1-2,0c0-.812-.772-1.531-1.844-1.839l2.094,4.885a1.578,1.578,0,0,0,2.81.175A15.854,15.854,0,0,0,20,12c0-3.553-1.691-5.766-5-6.618V7a2,2,0,0,0,2,2,1,1,0,0,1,0,2,4,4,0,0,1-4-4V2a1,1,0,0,1,2,0V3.317C17.942,3.957,22,5.934,22,12Z"/></svg>