<svg xmlns="http://www.w3.org/2000/svg" viewBox="0 0 24 24"><path d="M1,18.891a1,1,0,0,0,.293.707L4.4,22.707a1,1,0,0,0,1.414,0l7.774-7.773h0L16.7,11.824a1,1,0,0,0,0-1.414L13.59,7.3a1,1,0,0,0-1.414,0L9.067,10.409h0L1.293,18.184A1,1,0,0,0,1,18.891ZM12.883,9.422l1.7,1.7-1.7,1.7-1.695-1.7ZM9.774,12.531l1.7,1.7-6.36,6.359-1.695-1.7ZM19.809,5.605,18.254,7.16A1,1,0,0,1,16.84,5.746L18.4,4.191a1,1,0,1,1,1.414,1.414ZM23,11.9a1,1,0,0,1-1,1H19.8a1,1,0,0,1,0-2H22A1,1,0,0,1,23,11.9Zm-3.191,6.289A1,1,0,1,1,18.4,19.6L16.84,18.043a1,1,0,1,1,1.414-1.414ZM5.816,4.191,7.371,5.746A1,1,0,1,1,5.957,7.16L4.4,5.605A1,1,0,1,1,5.816,4.191ZM12.106,1a1,1,0,0,1,1,1V4.2a1,1,0,1,1-2,0V2A1,1,0,0,1,12.106,1Z"/></svg>