<svg xmlns="http://www.w3.org/2000/svg" viewBox="0 0 24 24"><path d="M14,8.667a2,2,0,1,1-2-2A2,2,0,0,1,14,8.667Zm8.756,7.679a1,1,0,0,1-.632,1.646l-3.672.46-.46,3.672A1,1,0,0,1,16.2,22.6L12,17,7.8,22.6a1,1,0,0,1-1.792-.476l-.46-3.672-3.672-.46a1,1,0,0,1-.632-1.646L5.07,11.924a7.667,7.667,0,1,1,13.86,0Zm-12.587-.238c-.021,0-.041-.015-.062-.021a7.684,7.684,0,0,1-3.884-2.4c-.006-.007-.014-.012-.02-.02L3.98,16.24l2.588.323a1,1,0,0,1,.869.869l.248,1.988Zm7.5-7.441A5.667,5.667,0,1,0,12,14.333,5.673,5.673,0,0,0,17.667,8.667ZM20.02,16.24,17.8,13.671a7.72,7.72,0,0,1-3.9,2.416c-.021.006-.041.016-.062.021l2.484,3.312.248-1.988a1,1,0,0,1,.869-.869Z"/></svg>