<svg xmlns="http://www.w3.org/2000/svg" viewBox="0 0 24 24"><path d="M18,23a3,3,0,0,0,3-3V4a3,3,0,0,0-3-3H15a1,1,0,0,0-1,1,2,2,0,0,1-4,0A1,1,0,0,0,9,1H6A3,3,0,0,0,3,4V20a3,3,0,0,0,3,3ZM5,20V11h.882a1,1,0,0,0,0-2H5V4A1,1,0,0,1,6,3H8.126a4,4,0,0,0,7.747,0H18a1,1,0,0,1,1,1V9h-.883a1,1,0,0,0,0,2H19v9a1,1,0,0,1-1,1H6A1,1,0,0,1,5,20ZM7.706,10a1,1,0,0,1,1-1h1.882a1,1,0,1,1,0,2H8.706A1,1,0,0,1,7.706,10Zm4.706,0a1,1,0,0,1,1-1h1.882a1,1,0,0,1,0,2H13.412A1,1,0,0,1,12.412,10ZM11,13h2v2h2v2H13v2H11V17H9V15h2Z"/></svg>