<svg xmlns="http://www.w3.org/2000/svg" viewBox="0 0 24 24"><path d="M2.959,21.04a4.752,4.752,0,0,1-1.036-5.287,1,1,0,0,1,1.821.828,2.744,2.744,0,0,0,.63,3.045,2.753,2.753,0,0,0,3.046.631,1,1,0,1,1,.827,1.82,4.481,4.481,0,0,1-1.859.4A4.87,4.87,0,0,1,2.959,21.04ZM23,7v5a2,2,0,0,1-2,2H15a2,2,0,0,1-2-2V7a2,2,0,0,1,2-2V4a3,3,0,0,1,6,0V5A2,2,0,0,1,23,7ZM17,5h2V4a1,1,0,0,0-2,0Zm4,2H15v5h6ZM18,8.5a1,1,0,1,0,1,1A1,1,0,0,0,18,8.5ZM12.252,22a2,2,0,0,0,2.829,0l4.293-4.293a1,1,0,0,0-1.415-1.414l-4.292,4.293L3.414,10.333l6.919-6.919.959.96A1,1,0,0,0,12.708,2.96L11.748,2A2.005,2.005,0,0,0,8.919,2L2,8.919a2,2,0,0,0,0,2.828Z"/></svg>