<svg xmlns="http://www.w3.org/2000/svg" viewBox="0 0 24 24"><path d="M23,12v6a1,1,0,0,1-1,1H13v2h3a1,1,0,0,1,0,2H8a1,1,0,0,1,0-2h3V19H2a1,1,0,0,1-1-1V4A1,1,0,0,1,2,3H12a1,1,0,0,1,0,2H3V17H21V12a1,1,0,0,1,2,0ZM21.585,6.075a.417.417,0,0,0,.079.458l.444.444a.4.4,0,0,1,0,.571l-.56.561a.4.4,0,0,1-.571,0l-.444-.444a.416.416,0,0,0-.458-.08l-.006,0a.416.416,0,0,0-.269.38V8.6a.4.4,0,0,1-.4.4H18.6a.4.4,0,0,1-.4-.4V7.968a.415.415,0,0,0-.27-.38l0,0a.417.417,0,0,0-.459.08l-.444.444a.4.4,0,0,1-.571,0l-.56-.561a.4.4,0,0,1,0-.571l.444-.444a.415.415,0,0,0,.079-.458l0-.006a.416.416,0,0,0-.381-.269H15.4a.4.4,0,0,1-.4-.4V4.6a.4.4,0,0,1,.4-.4h.628a.415.415,0,0,0,.381-.27l0-.005a.415.415,0,0,0-.079-.458l-.444-.444a.4.4,0,0,1,0-.571l.56-.561a.4.4,0,0,1,.571,0l.444.444a.417.417,0,0,0,.459.08l0,0a.415.415,0,0,0,.27-.38V1.4a.4.4,0,0,1,.4-.4H19.4a.4.4,0,0,1,.4.4v.628a.416.416,0,0,0,.269.38l.006,0a.416.416,0,0,0,.458-.08l.444-.444a.4.4,0,0,1,.571,0l.56.561a.4.4,0,0,1,0,.571l-.444.444a.417.417,0,0,0-.079.458l0,.005a.416.416,0,0,0,.381.27H22.6a.4.4,0,0,1,.4.4V5.4a.4.4,0,0,1-.4.4h-.628a.417.417,0,0,0-.381.269ZM20.2,5A1.2,1.2,0,1,0,19,6.2,1.2,1.2,0,0,0,20.2,5Z"/></svg>