<svg xmlns="http://www.w3.org/2000/svg" viewBox="0 0 24 24"><path d="M16,16c0,3-3.011,3-4,3s-4,0-4-3a1,1,0,0,1,2,0c0,.7.278,1,2,1s2-.3,2-1a1,1,0,0,1,2,0Zm7-7a4,4,0,0,1-3,3.858v.634A4.394,4.394,0,0,1,22,17c0,3.364-4.393,6-10,6S2,20.364,2,17a4.394,4.394,0,0,1,2-3.508v-.634A3.992,3.992,0,0,1,5,5c.025,0,.052.008.077.009a7.982,7.982,0,0,1,13.846,0c.025,0,.052-.009.077-.009A4,4,0,0,1,23,9ZM6,9v3.613l1-.334V8.829a2.978,2.978,0,0,1,.879-2.122A3.071,3.071,0,0,1,12,6.592a3.07,3.07,0,0,1,4.121.115A2.978,2.978,0,0,1,17,8.829v3.45l1,.334V9A6,6,0,0,0,6,9ZM4,10.731A16.145,16.145,0,0,1,4.216,7.16,2,2,0,0,0,4,10.731ZM20,17c0-.46-.163-1.174-1.467-2.1l-2.849-.95A1,1,0,0,1,15,13V8.829a1,1,0,0,0-1.707-.708l-.586.586a1,1,0,0,1-1.414,0l-.586-.586A1,1,0,0,0,9,8.829V13a1,1,0,0,1-.684.949l-2.849.95C4.163,15.826,4,16.54,4,17c0,1.892,3.286,4,8,4S20,18.892,20,17Zm1-8a2,2,0,0,0-1.216-1.84c.006.026.008.052.014.077a16.057,16.057,0,0,1,.2,3.494A2,2,0,0,0,21,9Z"/></svg>