<svg xmlns="http://www.w3.org/2000/svg" viewBox="0 0 24 24"><path d="M3.025,9.653C2.978,10.37,3.012,10.006,3,14a9,9,0,0,0,18,0c-.012-4,.022-3.629-.025-4.347A3.463,3.463,0,0,0,23,6.5,3.5,3.5,0,0,0,19.5,3a3.459,3.459,0,0,0-1.635.425,8.986,8.986,0,0,0-3.682-1.91L12.242,1.03a.991.991,0,0,0-.484,0l-1.941.485a8.986,8.986,0,0,0-3.682,1.91A3.459,3.459,0,0,0,4.5,3,3.5,3.5,0,0,0,1,6.5,3.463,3.463,0,0,0,3.025,9.653ZM21,6.5a1.482,1.482,0,0,1-.419,1.037,9.42,9.42,0,0,0-.519-1.281L20.034,6.2a9.008,9.008,0,0,0-.714-1.182l0-.006A1.52,1.52,0,0,1,21,6.5ZM12,3.031c.178.1,7,.793,7,7.215V14A7,7,0,0,1,5,14V10.246C5,3.864,11.875,3.1,12,3.031ZM4.684,5.011A9.084,9.084,0,0,0,3.966,6.2l-.028.057A8.961,8.961,0,0,0,3.433,7.5c0,.011-.01.022-.014.034A1.482,1.482,0,0,1,3,6.5,1.5,1.5,0,0,1,4.684,5.011ZM6,9a3.974,3.974,0,0,0,1.2,2.841A5.358,5.358,0,0,0,6.5,14.5a5.5,5.5,0,0,0,11,0,5.358,5.358,0,0,0-.7-2.659,3.988,3.988,0,0,0-4.8-6.3A3.956,3.956,0,0,0,10,5,4,4,0,0,0,6,9Zm4-2a1.993,1.993,0,0,1,1.331.521,1,1,0,0,0,1.338,0,1.99,1.99,0,1,1,2.282,3.223,1,1,0,0,0-.285,1.521A3.441,3.441,0,0,1,15.5,14.5a3.5,3.5,0,0,1-7,0,3.441,3.441,0,0,1,.834-2.235,1,1,0,0,0-.285-1.521A1.99,1.99,0,0,1,10,7Z"/></svg>