<svg xmlns="http://www.w3.org/2000/svg" viewBox="0 0 24 24"><path d="M2.3,11.291l3-3A1,1,0,1,1,6.708,9.706L5.415,11H11V5.413L9.708,6.706A1,1,0,0,1,8.294,5.292l3-3a1,1,0,0,1,1.415,0l3,3a1,1,0,1,1-1.414,1.414L13,5.413V11h5.586L17.294,9.706a1,1,0,1,1,1.414-1.414l3,3a1,1,0,0,1,0,1.416l-3,3a1,1,0,1,1-1.414-1.414L18.587,13H13v5.586l1.293-1.293a1,1,0,0,1,1.414,1.414l-3,3a1,1,0,0,1-1.415,0l-3-3a1,1,0,0,1,1.414-1.414L11,18.585V13H5.415l1.293,1.293a1,1,0,1,1-1.414,1.414l-3-3A1,1,0,0,1,2.3,11.291Z"/></svg>