<svg xmlns="http://www.w3.org/2000/svg" viewBox="0 0 24 24"><path d="M16,1A6.982,6.982,0,0,0,9.085,6.961a5.537,5.537,0,0,0-2.833,2.39A4.1,4.1,0,0,0,5.6,9.3a4.6,4.6,0,0,0,0,9.2,1,1,0,1,0,0-2,2.6,2.6,0,1,1,.866-5.037,1,1,0,0,0,1.27-.59,3.488,3.488,0,0,1,6.528,0,1,1,0,0,0,1.27.59A2.594,2.594,0,0,1,16.4,11.3,2.641,2.641,0,0,1,19,13.9a2.6,2.6,0,0,1-2.6,2.6,1,1,0,1,0,0,2A4.6,4.6,0,0,0,21,13.9a4.52,4.52,0,0,0-.1-.914A6.993,6.993,0,0,0,16,1Zm3.978,10.028a4.555,4.555,0,0,0-4.23-1.677A5.592,5.592,0,0,0,11.2,6.6a5,5,0,1,1,8.774,4.424ZM7.605,16.553l1-2a1,1,0,1,1,1.79.894l-1,2a1,1,0,0,1-1.79-.894Zm4,0,1-2a1,1,0,1,1,1.79.894l-1,2a1,1,0,0,1-1.79-.894Zm-4,5,1-2a1,1,0,1,1,1.79.894l-1,2a1,1,0,0,1-1.79-.894Zm4,0,1-2a1,1,0,1,1,1.79.894l-1,2a1,1,0,0,1-1.79-.894Z"/></svg>