<svg xmlns="http://www.w3.org/2000/svg" viewBox="0 0 24 24"><path d="M22,21H9a1,1,0,0,1,0-2H20.954a11.008,11.008,0,0,0-.4-2.078H13a1,1,0,0,1,0-2h6.749A10.987,10.987,0,0,0,17.333,11.8a1,1,0,0,1,1.334-1.49A13.185,13.185,0,0,1,23,20,1,1,0,0,1,22,21Zm-20.707.293.363-.363A.993.993,0,0,1,1,20V4A1,1,0,0,1,2,3H12a1,1,0,0,1,0,2H3V7h7a12.891,12.891,0,0,1,4.693.893l6.6-6.6a1,1,0,0,1,1.414,1.414L8.785,16.629h0L2.707,22.707a1,1,0,0,1-1.414-1.414ZM10,9H3v5.922H7.664l5.46-5.46A10.951,10.951,0,0,0,10,9ZM3.586,19l2.078-2.078H3V19Z"/></svg>