<svg xmlns="http://www.w3.org/2000/svg" viewBox="0 0 24 24"><path d="M14,12a2,2,0,1,1-2-2A2,2,0,0,1,14,12Zm5.849,0c1.728,2.755,2.487,5.4,2.012,7.285a3.382,3.382,0,0,1-2.094,2.423c-2.346.929-5.62-.521-7.767-1.862-2.142,1.338-5.42,2.792-7.767,1.862a3.382,3.382,0,0,1-2.094-2.423C1.664,17.4,2.423,14.755,4.151,12,2.423,9.245,1.664,6.6,2.139,4.715A3.382,3.382,0,0,1,4.233,2.292C6.156,1.531,9.046,2.313,12,4.158c2.953-1.845,5.844-2.627,7.767-1.866a3.382,3.382,0,0,1,2.094,2.423C22.336,6.6,21.577,9.245,19.849,12ZM5.419,10.205c.226-.293.444-.586.689-.877a26.594,26.594,0,0,1,4.08-3.908C8.819,4.653,6.427,3.577,4.967,4.153A1.4,1.4,0,0,0,4.079,5.2C3.818,6.243,4.2,8.041,5.419,10.205ZM10.2,18.589a26.619,26.619,0,0,1-4.089-3.917c-.245-.291-.463-.584-.689-.877-1.216,2.164-1.6,3.962-1.34,5a1.4,1.4,0,0,0,.888,1.051C6.069,20.281,8.012,19.815,10.2,18.589ZM12,17.434a24.183,24.183,0,0,0,4.362-4.053c.4-.469.751-.929,1.077-1.381-.326-.452-.681-.912-1.077-1.381A24.209,24.209,0,0,0,12,6.567a24.209,24.209,0,0,0-4.362,4.052c-.4.469-.751.929-1.077,1.381.326.452.681.912,1.077,1.381A24.216,24.216,0,0,0,12,17.434ZM18.581,13.8c-.226.293-.444.586-.689.877A26.614,26.614,0,0,1,13.8,18.589c2.184,1.226,4.127,1.692,5.229,1.258a1.4,1.4,0,0,0,.888-1.051C20.182,17.757,19.8,15.959,18.581,13.8ZM19.921,5.2a1.4,1.4,0,0,0-.888-1.051c-1.46-.576-3.852.5-5.221,1.267a26.594,26.594,0,0,1,4.08,3.908c.245.291.463.584.689.877C19.8,8.041,20.182,6.243,19.921,5.2Z"/></svg>