<svg xmlns="http://www.w3.org/2000/svg" viewBox="0 0 24 24"><path d="M21.5,7.971a1,1,0,0,0,1-1V2.5a1,1,0,0,0-1-1H17.029a1,1,0,0,0-1,1V3.735H7.971V2.5a1,1,0,0,0-1-1H2.5a1,1,0,0,0-1,1V6.971a1,1,0,0,0,1,1H3.735v8.058H2.5a1,1,0,0,0-1,1V21.5a1,1,0,0,0,1,1H6.971a1,1,0,0,0,1-1V20.265h8.058V21.5a1,1,0,0,0,1,1H21.5a1,1,0,0,0,1-1V17.029a1,1,0,0,0-1-1H20.265V7.971Zm-18-2V3.5H5.971V5.971ZM5.971,20.5H3.5V18.029H5.971Zm10.058-3.471v1.236H7.971V17.029a1,1,0,0,0-1-1H5.735V7.971H6.971a1,1,0,0,0,1-1V5.735h8.058V6.971a1,1,0,0,0,1,1h1.236v8.058H17.029A1,1,0,0,0,16.029,17.029Zm4.471,1V20.5H18.029V18.029ZM18.029,5.971V3.5H20.5V5.971Z"/></svg>