<svg xmlns="http://www.w3.org/2000/svg" viewBox="0 0 24 24"><path d="M4.07,14.927a.976.976,0,0,0-.167.25c-.011.023-.023.043-.032.067a.362.362,0,0,0-.019.04l-1.8,5.4A1,1,0,0,0,3,22a1.014,1.014,0,0,0,.316-.051l5.4-1.8c.013,0,.023-.013.036-.017s.041-.021.062-.031a.967.967,0,0,0,.259-.172c.01-.009.024-.012.033-.022l12.6-12.6a1,1,0,0,0,0-1.414l-3.6-3.6a1,1,0,0,0-1.414,0l-12.6,12.6C4.083,14.9,4.08,14.917,4.07,14.927ZM17.4,4.414,19.586,6.6,8.4,17.786,7.307,16.693,6.214,15.6ZM5.237,17.451l.656.656.656.656-1.968.656Z"/></svg>