<svg xmlns="http://www.w3.org/2000/svg" viewBox="0 0 24 24"><path d="M17.344,2.293a1,1,0,0,0-1.414,0L14.293,3.93a1,1,0,0,0,0,1.414l.384.384-.855.854a4.177,4.177,0,0,0-4.983.62l-.546.546a1,1,0,0,0,0,1.414l2.566,2.565L2.293,20.293a1,1,0,1,0,1.414,1.414l8.566-8.566,2.566,2.566a1,1,0,0,0,1.414,0l.545-.545a4.093,4.093,0,0,0,.62-4.983l.854-.856.384.384a1,1,0,0,0,1.414,0L21.707,8.07a1,1,0,0,0,0-1.414Zm2.019,5.293L18.979,7.2a1,1,0,0,0-1.414,0L15.384,9.384a1,1,0,0,0,0,1.414,2.089,2.089,0,0,1,.153,2.779L10.423,8.464a2.136,2.136,0,0,1,2.779.152,1,1,0,0,0,1.414,0L16.8,6.435a1,1,0,0,0,0-1.414l-.384-.384.223-.223,2.949,2.949Z"/></svg>