<svg xmlns="http://www.w3.org/2000/svg" viewBox="0 0 24 24"><path d="M12,1a2.875,2.875,0,0,1,1.5,2.5A2.875,2.875,0,0,1,12,6a2.875,2.875,0,0,1-1.5-2.5A2.875,2.875,0,0,1,12,1Zm2.82,2.058a2.878,2.878,0,0,0-.707,2.829,2.878,2.878,0,0,0,2.829-.707,2.878,2.878,0,0,0,.707-2.829A2.878,2.878,0,0,0,14.82,3.058ZM6.351,2.351A2.878,2.878,0,0,0,7.058,5.18a2.878,2.878,0,0,0,2.829.707A2.833,2.833,0,0,0,6.351,2.351ZM5,12a5.006,5.006,0,0,1,5-5h4a5.006,5.006,0,0,1,5,5v6a5.006,5.006,0,0,1-5,5H10a5.006,5.006,0,0,1-5-5Zm2.738-1.949a.987.987,0,0,1,.969.242,1,1,0,0,1,0,1.414L7,13.414v2.172l.293-.293a1,1,0,0,1,1.414,1.414L7.038,18.376A2.994,2.994,0,0,0,10,21h4a2.994,2.994,0,0,0,2.962-2.624l-1.669-1.669a1,1,0,0,1,1.414-1.414l.293.293V13.414l-1.707-1.707a1,1,0,0,1,0-1.414.987.987,0,0,1,.969-.242A2.982,2.982,0,0,0,14,9H10A2.982,2.982,0,0,0,7.738,10.051Zm4.969,5.242a1,1,0,0,0-1.414,0l-2,2a1,1,0,0,0,1.414,1.414L12,17.414l1.293,1.293a1,1,0,0,0,1.414-1.414ZM9.293,13.707a1,1,0,0,0,1.414,0L12,12.414l1.293,1.293a1,1,0,0,0,1.414-1.414l-2-2a1,1,0,0,0-1.414,0l-2,2A1,1,0,0,0,9.293,13.707Z"/></svg>