<svg xmlns="http://www.w3.org/2000/svg" viewBox="0 0 24 24"><path d="M14.25,8H9.75A1.752,1.752,0,0,0,8,9.75v4.5A1.752,1.752,0,0,0,9.75,16h4.5A1.752,1.752,0,0,0,16,14.25V9.75A1.752,1.752,0,0,0,14.25,8ZM14,14H10V10h4Zm8-5a1,1,0,0,0,0-2H20V6.75A2.752,2.752,0,0,0,17.25,4H17V2a1,1,0,0,0-2,0V4H13V2a1,1,0,0,0-2,0V4H9V2A1,1,0,0,0,7,2V4H6.75A2.752,2.752,0,0,0,4,6.75V7H2A1,1,0,0,0,2,9H4v2H2a1,1,0,0,0,0,2H4v2H2a1,1,0,0,0,0,2H4v.25A2.752,2.752,0,0,0,6.75,20H7v2a1,1,0,0,0,2,0V20h2v2a1,1,0,0,0,2,0V20h2v2a1,1,0,0,0,2,0V20h.25A2.752,2.752,0,0,0,20,17.25V17h2a1,1,0,0,0,0-2H20V13h2a1,1,0,0,0,0-2H20V9Zm-4,8.25a.751.751,0,0,1-.75.75H6.75A.751.751,0,0,1,6,17.25V6.75A.751.751,0,0,1,6.75,6h10.5a.751.751,0,0,1,.75.75Z"/></svg>