<svg xmlns="http://www.w3.org/2000/svg" viewBox="0 0 24 24"><path d="M22.948,10.684l-3-9A1,1,0,0,0,19,1H5a1,1,0,0,0-.948.684l-3,9A1.229,1.229,0,0,0,1,11V22a1,1,0,0,0,1,1H22a1,1,0,0,0,1-1c0-.1-.008-11.127,0-11.027A.987.987,0,0,0,22.948,10.684ZM5.721,3H18.279l2.333,7h-3.2L12.707,5.293a1,1,0,0,0-1.414,0L6.586,10h-3.2ZM11,21V16h2v5Zm10,0H15V15a1,1,0,0,0-1-1H10a1,1,0,0,0-1,1v6H3V12H7a1,1,0,0,0,.707-.293L12,7.414l4.293,4.293A1,1,0,0,0,17,12h4ZM13,11a1,1,0,1,1-1-1A1,1,0,0,1,13,11ZM4,14H8v2H4Zm12,0h4v2H16ZM4,17H8v2H4Zm12,0h4v2H16Z"/></svg>