<svg xmlns="http://www.w3.org/2000/svg" viewBox="0 0 24 24"><path d="M22.707,10.293a1,1,0,0,1,0,1.414l-2,2a1,1,0,0,1-1.414,0l-2-2a1,1,0,0,1,1.414-1.414l.108.108a6.972,6.972,0,0,0-2.44-3.866,1,1,0,1,1,1.25-1.56,8.946,8.946,0,0,1,3.269,5.717l.4-.4A1,1,0,0,1,22.707,10.293ZM4.975,6.375a1,1,0,1,0,1.56,1.25A6.972,6.972,0,0,1,10.4,5.185l-.108.108a1,1,0,1,0,1.414,1.414l2-2a1,1,0,0,0,0-1.414l-2-2a1,1,0,0,0-1.414,1.414l.4.4A8.946,8.946,0,0,0,4.975,6.375Zm12.49,10a6.972,6.972,0,0,1-3.866,2.44l.108-.108a1,1,0,0,0-1.414-1.414l-2,2a1,1,0,0,0,0,1.414l2,2a1,1,0,0,0,1.414-1.414l-.4-.4a8.946,8.946,0,0,0,5.717-3.269,1,1,0,1,0-1.56-1.25ZM6.374,19.025a1,1,0,1,0,1.251-1.56A6.972,6.972,0,0,1,5.185,13.6l.108.108a1,1,0,1,0,1.414-1.414l-2-2a1,1,0,0,0-1.414,0l-2,2a1,1,0,0,0,1.414,1.414l.4-.4A8.949,8.949,0,0,0,6.374,19.025Z"/></svg>