<svg xmlns="http://www.w3.org/2000/svg" viewBox="0 0 24 24"><path d="M4,23a1,1,0,0,0,1-1V17H8v2a1,1,0,0,0,1,1h2v2a1,1,0,0,0,2,0V20h2a1,1,0,0,0,1-1V17h3v5a1,1,0,0,0,2,0V10a1,1,0,0,0-.629-.929L16,7.323V6.141A4.987,4.987,0,0,0,13.773,1.98l-1.218-.812a1,1,0,0,0-1.11,0l-1.218.812A4.987,4.987,0,0,0,8,6.141V7.323L3.629,9.071A1,1,0,0,0,3,10V22A1,1,0,0,0,4,23ZM16,9.477l3,1.2V15H16ZM10,8.02V6.141a2.991,2.991,0,0,1,1.336-2.5L12,3.2l.664.443A2.991,2.991,0,0,1,14,6.141V18H13V16a1,1,0,0,0-2,0v2H10ZM5,10.677l3-1.2V15H5Z"/></svg>