<svg xmlns="http://www.w3.org/2000/svg" viewBox="0 0 24 24"><path d="M4.351,14.063A1,1,0,0,0,3,15v3a5.006,5.006,0,0,0,5,5h8a5.006,5.006,0,0,0,5-5V15a1,1,0,0,0-1.352-.937L13,16.557V13.92A7.006,7.006,0,0,0,19,7V2a1,1,0,0,0-1.707-.707L14.274,4.312,12.9,1.553a1.042,1.042,0,0,0-1.79,0L9.726,4.312,6.707,1.293A1,1,0,0,0,5,2V7a7,7,0,0,0,6,6.92v2.637ZM19,18a3,3,0,0,1-3,3H8a3,3,0,0,1-3-3V16.443c6.926,2.572,6.631,2.545,6.978,2.553.008,0,.014,0,.022,0s.014,0,.022,0c.348-.008-.007.041,6.978-2.553ZM7,7V4.414L9.293,6.707a1,1,0,0,0,1.6-.26L12,4.236l1.105,2.211a1,1,0,0,0,1.6.26L17,4.414V7A5,5,0,0,1,7,7Z"/></svg>