<svg xmlns="http://www.w3.org/2000/svg" viewBox="0 0 24 24"><path d="M3.489,23a14.867,14.867,0,0,0,4.277-.877c.386-.135.86-.32,1.376-.539A10,10,0,0,0,21.575,9.124c1.478-3.465,1.825-6.572.85-7.548a3.106,3.106,0,0,0-2.507-.549,1,1,0,1,0,.164,1.993,3.6,3.6,0,0,1,.9.011,8.912,8.912,0,0,1-.578,3.55A10,10,0,1,0,4.929,19.071,10.183,10.183,0,0,0,6.58,20.4a8.91,8.91,0,0,1-3.549.578,3.647,3.647,0,0,1-.011-.9A1,1,0,0,0,2.106,19a.989.989,0,0,0-1.079.914,3.1,3.1,0,0,0,.549,2.507A2.678,2.678,0,0,0,3.489,23Zm14.168-5.344a7.937,7.937,0,0,1-5.419,2.331,23.031,23.031,0,0,0,4.356-3.394,23.208,23.208,0,0,0,3.392-4.367A7.967,7.967,0,0,1,17.657,17.657Zm-11.314,0a8.078,8.078,0,0,1-1.232-1.6,13.793,13.793,0,0,0,5.3-2.645,1,1,0,0,0-1.233-1.576,11.608,11.608,0,0,1-4.871,2.348A8,8,0,0,1,19.434,9.051,21.54,21.54,0,0,1,15.18,15.18a21.54,21.54,0,0,1-6.133,4.255A8,8,0,0,1,6.343,17.657ZM12,10.586a1,1,0,1,1,1.414,0A1,1,0,0,1,12,10.586Z"/></svg>