<svg xmlns="http://www.w3.org/2000/svg" viewBox="0 0 24 24"><path d="M5.368,3.062A27.935,27.935,0,0,1,6.1,14.4l-.248,1.74a1,1,0,0,1-1.98-.284l.249-1.739a25.92,25.92,0,0,0-1.065-11.8A1,1,0,0,1,4,1,17.015,17.015,0,0,1,20.868,15.876a1,1,0,0,1-1.984.248A15.013,15.013,0,0,0,5.368,3.062ZM22,17.667a1,1,0,0,0-1,1,2.334,2.334,0,0,1-4.667,0,1,1,0,1,0-2,0,2.333,2.333,0,1,1-4.666,0,1,1,0,0,0-2,0,2.334,2.334,0,0,1-4.667,0,1,1,0,0,0-2,0,4.332,4.332,0,0,0,7.667,2.766,4.328,4.328,0,0,0,6.666,0A4.332,4.332,0,0,0,23,18.667,1,1,0,0,0,22,17.667Z"/></svg>