<svg xmlns="http://www.w3.org/2000/svg" viewBox="0 0 24 24"><path d="M19,5.869V2a1,1,0,0,0-1-1H6A1,1,0,0,0,5,2V5.861L1.039,19.726A1,1,0,0,0,2,21H4.382l-.277.553A1,1,0,0,0,5,23h7a1,1,0,0,0,1-1v-.674l5.725,1.636A1.036,1.036,0,0,0,19,23a1,1,0,0,0,.895-1.447l-.028-.056,1.89.473a1,1,0,0,0,1.209-1.228ZM17,5H15V3h2ZM11,5V3h2V5ZM7,3H9V5H7ZM18.8,19.17l-1.842-6.444a1,1,0,1,0-1.922.548l2,7a.569.569,0,0,0,.026.056.811.811,0,0,0,.025.084L13,19.245V15a1,1,0,0,0-2,0v6H6.618l.277-.553c.007-.014.009-.03.015-.044s.014-.02.019-.032l4-10a1,1,0,1,0-1.858-.742L5.323,19h-2L6.754,7H17.232L20.6,19.618Z"/></svg>