<svg xmlns="http://www.w3.org/2000/svg" viewBox="0 0 24 24"><path d="M12,1a8.239,8.239,0,0,0-8.2,9.06l.607,6.069a7.63,7.63,0,0,0,15.184,0L20.2,10.06A8.239,8.239,0,0,0,12,1ZM5.791,9.86c0-.032,0-.064-.005-.1C7.079,8.726,9.588,7,12,7s4.921,1.726,6.214,2.764c0,.032,0,.064,0,.1l-.226,2.262A11.409,11.409,0,0,0,12,10a11.409,11.409,0,0,0-5.983,2.122ZM12,3a6.2,6.2,0,0,1,5.821,4.016A11.082,11.082,0,0,0,12,5,11.082,11.082,0,0,0,6.179,7.016,6.2,6.2,0,0,1,12,3Zm5.6,12.93a5.63,5.63,0,0,1-11.2,0l-.161-1.615a.987.987,0,0,0,.346-.156A10.127,10.127,0,0,1,12,12a10.127,10.127,0,0,1,5.417,2.159,1,1,0,0,0,.347.152Z"/></svg>