<svg xmlns="http://www.w3.org/2000/svg" viewBox="0 0 24 24"><path d="M21.293,6.293,19.1,8.482a9.008,9.008,0,0,0-2.155-1.974A4.993,4.993,0,0,0,17,6a4.937,4.937,0,0,0-.233-1.429l1.605-.642a1,1,0,0,0-.744-1.858L15.809,2.8A4.978,4.978,0,0,0,7,6a4.993,4.993,0,0,0,.051.508A9.008,9.008,0,0,0,4.9,8.482L2.707,6.293A1,1,0,0,0,1.293,7.707l2.542,2.542a9,9,0,1,0,16.33,0l2.542-2.542a1,1,0,1,0-1.414-1.414ZM12,3a2.972,2.972,0,0,1,1.79.607l-1.162.464A1,1,0,0,0,13,6c.332,0,.418-.113,1.913-.688A3,3,0,1,1,12,3Zm7,11A7,7,0,1,1,5.375,11.789l.918.918a1,1,0,1,0,1.414-1.414L6.332,9.918A6.97,6.97,0,0,1,7.693,8.5a4.956,4.956,0,0,0,8.614,0,6.97,6.97,0,0,1,1.361,1.422l-1.375,1.375a1,1,0,0,0,1.414,1.414l.918-.918A6.947,6.947,0,0,1,19,14Z"/></svg>