<svg xmlns="http://www.w3.org/2000/svg" viewBox="0 0 24 24"><path d="M12,4.625A7.993,7.993,0,0,0,5.729,17.583a.78.78,0,0,0-.092.062L3.043,20.271a1.021,1.021,0,0,0,0,1.432.99.99,0,0,0,1.414,0l2.594-2.626a.975.975,0,0,0,.076-.117,7.962,7.962,0,0,0,9.745,0,1.027,1.027,0,0,0,.077.117L19.543,21.7a.99.99,0,0,0,1.414,0,1.021,1.021,0,0,0,0-1.432l-2.594-2.626c-.027-.027-.063-.038-.092-.062A7.993,7.993,0,0,0,12,4.625Zm4,9H12a1,1,0,0,1-1-1v-4.8a1,1,0,1,1,2,0v3.8h3a1,1,0,0,1,0,2ZM2.293,6.767a1.021,1.021,0,0,1,0-1.432l3-3.038a.99.99,0,0,1,1.414,0,1.021,1.021,0,0,1,0,1.432l-3,3.038a.992.992,0,0,1-1.414,0ZM21.707,5.335a1.021,1.021,0,0,1,0,1.432.992.992,0,0,1-1.414,0l-3-3.038a1.021,1.021,0,0,1,0-1.432.99.99,0,0,1,1.414,0Z"/></svg>