<svg xmlns="http://www.w3.org/2000/svg" viewBox="0 0 24 24"><path d="M18.252,14.694A4.864,4.864,0,0,1,16,10.715V9a3.987,3.987,0,0,0-2.77-3.787C13.54,4.653,14.269,4,16,4a1,1,0,0,0,0-2c-3.2,0-4.5,1.715-4.873,3.1A4,4,0,0,0,8,9v1.508a5.287,5.287,0,0,1-2.338,4.246,4,4,0,0,0-1.643,3.639A4.116,4.116,0,0,0,8.172,22H15.1c2.826,0,4.685-1.527,4.883-3.607A4,4,0,0,0,18.252,14.694ZM12,19c-2.25,0-3-2.25-3-3.375a4.753,4.753,0,0,1,1.5-3.375A2.323,2.323,0,0,1,12,11.5a2.323,2.323,0,0,1,1.5.75A4.753,4.753,0,0,1,15,15.625C15,16.75,14.25,19,12,19Z"/></svg>