<svg xmlns="http://www.w3.org/2000/svg" viewBox="0 0 24 24"><path d="M19,6c-1.838,0-3.3,1.874-4.154,3.328A3.046,3.046,0,0,0,12,7,3.046,3.046,0,0,0,9.154,9.328C8.3,7.874,6.838,6,5,6A2.938,2.938,0,0,0,2,9a4.938,4.938,0,0,0,1,3,4.938,4.938,0,0,0-1,3,2.938,2.938,0,0,0,3,3c1.838,0,3.3-1.874,4.154-3.328A3.046,3.046,0,0,0,12,17a3.046,3.046,0,0,0,2.846-2.328C15.7,16.126,17.162,18,19,18a2.938,2.938,0,0,0,3-3,4.938,4.938,0,0,0-1-3,4.938,4.938,0,0,0,1-3A2.938,2.938,0,0,0,19,6ZM9,13H7a1,1,0,0,1,0-2H9Zm8,0H15V11h2a1,1,0,0,1,0,2Z"/></svg>