<svg xmlns="http://www.w3.org/2000/svg" viewBox="0 0 24 24"><path d="M19.839,5.553,22,7.714a9.054,9.054,0,0,0-3.571,2.143c-2.143,2.143-.715,3.572-2.858,5.714S12,16.286,9.857,18.429A10.455,10.455,0,0,0,7.714,22L5.556,19.841a.979.979,0,0,0,.249-.38,9.511,9.511,0,0,1,1.9-3.183,3.827,3.827,0,0,1,2.346-1.154,5.8,5.8,0,0,0,3.368-1.7,5.8,5.8,0,0,0,1.7-3.368,3.827,3.827,0,0,1,1.154-2.346A8.135,8.135,0,0,1,19.41,5.821.971.971,0,0,0,19.839,5.553ZM6.293,14.864a5.8,5.8,0,0,1,3.368-1.7,3.826,3.826,0,0,0,2.346-1.155,3.826,3.826,0,0,0,1.155-2.346,5.8,5.8,0,0,1,1.7-3.368,10.067,10.067,0,0,1,3.493-2.222L16.286,2a9.054,9.054,0,0,0-3.572,2.143C10.571,6.286,12,7.714,9.857,9.857s-3.571.714-5.714,2.857A10.446,10.446,0,0,0,2,16.286l2.082,2.081A11.008,11.008,0,0,1,6.293,14.864Z"/></svg>