<svg xmlns="http://www.w3.org/2000/svg" viewBox="0 0 24 24"><path d="M3.293,13.707a1,1,0,0,1,0-1.414l2-2a1,1,0,0,1,1.414,0L8,11.586l1.293-1.293a1,1,0,0,1,1.414,0L12,11.586l1.293-1.293a1,1,0,0,1,1.414,0L16,11.586l1.293-1.293a1,1,0,0,1,1.414,0l2,2a1,1,0,1,1-1.414,1.414L18,12.414l-1.293,1.293a1,1,0,0,1-1.414,0L14,12.414l-1.293,1.293a1,1,0,0,1-1.414,0L10,12.414,8.707,13.707a1,1,0,0,1-1.414,0L6,12.414,4.707,13.707A1,1,0,0,1,3.293,13.707ZM14,2H10A6,6,0,0,0,4,8H20A6,6,0,0,0,14,2Zm0,17-2-3H4a6,6,0,0,0,6,6h4a6,6,0,0,0,6-6H16Z"/></svg>