<svg xmlns="http://www.w3.org/2000/svg" viewBox="0 0 24 24"><path d="M19,16a1,1,0,0,1-1,1,4.718,4.718,0,0,0-4.365,2.909c-.132.32-.256.663-.367,1.033A1.373,1.373,0,0,1,12.015,22h-.03a1.373,1.373,0,0,1-1.253-1.058c-.111-.37-.235-.713-.367-1.033A4.718,4.718,0,0,0,6,17a1,1,0,0,1,0-2H18A1,1,0,0,1,19,16Zm-7-5.127L7,6.662V3A1,1,0,0,0,5,3V5.534c-.511.948-1.675,3.508-.477,5.339C6.019,13.159,12,10.873,12,10.873ZM19,3a1,1,0,0,0-2,0V6.662l-5,4.211s5.981,2.286,7.477,0c1.2-1.831.034-4.391-.477-5.339Z"/></svg>