<svg xmlns="http://www.w3.org/2000/svg" viewBox="0 0 24 24"><path d="M21.938,10.654a.993.993,0,0,1,0,.692,13.366,13.366,0,0,1-1.081,2.264,1,1,0,1,1-1.714-1.031A11.219,11.219,0,0,0,19.928,11C18.451,7.343,15.373,5,12,5S5.549,7.343,4.072,11a9.315,9.315,0,0,0,6.167,5.787,1,1,0,0,1-.478,1.942,11.393,11.393,0,0,1-7.7-7.383.993.993,0,0,1,0-.692C3.773,6.005,7.674,3,12,3S20.227,6.005,21.938,10.654Zm-2.231,4.639a1,1,0,0,0-1.414,0L17,16.586l-1.293-1.293a1,1,0,0,0-1.414,1.414L15.586,18l-1.293,1.293a1,1,0,0,0,1.414,1.414L17,19.414l1.293,1.293a1,1,0,0,0,1.414-1.414L18.414,18l1.293-1.293A1,1,0,0,0,19.707,15.293ZM9.5,10a1.492,1.492,0,0,1-1.175-.577,4,4,0,1,0,2.1-2.1A1.5,1.5,0,0,1,9.5,10Z"/></svg>