<svg xmlns="http://www.w3.org/2000/svg" viewBox="0 0 24 24"><path d="M15,22a6,6,0,1,1,6-6A6,6,0,0,1,15,22ZM8.5,8.857c3.038,0,5.5-1.535,5.5-3.428S11.538,2,8.5,2,3,3.535,3,5.429,5.462,8.857,8.5,8.857ZM7.673,12.8a8.018,8.018,0,0,1,1.368-2.119c-.18.011-.356.033-.541.033C5.462,10.714,3,9.179,3,7.286V9.428C3,11.145,5.032,12.549,7.673,12.8Zm-.534,4.656A8.03,8.03,0,0,1,7,16c0-.24.015-.477.036-.712C4.712,14.889,3,13.576,3,12v2.143C3,15.742,4.762,17.077,7.139,17.456ZM8.5,22a8.83,8.83,0,0,0,1.079-.067,5.451,5.451,0,0,1-.673-.762,8.064,8.064,0,0,1-.929-1.345C5.188,19.66,3,18.211,3,16.429v2.142C3,20.465,5.462,22,8.5,22Z"/></svg>