<svg xmlns="http://www.w3.org/2000/svg" viewBox="0 0 24 24"><path d="M9.7,22a8,8,0,0,0,8.037-6H19a3.005,3.005,0,0,0,2.942-3.6,3.081,3.081,0,0,0-3.06-2.4H3a1,1,0,0,0-1,1v2.7A8.2,8.2,0,0,0,9.7,22ZM18,12h1a1,1,0,0,1,0,2H18ZM6.707,3.707l-.75.75A2.42,2.42,0,0,1,6.561,6a2.049,2.049,0,0,1-.6,1.457l-1.25,1.25A1,1,0,0,1,3.293,7.293l1.25-1.25a2.42,2.42,0,0,1-.6-1.543,2.049,2.049,0,0,1,.6-1.457l.75-.75A1,1,0,0,1,6.707,3.707Zm5,0-.75.75A2.42,2.42,0,0,1,11.561,6a2.049,2.049,0,0,1-.6,1.457l-1.25,1.25A1,1,0,0,1,8.293,7.293l1.25-1.25a2.42,2.42,0,0,1-.6-1.543,2.049,2.049,0,0,1,.6-1.457l.75-.75a1,1,0,1,1,1.414,1.414Zm5,0-.75.75A2.42,2.42,0,0,1,16.561,6a2.049,2.049,0,0,1-.6,1.457l-1.25,1.25a1,1,0,0,1-1.414-1.414l1.25-1.25a2.42,2.42,0,0,1-.6-1.543,2.049,2.049,0,0,1,.6-1.457l.75-.75a1,1,0,1,1,1.414,1.414Z"/></svg>