<svg xmlns="http://www.w3.org/2000/svg" viewBox="0 0 24 24"><path d="M19.349,4.5C17.792,2.863,15.251,2,12,2s-5.8.864-7.355,2.5A6.013,6.013,0,0,0,3,9.047a11.279,11.279,0,0,0,.336,2.2,8.032,8.032,0,0,0,1.385,2.814A.987.987,0,0,0,4,15v3a1,1,0,0,0,1,1H6v2a1,1,0,0,0,2,0V19h8v2a1,1,0,0,0,2,0V19h1a1,1,0,0,0,1-1V15a.986.986,0,0,0-.728-.945,7.992,7.992,0,0,0,1.383-2.812,11.231,11.231,0,0,0,.337-2.2A6.013,6.013,0,0,0,19.349,4.5Zm-.355,4.457a9.267,9.267,0,0,1-.278,1.8A6.777,6.777,0,0,1,16.68,14H14.533l1.649-9.275A5.134,5.134,0,0,1,17.9,5.876,4.056,4.056,0,0,1,18.994,8.953ZM6.092,5.878A5.145,5.145,0,0,1,7.818,4.725L9.467,14H7.313a6.774,6.774,0,0,1-2.035-3.243A9.327,9.327,0,0,1,5,8.953,4.06,4.06,0,0,1,6.092,5.878Z"/></svg>