<svg xmlns="http://www.w3.org/2000/svg" viewBox="0 0 24 24"><path d="M7,1A2.5,2.5,0,1,1,4.5,3.5,2.5,2.5,0,0,1,7,1ZM20.948,7.684A1.106,1.106,0,0,0,20,7H14a1.089,1.089,0,0,0-.948.684L12,10.839,10.948,7.684c0-.013-.014-.021-.018-.033a.963.963,0,0,0-.107-.187.979.979,0,0,0-.1-.146,1.107,1.107,0,0,0-.143-.11.975.975,0,0,0-.167-.112.922.922,0,0,0-.158-.044.914.914,0,0,0-.22-.044C10.024,7.007,10.013,7,10,7H4c-.013,0-.024.007-.037.008a.9.9,0,0,0-.22.044.9.9,0,0,0-.158.044.93.93,0,0,0-.166.112.92.92,0,0,0-.144.111,1.036,1.036,0,0,0-.1.144.975.975,0,0,0-.108.188c0,.012-.014.02-.018.033l-2,6a1,1,0,0,0,1.9.632L4,11.161V22a1,1,0,0,0,2,0V16H8v6a1,1,0,0,0,2,0V11.161l1.052,3.155a1.1,1.1,0,0,0,.632.632A1.026,1.026,0,0,0,12,15a1.04,1.04,0,0,0,.948-.684L14,11.161V22a1,1,0,0,0,2,0V16h2v6a1,1,0,0,0,2,0V11.161l1.052,3.155a1,1,0,1,0,1.9-.632ZM14.5,3.5V6h5V3.5a2.5,2.5,0,0,0-5,0Z"/></svg>