<svg xmlns="http://www.w3.org/2000/svg" viewBox="0 0 24 24"><path d="M5.293,15.707l-3-3a1,1,0,0,1,0-1.414l3-3A1,1,0,0,1,6.707,9.707L4.414,12l2.293,2.293a1,1,0,1,1-1.414,1.414Zm3,3,3,3a1,1,0,0,0,1.414,0l3-3a1,1,0,0,0-1.414-1.414L12,19.586,9.707,17.293a1,1,0,0,0-1.414,1.414ZM12,9a3,3,0,1,0,3,3A3,3,0,0,0,12,9Zm3.707-2.293a1,1,0,0,0,0-1.414l-3-3a1,1,0,0,0-1.414,0l-3,3A1,1,0,0,0,9.707,6.707L12,4.414l2.293,2.293a1,1,0,0,0,1.414,0Zm3,1.586a1,1,0,0,0-1.414,1.414L19.586,12l-2.293,2.293a1,1,0,1,0,1.414,1.414l3-3a1,1,0,0,0,0-1.414Z"/></svg>