<svg xmlns="http://www.w3.org/2000/svg" viewBox="0 0 24 24"><path d="M2.276,9.7a9.993,9.993,0,0,1,19.232-.79.966.966,0,0,0-.484.275,5.915,5.915,0,0,1-4.972,1.926.969.969,0,0,0-.153.019,3.977,3.977,0,0,0-6.98-1.653,1,1,0,0,0-.3-.14A8.9,8.9,0,0,0,2.276,9.7Zm19.677,1.375c.028.3.047.612.047.924A10,10,0,0,1,2,12v-.014c.017,0,.033.012.051.012a.993.993,0,0,0,.575-.183c1.372-.967,2.956-1.126,5.447-.547a3.988,3.988,0,0,0,7.759,1.815c.033,0,.06.023.094.025q.315.02.615.019A7.8,7.8,0,0,0,21.953,11.076ZM6,14a1,1,0,1,0-1,1A1,1,0,0,0,6,14Zm2.707,3.293-1-1a1,1,0,0,0-1.414,1.414l1,1a1,1,0,0,0,1.414-1.414Zm5,2-1-1a1,1,0,0,0-1.414,1.414l1,1a1,1,0,0,0,1.414-1.414ZM17,17a1,1,0,1,0-1,1A1,1,0,0,0,17,17Zm3-1a1,1,0,1,0-1,1A1,1,0,0,0,20,16Z"/></svg>