<svg xmlns="http://www.w3.org/2000/svg" viewBox="0 0 24 24"><path d="M21.174,5.219a2.821,2.821,0,0,1-3.55,4.348L9.567,17.624a2.821,2.821,0,0,1-4.348,3.55,2.791,2.791,0,0,1-.788-1.605,2.791,2.791,0,0,1-1.6-.788,2.821,2.821,0,0,1,3.55-4.348l8.057-8.057a2.821,2.821,0,0,1,4.348-3.55,2.791,2.791,0,0,1,.788,1.605A2.791,2.791,0,0,1,21.174,5.219Zm-3.55,9.214-1.019-1.019-3.191,3.191,1.019,1.019a2.821,2.821,0,0,0,4.348,3.55,2.791,2.791,0,0,0,.788-1.605,2.791,2.791,0,0,0,1.605-.788,2.821,2.821,0,0,0-3.55-4.348ZM6.376,9.567,7.4,10.586,10.586,7.4,9.567,6.376a2.821,2.821,0,0,0-4.348-3.55,2.791,2.791,0,0,0-.788,1.605,2.791,2.791,0,0,0-1.6.788,2.821,2.821,0,0,0,3.55,4.348Z"/></svg>