<svg xmlns="http://www.w3.org/2000/svg" viewBox="0 0 24 24"><path d="M2.062,11.346a.99.99,0,0,1,0-.691C3.773,6,7.674,3,12,3s8.227,3,9.938,7.655a.987.987,0,0,1,0,.69,13.339,13.339,0,0,1-1.08,2.264,1,1,0,1,1-1.715-1.028A11.3,11.3,0,0,0,19.928,11C18.451,7.343,15.373,5,12,5S5.549,7.343,4.072,11a9.315,9.315,0,0,0,6.167,5.787,1,1,0,0,1-.478,1.942A11.393,11.393,0,0,1,2.062,11.346ZM16,11a4,4,0,0,0-5.577-3.675,1.5,1.5,0,1,1-2.1,2.1A4,4,0,1,0,16,11Zm1.5,10a1,1,0,0,0,1-1V18.5H20a1,1,0,0,0,0-2H18.5V15a1,1,0,0,0-2,0v1.5H15a1,1,0,0,0,0,2h1.5V20A1,1,0,0,0,17.5,21Z"/></svg>