<svg xmlns="http://www.w3.org/2000/svg" viewBox="0 0 24 24"><path d="M12,22c6,0,8-6,8-9a12.675,12.675,0,0,0-4-9,6.194,6.194,0,0,0-4-2A6.194,6.194,0,0,0,8,4a12.675,12.675,0,0,0-4,9C4,16,6,22,12,22ZM16.805,8.36A9.683,9.683,0,0,1,18,13a6.9,6.9,0,0,1-.114,1.112A3.944,3.944,0,0,1,16.805,8.36ZM13,17a3.98,3.98,0,0,1,2.953,1.313A5.166,5.166,0,0,1,12,20a5.348,5.348,0,0,1-2.634-.652A4,4,0,0,1,13,17ZM9.414,5.414c.113-.113.224-.205.335-.3A3.987,3.987,0,0,1,7,12a3.913,3.913,0,0,1-.931-.122A10.848,10.848,0,0,1,9.414,5.414Z"/></svg>