<svg xmlns="http://www.w3.org/2000/svg" viewBox="0 0 24 24"><path d="M12,2A6.194,6.194,0,0,0,8,4a12.675,12.675,0,0,0-4,9c0,3,2,9,8,9s8-6,8-9a12.675,12.675,0,0,0-4-9A6.194,6.194,0,0,0,12,2Zm3.5,16.752a5.015,5.015,0,0,1-2,1.05V18.5h-2a1,1,0,0,1-1-1v-2h-2a1,1,0,0,1-1-1v-2H6.026A9.566,9.566,0,0,1,6.5,9.937V10.5h2a1,1,0,0,1,1,1v2h2a1,1,0,0,1,1,1v2h2a1,1,0,0,1,1,1Zm1-8.252v2h1.474c.008.167.026.332.026.5a8.961,8.961,0,0,1-.5,2.612V14.5h-2a1,1,0,0,1-1-1v-2h-2a1,1,0,0,1-1-1v-2h-2a1,1,0,0,1-1-1V6.427c.283-.343.583-.682.914-1.013A5.64,5.64,0,0,1,10.5,4.561V6.5h2a1,1,0,0,1,1,1v2h2A1,1,0,0,1,16.5,10.5Z"/></svg>