<svg xmlns="http://www.w3.org/2000/svg" viewBox="0 0 24 24"><path d="M16,4a6.194,6.194,0,0,0-4-2A6.194,6.194,0,0,0,8,4a12.675,12.675,0,0,0-4,9c0,3,2,9,8,9s8-6,8-9A12.675,12.675,0,0,0,16,4ZM8.236,6.766A30.456,30.456,0,0,0,12,7a30.456,30.456,0,0,0,3.764-.234,10.6,10.6,0,0,1,1.905,3.774A35.025,35.025,0,0,1,12,11a35.025,35.025,0,0,1-5.669-.46A10.6,10.6,0,0,1,8.236,6.766Zm7.316,11.945c-1.154.115-2.368.181-3.552.181s-2.4-.066-3.553-.181a7.9,7.9,0,0,1-2.271-4.28A28.093,28.093,0,0,0,12,15a28.076,28.076,0,0,0,5.823-.569A7.9,7.9,0,0,1,15.552,18.711Z"/></svg>