<svg xmlns="http://www.w3.org/2000/svg" viewBox="0 0 24 24"><path d="M5,22H19a1,1,0,0,0,1-1V6.414a1,1,0,0,0-.293-.707L16.293,2.293A1,1,0,0,0,15.586,2H5A1,1,0,0,0,4,3V21A1,1,0,0,0,5,22Zm8-5a1,1,0,0,1-2,0V16a1,1,0,0,1,2,0ZM10.127,5.682a2.927,2.927,0,0,1,2.418-.631,3.084,3.084,0,0,1,2.409,2.52,3.142,3.142,0,0,1-1.79,3.421.407.407,0,0,0-.164.359V12a1,1,0,0,1-2,0v-.649A2.359,2.359,0,0,1,12.363,9.16,1.144,1.144,0,0,0,12.981,7.9a1.067,1.067,0,0,0-.8-.879.913.913,0,0,0-.775.2,1.155,1.155,0,0,0-.4.9,1,1,0,1,1-2,0A3.151,3.151,0,0,1,10.127,5.682Z"/></svg>