<svg xmlns="http://www.w3.org/2000/svg" viewBox="0 0 24 24"><path d="M7,13.022H11V22C8.894,21.093,7.227,17.419,7,13.022Zm6,0V22c2.1-.907,3.768-4.581,3.994-8.978ZM11,2C8.894,2.907,7.227,6.581,7,10.978H11Zm5.848,1.05a16.925,16.925,0,0,1,2.164,7.928H22A10.222,10.222,0,0,0,16.843,3.05Zm0,17.9A10.222,10.222,0,0,0,22,13.022H19.007A16.925,16.925,0,0,1,16.843,20.95ZM13.005,2v8.978H17C16.773,6.581,15.106,2.907,13.005,2ZM7.157,20.95a16.925,16.925,0,0,1-2.164-7.928H2A10.222,10.222,0,0,0,7.157,20.95Zm0-17.9A10.222,10.222,0,0,0,2,10.978H4.993A16.925,16.925,0,0,1,7.157,3.05Z"/></svg>