<svg xmlns="http://www.w3.org/2000/svg" viewBox="0 0 24 24"><path d="M21,8h-.106A4.192,4.192,0,0,0,21,7a3.718,3.718,0,0,0-4-4c-2.164,0-3.969,2.271-5,3.928C10.969,5.271,9.164,3,7,3A3.718,3.718,0,0,0,3,7a4.192,4.192,0,0,0,.106,1H3A1,1,0,0,0,2,9v3a1,1,0,0,0,1,1h8V10h2v3h8a1,1,0,0,0,1-1V9A1,1,0,0,0,21,8ZM7.556,8C5,8,5,7.6,5,7,5,5.207,6.142,5,7,5c1.113,0,2.419,1.583,3.308,3Zm8.888,0H13.692c.889-1.417,2.2-3,3.308-3,.858,0,2,.207,2,2C19,7.6,19,8,16.444,8ZM13,15h7v5a1,1,0,0,1-1,1H5a1,1,0,0,1-1-1V15h7v4h2Z"/></svg>