<svg xmlns="http://www.w3.org/2000/svg" viewBox="0 0 24 24"><path d="M11,22H2l1.749-4.371A1,1,0,0,1,4.677,17H8.323a1,1,0,0,1,.928.629Zm8.323-5H15.677a1,1,0,0,0-.928.629L13,22h9l-1.749-4.371A1,1,0,0,0,19.323,17ZM9.249,10.629,7.5,15h9l-1.749-4.371A1,1,0,0,0,13.823,10H10.177A1,1,0,0,0,9.249,10.629ZM13,5V3a1,1,0,0,0-2,0V5a1,1,0,0,0,2,0Zm4.657,2.757,1.414-1.414a1,1,0,1,0-1.414-1.414L16.243,6.343a1,1,0,1,0,1.414,1.414ZM6.343,4.929A1,1,0,0,0,4.929,6.343L6.343,7.757A1,1,0,0,0,7.757,6.343ZM2,12a1,1,0,0,0,1,1H5a1,1,0,0,0,0-2H3A1,1,0,0,0,2,12Zm19-1H19a1,1,0,0,0,0,2h2a1,1,0,0,0,0-2Z"/></svg>