<svg xmlns="http://www.w3.org/2000/svg" viewBox="0 0 24 24"><path d="M4.1,19.9a3.353,3.353,0,0,0,4.741,0L19.9,8.839A3.352,3.352,0,0,0,15.161,4.1L4.1,15.161A3.353,3.353,0,0,0,4.1,19.9Zm2.759-5.045H8.428V13.286a1,1,0,0,1,1-1H11V10.714a1,1,0,0,1,1-1h1.571V8.143a1,1,0,0,1,1-1h2.571a1,1,0,0,1,0,2H15.572v1.571a1,1,0,0,1-1,1H13v1.572a1,1,0,0,1-1,1H10.429v1.571a1,1,0,0,1-1,1H6.857a1,1,0,1,1,0-2Zm3.46,6.4L21.253,10.317a4.469,4.469,0,0,1-.561,5.634l-4.741,4.741A4.469,4.469,0,0,1,10.317,21.253Zm-7.57-7.57a4.469,4.469,0,0,1,.561-5.634L8.049,3.308a4.469,4.469,0,0,1,5.634-.561Z"/></svg>