<svg xmlns="http://www.w3.org/2000/svg" viewBox="0 0 24 24"><path d="M10.922,7.113A5,5,0,0,1,14,16.578V20a2,2,0,0,1-4,0V16.578a5,5,0,0,1,.922-9.465ZM13,4V3a1,1,0,0,0-2,0V4a1,1,0,0,0,2,0Zm5.707,1.293a1,1,0,0,0-1.414,0L16.586,6A1,1,0,1,0,18,7.414l.707-.707A1,1,0,0,0,18.707,5.293ZM5.293,18.707a1,1,0,0,0,1.414,0L7.414,18A1,1,0,0,0,6,16.586l-.707.707A1,1,0,0,0,5.293,18.707ZM21,11H20a1,1,0,0,0,0,2h1a1,1,0,0,0,0-2ZM4,11H3a1,1,0,0,0,0,2H4a1,1,0,0,0,0-2Zm14,5.586A1,1,0,0,0,16.586,18l.707.707a1,1,0,0,0,1.414-1.414ZM6.707,5.293A1,1,0,0,0,5.293,6.707L6,7.414A1,1,0,0,0,7.414,6Z"/></svg>