<svg xmlns="http://www.w3.org/2000/svg" viewBox="0 0 24 24"><path d="M19.742,5.673a9.993,9.993,0,0,1,0,12.654l-3.5-3.5a.779.779,0,0,0-.085-.056,4.987,4.987,0,0,0,0-5.546.779.779,0,0,0,.085-.056ZM12,2A9.957,9.957,0,0,0,5.673,4.258l3.5,3.5a.779.779,0,0,1,.056.085,4.987,4.987,0,0,1,5.546,0,.779.779,0,0,1,.056-.085l3.5-3.5A9.957,9.957,0,0,0,12,2Zm0,15a4.971,4.971,0,0,1-2.773-.842.779.779,0,0,1-.056.085l-3.5,3.5a9.993,9.993,0,0,0,12.654,0l-3.5-3.5a.779.779,0,0,1-.056-.085A4.971,4.971,0,0,1,12,17ZM2,12a9.957,9.957,0,0,0,2.258,6.327l3.5-3.5a.779.779,0,0,1,.085-.056,4.987,4.987,0,0,1,0-5.546.779.779,0,0,1-.085-.056l-3.5-3.5A9.957,9.957,0,0,0,2,12Z"/></svg>