<svg xmlns="http://www.w3.org/2000/svg" viewBox="0 0 24 24"><path d="M12,2A10,10,0,1,0,22,12,10,10,0,0,0,12,2Zm2.828,5.758,1.415-1.415a1,1,0,1,1,1.414,1.414L16.242,9.172a1,1,0,0,1-1.414-1.414ZM4,12a1,1,0,0,1,1-1H7a1,1,0,0,1,0,2H5A1,1,0,0,1,4,12Zm5.172,4.242L7.757,17.657a1,1,0,0,1-1.414-1.414l1.415-1.415a1,1,0,0,1,1.414,1.414Zm0-7.07a1,1,0,0,1-1.414,0L6.343,7.757A1,1,0,0,1,7.757,6.343L9.172,7.758A1,1,0,0,1,9.172,9.172ZM13,19a1,1,0,0,1-2,0V17a1,1,0,0,1,2,0ZM13,7a1,1,0,0,1-2,0V5a1,1,0,0,1,2,0Zm4.657,10.657a1,1,0,0,1-1.414,0l-1.415-1.415a1,1,0,0,1,1.414-1.414l1.415,1.415A1,1,0,0,1,17.657,17.657ZM20,12a1,1,0,0,1-1,1H17a1,1,0,0,1,0-2h2A1,1,0,0,1,20,12Z"/></svg>