<svg xmlns="http://www.w3.org/2000/svg" viewBox="0 0 24 24"><path d="M19.168,16.258A11.319,11.319,0,0,0,20.8,14.6a1,1,0,0,0-1.6-1.2,8.925,8.925,0,0,1-1.12,1.152l-2.463-3.869a3.962,3.962,0,0,0-2.645-5.548A.979.979,0,0,0,13,5V3a1,1,0,0,0-2,0V5a.979.979,0,0,0,.027.133,3.962,3.962,0,0,0-2.645,5.548L5.919,14.55A9.046,9.046,0,0,1,4.8,13.4a1,1,0,0,0-1.6,1.2,11.319,11.319,0,0,0,1.631,1.657L2.157,20.463a1,1,0,1,0,1.687,1.074l2.619-4.116A10.821,10.821,0,0,0,11,18.953V20a1,1,0,0,0,2,0V18.953a10.821,10.821,0,0,0,4.537-1.532l2.619,4.116a1,1,0,1,0,1.687-1.074ZM13,16.933V16a1,1,0,0,0-2,0v.932a8.924,8.924,0,0,1-3.457-1.208l2.186-3.436a3.982,3.982,0,0,0,4.542,0l2.186,3.436A8.924,8.924,0,0,1,13,16.933Z"/></svg>