<svg xmlns="http://www.w3.org/2000/svg" viewBox="0 0 24 24"><path d="M15.918,10.6A12.586,12.586,0,0,1,16,12a15.156,15.156,0,0,1-.51,3.677,38.477,38.477,0,0,1-4.014-1.247c-.549-.193-1.082-.38-1.605-.552A14.783,14.783,0,0,0,10,12a16.329,16.329,0,0,0-.366-3.293c.387.131.775.264,1.18.406A33.46,33.46,0,0,0,15.918,10.6ZM22,5V19a1,1,0,0,1-1,1H3a1,1,0,0,1-1-1V5A1,1,0,0,1,3,4H21A1,1,0,0,1,22,5ZM20,8.687a9.474,9.474,0,0,1-2.344.125A22.64,22.64,0,0,0,16.886,6H14.758a21.81,21.81,0,0,1,.775,2.483,37.6,37.6,0,0,1-4.054-1.256c-.851-.3-1.658-.568-2.451-.8-.048-.148-.1-.286-.143-.425H5.742A6.294,6.294,0,0,0,4,6.42V8.661a4.634,4.634,0,0,1,3.427-.592A15.481,15.481,0,0,1,8,12a12.387,12.387,0,0,1-.076,1.335A6.666,6.666,0,0,0,4,13.627v2.235a4.667,4.667,0,0,1,3.583-.56A21.938,21.938,0,0,1,6.757,18H8.884c.217-.633.436-1.348.623-2.133.426.143.857.292,1.3.449a40.816,40.816,0,0,0,4.1,1.275c-.05.143-.1.279-.149.409h2.127l.019-.052c.182.021.365.037.548.052h1.959c.2-.017.392-.05.588-.078V15.887A9.656,9.656,0,0,1,17.474,16,17.021,17.021,0,0,0,18,12c0-.394-.023-.786-.055-1.176.152.006.3.019.456.019a11.273,11.273,0,0,0,1.6-.124Z"/></svg>