<svg xmlns="http://www.w3.org/2000/svg" viewBox="0 0 24 24"><path d="M5.9,22H3a10.343,10.343,0,0,1-1-4c0-3,2-3,2-6S2,9,2,6A8.961,8.961,0,0,1,3,2H5.888A10,10,0,0,0,5,6,5.744,5.744,0,0,0,6.168,9.555,3.78,3.78,0,0,1,7,12a3.78,3.78,0,0,1-.832,2.445A5.744,5.744,0,0,0,5,18,10.908,10.908,0,0,0,5.9,22ZM7,18A9.383,9.383,0,0,0,7.9,21.554.979.979,0,0,1,7.989,22H11a10.343,10.343,0,0,1-1-4c0-3,2-3,2-6s-2-3-2-6a8.961,8.961,0,0,1,1-4H7.984a.961.961,0,0,1-.114.493A8.043,8.043,0,0,0,7,6a3.78,3.78,0,0,0,.832,2.445A5.744,5.744,0,0,1,9,12a5.744,5.744,0,0,1-1.168,3.555A3.78,3.78,0,0,0,7,18Zm9.168-8.445A5.744,5.744,0,0,1,15,6a10,10,0,0,1,.888-4H13a8.961,8.961,0,0,0-1,4c0,3,2,3,2,6s-2,3-2,6a10.343,10.343,0,0,0,1,4h2.9a10.908,10.908,0,0,1-.9-4,5.744,5.744,0,0,1,1.168-3.555A3.78,3.78,0,0,0,17,12,3.78,3.78,0,0,0,16.168,9.555ZM22,12c0-3-2-3-2-6a8.961,8.961,0,0,1,1-4H17.984a.961.961,0,0,1-.114.493A8.043,8.043,0,0,0,17,6a3.78,3.78,0,0,0,.832,2.445A5.744,5.744,0,0,1,19,12a5.744,5.744,0,0,1-1.168,3.555A3.78,3.78,0,0,0,17,18a9.383,9.383,0,0,0,.895,3.554.979.979,0,0,1,.094.446H21a10.343,10.343,0,0,1-1-4C20,15,22,15,22,12Z"/></svg>