<svg xmlns="http://www.w3.org/2000/svg" viewBox="0 0 24 24"><path d="M10,14a1,1,0,0,0-1,1v1a1,1,0,0,0,2,0V15A1,1,0,0,0,10,14Z"/><path d="M14,14a1,1,0,0,0-1,1v1a1,1,0,0,0,2,0V15A1,1,0,0,0,14,14Z"/><path d="M12,2C7,2,2,5.376,2,11c0,1.029.84,4.871,2.515,3.793a7.49,7.49,0,0,0,14.97,0C21.16,15.874,22,12.032,22,11,22,5.376,17,2,12,2Zm0,2a9.142,9.142,0,0,1,4.92,1.418,5.979,5.979,0,0,1-9.84,0A9.142,9.142,0,0,1,12,4Zm0,16a5.506,5.506,0,0,1-5.5-5.5c0-.061,0-.122,0-.183A8.65,8.65,0,0,1,12,11.788a8.65,8.65,0,0,1,5.5,2.529c0,.061,0,.122,0,.183A5.506,5.506,0,0,1,12,20Z"/></svg>