<svg xmlns="http://www.w3.org/2000/svg" viewBox="0 0 24 24"><path d="M12,2a2.875,2.875,0,0,1,1.5,2.5A2.875,2.875,0,0,1,12,7a2.875,2.875,0,0,1-1.5-2.5A2.875,2.875,0,0,1,12,2Zm2.82,2.058a2.878,2.878,0,0,0-.707,2.829,2.833,2.833,0,0,0,3.536-3.536A2.878,2.878,0,0,0,14.82,4.058ZM7.058,6.18a2.878,2.878,0,0,0,2.829.707A2.833,2.833,0,0,0,6.351,3.351,2.878,2.878,0,0,0,7.058,6.18Zm10.235,7.527A1,1,0,0,0,18,14v2.586l-1.293-1.293a1,1,0,0,0-1.414,1.414l2,2a.975.975,0,0,0,.574.267A3.992,3.992,0,0,1,14,22H10a3.992,3.992,0,0,1-3.867-3.026.975.975,0,0,0,.574-.267l2-2a1,1,0,0,0-1.414-1.414L6,16.586V14a1,1,0,0,0,.707-.293l2-2a1,1,0,0,0-1.414-1.414L6.046,11.54A3.987,3.987,0,0,1,10,8h4a3.987,3.987,0,0,1,3.954,3.54l-1.247-1.247a1,1,0,0,0-1.414,1.414Zm-2.586,4.586-2-2a1,1,0,0,0-1.414,0l-2,2a1,1,0,0,0,1.414,1.414L12,18.414l1.293,1.293a1,1,0,0,0,1.414-1.414Zm0-5-2-2a1,1,0,0,0-1.414,0l-2,2a1,1,0,0,0,1.414,1.414L12,13.414l1.293,1.293a1,1,0,0,0,1.414-1.414Z"/></svg>