<svg xmlns="http://www.w3.org/2000/svg" viewBox="0 0 24 24"><path d="M19,7.762c-.883-.442-2.071.287-3,1.238a15.053,15.053,0,0,0-2.924-2.684A2.718,2.718,0,0,1,16,4a1,1,0,0,0,0-2,4.723,4.723,0,0,0-4.942,4.258A13.751,13.751,0,0,0,8,9c-.929-.951-2.117-1.68-3-1.238C3.535,8.494,2,16.434,2,17c0,4.418,4.477,5,10,5s10-.582,10-5C22,16.434,20.465,8.494,19,7.762ZM10.4,17H5.6a.544.544,0,0,1-.48-.873l2.4-2.909a.637.637,0,0,1,.96,0l2.4,2.909A.544.544,0,0,1,10.4,17Zm8,0H13.6a.544.544,0,0,1-.48-.873l2.4-2.909a.637.637,0,0,1,.96,0l2.4,2.909A.544.544,0,0,1,18.4,17Z"/></svg>