<svg xmlns="http://www.w3.org/2000/svg" viewBox="0 0 24 24"><path d="M21.832,17.445a1,1,0,0,1-.277,1.387l-3,2a1,1,0,0,1-.871.116L15,20.054V21a1,1,0,0,1-2,0V19.925a6.7,6.7,0,0,1-2,0V21a1,1,0,0,1-2,0v-.946l-2.684.894a1,1,0,0,1-.871-.116l-3-2a1,1,0,0,1,1.11-1.664L6.148,18.9l1.469-.489a4.691,4.691,0,0,1-1.543-2.662l-2.39-.8A1,1,0,0,1,3,14V9A1,1,0,0,1,5,9v4.279l1.217.406a5.722,5.722,0,0,1,4.8-3.612c0-.025-.015-.047-.015-.073V3a1,1,0,0,1,2,0v7c0,.026-.013.048-.015.073a5.722,5.722,0,0,1,4.8,3.612L19,13.279V9a1,1,0,0,1,2,0v5a1,1,0,0,1-.684.948l-2.39.8a4.691,4.691,0,0,1-1.543,2.662l1.469.489,2.593-1.728A1,1,0,0,1,21.832,17.445Z"/></svg>