<svg xmlns="http://www.w3.org/2000/svg" viewBox="0 0 24 24"><path d="M6.292,11.707l-4-4a.968.968,0,0,1-.216-.325.992.992,0,0,1,0-.764.968.968,0,0,1,.216-.325l4-4A1,1,0,1,1,7.706,3.707L5.413,6H10a1,1,0,1,1,0,2H5.413l2.293,2.293a1,1,0,1,1-1.414,1.414ZM19.953,9.478A4.025,4.025,0,0,0,17.979,9H13.032V4.111a2.213,2.213,0,0,0-.178-.851c-.012-.03-.025-.058-.038-.087a2.036,2.036,0,0,0-.123-.225c-.023-.038-.046-.074-.071-.109a2.117,2.117,0,0,0-.18-.219c-.015-.016-.029-.032-.044-.047a1.884,1.884,0,0,0-1.035-.545A2.086,2.086,0,0,0,11.022,2L11,2h0c-.052,0-.1.011-.151.016A1.993,1.993,0,0,0,9,4V5h1a2,2,0,1,1,0,4H9s.019,7.678.019,7.575L7.5,15.066a2.088,2.088,0,0,0-2.658-.294,2,2,0,0,0-.258,3.046l3.027,3.016A4,4,0,0,0,10.437,22h6.069a4,4,0,0,0,2.823-1.166,7.783,7.783,0,0,0,2.209-4.406l.422-2.941A3.946,3.946,0,0,0,19.953,9.478Z"/></svg>