<svg xmlns="http://www.w3.org/2000/svg" viewBox="0 0 24 24"><path d="M21.708,7.707l-4,4a1,1,0,0,1-1.415-1.414L18.587,8H14a1,1,0,0,1,0-2h4.587L16.293,3.707a1,1,0,0,1,1.415-1.414l4,4A1,1,0,0,1,21.708,7.707ZM8.438,22h6.069a4,4,0,0,0,2.823-1.166,7.776,7.776,0,0,0,2.209-4.406l.422-2.941.023-2.643-1.569,1.57a2,2,0,1,1-2.829-2.828L16.172,9H11.033V4.112A2.079,2.079,0,0,0,9.364,2.028,2.006,2.006,0,0,0,7.018,4V16.575L5.5,15.066a2.088,2.088,0,0,0-2.658-.294,2,2,0,0,0-.258,3.046l3.027,3.016A4,4,0,0,0,8.438,22Z"/></svg>