<svg xmlns="http://www.w3.org/2000/svg" viewBox="0 0 24 24"><path d="M7,4A1,1,0,0,1,6,5H5V6A1,1,0,0,1,3,6V4A1,1,0,0,1,4,3H6A1,1,0,0,1,7,4ZM3,16a1,1,0,0,0,2,0V14a1,1,0,0,0-2,0Zm4,4a1,1,0,0,0,1,1h2a1,1,0,0,0,0-2H8A1,1,0,0,0,7,20Zm12-1H18a1,1,0,0,0,0,2h2a1,1,0,0,0,1-1V18a1,1,0,0,0-2,0Zm1-8a1,1,0,0,0,1-1V8a1,1,0,0,0-2,0v2A1,1,0,0,0,20,11ZM17,4a1,1,0,0,0-1-1H14a1,1,0,0,0,0,2h2A1,1,0,0,0,17,4ZM9,10v4a1,1,0,0,0,1,1h4a1,1,0,0,0,1-1V10a1,1,0,0,0-1-1H10A1,1,0,0,0,9,10Zm4,9a1,1,0,0,0,0,2h2a1,1,0,0,0,0-2Zm6-4a1,1,0,0,0,2,0V13a1,1,0,0,0-2,0ZM3,11a1,1,0,0,0,2,0V9A1,1,0,0,0,3,9Zm8-8H9A1,1,0,0,0,9,5h2a1,1,0,0,0,0-2Z"/></svg>