<svg xmlns="http://www.w3.org/2000/svg" viewBox="0 0 24 24"><path d="M12,2A10,10,0,1,0,22,12,10,10,0,0,0,12,2Zm8,10a7.958,7.958,0,0,1-.132,1.406,6.288,6.288,0,0,0-1.728-1.02,8.524,8.524,0,0,1-3.85,7.276,7.931,7.931,0,0,1-4.741-.05c5.939-1.659,6.705-5.37,6.583-7.556,0-.018.007-.034.007-.052a7.491,7.491,0,0,0-3.446.818c-1.754,3.291-3.956,4.694-5.929,5.212a8.043,8.043,0,0,1-1.522-1.772,5.828,5.828,0,0,0,2.122-.575c-.025-.025-.059-.036-.081-.064A10.329,10.329,0,0,1,5.1,7.977a8.045,8.045,0,0,1,2.92-2.9,8.464,8.464,0,0,0,.831,9.305.981.981,0,0,1,.1.191,10.285,10.285,0,0,0,1.976-2.659c-1.09-3.574-.517-6.12.517-7.88C11.624,4.015,11.81,4,12,4a7.992,7.992,0,0,1,1.754.2A5.8,5.8,0,0,0,12.8,5.737a12.449,12.449,0,0,1,3.81-.266,8.064,8.064,0,0,1,2.384,2.652,9.827,9.827,0,0,0-6.642-.186l-.013,0a9.74,9.74,0,0,0,.32,2.7,8.551,8.551,0,0,1,7.277.386A8.082,8.082,0,0,1,20,12Z"/></svg>