<svg xmlns="http://www.w3.org/2000/svg" viewBox="0 0 24 24"><path d="M11.5,1A2.5,2.5,0,1,1,9,3.5,2.5,2.5,0,0,1,11.5,1ZM7.743,16.03a1,1,0,0,0-1.213.728L6.1,18.488l-2.8,2.805a1,1,0,0,0,1.414,1.414l3-3a1,1,0,0,0,.263-.465l.5-2A1,1,0,0,0,7.743,16.03Zm12.206-3.346a.918.918,0,0,0-.053-.092.944.944,0,0,0-.1-.175.961.961,0,0,0-.128-.142.92.92,0,0,0-.144-.111,1.015,1.015,0,0,0-.191-.091c-.032-.011-.057-.034-.09-.043l-3.419-.854L14.97,7.758C14.78,7.383,14.613,7,14,7H8a1.139,1.139,0,0,0-.8.4L4.387,11.15l-2.7.9a1,1,0,1,0,.632,1.9l3-1A.989.989,0,0,0,5.8,12.6l1.825-2.434c-.017.1-.626,3.758-.609,3.657A1.027,1.027,0,0,0,7.5,14.867l4.7,2.818,1.874,4.686a1,1,0,1,0,1.858-.742l-2-5a1,1,0,0,0-.414-.486L11.61,15c.485-.027,1.236.009,1.376-.836l.61-3.657.433,1.735a1,1,0,0,0,.728.728l3.468.867,2.826,8.479a1,1,0,0,0,1.9-.632Z"/></svg>