<svg xmlns="http://www.w3.org/2000/svg" viewBox="0 0 24 24"><path d="M3,21.05a1,1,0,0,0,1,1.006H20a1,1,0,0,0,1-1.006V9.989H3Zm12-5.035v.007a2.994,2.994,0,0,1-5.457,1.725,9.561,9.561,0,0,0,2.792-.883,7.632,7.632,0,0,1,2.633-.84C14.979,16.023,14.988,16.016,15,16.015Zm-3-3.01a2.985,2.985,0,0,1,2.607,1.551,9.292,9.292,0,0,0-2.942.959A8.108,8.108,0,0,1,9.09,16.3a.608.608,0,0,0-.06.021,2.861,2.861,0,0,1-.03-.3A3.009,3.009,0,0,1,12,13.005Z"/><path d="M20,2.056H4a1,1,0,0,0-1,1V7.642H21V3.061A1,1,0,0,0,20,2.056Zm-2,3.8H16a1.006,1.006,0,0,1,0-2.011h2a1.006,1.006,0,0,1,0,2.011Z"/></svg>