<svg xmlns="http://www.w3.org/2000/svg" viewBox="0 0 24 24"><path d="M12,23A11,11,0,1,0,1,12,11.046,11.046,0,0,0,12,23ZM8,20.05a9.029,9.029,0,0,1-2.6-1.956A2,2,0,0,1,8,20.05Zm8,0a2,2,0,0,1,2.6-1.956A8.989,8.989,0,0,1,16,20.05Zm3.369-13.2a9.236,9.236,0,0,1,1.395,3.135A2,2,0,0,1,19.37,6.851Zm-5.745-3.7a1.985,1.985,0,0,1-3.25,0A8.783,8.783,0,0,1,13.625,3.155Zm-9,3.7A2,2,0,0,1,3.235,9.986,8.73,8.73,0,0,1,4.63,6.851ZM5.964,5.344a9.008,9.008,0,0,1,2.459-1.6,3.965,3.965,0,0,0,7.154,0,9.008,9.008,0,0,1,2.459,1.6A3.987,3.987,0,0,0,21,12a8.934,8.934,0,0,1-1.19,4.454,3.976,3.976,0,0,0-5.729,4.293,8.685,8.685,0,0,1-4.162,0A3.976,3.976,0,0,0,4.19,16.454,8.934,8.934,0,0,1,3,12,3.987,3.987,0,0,0,5.964,5.344ZM12,16a4,4,0,1,0-4-4A4,4,0,0,0,12,16Zm0-6a2,2,0,1,1-2,2A2,2,0,0,1,12,10Z"/></svg>