<svg xmlns="http://www.w3.org/2000/svg" viewBox="0 0 24 24"><path d="M10.953,21.41a4.955,4.955,0,0,0,4.6-3.082l2.346-4.9A.983.983,0,0,0,18,13V2.414a1,1,0,0,0-1-1H9.422a1,1,0,0,0-1,1v8.413L6.428,14.38a5.05,5.05,0,0,0-.034,3.977A4.943,4.943,0,0,0,10.953,21.41ZM16,12.772l-1.218,2.541A2.479,2.479,0,0,1,14,13.5a2.5,2.5,0,0,1,2-2.45Zm0-9.358V5H10.422V3.414ZM8.214,15.273l2.079-3.695a.988.988,0,0,0,.129-.49V7H16V9.051a4.47,4.47,0,0,0-2.1,8.1l-.178.372a2.975,2.975,0,0,1-3.794,1.7A3.028,3.028,0,0,1,8.214,15.273Z"/></svg>