<svg xmlns="http://www.w3.org/2000/svg" viewBox="0 0 24 24"><path d="M19.828,2.172a4,4,0,0,1,0,5.656,1,1,0,0,1-1.414-1.414,2,2,0,0,0,0-2.828,2.047,2.047,0,0,0-2.828,0,1,1,0,0,1-1.414-1.414A4.093,4.093,0,0,1,19.828,2.172Zm-12,10.067A6,6,0,0,1,8.757,5l.707-.707a1,1,0,0,1,1.414,0l7.072,7.071a1,1,0,0,1,0,1.414l-.707.707A5.98,5.98,0,0,1,13,15.239a6.111,6.111,0,0,1-1-.1V21h8a1,1,0,0,1,0,2H4a1,1,0,0,1,0-2H6V15A3,3,0,0,1,7.829,12.239Zm2.342-.168a4.007,4.007,0,0,0,5.658,0L10.171,6.414A4.006,4.006,0,0,0,10.171,12.071ZM8,21h2V15a1,1,0,0,0-2,0Z"/></svg>