<svg xmlns="http://www.w3.org/2000/svg" viewBox="0 0 24 24"><path d="M4,23a1,1,0,0,0,1-1V20H7v2a1,1,0,0,0,2,0V20.228a17.471,17.471,0,0,0,2,.232V22a1,1,0,0,0,2,0V20.46a17.471,17.471,0,0,0,2-.232V22a1,1,0,0,0,2,0V20h2v2a1,1,0,0,0,2,0V13a1,1,0,0,0-.4-.8L17,9.5V8a7.034,7.034,0,0,0-2.8-5.6L12.6,1.2a1,1,0,0,0-1.2,0L9.8,2.4A7.034,7.034,0,0,0,7,8V9.5L3.4,12.2A1,1,0,0,0,3,13v9A1,1,0,0,0,4,23ZM17,12l2,1.5V18H17ZM9,8a5.025,5.025,0,0,1,2-4l1-.75L13,4h0a5.025,5.025,0,0,1,2,4V18.2a15.446,15.446,0,0,1-2,.243V16a1,1,0,0,0-2,0v2.442A15.446,15.446,0,0,1,9,18.2ZM5,13.5,7,12v6H5Z"/></svg>