<svg xmlns="http://www.w3.org/2000/svg" viewBox="0 0 24 24"><path d="M12,1C6.667,1,1,2.752,1,6c0,.742,1.984,11.99,2,12.094.084,2.107,3,3.26,6,3.692V22a1,1,0,0,0,1,1h4a1,1,0,0,0,1-1v-.214c3-.432,5.915-1.585,6-3.692C21.015,17.993,23,6.1,23,6,23,2.752,17.333,1,12,1Zm1,20H11V19a1,1,0,0,1,2,0Zm6.014-3.164A1,1,0,0,0,19,18c0,.358-1.211,1.311-4,1.762V19a3,3,0,0,0-6,0v.762c-2.789-.451-4-1.4-4-1.762a.908.908,0,0,0-.014-.164l-.7-4.2A20.138,20.138,0,0,0,12,15a20.215,20.215,0,0,0,7.711-1.366Zm1.112-6.7C18.545,12.272,15.42,13,12,13c-3.366,0-6.467-.7-8.093-1.823-.009-.006-.019-.006-.028-.011L3.57,9.3A19.846,19.846,0,0,0,12,11a19.857,19.857,0,0,0,8.431-1.7Zm-14.143-3A13.92,13.92,0,0,1,12,7a13.92,13.92,0,0,1,6.017,1.138A19.48,19.48,0,0,1,12,9,19.549,19.549,0,0,1,5.983,8.138Zm14.11-.972C18.684,5.848,15.561,5,12,5s-6.682.847-8.093,2.166C3.545,6.915,3,6.44,3,6c0-1.223,3.506-3,9-3s9,1.777,9,3C21,6.442,20.456,6.915,20.093,7.166Z"/></svg>