<svg xmlns="http://www.w3.org/2000/svg" viewBox="0 0 24 24"><path d="M20.01,14.577A3.867,3.867,0,0,0,21,12.055c0-2.09-1.862-3.9-4.652-4.649a2.636,2.636,0,0,0-.045-.985A2.82,2.82,0,0,0,18,4.011C18,2.322,16.133,1,13.75,1A4.307,4.307,0,0,0,9.735,3.047c-2.919.25-5.11,1.906-5.11,3.98a3.624,3.624,0,0,0,2,3.037A3.681,3.681,0,0,0,6,12.055c0,.076.012.151.017.227-.51.322-1,.627-1.462.859-.23.114-.446.215-.649.311C2.1,14.3,1,14.978,1,18.088,1,22.44,4.741,23,8,23a71.591,71.591,0,0,0,8.916-.376c1.5-.2,6.084-.789,6.084-3.61C23,15.991,21.416,15.15,20.01,14.577ZM13.75,3c1.924,0,3.376,1.29.979,1.9-1.717.428-3.229-.376-3.229-.892C11.5,3.654,12.354,3,13.75,3Zm-4,2.052c.765,1.52,2.909,2.11,4.622,1.939.1,1.206-2.268,2.053-3.874,2.053-1.408,0-3.875-.73-3.875-2.017C6.625,6.186,7.92,5.257,9.752,5.052Zm.748,5.992a6.825,6.825,0,0,0,4.928-1.806C17.5,9.688,19,10.846,19,12.055a2.562,2.562,0,0,1-1.48,2.012c-4.065,2.468-11.6-.257-8.992-3.252A8.534,8.534,0,0,0,10.5,11.044Zm6.159,9.6A70.429,70.429,0,0,1,8,21c-4.2,0-5-1.023-5-2.911,0-2.793.65-1.975,3.707-3.876C8.867,17.343,14.72,17.842,18.2,16c.257.115.511.215.759.314,1.361.54,2.045.811,2.045,2.7C21,19.408,20.086,20.2,16.659,20.64ZM12,19a1,1,0,0,1-1,1H8a1,1,0,0,1,0-2h3A1,1,0,0,1,12,19Z"/></svg>