<svg xmlns="http://www.w3.org/2000/svg" viewBox="0 0 24 24"><path d="M4,23H20a1,1,0,0,0,1-1V9.752a4.235,4.235,0,0,0,.3-.3,4,4,0,0,0,.731-3.456L20.97,1.758A1,1,0,0,0,20,1H4a1,1,0,0,0-.97.758L1.972,5.994A4,4,0,0,0,2.7,9.45a4.235,4.235,0,0,0,.3.3V22A1,1,0,0,0,4,23Zm9-2H11V16h2ZM19.219,3l.87,3.479A2.029,2.029,0,0,1,18.12,9,2.041,2.041,0,0,1,16.1,7.14L15.754,3ZM10.253,3h3.494l.316,3.8A2.029,2.029,0,0,1,12.041,9h-.082A2.029,2.029,0,0,1,9.937,6.8ZM8.994,9.7A4.039,4.039,0,0,0,11.959,11h.082a4.039,4.039,0,0,0,2.965-1.3c.031-.034.052-.076.082-.11A3.955,3.955,0,0,0,19,10.9V21H15V15a1,1,0,0,0-1-1H10a1,1,0,0,0-1,1v6H5V10.9A3.955,3.955,0,0,0,8.912,9.589C8.942,9.623,8.963,9.665,8.994,9.7ZM3.911,6.479,4.781,3H8.246L7.9,7.14A2.041,2.041,0,0,1,5.88,9,2.029,2.029,0,0,1,3.911,6.479Z"/></svg>