<svg xmlns="http://www.w3.org/2000/svg" viewBox="0 0 24 24"><path d="M19.07,1.293a1,1,0,0,0-1.414,1.414l1.112,1.111L16.546,6.041,12.707,2.2a1,1,0,1,0-1.414,1.414L12.4,4.727,2.2,14.93a1,1,0,0,0,0,1.414l2.02,2.02L1.293,21.293a1,1,0,0,0,1.414,1.414l2.929-2.929,2.02,2.02a1,1,0,0,0,1.414,0l10.2-10.2,1.112,1.111A1,1,0,1,0,21.8,11.293L17.96,7.455l2.222-2.223,1.111,1.111a1,1,0,0,0,1.414-1.414ZM8.363,19.677,6.345,17.658l0,0h0L4.323,15.637l1.313-1.314,2.02,2.02A1,1,0,0,0,9.07,14.929l-2.02-2.02L8.364,11.6l1.111,1.111a1,1,0,0,0,1.414-1.415l-1.111-1.11,1.313-1.313,2.02,2.02a1,1,0,0,0,1.414-1.414l-2.02-2.02,1.313-1.314,4.04,4.041Z"/></svg>