<svg xmlns="http://www.w3.org/2000/svg" viewBox="0 0 24 24"><path d="M22,3a1,1,0,0,0,0-2H20a1,1,0,0,0-1,1V4H17a1,1,0,0,0-1,1v6H14.816a2.982,2.982,0,0,0-5.632,0H8V5A1,1,0,0,0,7,4H5V2A1,1,0,0,0,4,1H2A1,1,0,0,0,2,3H3V7H2A1,1,0,0,0,2,9H4A1,1,0,0,0,5,8V6H6V18H5V16a1,1,0,0,0-1-1H2a1,1,0,0,0,0,2H3v4H2a1,1,0,0,0,0,2H4a1,1,0,0,0,1-1V20H7a1,1,0,0,0,1-1V13H9.184a2.982,2.982,0,0,0,5.632,0H16v6a1,1,0,0,0,1,1h2v2a1,1,0,0,0,1,1h2a1,1,0,0,0,0-2H21V17h1a1,1,0,0,0,0-2H20a1,1,0,0,0-1,1v2H18V6h1V8a1,1,0,0,0,1,1h2a1,1,0,0,0,0-2H21V3ZM12,13a1,1,0,1,1,1-1A1,1,0,0,1,12,13Z"/></svg>