<svg xmlns="http://www.w3.org/2000/svg" viewBox="0 0 24 24"><path d="M19.35,8.84a4.781,4.781,0,0,0-3.239-4.356,4.167,4.167,0,0,0-8.222,0A4.78,4.78,0,0,0,4.649,8.84,4.234,4.234,0,0,0,6.176,17H11v4H8a1,1,0,0,0,0,2h8a1,1,0,0,0,0-2H13V17h4.823A4.234,4.234,0,0,0,19.35,8.84ZM17.823,15H13V13.414l2.707-2.707a1,1,0,0,0-1.414-1.414L13,10.586V8a1,1,0,0,0-2,0v2.586L9.707,9.293a1,1,0,0,0-1.414,1.414L11,13.414V15H6.176a2.228,2.228,0,0,1-.321-4.424,1,1,0,0,0,.838-1.142,2.735,2.735,0,0,1,2.279-3.16,1,1,0,0,0,.857-.989c0-.026,0-.06-.005-.094a2.176,2.176,0,1,1,4.352-.008c0,.018,0,.036,0,.049a1,1,0,0,0,.855,1.042,2.736,2.736,0,0,1,2.28,3.163,1,1,0,0,0,.838,1.139A2.228,2.228,0,0,1,17.823,15Z"/></svg>