<svg xmlns="http://www.w3.org/2000/svg" viewBox="0 0 24 24"><path d="M2,5V3A1,1,0,0,1,3,2H5A1,1,0,0,1,5,4H4V5A1,1,0,0,1,2,5ZM2,15a1,1,0,0,0,1,1H5a1,1,0,0,0,0-2H4V13a1,1,0,0,0-2,0Zm7,3a1,1,0,0,0-1,1v2a1,1,0,0,0,1,1h2a1,1,0,0,0,0-2H10V19A1,1,0,0,0,9,18Zm12,0a1,1,0,0,0-1,1v1H19a1,1,0,0,0,0,2h2a1,1,0,0,0,1-1V19A1,1,0,0,0,21,18Zm1-9a1,1,0,0,0-1-1H19a1,1,0,0,0,0,2h1v1a1,1,0,0,0,2,0ZM15,2H13a1,1,0,0,0,0,2h1V5a1,1,0,0,0,2,0V3A1,1,0,0,0,15,2ZM9,8h6a1,1,0,0,1,1,1v6a1,1,0,0,1-1,1H9a1,1,0,0,1-1-1V9A1,1,0,0,1,9,8Zm1,6h4V10H10Zm4,6a1,1,0,0,0,0,2h2a1,1,0,0,0,0-2Zm8-6a1,1,0,0,0-2,0v2a1,1,0,0,0,2,0ZM2,10a1,1,0,0,0,2,0V8A1,1,0,0,0,2,8Zm8-8H8A1,1,0,0,0,8,4h2a1,1,0,0,0,0-2Z"/></svg>