<svg xmlns="http://www.w3.org/2000/svg" viewBox="0 0 24 24"><path d="M22,7H15.757c-.082-.046-.168-.085-.251-.128A3.921,3.921,0,0,0,16,5,4,4,0,0,0,8,5a3.918,3.918,0,0,0,.494,1.872c-.083.043-.169.082-.251.128H2a1,1,0,0,0-.928,1.372,9.68,9.68,0,0,0,3.22,3.883,8.521,8.521,0,0,0-.2,3.461C2.03,18.017,2,21.829,2,22a1,1,0,0,0,1,1,.982.982,0,0,0,.394-.081L7.2,21.286a7.57,7.57,0,0,0,9.594,0l3.809,1.633A.982.982,0,0,0,21,23a1,1,0,0,0,1-1c0-.17-.03-3.982-2.092-6.283A8.854,8.854,0,0,0,20,14.5a8.958,8.958,0,0,0-.292-2.245,9.7,9.7,0,0,0,3.221-3.883A1,1,0,0,0,22,7ZM10,5a2,2,0,0,1,4,0,1.957,1.957,0,0,1-.394,1.172,7.584,7.584,0,0,0-3.212,0A1.964,1.964,0,0,1,10,5ZM5.042,10.318A7.891,7.891,0,0,1,3.767,9H5.91A9.377,9.377,0,0,0,5.042,10.318Zm-.883,10.1a8.968,8.968,0,0,1,.657-2.174,11.034,11.034,0,0,0,.9,1.508ZM6,14.5a6.926,6.926,0,0,1,.408-2.337h0a6.111,6.111,0,0,1,4.829-4.1,5.344,5.344,0,0,1,1.526,0A6.368,6.368,0,0,1,18,14.5,6.294,6.294,0,0,1,12,21,6.29,6.29,0,0,1,6,14.5Zm13.188,3.734a8.778,8.778,0,0,1,.651,2.18l-1.551-.665A11.571,11.571,0,0,0,19.188,18.234Zm-.23-7.916A9.172,9.172,0,0,0,18.091,9h2.142A7.891,7.891,0,0,1,18.958,10.318ZM13,17.714a1,1,0,0,1-1,1A4.116,4.116,0,0,1,8,14.5a1,1,0,0,1,2,0,2.117,2.117,0,0,0,2,2.214A1,1,0,0,1,13,17.714Z"/></svg>