<svg xmlns="http://www.w3.org/2000/svg" viewBox="0 0 24 24"><path d="M22,5H19c-.191-2.242.533-4-1-4C15.4,1,6.215.992,5.939,1.01A1.006,1.006,0,0,0,5,2V5H2A1,1,0,0,0,1,6V22a1,1,0,0,0,1,1H22a1,1,0,0,0,1-1V6A1,1,0,0,0,22,5ZM15.2,6.48l-1.208-.6L17,3.868V7.382ZM12.939,16.646l-.939.94-.939-.94L11.867,11h.266ZM7,7.382V3.868l3.011,2.008L8.8,6.48ZM12.465,9h-.93l-.824-1.237L12,7.118l1.29.645ZM14.7,3,12,4.8,9.3,3ZM21,21H3V7H5V9a1,1,0,0,0,1,1c.411,0,.437-.138,2.908-1.336l1.048,1.573L9.01,16.858a1,1,0,0,0,.283.849l2,2a1,1,0,0,0,1.414,0l2-2a1,1,0,0,0,.283-.849l-.946-6.622,1.048-1.572C17.515,9.839,17.587,10,18,10a1,1,0,0,0,1-1V7h2Zm-1-8a1,1,0,0,1-1,1H17a1,1,0,0,1,0-2h2A1,1,0,0,1,20,13Z"/></svg>