<svg xmlns="http://www.w3.org/2000/svg" viewBox="0 0 24 24"><path d="M22,5H19V2a1.031,1.031,0,0,0-1-1H6A1.031,1.031,0,0,0,5,2V5H2A1,1,0,0,0,1,6V22a1,1,0,0,0,1,1H22a1,1,0,0,0,1-1V6A1,1,0,0,0,22,5ZM15.826,3,12,7.464,8.174,3ZM17,4.7V9.612L13.728,8.521Zm-3.433,5.873L12.5,12h-1l-1.068-1.424L12,10.054ZM7,4.7l3.273,3.818L7,9.612ZM7.279,21H3V7H5v4a1.007,1.007,0,0,0,1.316.948l2.117-.7L9.886,13.18Zm2.108,0,2.334-7h.558l2.333,7ZM21,21H16.72l-2.606-7.819,1.453-1.938,2.117.705A1.007,1.007,0,0,0,19,11V7h2Z"/></svg>