<svg xmlns="http://www.w3.org/2000/svg" viewBox="0 0 24 24"><path d="M13,3.051V2a1,1,0,0,0-2,0V3.051A11.01,11.01,0,0,0,1,14a1,1,0,0,0,1.8.6,3.5,3.5,0,0,1,2.311-1.377A2.8,2.8,0,0,1,7.2,14.6a1,1,0,0,0,.878.39,1.013,1.013,0,0,0,.81-.53A3.149,3.149,0,0,1,11,13.111V20a3,3,0,0,0,6,0,1,1,0,0,0-2,0,1,1,0,0,1-2,0V13.11a3.155,3.155,0,0,1,2.105,1.337,1,1,0,0,0,.8.549.99.99,0,0,0,.89-.4,2.8,2.8,0,0,1,2.082-1.377h.007A3.5,3.5,0,0,1,21.2,14.6a1,1,0,0,0,.8.4,1,1,0,0,0,1-1A11.01,11.01,0,0,0,13,3.051Zm5.889,8.172a4.11,4.11,0,0,0-2.861,1.24A5.718,5.718,0,0,0,12,11a5.718,5.718,0,0,0-4.028,1.463,4.11,4.11,0,0,0-2.861-1.24,4.08,4.08,0,0,0-1.8.442,9,9,0,0,1,17.386,0A4.08,4.08,0,0,0,18.889,11.223Z"/></svg>