<svg xmlns="http://www.w3.org/2000/svg" viewBox="0 0 24 24"><path d="M22,3H2A1,1,0,0,0,1,4v9a1,1,0,0,0,1,1,6.023,6.023,0,0,1,6,6,1,1,0,0,0,1,1h6a1,1,0,0,0,1-1,6.024,6.024,0,0,1,6-6,1,1,0,0,0,1-1V4A1,1,0,0,0,22,3ZM21,5V7H3V5Zm-3.689,8.525A7.224,7.224,0,0,1,15.954,9H21v3.062A8.557,8.557,0,0,0,17.311,13.525Zm-10.621,0A8.445,8.445,0,0,0,3,12.062V9H8.049A7.172,7.172,0,0,1,6.69,13.526ZM14.062,19H9.937a7.926,7.926,0,0,0-1.809-4.1A9.068,9.068,0,0,0,10.046,9h3.908a9.064,9.064,0,0,0,1.918,5.9A7.951,7.951,0,0,0,14.062,19Z"/></svg>