<svg xmlns="http://www.w3.org/2000/svg" viewBox="0 0 24 24"><path d="M22,3H20a1,1,0,0,0,0,2h1V9.111a6.972,6.972,0,0,0-9-.848A6.973,6.973,0,0,0,3,9.11V5H4A1,1,0,0,0,4,3H2A1,1,0,0,0,1,4V14a6.992,6.992,0,0,0,11,5.737A6.992,6.992,0,0,0,23,14V4A1,1,0,0,0,22,3ZM16,19a4.994,4.994,0,0,1-3.333-1.281,1,1,0,0,0-1.334,0,5,5,0,1,1,0-7.438,1,1,0,0,0,1.334,0A5,5,0,1,1,16,19Zm0-8a3,3,0,1,0,3,3A3,3,0,0,0,16,11Zm0,4a1,1,0,1,1,1-1A1,1,0,0,1,16,15ZM8,11a3,3,0,1,0,3,3A3,3,0,0,0,8,11Zm0,4a1,1,0,1,1,1-1A1,1,0,0,1,8,15Z"/></svg>