<svg xmlns="http://www.w3.org/2000/svg" viewBox="0 0 24 24"><path d="M12,1A11,11,0,1,0,23,12,11.013,11.013,0,0,0,12,1Zm.657,9.637a9.74,9.74,0,0,1-.32-2.7l.013,0c.045-.017,4.5-1.624,8.055,1,.019.014.04.019.059.031a8.919,8.919,0,0,1,.522,2.758A8.416,8.416,0,0,0,12.657,10.637Zm5.887-4.8a11.768,11.768,0,0,0-5.746-.1,5.994,5.994,0,0,1,1.81-2.349A9,9,0,0,1,18.544,5.84Zm-6.4-2.832c-1.428,1.739-2.55,4.565-1.227,8.9a10.289,10.289,0,0,1-1.975,2.659,1.006,1.006,0,0,0-.1-.19C7.436,12.6,5.565,8.843,8.811,3.594A8.761,8.761,0,0,1,12.148,3.008ZM5.638,5.64a10.378,10.378,0,0,0,1.645,9.982c.023.029.057.04.082.066a5.893,5.893,0,0,1-3.3.559A8.98,8.98,0,0,1,5.638,5.64ZM5.543,18.256c2.238-.222,5.023-1.442,7.15-5.434A7.517,7.517,0,0,1,16.139,12c0,.018-.008.034-.007.052.132,2.376-.768,6.558-8.236,7.944A9.047,9.047,0,0,1,5.543,18.256ZM12,21c-.089,0-.175-.011-.264-.013,5.608-2.207,6.42-6.358,6.4-8.6a6.659,6.659,0,0,1,2.573,1.827A9.006,9.006,0,0,1,12,21Z"/></svg>