<svg xmlns="http://www.w3.org/2000/svg" viewBox="0 0 24 24"><path d="M17.727,11.7c1.435-1.133,3.009-3.654,2.221-6.015C18.778,2.171,13.353,1,12,1c-.709,0-1.578.007-4.95,10.506C3.25,12.323,1,13.98,1,16c0,3.057,5.334,7,11,7s11-3.943,11-7C23,14.135,21.043,12.569,17.727,11.7ZM8.6,13.232a7.931,7.931,0,0,0,6.963-.075l.327,1.469A6.629,6.629,0,0,1,12,16a6.606,6.606,0,0,1-3.848-1.341C8.3,14.185,8.451,13.708,8.6,13.232Zm3.769-10.2c1.424.179,4.989,1.218,5.68,3.288.412,1.238-.432,2.674-1.187,3.467l-.888-4a1,1,0,0,0-1.954.434l1.094,4.918A6.263,6.263,0,0,1,12,12a6.207,6.207,0,0,1-2.774-.685A63.163,63.163,0,0,1,12.372,3.028ZM12,21c-5.2,0-9-3.509-9-5,0-.678,1.171-1.6,3.338-2.243-.1.311-.193.623-.294.949a1,1,0,0,0,.249,1A8.646,8.646,0,0,0,12,18a8.646,8.646,0,0,0,5.707-2.293,1,1,0,0,0,.27-.924l-.222-1C19.862,14.432,21,15.342,21,16,21,17.491,17.2,21,12,21Z"/></svg>