<svg xmlns="http://www.w3.org/2000/svg" viewBox="0 0 24 24"><path d="M20,6H17.91A5.993,5.993,0,0,0,6.09,6H4A3,3,0,0,0,1,9v2l0,.035a1,1,0,0,0,.014.144l1.4,7.716A5,5,0,0,0,7.338,23h9.324a5,5,0,0,0,4.919-4.106l1.4-7.715c.012-.059.011-.12.017-.179V9A3,3,0,0,0,20,6ZM12,3a4.006,4.006,0,0,1,3.873,3H8.127A4.006,4.006,0,0,1,12,3Zm7.614,15.536A3,3,0,0,1,16.662,21H7.338a3,3,0,0,1-2.952-2.463L3.307,12.6l6.837,2.734a4.977,4.977,0,0,0,3.712,0L20.693,12.6ZM21,10.323l-7.886,3.155a2.985,2.985,0,0,1-2.228,0L3,10.323V9A1,1,0,0,1,4,8H20a1,1,0,0,1,1,1Z"/></svg>