<svg xmlns="http://www.w3.org/2000/svg" viewBox="0 0 24 24"><path d="M9.5,13A1.5,1.5,0,1,1,8,11.5,1.5,1.5,0,0,1,9.5,13ZM23,10a10.641,10.641,0,0,1-1.453,5.564c.156.315.717,2.1,1.4,4.12a1,1,0,0,1-.053.763C22.6,21.046,20.925,23,12,23S1.405,21.046,1.105,20.447a1,1,0,0,1-.053-.763L2.713,14.7a2.982,2.982,0,0,1-.331-5.215,5.022,5.022,0,0,1-.277-4.934A3.067,3.067,0,0,1,5.674,2.834C6.474,2.073,8.264,1,12,1,18.794,1,23,5.672,23,10ZM5.831,20.541a9.021,9.021,0,0,1-2.016-2.822l-.657,1.97A8.46,8.46,0,0,0,5.831,20.541Zm12.538-3.652c-4.739-.627-8.214-4.022-10.336-8.243C5.916,11.507,3,10.431,3,12a1,1,0,0,0,1,1,1,1,0,0,1,1,1,7,7,0,0,0,13.369,2.889Zm2.474,2.8-.657-1.969a8.978,8.978,0,0,1-2.015,2.82A8.442,8.442,0,0,0,20.843,19.689ZM21,10c0-3.367-3.441-7-9-7C6.231,3,7.006,5.62,5.553,4.895A1.14,1.14,0,0,0,3.9,5.447a3.274,3.274,0,0,0,.451,3.407l.018,0A3.6,3.6,0,0,0,6.987,6.138c-.03.12,0-1.13,1.016-1.13,1.609,0,2.4,8.762,10.58,9.877.315.043.638.073.971.087A8.319,8.319,0,0,0,21,10Z"/></svg>