<svg xmlns="http://www.w3.org/2000/svg" viewBox="0 0 24 24"><path d="M22,21H21V6A3,3,0,0,0,16.9,3.211,3,3,0,0,0,11,4V5.171A3,3,0,0,0,7,8v3.132l-.418-.279a2.732,2.732,0,0,0-2.273-.52,3.727,3.727,0,0,0-2.2,2.22,3.425,3.425,0,0,0,1.38,4.3l3.12,1.872A3.983,3.983,0,0,0,5.126,21H2a1,1,0,0,0,0,2H6a1.007,1.007,0,0,0,1-.992A1.885,1.885,0,0,1,9,20c1.836,0,.1-3,3-3a1.771,1.771,0,0,1,1.766,1H13a1,1,0,0,0,0,2h1.992A1.885,1.885,0,0,1,17,22a1,1,0,0,0,1,1h4a1,1,0,0,0,0-2Zm-6.1-2.9A3.8,3.8,0,0,0,12,15a3.737,3.737,0,0,0-3.683,2.424L4.5,15.132a1.433,1.433,0,0,1-.6-1.685c.512-1.026.862-1.164.927-1.181a1.028,1.028,0,0,1,.651.251l1.972,1.315A1,1,0,0,0,9,13V8a1,1,0,0,1,2,0v4a1,1,0,0,0,2,0V4a1,1,0,0,1,2,0v6a1,1,0,0,0,2,0V6a1,1,0,0,1,2,0V21h-.1A3.785,3.785,0,0,0,15.9,18.1Z"/></svg>