<svg xmlns="http://www.w3.org/2000/svg" viewBox="0 0 24 24"><path d="M21.105,8.174A3.839,3.839,0,0,0,15.827,2.9l-.056-.056A2.857,2.857,0,0,0,13.691,2a3,3,0,0,0-2.945,2.945,2.855,2.855,0,0,0,.84,2.08l.371.371L4.581,14.772a3.221,3.221,0,0,0-.659.959,3.243,3.243,0,0,0-.959.658,3.286,3.286,0,0,0,4.648,4.647,3.225,3.225,0,0,0,.658-.958,3.237,3.237,0,0,0,.959-.658L16.6,12.044l.371.371a2.853,2.853,0,0,0,2.036.84h.044A3,3,0,0,0,22,10.308a2.854,2.854,0,0,0-.84-2.079ZM7.814,18.006a1.26,1.26,0,0,1-.581.324,1,1,0,0,0-.712.711,1.28,1.28,0,1,1-1.563-1.562,1,1,0,0,0,.712-.712,1.257,1.257,0,0,1,.324-.58l7.377-7.376L15.19,10.63Zm11.893-7.044A.932.932,0,0,1,18.389,11L13,5.611a.876.876,0,0,1-.254-.637A1,1,0,0,1,13.72,4h.014a.873.873,0,0,1,.623.254l.673.674a1,1,0,0,0,1.415,0A1.9,1.9,0,0,1,19.13,4.87a1.9,1.9,0,0,1-.057,2.686,1,1,0,0,0,0,1.414l.673.673h0A.869.869,0,0,1,20,10.28.979.979,0,0,1,19.707,10.962Z"/></svg>