<svg xmlns="http://www.w3.org/2000/svg" viewBox="0 0 24 24"><path d="M6.091,10.945A6.018,6.018,0,0,0,9,17.191V20a3,3,0,0,0,6,0V17.191a6,6,0,1,0-8.909-6.246ZM12.008,8a3.944,3.944,0,0,1,2.513.9,4,4,0,0,1-.922,6.768,1,1,0,0,0-.6.916V20a1,1,0,0,1-2,0V16.578a1,1,0,0,0-.6-.916,4,4,0,0,1,.725-7.571A4.312,4.312,0,0,1,12.008,8Z"/><path d="M13,3V2a1,1,0,0,0-2,0V3a1,1,0,0,0,2,0Z"/><path d="M19.778,4.222a1,1,0,0,0-1.414,0l-.707.707a1,1,0,1,0,1.414,1.414l.707-.707A1,1,0,0,0,19.778,4.222Z"/><path d="M5.637,19.778l.706-.707a1,1,0,1,0-1.415-1.414l-.706.707a1,1,0,0,0,1.415,1.414Z"/><path d="M22,11H21a1,1,0,0,0,0,2h1a1,1,0,0,0,0-2Z"/><path d="M3,11H2a1,1,0,0,0,0,2H3a1,1,0,0,0,0-2Z"/><path d="M19.071,17.657a1,1,0,0,0-1.414,1.414l.707.707a1,1,0,0,0,1.414-1.414Z"/><path d="M5.637,4.222A1,1,0,0,0,4.222,5.636l.706.707A1,1,0,1,0,6.343,4.929Z"/></svg>