<svg xmlns="http://www.w3.org/2000/svg" viewBox="0 0 24 24"><path d="M16,18.06a9,9,0,1,0-8,0V19a1,1,0,0,0,1,1h6a1,1,0,0,0,1-1Zm-1.375-1.574a1,1,0,0,0-.625.927V18H10v-.587a1,1,0,0,0-.625-.927,7,7,0,1,1,5.25,0Z"/><path d="M15,21H9a1,1,0,0,0,0,2h6a1,1,0,0,0,0-2Z"/><path d="M15.168,8.445l-1.323,1.986L12.707,9.293a1,1,0,0,0-1.414,0l-1.138,1.138L8.832,8.445a1,1,0,1,0-1.664,1.11l2,3a1,1,0,0,0,1.539.152L12,11.414l1.293,1.293A1,1,0,0,0,14,13c.033,0,.065,0,.1-.005a1,1,0,0,0,.733-.44l2-3a1,1,0,0,0-1.664-1.11Z"/></svg>