<svg xmlns="http://www.w3.org/2000/svg" viewBox="0 0 24 24"><path d="M3,14.5a1,1,0,0,0,1,1H6.571A8.983,8.983,0,0,0,14.857,22a7.962,7.962,0,0,0,3.59-.854,1,1,0,0,0-.894-1.79,5.98,5.98,0,0,1-2.7.644A6.857,6.857,0,0,1,8.7,15.5H13a1,1,0,0,0,0-2H8.125a9.062,9.062,0,0,1,0-3H14a1,1,0,0,0,0-2H8.7A6.857,6.857,0,0,1,14.857,4a5.98,5.98,0,0,1,2.7.644,1,1,0,0,0,.894-1.79A7.962,7.962,0,0,0,14.857,2,8.983,8.983,0,0,0,6.571,8.5H4a1,1,0,0,0,0,2H6.111A11.218,11.218,0,0,0,6,12a11.218,11.218,0,0,0,.111,1.5H4A1,1,0,0,0,3,14.5Z"/></svg>