<svg xmlns="http://www.w3.org/2000/svg" viewBox="0 0 24 24"><path d="M22,2H2A1,1,0,0,0,1,3V21a1,1,0,0,0,1,1H22a1,1,0,0,0,1-1V3A1,1,0,0,0,22,2ZM21,20H3V4H21Z"/><path d="M6,17h.2a14.9,14.9,0,0,0,10.607-4.394L17,12.414V14a1,1,0,0,0,2,0V10a1,1,0,0,0-.618-.923A1.01,1.01,0,0,0,18,9H14a1,1,0,0,0,0,2h1.586l-.192.192A12.916,12.916,0,0,1,6.2,15H6a1,1,0,0,0,0,2Z"/><path d="M5.293,11.707a1,1,0,0,0,1.414,0l.793-.793.793.793a1,1,0,0,0,1.414-1.414L8.914,9.5l.793-.793A1,1,0,1,0,8.293,7.293L7.5,8.086l-.793-.793A1,1,0,1,0,5.293,8.707l.793.793-.793.793A1,1,0,0,0,5.293,11.707Z"/></svg>