<svg xmlns="http://www.w3.org/2000/svg" viewBox="0 0 24 24"><path d="M21.707,2.293a1,1,0,0,0-1.414,0L4,18.586V15a1,1,0,0,0-2,0v6a1.01,1.01,0,0,0,.077.382,1,1,0,0,0,.541.541A1.01,1.01,0,0,0,3,22H9a1,1,0,0,0,0-2H5.414L21.707,3.707A1,1,0,0,0,21.707,2.293Z"/><path d="M6,10A4,4,0,1,0,2,6,4,4,0,0,0,6,10ZM6,4A2,2,0,1,1,4,6,2,2,0,0,1,6,4Z"/><path d="M21.707,15.293a1,1,0,0,0-1.414,0L18.5,17.086l-1.793-1.793a1,1,0,0,0-1.414,1.414L17.086,18.5l-1.793,1.793a1,1,0,1,0,1.414,1.414L18.5,19.914l1.793,1.793a1,1,0,0,0,1.414-1.414L19.914,18.5l1.793-1.793A1,1,0,0,0,21.707,15.293Z"/></svg>