<svg xmlns="http://www.w3.org/2000/svg" viewBox="0 0 24 24"><path d="M3.707,21.707,6.674,18.74a7.533,7.533,0,0,0,4.2,1.23,8.888,8.888,0,0,0,6.332-2.763C21.02,13.4,21.958,3.509,22,3.09a1,1,0,0,0-.289-.8A1.028,1.028,0,0,0,20.91,2c-.419.038-10.3.976-14.117,4.789C3.224,10.362,3.579,14.857,5.26,17.326L2.293,20.293a1,1,0,0,0,1.414,1.414Zm4.5-13.5c2.584-2.583,8.956-3.7,11.65-4.063-.365,2.693-1.477,9.062-4.064,11.649C13,18.581,9.848,18.25,8.125,17.289l4.582-4.582a1,1,0,0,0-1.414-1.414L6.712,15.874C5.751,14.151,5.42,10.994,8.207,8.207Z"/></svg>