<svg xmlns="http://www.w3.org/2000/svg" viewBox="0 0 24 24"><path d="M3.707,21.707,6.674,18.74a7.533,7.533,0,0,0,4.2,1.23,8.886,8.886,0,0,0,6.332-2.763C21.019,13.4,21.958,3.51,22,3.09a1,1,0,0,0-.289-.8,1.013,1.013,0,0,0-.8-.289,45.808,45.808,0,0,0-5.7.961,1,1,0,0,0-.714.64l-.649,1.834-.539-1.085a1,1,0,0,0-1.219-.5,13.782,13.782,0,0,0-5.295,2.94C3.224,10.362,3.579,14.857,5.26,17.326L2.293,20.293a1,1,0,0,0,1.414,1.414Zm4.5-13.5a10.7,10.7,0,0,1,3.705-2.164l1.192,2.4A.98.98,0,0,0,14.061,9a1,1,0,0,0,.881-.665L16.2,4.791c1.445-.318,2.758-.525,3.66-.647-.367,2.694-1.48,9.066-4.063,11.649-2.788,2.788-5.945,2.457-7.668,1.5l4.582-4.582a1,1,0,0,0-1.414-1.414L6.711,15.875C5.751,14.151,5.42,11,8.207,8.207Z"/></svg>