<svg xmlns="http://www.w3.org/2000/svg" viewBox="0 0 24 24"><path d="M1.858,12.99l5.267.752L4.219,17.375a1,1,0,0,0,1.055,1.587L11,17.326V21a1,1,0,0,0,2,0V17.326l5.726,1.636A1.023,1.023,0,0,0,19,19a1,1,0,0,0,.781-1.625l-2.906-3.633,5.267-.752a1,1,0,0,0,.565-1.7L21,9.586V6a1,1,0,0,0-1.555-.832L15.87,7.551l1.078-3.235A1,1,0,0,0,16,3H14.414L12.707,1.293a1,1,0,0,0-1.414,0L9.586,3H8a1,1,0,0,0-.948,1.316L8.13,7.551,4.555,5.168A1,1,0,0,0,3,6V9.586L1.293,11.293a1,1,0,0,0,.565,1.7Zm2.849-2.283A1,1,0,0,0,5,10V7.868l4.445,2.964a1,1,0,0,0,1.5-1.148L9.388,5H10a1,1,0,0,0,.707-.293L12,3.414l1.293,1.293A1,1,0,0,0,14,5h.612l-1.56,4.684a1,1,0,0,0,1.5,1.148L19,7.868V10a1,1,0,0,0,.293.707l.586.586-5.021.717a1,1,0,0,0-.639,1.615l2.043,2.553-3.988-1.14a1.007,1.007,0,0,0-.548,0l-3.988,1.14,2.043-2.553a1,1,0,0,0-.639-1.615l-5.021-.717Z"/></svg>