<svg xmlns="http://www.w3.org/2000/svg" viewBox="0 0 24 24"><path d="M4.67,18.788A9.991,9.991,0,0,0,22,12V6a1,1,0,0,0-1.062-1,21.6,21.6,0,0,0-3.854.731,10.569,10.569,0,0,0-4.767-3.681,1,1,0,0,0-.635,0A10.592,10.592,0,0,0,6.931,5.713,21.024,21.024,0,0,0,3.063,5,1,1,0,0,0,2,6v6a9.93,9.93,0,0,0,2.592,6.679A.938.938,0,0,0,4.67,18.788ZM20,12a8.009,8.009,0,0,1-8,8,7.892,7.892,0,0,1-5.481-2.186C8.13,11.586,13.731,8.049,20,7.12ZM8.954,6.368A8.9,8.9,0,0,1,12,4.078a8.749,8.749,0,0,1,3.045,2.288A20.715,20.715,0,0,0,12,7.788c-.031-.018-.066-.033-.1-.051q-.655-.369-1.308-.676L10.44,6.99c-.5-.23-.989-.435-1.469-.615ZM4,7.128a21.322,21.322,0,0,1,6.091,1.917A14.7,14.7,0,0,0,5.1,15.656c-.019.05-.041.1-.06.148-.008.022-.018.042-.026.064A7.908,7.908,0,0,1,4,12Z"/></svg>