<svg xmlns="http://www.w3.org/2000/svg" viewBox="0 0 24 24"><path d="M22,21H19.927a5.557,5.557,0,0,0-5.235-5A5.282,5.282,0,0,0,13,16.267V10a7.008,7.008,0,0,1,7-7,1,1,0,0,0,0-2,9.007,9.007,0,0,0-8.706,6.76A6.646,6.646,0,0,0,7,6C3.505,6,1.262,9.305,1.168,9.445a1,1,0,0,0,0,1.11C1.262,10.7,3.505,14,7,14a6.477,6.477,0,0,0,4-1.519v5.14c-.079.091-.159.179-.232.277A4.77,4.77,0,0,0,8.23,17.25,4.384,4.384,0,0,0,4.1,21H2a1,1,0,0,0,0,2H5a1,1,0,0,0,1-1,2.534,2.534,0,0,1,2.23-2.75,2.2,2.2,0,0,1,1.922.78,1,1,0,0,0,1.769-.139A2.79,2.79,0,0,1,14.692,18C16.517,18,18,19.794,18,22a1,1,0,0,0,1,1h3a1,1,0,0,0,0-2ZM7,12a5.354,5.354,0,0,1-3.724-2A5.354,5.354,0,0,1,7,8a5.354,5.354,0,0,1,3.724,2A5.354,5.354,0,0,1,7,12Z"/></svg>