<svg xmlns="http://www.w3.org/2000/svg" viewBox="0 0 24 24"><path d="M4,23H20a1,1,0,0,0,1-1V18a9.008,9.008,0,0,0-6-8.475V7h1.764a2.983,2.983,0,0,0,2.683-1.658L20.9,2.447A1,1,0,0,0,20,1H4a1,1,0,0,0-.895,1.447L4.553,5.342A2.983,2.983,0,0,0,7.236,7H9V9.525A9.008,9.008,0,0,0,3,18v4A1,1,0,0,0,4,23ZM7.236,5a1,1,0,0,1-.894-.553L5.618,3H18.382l-.724,1.447A1,1,0,0,1,16.764,5ZM13,7V9.059a8.5,8.5,0,0,0-2,0V7ZM5,18a7.006,7.006,0,0,1,5.252-6.77,6.836,6.836,0,0,1,3.5,0A7.006,7.006,0,0,1,19,18v3H5Zm9.707-4.707a1,1,0,0,1,0,1.414l-2,2a1,1,0,0,1-1.414-1.414l2-2A1,1,0,0,1,14.707,13.293Z"/></svg>