<svg xmlns="http://www.w3.org/2000/svg" viewBox="0 0 24 24"><path d="M4,23h6a2,2,0,0,0,2-2V12A5,5,0,0,0,2,12v9A2,2,0,0,0,4,23ZM7,9a3.006,3.006,0,0,1,2.829,2H4.171A3.006,3.006,0,0,1,7,9ZM4,13h6v8H4ZM19.435,8a2.452,2.452,0,0,1,1.81.708A2.482,2.482,0,0,1,22,10.5V21a2,2,0,0,1-2,2H14a1,1,0,0,1,0-2h6V19H14a1,1,0,0,1,0-2h6V13H14a1,1,0,0,1,0-2h6v-.5a.5.5,0,0,0-.151-.358A.547.547,0,0,0,19.486,10a2.306,2.306,0,0,1-1.7-.678A2.637,2.637,0,0,1,17,7.442V6.208a.414.414,0,0,0-.045-.231L13,6a1,1,0,0,1-2,0,2,2,0,0,1,2-2h4a2.042,2.042,0,0,1,2,2.208V7.442a.644.644,0,0,0,.186.448A.327.327,0,0,0,19.435,8ZM13,3a1,1,0,0,1,0-2h4a1,1,0,0,1,0,2ZM9,15a1,1,0,1,1-1-1A1,1,0,0,1,9,15ZM7,19a1,1,0,1,1-1-1A1,1,0,0,1,7,19Z"/></svg>