<svg xmlns="http://www.w3.org/2000/svg" viewBox="0 0 24 24"><path d="M22,14a1,1,0,0,0,1-1V10a2,2,0,0,0-2-2H18.9A5.009,5.009,0,0,0,14,4H13V3h1a1,1,0,0,0,0-2H10a1,1,0,0,0,0,2h1V4H10A5.009,5.009,0,0,0,5.1,8H2a1,1,0,0,0-.707,1.707L5,13.414V22a1,1,0,0,0,1,1H18a1,1,0,0,0,1-1V10h2v3A1,1,0,0,0,22,14ZM10,6h4a3.006,3.006,0,0,1,2.829,2H7.171A3.006,3.006,0,0,1,10,6Zm7,15H7V16.075a4.883,4.883,0,0,1,3.965.342A12.051,12.051,0,0,0,17,17.509Zm0-5.516a9.871,9.871,0,0,1-5.323-.936A6.609,6.609,0,0,0,7,14.008V13a1,1,0,0,0-.293-.707L4.414,10H17Z"/></svg>