<svg xmlns="http://www.w3.org/2000/svg" viewBox="0 0 24 24"><path d="M3.051,21.316A1,1,0,0,0,4,22H20a1,1,0,0,0,.948-.684l2-6A1,1,0,0,0,22,14H20.944C20.377,5.338,12.7,2.2,12.378,2.075l0,0-.023-.01a1.009,1.009,0,0,0-.7,0l-.023.01,0,0C11.3,2.2,3.623,5.338,3.056,14H2a1,1,0,0,0-.949,1.316ZM18.964,14H15.979a26.028,26.028,0,0,0-1.388-8.292A11.455,11.455,0,0,1,18.964,14ZM12,4.781c.755,1.4,1.854,4.261,1.987,9.219H10.013C10.146,9.042,11.245,6.179,12,4.781Zm-2.591.927A26.028,26.028,0,0,0,8.021,14H5.036A11.458,11.458,0,0,1,9.409,5.708ZM20.612,16l-1.333,4H4.721L3.387,16Z"/></svg>