<svg xmlns="http://www.w3.org/2000/svg" viewBox="0 0 24 24"><path d="M15.729,7.036,14.4,8.36A1,1,0,1,1,12.99,6.946l1.324-1.324a1,1,0,0,1,1.415,1.414Zm1.235,1.235L15.639,9.6a1,1,0,1,0,1.414,1.414l1.325-1.324a1,1,0,1,0-1.414-1.415Zm5.743-.194a2.994,2.994,0,0,1-.6,3.421L18.483,15.12a3,3,0,0,1-3.421.6l-1.595-.776a1,1,0,0,0-1.145.192L5.178,22.283a2.447,2.447,0,1,1-3.461-3.461l7.144-7.144a1,1,0,0,0,.192-1.146L8.277,8.939a3,3,0,0,1,.6-3.421L12.5,1.9a2.994,2.994,0,0,1,3.421-.6l3.093,1.5A4.749,4.749,0,0,1,21.2,4.986l1.5,3.09Zm-1.8.873-1.5-3.09A2.736,2.736,0,0,0,18.142,4.6l-3.094-1.5a.994.994,0,0,0-1.131.218L10.294,6.932a1,1,0,0,0-.218,1.133l.776,1.593a3,3,0,0,1-.577,3.434L3.131,20.236a.448.448,0,0,0,.633.633l7.144-7.144a3,3,0,0,1,3.433-.577l1.6.776a1,1,0,0,0,1.133-.218l3.622-3.622A1,1,0,0,0,20.909,8.95Z"/></svg>