<svg xmlns="http://www.w3.org/2000/svg" viewBox="0 0 24 24"><path d="M21.376,2.627h0a5.787,5.787,0,0,0-4.7-1.6,7.9,7.9,0,0,0-4.823,2.337C9.306,5.91,8.792,9.621,10.481,12.1L1.29,21.293A1,1,0,0,0,2.7,22.707L11.9,13.516a5.837,5.837,0,0,0,3.3.989,7.794,7.794,0,0,0,5.437-2.358c2.826-2.826,3.158-7.091.742-9.514ZM11.507,8.82a5.763,5.763,0,0,1,1.761-4.042A5.5,5.5,0,0,1,17.312,3a16.668,16.668,0,0,0-3.248,2.572A16.471,16.471,0,0,0,11.507,8.82Zm3.972-1.832c2.11-2.109,3.847-2.861,4.433-2.9-.036.585-.789,2.321-2.9,4.431s-3.848,2.862-4.434,2.9C12.616,10.835,13.369,9.1,15.479,6.988Zm3.745,3.745a5.768,5.768,0,0,1-4.045,1.761,16.45,16.45,0,0,0,3.248-2.558,16.667,16.667,0,0,0,2.558-3.219A5.77,5.77,0,0,1,19.224,10.733Z"/></svg>