<svg xmlns="http://www.w3.org/2000/svg" viewBox="0 0 24 24"><path d="M20,13a3.572,3.572,0,0,0-2.332,1.418,8.4,8.4,0,0,1-2.115,1.687A9.052,9.052,0,0,1,12,17a9.049,9.049,0,0,1-3.556-.895,8.4,8.4,0,0,1-2.115-1.687A3.572,3.572,0,0,0,4,13c-1.768,0-3,2.635-3,5,0,3.317,3.7,5,11,5s11-1.683,11-5C23,15.635,21.768,13,20,13Zm-8,8c-5.72,0-9-1.094-9-3a4.286,4.286,0,0,1,1.009-2.981,6.254,6.254,0,0,1,.909.813A10.139,10.139,0,0,0,7.553,17.9,10.975,10.975,0,0,0,12,19,10.975,10.975,0,0,0,16.447,17.9a10.139,10.139,0,0,0,2.635-2.063,6.254,6.254,0,0,1,.909-.813A4.286,4.286,0,0,1,21,18C21,19.906,17.72,21,12,21ZM21.008,2.138C20.892,1.856,20.539,1,17.935,1,17.523,1,7.1,3.958,7.1,6.878c0,2.755,0,5.878,1.983,5.878.022,0,2.02.242,2.934.242,1.518,0,3.136-.333,3.86-1.768a5.5,5.5,0,0,0,.3-4c1.154-.87,3.635-2.762,4.426-3.547A1.373,1.373,0,0,0,21.008,2.138ZM14.389,6.076a1,1,0,0,0-.3,1.252,3.7,3.7,0,0,1,0,3c-.549,1.089-3.7.524-4.708.441A16.669,16.669,0,0,1,9.1,6.958C9.588,6.133,13.711,4.314,18.074,3q.133,0,.267.012C17.137,4.006,15.212,5.463,14.389,6.076Z"/></svg>