<svg xmlns="http://www.w3.org/2000/svg" viewBox="0 0 24 24"><path d="M12,23c6.8,0,9-6.737,9-10,0-6.67-5.455-12-9-12C8.52,1,3,6.271,3,13,3,16.263,5.2,23,12,23Zm-1.971-2.29a2.986,2.986,0,0,1,5.722-.89A6.2,6.2,0,0,1,12,21,6.714,6.714,0,0,1,10.029,20.71ZM18.008,8.515A10.6,10.6,0,0,1,19,13c0,.169-.008.35-.023.539a2.966,2.966,0,0,1-.969-5.024ZM8.2,5.259a2.992,2.992,0,1,1-2.885,5.21A11.949,11.949,0,0,1,8.2,5.259ZM5.022,12.58A4.953,4.953,0,0,0,7,13,4.994,4.994,0,0,0,9.767,3.845,4.742,4.742,0,0,1,11.989,3c1.971.043,3.9,2.138,5.018,3.764A4.959,4.959,0,0,0,18.6,15.517a9.25,9.25,0,0,1-1.374,2.822,4.98,4.98,0,0,0-9.052,1.428A9.033,9.033,0,0,1,5,13C5,12.859,5.016,12.721,5.022,12.58Z"/></svg>