<svg xmlns="http://www.w3.org/2000/svg" viewBox="0 0 24 24"><path d="M21,13c0-6.182-5.067-12-9-12C8.045,1,3,6.826,3,13c0,4.679,3.326,10,9,10C17.713,23,21,17.633,21,13ZM6.518,7.508A29.56,29.56,0,0,0,12,8a29.552,29.552,0,0,0,5.482-.492,11.21,11.21,0,0,1,.879,1.883A32.38,32.38,0,0,1,12,10a32.388,32.388,0,0,1-6.361-.609A11.21,11.21,0,0,1,6.518,7.508ZM12,12a33.831,33.831,0,0,0,6.856-.67A10.753,10.753,0,0,1,19,13c0,.028,0,.06,0,.089A24.245,24.245,0,0,1,12,14a24.245,24.245,0,0,1-7-.911c0-.029,0-.061,0-.089a10.753,10.753,0,0,1,.144-1.67A33.823,33.823,0,0,0,12,12ZM6.162,17.377a9.851,9.851,0,0,1-.834-2.114A27.973,27.973,0,0,0,12,16a27.967,27.967,0,0,0,6.672-.737,9.851,9.851,0,0,1-.834,2.114A33.3,33.3,0,0,1,12,17.892,33.3,33.3,0,0,1,6.162,17.377ZM11.989,3a5.252,5.252,0,0,1,3.3,1.707c.325.325.626.657.909.994A28.9,28.9,0,0,1,12,6a28.919,28.919,0,0,1-4.2-.3c.283-.337.584-.669.91-1A5.271,5.271,0,0,1,11.989,3ZM8.031,19.669A37.115,37.115,0,0,0,12,19.892a37.115,37.115,0,0,0,3.969-.223A6.2,6.2,0,0,1,12,21,6.2,6.2,0,0,1,8.031,19.669Z"/></svg>