<svg xmlns="http://www.w3.org/2000/svg" viewBox="0 0 24 24"><path d="M5,4V5H6A1,1,0,0,1,6,7H5V8A1,1,0,0,1,3,8V7H2A1,1,0,0,1,2,5H3V4A1,1,0,0,1,5,4ZM2.625,9.219a1,1,0,0,0-1.252,1.56A18.26,18.26,0,0,1,7.008,22.124,1,1,0,0,0,8,23a1.063,1.063,0,0,0,.125-.008,1,1,0,0,0,.868-1.116A19.914,19.914,0,0,0,2.625,9.219ZM7.3,7.29A1,1,0,0,0,7.288,8.7c.036.037,3.649,3.875,2.717,13.2A1,1,0,0,0,10.9,23c.035,0,.068,0,.1,0A1,1,0,0,0,12,22.1C13.03,11.747,8.884,7.47,8.707,7.293A1,1,0,0,0,7.3,7.29ZM18.293,5.707a1,1,0,0,0,1.414,0L20.414,5l.707.707a1,1,0,0,0,1.414-1.414l-.707-.707.707-.707a1,1,0,0,0-1.414-1.414l-.707.707-.707-.707a1,1,0,0,0-1.414,1.414L19,3.586l-.707.707A1,1,0,0,0,18.293,5.707ZM15,16a1,1,0,0,0,1,1h0A1,1,0,0,0,17,16a7.7,7.7,0,0,1,5.316-7.056,1,1,0,0,0-.632-1.9A9.7,9.7,0,0,0,15,16Zm.4-13.8a9.906,9.906,0,0,0-3.317,5.59,1,1,0,1,0,1.955.42A8.035,8.035,0,0,1,16.6,3.8a1,1,0,0,0-1.2-1.6Zm2.748,14.317A3.349,3.349,0,0,0,17,19a1,1,0,0,0,.988.994H18a1,1,0,0,0,1-.983,1.4,1.4,0,0,1,.4-.935,1.767,1.767,0,0,1,1.375-.1,1,1,0,1,0,.448-1.95A3.483,3.483,0,0,0,18.148,16.517ZM8,1A1,1,0,0,0,8,3a1.308,1.308,0,0,1,1.007.313A1.875,1.875,0,0,1,9.05,4.688a1,1,0,0,0,1.9.628,3.8,3.8,0,0,0-.317-3.169A3.025,3.025,0,0,0,8,1Z"/></svg>