<svg xmlns="http://www.w3.org/2000/svg" viewBox="0 0 24 24"><path d="M19.447,6.867c-.973-.485-2.176-.216-3.391.737A9.023,9.023,0,0,0,13.1,5.223,2.7,2.7,0,0,1,16,3a1,1,0,0,0,0-2,4.708,4.708,0,0,0-4.926,4.169A8.481,8.481,0,0,0,7.944,7.6c-1.215-.953-2.417-1.222-3.391-.737C2.33,7.979,1,16.916,1,17c0,6,6.886,6,11,6s11,0,11-6C23,16.916,21.671,7.979,19.447,6.867ZM12,21c-6.645,0-9-1.047-9-3.972.079-1.194,1.568-7.665,2.447-8.372a.3.3,0,0,1,.134-.026,1.974,1.974,0,0,1,.948.427l-.236.236a1,1,0,1,0,1.414,1.414C10.222,8.064,11.254,7,12,7c1.409,0,3.923,4,5,4a1,1,0,0,0,.707-1.707l-.241-.241c.5-.358.893-.467,1.065-.4C19.449,9.438,20.922,15.841,21,17,21,19.953,18.645,21,12,21Zm-1.121-4.873A.544.544,0,0,1,10.4,17H5.6a.544.544,0,0,1-.48-.873l2.4-2.909a.637.637,0,0,1,.96,0Zm5.6-2.909,2.4,2.909A.544.544,0,0,1,18.4,17H13.6a.544.544,0,0,1-.48-.873l2.4-2.909A.637.637,0,0,1,16.48,13.218Z"/></svg>