<svg xmlns="http://www.w3.org/2000/svg" viewBox="0 0 24 24"><path d="M12,1C5.271,1,2,4.6,2,12c0,6.025,8.5,11,10,11s10-4.975,10-11C22,5.215,18.168,1,12,1Zm0,19.982C10.547,20.546,4,16.456,4,12c0-6.309,2.393-9,8-9,7.221,0,8,6.294,8,9C20,16.456,13.453,20.546,12,20.982Z"/><path d="M13.5,10.333a3.3,3.3,0,0,0,.3,1.367,3.321,3.321,0,0,0,4.4-4.4,3.321,3.321,0,0,0-4.7,3.033Z"/><path d="M7.167,7A3.3,3.3,0,0,0,5.8,7.3a3.321,3.321,0,0,0,4.4,4.4A3.321,3.321,0,0,0,7.167,7Z"/><circle cx="12" cy="15.5" r="1.5"/></svg>