<svg xmlns="http://www.w3.org/2000/svg" viewBox="0 0 24 24"><path d="M20.96,6.51a3.019,3.019,0,0,0-1.8-3.915l-3.6-1.281A5.434,5.434,0,0,0,13.733,1H8.99A3.229,3.229,0,0,0,5.825,3.628c-.175.916-.633,2.525-1.731,3.014C1.236,7.912,1,9.375,1,10.889c0,4.872,2.187,7.667,6,7.667,2.258,0,3.232,1,4.361,2.159C12.405,21.786,13.588,23,15.75,23,18.458,23,23,21.859,23,14.223c0-3.582-1-5.532-1.831-6.536A1.2,1.2,0,0,1,20.96,6.51ZM7.79,4a1.227,1.227,0,0,1,1.2-1h2.929a4.466,4.466,0,0,1,.192,1.223A4.56,4.56,0,0,1,7.556,8.777,4.468,4.468,0,0,1,5.4,8.2,6.094,6.094,0,0,0,7.79,4Zm7.96,17c-1.318,0-2.006-.7-2.956-1.681A7.356,7.356,0,0,0,7,16.556c-2.654,0-4-1.907-4-5.667a1.854,1.854,0,0,1,.479-1.552,6.467,6.467,0,0,0,4.077,1.44,6.525,6.525,0,0,0,6.438-7.755c.909.07,1.09.292,4.494,1.457a1.041,1.041,0,0,1,.586,1.364,3.227,3.227,0,0,0,.558,3.123C20.143,9.58,21,11.081,21,14.223,21,18.783,19.282,21,15.75,21Z"/><path d="M18,14a2,2,0,1,1-2-2,1,1,0,0,0,0-2,4,4,0,1,0,4,4,1,1,0,0,0-2,0Z"/><circle cx="7.5" cy="13.5" r="1.5"/><circle cx="4" cy="21" r="1"/></svg>