<svg xmlns="http://www.w3.org/2000/svg" viewBox="0 0 24 24"><path d="M13,8H12a3.954,3.954,0,0,0-1.323.242A6,6,0,0,1,16,5a1,1,0,0,0,0-2,8.009,8.009,0,0,0-8,8v1a3.954,3.954,0,0,0,.242,1.323A6,6,0,0,1,5,8,1,1,0,0,0,3,8a8.009,8.009,0,0,0,8,8h1a3.954,3.954,0,0,0,1.323-.242A6,6,0,0,1,8,19a1,1,0,0,0,0,2,8.009,8.009,0,0,0,8-8V12a3.954,3.954,0,0,0-.242-1.323A6,6,0,0,1,19,16a1,1,0,0,0,2,0A8.009,8.009,0,0,0,13,8Zm-1,6a2,2,0,1,1,2-2A2,2,0,0,1,12,14Z"/><circle cx="19.5" cy="20.5" r="1.5"/><circle cx="19.5" cy="3.5" r="1.5"/><circle cx="4.5" cy="3.5" r="1.5"/><circle cx="4.5" cy="20.5" r="1.5"/></svg>