<svg xmlns="http://www.w3.org/2000/svg" viewBox="0 0 24 24"><path d="M21.293,10.658l-8.7,8.7A5.622,5.622,0,0,1,4.646,11.4l6.379-6.378A1,1,0,1,0,9.611,3.611L3.232,9.989A7.622,7.622,0,0,0,14.011,20.768l8.7-8.7a1,1,0,1,0-1.414-1.414Z"/><path d="M5.908,12.664a3.838,3.838,0,1,0,5.427,0A3.843,3.843,0,0,0,5.908,12.664Zm4.013,4.014a1.88,1.88,0,0,1-2.6,0,1.838,1.838,0,1,1,2.6,0Z"/><path d="M18.293,1.293l-7.7,7.7A1,1,0,1,0,12.011,10.4l7.7-7.7a1,1,0,0,0-1.414-1.414Z"/><path d="M16.293,10.707a1,1,0,0,0,1.414,0l4-4a1,1,0,1,0-1.414-1.414l-4,4A1,1,0,0,0,16.293,10.707Z"/><circle cx="3" cy="5" r="1"/><circle cx="19.5" cy="19.5" r="1.5"/></svg>