<svg xmlns="http://www.w3.org/2000/svg" viewBox="0 0 24 24"><circle cx="12" cy="12" r="2"/><path d="M21.861,4.715a3.382,3.382,0,0,0-2.094-2.423c-1.923-.761-4.814.021-7.767,1.866C9.046,2.313,6.156,1.531,4.233,2.292A3.382,3.382,0,0,0,2.139,4.715C1.664,6.6,2.423,9.245,4.151,12c-1.728,2.755-2.487,5.4-2.012,7.285a3.382,3.382,0,0,0,2.094,2.423c2.347.93,5.625-.524,7.767-1.862,2.147,1.341,5.421,2.791,7.767,1.862a3.382,3.382,0,0,0,2.094-2.423c.475-1.886-.284-4.53-2.012-7.285C21.577,9.245,22.336,6.6,21.861,4.715ZM4.079,5.2a1.4,1.4,0,0,1,.888-1.051c1.46-.576,3.852.5,5.221,1.267a26.594,26.594,0,0,0-4.08,3.908c-.245.291-.463.584-.689.877C4.2,8.041,3.818,6.243,4.079,5.2Zm.888,14.643A1.4,1.4,0,0,1,4.079,18.8c-.261-1.039.124-2.837,1.34-5,.226.293.444.586.689.877A26.619,26.619,0,0,0,10.2,18.589C8.012,19.815,6.069,20.281,4.967,19.847Zm2.671-6.466c-.4-.469-.751-.929-1.077-1.381.326-.452.681-.912,1.077-1.381A24.209,24.209,0,0,1,12,6.567a24.209,24.209,0,0,1,4.362,4.052c.4.469.751.929,1.077,1.381-.326.452-.681.912-1.077,1.381A24.183,24.183,0,0,1,12,17.434,24.216,24.216,0,0,1,7.638,13.381ZM19.921,18.8a1.4,1.4,0,0,1-.888,1.051c-1.1.434-3.045-.032-5.229-1.258a26.614,26.614,0,0,0,4.088-3.917c.245-.291.463-.584.689-.877C19.8,15.959,20.182,17.757,19.921,18.8Zm-1.34-8.591c-.226-.293-.444-.586-.689-.877a26.594,26.594,0,0,0-4.08-3.908c1.369-.767,3.761-1.843,5.221-1.267A1.4,1.4,0,0,1,19.921,5.2C20.182,6.243,19.8,8.041,18.581,10.205Z"/></svg>