<svg xmlns="http://www.w3.org/2000/svg" viewBox="0 0 24 24"><path d="M22,21H21V14a3,3,0,0,0-3-3H14.172V8.945a4.987,4.987,0,0,0,6.363-.581,1,1,0,0,0,0-1.414L14.879,1.293a1,1,0,0,0-1.414,0A4.968,4.968,0,0,0,12,4.828a4.985,4.985,0,0,0,.172,1.234V11H8V8.816a3,3,0,1,0-2,0V11a3,3,0,0,0-3,3v7H2a1,1,0,0,0,0,2H22a1,1,0,0,0,0-2ZM14.292,3.534l4,4a3.066,3.066,0,0,1-3.415-.587,3.005,3.005,0,0,1-.587-3.416ZM7,5A1,1,0,1,1,6,6,1,1,0,0,1,7,5Zm5,16H9V19a1.5,1.5,0,0,1,3,0Zm7-6H16a1,1,0,0,0,0,2h3v4H14V19a3.5,3.5,0,0,0-7,0v2H5V14a1,1,0,0,1,1-1H18a1,1,0,0,1,1,1Z"/></svg>