<svg xmlns="http://www.w3.org/2000/svg" viewBox="0 0 24 24"><path d="M14.172,2.172a1,1,0,0,0,1.414,1.414,2.047,2.047,0,0,1,2.828,0,2,2,0,0,1,0,2.828,1,1,0,1,0,1.414,1.414,4,4,0,0,0,0-5.656A4.093,4.093,0,0,0,14.172,2.172Z"/><path d="M6,15v6H4a1,1,0,0,0,0,2H20a1,1,0,0,0,0-2H12V15.144a6.111,6.111,0,0,0,1,.1,5.98,5.98,0,0,0,4.243-1.754l.707-.707a1,1,0,0,0,0-1.414L10.878,4.293a1,1,0,0,0-1.414,0L8.757,5a6,6,0,0,0-.928,7.239A3,3,0,0,0,6,15Zm4.171-8.586,5.658,5.657a4,4,0,0,1-5.658-5.657ZM8,15a1,1,0,0,1,2,0v6H8Z"/></svg>