<svg xmlns="http://www.w3.org/2000/svg" viewBox="0 0 24 24"><path d="M21.866,9.219a3.335,3.335,0,0,1-.924-2.291,3.977,3.977,0,0,0-3.869-3.87,3.336,3.336,0,0,1-2.291-.924,4.074,4.074,0,0,0-5.563,0,3.34,3.34,0,0,1-2.291.924,3.977,3.977,0,0,0-3.87,3.87,3.332,3.332,0,0,1-.925,2.291,3.978,3.978,0,0,0,0,5.562,3.335,3.335,0,0,1,.924,2.291,3.977,3.977,0,0,0,3.869,3.87,3.336,3.336,0,0,1,2.291.924,3.978,3.978,0,0,0,5.563,0,3.34,3.34,0,0,1,2.291-.924,3.977,3.977,0,0,0,3.87-3.87,3.332,3.332,0,0,1,.925-2.291,3.98,3.98,0,0,0,0-5.562Zm-1.429,4.164a5.292,5.292,0,0,0-1.494,3.637,1.978,1.978,0,0,1-1.924,1.922,5.308,5.308,0,0,0-3.637,1.5,2.027,2.027,0,0,1-2.765,0,5.3,5.3,0,0,0-3.637-1.5A1.978,1.978,0,0,1,5.057,17.02a5.3,5.3,0,0,0-1.493-3.637,1.979,1.979,0,0,1,0-2.766A5.292,5.292,0,0,0,5.057,6.98,1.978,1.978,0,0,1,6.981,5.058a5.308,5.308,0,0,0,3.637-1.495,1.979,1.979,0,0,1,2.765,0A5.3,5.3,0,0,0,17.02,5.058,1.978,1.978,0,0,1,18.943,6.98a5.3,5.3,0,0,0,1.493,3.637,1.979,1.979,0,0,1,0,2.766Z"/><path d="M12,7a5,5,0,1,0,5,5A5.006,5.006,0,0,0,12,7Zm0,8a3,3,0,1,1,3-3A3,3,0,0,1,12,15Z"/></svg>