<svg xmlns="http://www.w3.org/2000/svg" viewBox="0 0 24 24"><path d="M12,1A11,11,0,1,0,23,12,11.039,11.039,0,0,0,12,1Zm0,2a8.955,8.955,0,0,1,6.084,2.388A28.764,28.764,0,0,1,12,6a28.764,28.764,0,0,1-6.084-.612A8.955,8.955,0,0,1,12,3Zm0,18a8.926,8.926,0,0,1-4.67-1.322A32.833,32.833,0,0,0,12,20a32.833,32.833,0,0,0,4.67-.322A8.926,8.926,0,0,1,12,21Zm7.471-3.989A25.784,25.784,0,0,1,12,18a25.784,25.784,0,0,1-7.471-.989,8.935,8.935,0,0,1-1.5-4.419A25.408,25.408,0,0,0,12,14a25.408,25.408,0,0,0,8.97-1.408A8.935,8.935,0,0,1,19.471,17.011ZM12,12c-3.672,0-7.028-.6-8.858-1.544A8.947,8.947,0,0,1,4.47,7.086,28.662,28.662,0,0,0,12,8a28.662,28.662,0,0,0,7.53-.914,8.947,8.947,0,0,1,1.328,3.37C19.028,11.4,15.672,12,12,12Z"/></svg>