<?xml version="1.0" standalone="no"?>
<!DOCTYPE svg PUBLIC "-//W3C//DTD SVG 1.1//EN" "http://www.w3.org/Graphics/SVG/1.1/DTD/svg11.dtd">
<svg xmlns="http://www.w3.org/2000/svg">
<metadata>Copyright (c) 2020 Royyan Wijaya</metadata>
<defs>
<font id="neu" horiz-adv-x="1000" >
<font-face font-family="neu" font-weight="400" font-stretch="normal" units-per-em="1000" ascent="850" descent="-150" />
<missing-glyph horiz-adv-x="1000" />
<glyph glyph-name="so-couple" unicode="&#x21;" d="M292 808a104 104 0 1 0-104-104 104 104 0 0 0 104 104z m581-278a46 46 0 0 1-40 28h-250a45 45 0 0 1-39-28l-44-132-44 132c0 0 0 1-1 1a40 40 0 0 1-4 8 41 41 0 0 1-4 6 46 46 0 0 1-6 5 41 41 0 0 1-7 4 38 38 0 0 1-7 2 38 38 0 0 1-9 2c0 0-1 0-1 0h-250c-1 0-1 0-2 0a38 38 0 0 1-9-2 38 38 0 0 1-7-2 39 39 0 0 1-6-4 38 38 0 0 1-6-5 43 43 0 0 1-5-6 41 41 0 0 1-4-8c0 0-1-1-1-1l-83-250a42 42 0 0 1 79-26l44 131v-452a42 42 0 0 1 83 0v250h83v-250a42 42 0 0 1 84 0v452l44-131a46 46 0 0 1 26-27 43 43 0 0 1 13-2 43 43 0 0 1 40 29l43 131v-452a42 42 0 0 1 84 0v250h83v-250a42 42 0 0 1 83 0v452l44-131a42 42 0 1 1 79 26z m-269 174v-104h209v104a104 104 0 0 1-209 0z" horiz-adv-x="1000" />

<glyph glyph-name="so-blind-eyes" unicode="&#x22;" d="M914 406a41 41 0 0 0 0-29 557 557 0 0 0-45-94 42 42 0 1 0-71 43 468 468 0 0 1 32 66c-61 152-189 250-330 250s-269-98-330-250a388 388 0 0 1 257-241 42 42 0 0 0-20-81 475 475 0 0 0-321 307 41 41 0 0 0 0 29c71 194 234 319 414 319s343-125 414-319z m-93-193a42 42 0 0 1-59 0l-54-54-53 54a42 42 0 0 1-59-59l53-54-53-54a42 42 0 0 1 59-59l53 54 54-54a42 42 0 0 1 59 59l-54 54 54 54a42 42 0 0 1 0 59z m-425 220a62 62 0 0 0-49 24 167 167 0 1 1 87 88 63 63 0 0 0-38-112z" horiz-adv-x="1000" />

<glyph glyph-name="so-accessibility" unicode="&#x23;" d="M396 704a104 104 0 1 0 104-104 104 104 0 0 0-104 104z m437-146h-666a42 42 0 0 1 0-83h208v-542a42 42 0 0 1 83 0v292h84v-292a42 42 0 0 1 83 0v542h208a42 42 0 0 1 0 83z" horiz-adv-x="1000" />

<glyph glyph-name="so-enter-people" unicode="&#x24;" d="M292 808a104 104 0 1 0-104-104 104 104 0 0 0 104 104z m164-278a45 45 0 0 1-39 28h-250a46 46 0 0 1-40-28l-83-250a42 42 0 0 1 79-26l44 131v-452a42 42 0 0 1 83 0v250h83v-250a42 42 0 0 1 84 0v452l44-131a42 42 0 1 1 79 26z m490-150l-125 125a42 42 0 0 1-59-59l54-54h-191a42 42 0 0 1 0-84h191l-54-53a42 42 0 0 1 59-59l125 125a42 42 0 0 1 0 59z" horiz-adv-x="1000" />

<glyph glyph-name="so-escalator-down" unicode="&#x25;" d="M83 17a104 104 0 0 0 105 104h66a83 83 0 0 1 63 28l258 291a167 167 0 0 0 125 56h113a104 104 0 0 0 0-208h-67a83 83 0 0 1-63-28l-258-292a167 167 0 0 0-125-56h-112a104 104 0 0 0-105 105z m250 562a104 104 0 1 1-104 104 104 104 0 0 1 104-104z m613-429a42 42 0 0 1-59 0l-95-95v66a42 42 0 0 1-84 0v-167a42 42 0 0 1 42-42h167a42 42 0 0 1 0 84h-66l95 95a42 42 0 0 1 0 59z m-490 282a125 125 0 0 1-248-19v-209h46z" horiz-adv-x="1000" />

<glyph glyph-name="so-escalator-up" unicode="&#x26;" d="M958 121v-167a42 42 0 0 0-83 0v66l-95-95a42 42 0 0 0-59 59l95 95h-66a42 42 0 0 0 0 84h167a42 42 0 0 0 41-42z m-770-209h112a167 167 0 0 1 125 56l258 292a83 83 0 0 0 63 28h67a104 104 0 0 1 0 208h-113a167 167 0 0 1-124-56l-259-291a83 83 0 0 0-63-28h-66a104 104 0 0 1 0-209z m145 667a104 104 0 1 1-104 104 104 104 0 0 1 104-104z m123-147a125 125 0 0 1-248-19v-209h46z" horiz-adv-x="1000" />

<glyph glyph-name="so-eye-plus" unicode="&#x27;" d="M86 377a41 41 0 0 0 0 29c71 194 234 319 414 319s343-125 414-319a41 41 0 0 0 0-29 556 556 0 0 0-45-94 42 42 0 1 0-71 43 471 471 0 0 1 32 66c-61 152-189 250-330 250s-269-98-330-250a388 388 0 0 1 257-241 42 42 0 0 0-20-81 475 475 0 0 0-321 307z m581 15a167 167 0 0 1-233 153 63 63 0 1 0-87-88 167 167 0 1 1 320-65z m62-417a42 42 0 0 1 42 42v62h62a42 42 0 0 1 0 84h-62v62a42 42 0 0 1-83 0v-62h-63a42 42 0 0 1 0-84h63v-62a42 42 0 0 1 41-42z" horiz-adv-x="1000" />

<glyph glyph-name="so-walk" unicode="&#x28;" d="M479 808a104 104 0 1 0-104-104 104 104 0 0 0 104 104z m-156-626a42 42 0 0 1-51-30l-18-72-116-117a42 42 0 0 1 58-59l125 125a42 42 0 0 1 11 19l21 84a42 42 0 0 1-30 50z m508 140a38 38 0 0 1-2 3 39 39 0 0 1-4 8 40 40 0 0 1-5 6 38 38 0 0 1-6 4 42 42 0 0 1-8 4c-2 0-3 1-4 2l-143 35-35 143c-8 15-15 31-41 31h-250a48 48 0 0 1-33-16l-117-157-113-37a42 42 0 1 1 27-79l125 41a41 41 0 0 1 20 15l76 101c-1-4-26-156-26-152a43 43 0 0 1 21-43l195-118 78-195a42 42 0 1 1 78 31l-83 208a42 42 0 0 1-18 20l-79 48c20 1 51 0 57 35l26 152 18-72a42 42 0 0 1 30-30l144-36 118-354a42 42 0 0 1 79 26z" horiz-adv-x="1000" />

<glyph glyph-name="so-apartment" unicode="&#x29;" d="M875 767h-333a42 42 0 0 1-42-42v-792h417v792a42 42 0 0 1-42 42z m-42-709h-250v84h250z m0 167h-250v83h250z m0 167h-250v83h250z m0 166h-250v84h250z m-416-83a42 42 0 0 1-42 42h-250a42 42 0 0 1-42-42v-542h334z m-125-458h-84v83h84z m0 166h-84v84h84z m0 167h-84v83h84z" horiz-adv-x="1000" />

<glyph glyph-name="so-building" unicode="&#x2a;" d="M417 558h-292a42 42 0 0 1-42-41v-584h375v584a42 42 0 0 1-41 41z m-167-541h-83v83h83z m0 125h-83v83h83z m0 125h-83v83h83z m0 125h-83v83h83z m125-375h-83v83h83z m0 125h-83v83h83z m0 125h-83v83h83z m0 125h-83v83h83z m517 219l-350 156v-834h375v640a42 42 0 0 1-25 38z m-59-511h-208v83h208z m0 167h-208v83h208z m0 166h-208v84h208z" horiz-adv-x="1000" />

<glyph glyph-name="so-cabin-house" unicode="&#x2b;" d="M792 725a42 42 0 0 1-84 0v-125l-208 167-417-334h84v-500h250v167a83 83 0 0 0 166 0v-167h250v500h84l-125 100z m-459-625h-83v83h83z m0 167h-83v83h83z m250 0h-166v83h166z m167-167h-83v83h83z m0 167h-83v83h83z" horiz-adv-x="1000" />

<glyph glyph-name="so-church" unicode="&#x2c;" d="M208-67h-125v167a42 42 0 0 0 42 42h42a42 42 0 0 0 41-42z m667 209h-42a42 42 0 0 1-41-42v-167h125v167a42 42 0 0 1-42 42z m-708 166h83v-375h188v146a63 63 0 0 0 125 0v-146h187v375h83l-291 209v83h83v42h0v41h-83v84h-84v-84h-83v-83h83v-83z" horiz-adv-x="1000" />

<glyph glyph-name="so-city" unicode="&#x2d;" d="M542 475a42 42 0 0 1-42 42h-375a42 42 0 0 1-42-42v-542h459z m-292-458h-83v83h83z m0 166h-83v84h83z m0 167h-83v83h83z m208-333h-125v83h125z m0 166h-125v84h125z m0 167h-125v83h125z m146 250h-354v125a42 42 0 0 0 42 42h416a42 42 0 0 0 42-42v-292h-125v146a21 21 0 0 1-21 21z m313-292v-375h-104v167h-84v-167h-104v375a42 42 0 0 0 42 42h208a42 42 0 0 0 42-42z" horiz-adv-x="1000" />

<glyph glyph-name="so-company" unicode="&#x2e;" d="M458 725a42 42 0 0 1-41 42h-292a42 42 0 0 1-42-42v-792h375z m-83-625h-208v83h208z m0 167h-208v83h208z m0 166h-208v84h208z m0 167h-208v83h208z m500-83h-292a42 42 0 0 1-41-42v-542h375v542a42 42 0 0 1-42 42z m-167-500h-83v83h83z m0 166h-83v84h83z m0 167h-83v83h83z m125-333h-83v83h83z m0 166h-83v84h83z m0 167h-83v83h83z" horiz-adv-x="1000" />

<glyph glyph-name="so-factory" unicode="&#x2f;" d="M917 767v-125h-167v125z m-167-209h167v-625h-834v500l250 125v-125l250 125v-125h167z m-417-416h-125v-84h125z m0 166h-125v-83h125z m250-166h-166v-84h166z m0 166h-166v-83h166z m209-166h-125v-84h125z m0 166h-125v-83h125z" horiz-adv-x="1000" />

<glyph glyph-name="so-landmark" unicode="&#x30;" d="M750 17h167v-84h-834v84h167v83h333v83h-333v84h333v83h-325a413 413 0 0 0 27 83h298v84h-249a416 416 0 0 0 333 166v42a42 42 0 0 0 83 0z" horiz-adv-x="1000" />

<glyph glyph-name="so-monument" unicode="&#x31;" d="M833 600h-666v125a42 42 0 0 0 41 42h584a42 42 0 0 0 41-42z m0-583h84v-84h-834v84h84v500h666z m-166 166a167 167 0 0 1-334 0v-166h334z" horiz-adv-x="1000" />

<glyph glyph-name="so-mosque" unicode="&#x32;" d="M750 683v-291l-202 134a125 125 0 0 1 77 116 42 42 0 0 1-83 0 42 42 0 1 0-42 41 42 42 0 0 1 0 84 125 125 0 0 1-48-241l-202-134h0v291l-83 84-84-84v-750h834v750l-84 84z m-167-750h-166v125a83 83 0 0 0 166 0z m42 334h-250v83h250z" horiz-adv-x="1000" />

<glyph glyph-name="so-mosque-2" unicode="&#x33;" d="M875 767a42 42 0 0 1-42-42v-292h-170a236 236 0 0 1 37 73c23 70 0 157-100 209l-100 52h0l-100-52c-100-52-123-139-100-209a236 236 0 0 1 38-73h-171v292a42 42 0 0 1-84 0v-792h334v167a83 83 0 0 0 166 0v-167h334v792a42 42 0 0 1-42 42z m-542-667h-166v83h166z m500 0h-166v83h166z m0 167h-666v83h666z" horiz-adv-x="1000" />

<glyph glyph-name="so-office" unicode="&#x34;" d="M875 517h-208v208a42 42 0 0 1-42 42h-250a42 42 0 0 1-42-42v-208h-208a42 42 0 0 1-42-42v-542h375v125a42 42 0 0 0 84 0v-125h375v542a42 42 0 0 1-42 42z m-625-500h-83v83h83z m0 166h-83v84h83z m0 167h-83v83h83z m292-125h-84v83h84z m0 167h-84v83h84z m0 166h-84v84h84z m291-541h-83v83h83z m0 166h-83v84h83z m0 167h-83v83h83z" horiz-adv-x="1000" />

<glyph glyph-name="so-park" unicode="&#x35;" d="M833 58a42 42 0 0 1 0 84v41a42 42 0 0 1 0 84v41a42 42 0 0 1-83 0v-41h-250v41a42 42 0 0 1-83 0v-41a42 42 0 0 1 0-84v-41a42 42 0 0 1 0-84v-41h-125v333a41 41 0 0 1-1 6 166 166 0 0 1 126 161v83a167 167 0 0 1-334 0v-83a166 166 0 0 1 127-161 41 41 0 0 1-2-6v-333h-125v-84h834v84h-84z m-83-41h-250v41h250z m0 125h-250v41h250z" horiz-adv-x="1000" />

<glyph glyph-name="so-police-station" unicode="&#x36;" d="M875 350h-208v250l-167 167-167-167v-250h-208a42 42 0 0 1-42-42v-375h355v105a63 63 0 0 0 125 0v-105h354v375a42 42 0 0 1-42 42z m-625-333h-83v83h83z m0 166h-83v84h83z m250 292a63 63 0 1 0 63 63 63 63 0 0 0-63-63z m333-458h-83v83h83z m0 166h-83v84h83z" horiz-adv-x="1000" />

<glyph glyph-name="so-real-estate" unicode="&#x37;" d="M792 767l125-292h-209l-208 208-208-208h-209l125 292z m-125-375h250v-459h-334v250h-166v-250h-334v459h250l167 166z m-334-292h-166v-83h166z m0 167h-166v-84h166z m209 125a42 42 0 1 1-42-42 42 42 0 0 1 42 42z m291-292h-166v-83h166z m0 167h-166v-84h166z" horiz-adv-x="1000" />

<glyph glyph-name="so-skyscrapers" unicode="&#x38;" d="M875 350h-208v292a42 42 0 0 1-42 41h-83v42a42 42 0 0 1-84 0v-42h-83a42 42 0 0 1-42-41v-292h-208a42 42 0 0 1-42-42v-375h834v375a42 42 0 0 1-42 42z m-625-333h-83v83h83z m0 166h-83v84h83z m333-166h-166v83h166z m0 166h-166v84h166z m0 167h-166v83h166z m0 167h-166v83h166z m250-500h-83v83h83z m0 166h-83v84h83z" horiz-adv-x="1000" />

<glyph glyph-name="so-temple" unicode="&#x39;" d="M750 767h-500l-42-167-125-125h125v-458h-83v-84h750v84h-83v458h125l-125 125z m-42-750h-416v458h416z" horiz-adv-x="1000" />

<glyph glyph-name="so-torii-gate" unicode="&#x3a;" d="M833 558l84 209a1292 1292 0 0 0-417-84 1292 1292 0 0 0-417 84l84-209h83v-208h-83v-83h83v-250h-167v-84h834v84h-167v250h83v83h-83v208z m-166-541h-334v250h334z m0 333h-334v208h334z" horiz-adv-x="1000" />

<glyph glyph-name="so-brush" unicode="&#x3b;" d="M417 17v166h-209a42 42 0 0 0-41 42v125h666v-125a42 42 0 0 0-41-42h-209v-162a87 87 0 0 0-69-87 83 83 0 0 0-97 83z m416 708a42 42 0 0 1-41 42h-292l-83-167-84 167h-125a42 42 0 0 1-41-42v-292h666z" horiz-adv-x="1000" />

<glyph glyph-name="so-cube" unicode="&#x3c;" d="M500 433l-375 167 375 167 375-167z m-42-83l-333 167v-417l333-167z m417-250v417l-333-167v-417z" horiz-adv-x="1000" />

<glyph glyph-name="so-divide" unicode="&#x3d;" d="M667 683v-83a42 42 0 0 0-84 0v42h-375v-375h42a42 42 0 0 0 0-84h-83a42 42 0 0 0-42 42v458a42 42 0 0 0 42 42h458a42 42 0 0 0 42-42z m-250-625v42a42 42 0 0 1-84 0v-83a42 42 0 0 1 42-42h458a42 42 0 0 1 42 42v458a42 42 0 0 1-42 42h-83a42 42 0 0 1 0-84h42v-375z m166 167a42 42 0 0 1 42 42v166a42 42 0 0 1-42 42h-166a42 42 0 0 1-42-42v-166a42 42 0 0 1 42-42z" horiz-adv-x="1000" />

<glyph glyph-name="so-eclipse-1" unicode="&#x3e;" d="M917 350c0-207-187-375-417-375s-417 168-417 375 187 375 417 375 417-168 417-375z" horiz-adv-x="1000" />

<glyph glyph-name="so-eyedropper-tool" unicode="&#x3f;" d="M852 478a82 82 0 0 0-115-116l-225 225a82 82 0 0 0 116 115l28-28a119 119 0 1 0 168-168z m-632-273a94 94 0 0 1-24-43 94 94 0 0 1-43-24 95 95 0 0 1 135-135 94 94 0 0 1 24 43 94 94 0 0 1 43 24l278 278-135 135z" horiz-adv-x="1000" />

<glyph glyph-name="so-file-structure" unicode="&#x40;" d="M667 475v83h-500v-416h500v83a42 42 0 0 0 41 42h108a42 42 0 0 0 30-12l59-59a42 42 0 0 0 12-30v-191a42 42 0 0 0-42-42h-167a42 42 0 0 0-41 42v83h-542a42 42 0 0 0-42 42v625a42 42 0 0 0 84 0v-83h500v83a42 42 0 0 0 41 42h108a42 42 0 0 0 30-12l59-59a42 42 0 0 0 12-30v-191a42 42 0 0 0-42-42h-167a42 42 0 0 0-41 42z" horiz-adv-x="1000" />

<glyph glyph-name="so-folder-structure" unicode="&#x41;" d="M917 654v-179a42 42 0 0 0-42-42h-333a42 42 0 0 0-42 42v83h-333v-416h333v83a42 42 0 0 0 42 42h166a42 42 0 0 0 37-22l26-49h104a42 42 0 0 0 42-42v-179a42 42 0 0 0-42-42h-333a42 42 0 0 0-42 42v83h-375a42 42 0 0 0-42 42v625a42 42 0 0 0 84 0v-83h333v83a42 42 0 0 0 42 42h166a42 42 0 0 0 37-22l26-49h104a42 42 0 0 0 42-42z" horiz-adv-x="1000" />

<glyph glyph-name="so-h-align-center" unicode="&#x42;" d="M542 725v-83h125a42 42 0 0 0 41-42v-167a42 42 0 0 0-41-41h-334a42 42 0 0 0-41 41v167a42 42 0 0 0 41 42h125v83a42 42 0 0 0 84 0z m-42-792a42 42 0 0 1 42 42v83h250a42 42 0 0 1 41 42v167a42 42 0 0 1-41 41h-584a42 42 0 0 1-41-41v-167a42 42 0 0 1 41-42h250v-83a42 42 0 0 1 42-42z" horiz-adv-x="1000" />

<glyph glyph-name="so-h-align-left" unicode="&#x43;" d="M125-67a42 42 0 0 0-42 42v750a42 42 0 0 0 84 0v-750a42 42 0 0 0-42-42z m208 709v-250h292a42 42 0 0 1 42 41v167a42 42 0 0 1-42 42z m542-334h-542v-250h542a42 42 0 0 1 42 42v167a42 42 0 0 1-42 41z" horiz-adv-x="1000" />

<glyph glyph-name="so-h-align-right" unicode="&#x44;" d="M917 725v-750a42 42 0 0 0-84 0v750a42 42 0 0 0 84 0z m-250-333v250h-292a42 42 0 0 1-42-42v-167a42 42 0 0 1 42-41z m-542-334h542v250h-542a42 42 0 0 1-42-41v-167a42 42 0 0 1 42-42z" horiz-adv-x="1000" />

<glyph glyph-name="so-hue-saturation" unicode="&#x45;" d="M500 767a417 417 0 1 1 417-417 417 417 0 0 1-417 417z m0-750a333 333 0 0 0-333 320 305 305 0 0 1 500 235 301 301 0 0 1-9 71 333 333 0 0 0-158-626z" horiz-adv-x="1000" />

<glyph glyph-name="so-img" unicode="&#x46;" d="M167 600a125 125 0 1 0 125-125 125 125 0 0 0-125 125z m333-417l-167 125-250-333h834l-167 500z" horiz-adv-x="1000" />

<glyph glyph-name="so-intersect" unicode="&#x47;" d="M625 683v-83a42 42 0 0 0-42-42h-270a21 21 0 0 1-21-20v-271a42 42 0 0 0-42-42h-83a42 42 0 0 0-42 42v416a42 42 0 0 0 42 42h416a42 42 0 0 0 42-42z m250-666v416a42 42 0 0 1-42 42h-83a42 42 0 0 1-42-42v-270a21 21 0 0 0-20-21h-271a42 42 0 0 1-42-42v-83a42 42 0 0 1 42-42h416a42 42 0 0 1 42 42z m-458 208h166a42 42 0 0 1 42 42v166a42 42 0 0 1-42 42h-166a42 42 0 0 1-42-42v-166a42 42 0 0 1 42-42z" horiz-adv-x="1000" />

<glyph glyph-name="so-magic-wand" unicode="&#x48;" d="M821 671a42 42 0 0 0 0-59l-65-65a42 42 0 0 0-59 59l65 65a42 42 0 0 0 59 0z m54-238h-92a42 42 0 0 1 0-83h92a42 42 0 0 1 0 83z m-292 200v92a42 42 0 0 1-83 0v-92a42 42 0 0 1 83 0z m71-204l-75 75a44 44 0 0 1-63 0l-75-75 138-138 75 75a44 44 0 0 1 0 63z m-558-408l75-75a44 44 0 0 1 63 0l282 282-138 138-282-282a44 44 0 0 1 0-63z" horiz-adv-x="1000" />

<glyph glyph-name="so-magnet" unicode="&#x49;" d="M904 316a43 43 0 0 0 0-60l-64-65-150 150 65 64a43 43 0 0 0 60 0z m-498 438l-65-64 150-150 64 65a43 43 0 0 1 0 60l-89 89a43 43 0 0 1-60 0z m-219-717a352 352 0 0 1 498 0l95 94-150 150-94-95a141 141 0 0 0-200 200l95 94-150 150-94-95a352 352 0 0 1 0-498z" horiz-adv-x="1000" />

<glyph glyph-name="so-mathematical-anchor" unicode="&#x4a;" d="M799 173a472 472 0 0 1 68 69 42 42 0 0 1-67 50 372 372 0 0 0-47-48l-102 161a165 165 0 0 1-110 231 41 41 0 0 1 1 6v83a42 42 0 0 1-84 0v-83a41 41 0 0 1 2-6 165 165 0 0 1-111-231l-102-161a377 377 0 0 0-47 48 42 42 0 0 1-67-50 472 472 0 0 1 68-69l-111-176a42 42 0 1 1 70-44l109 171a451 451 0 0 1 189-64v-43a42 42 0 0 1 84 0v43a451 451 0 0 1 189 64l109-171a42 42 0 1 1 70 44z m-257-28v38a42 42 0 0 1-84 0v-38a372 372 0 0 0-144 50l91 143a166 166 0 0 1 190 0l91-143a372 372 0 0 0-144-50z" horiz-adv-x="1000" />

<glyph glyph-name="so-mesh-fill" unicode="&#x4b;" d="M663 408a524 524 0 0 0 4-58 632 632 0 0 0-22-153 1603 1603 0 0 0-167 52c-23 8-45 16-67 23a616 616 0 0 1 6 78 680 680 0 0 1-16 137c17-5 33-11 50-17a1394 1394 0 0 1 212-62z m254 234v-584a42 42 0 0 0-42-41h-750a42 42 0 0 0-42 41v584a42 42 0 0 0 42 41h750a42 42 0 0 0 42-41z m-84-154a395 395 0 0 0-97-5 943 943 0 0 1-32 117h-89a909 909 0 0 0 32-103 1567 1567 0 0 0-169 52c-35 12-69 24-102 33-2 6-4 12-6 18h-131a262 262 0 0 1-72-17v-94a193 193 0 0 0 143 25 645 645 0 0 0 23-164 516 516 0 0 0-3-56 278 278 0 0 1-163-12v-93a195 195 0 0 0 149 23 914 914 0 0 0-34-112h88c9 26 18 56 26 89 18-6 36-12 54-19a1701 1701 0 0 1 171-53c-2-6-4-12-6-17h89l0 2c8-1 16-1 23-2h82c8 1 16 2 24 3v85a402 402 0 0 0-105-5 709 709 0 0 1 22 167c0 16-1 33-2 49 6 0 12-1 19-1a470 470 0 0 1 66 5z" horiz-adv-x="1000" />

<glyph glyph-name="so-palette" unicode="&#x4c;" d="M501-67a417 417 0 0 1 414 360 201 201 0 0 1-20 121c-114 217-436-84-436 186 0 116 0 167-83 167-209 0-293-238-293-417a417 417 0 0 1 418-417z m145 417a104 104 0 1 0-104-104 104 104 0 0 0 104 104z m-271-187a63 63 0 1 0-62 62 63 63 0 0 0 62-62z m-104 437a63 63 0 1 0-63-62 63 63 0 0 0 63 62z m-42-187a63 63 0 1 0-62-63 63 63 0 0 0 62 63z" horiz-adv-x="1000" />

<glyph glyph-name="so-pencil" unicode="&#x4d;" d="M836 686a135 135 0 0 0 0-191l-66-66-191 191 66 66a135 135 0 0 0 191 0z m-484-675l359 359-191 191-359-359-36-227z" horiz-adv-x="1000" />

<glyph glyph-name="so-pen-tool" unicode="&#x4e;" d="M482 767l435-435-124-124-124 124-125-372-401-27 208 209a105 105 0 1 1-59 59l-209-209 27 402 372 125-124 124z" horiz-adv-x="1000" />

<glyph glyph-name="so-picture" unicode="&#x4f;" d="M875 767h-750a42 42 0 0 1-42-42v-750a42 42 0 0 1 42-42h750a42 42 0 0 1 42 42v750a42 42 0 0 1-42 42z m-42-500l-125 125-208-209-83 84-250-250v666h666z m-583 229a104 104 0 1 0 104-104 104 104 0 0 0-104 104z" horiz-adv-x="1000" />

<glyph glyph-name="so-polygon" unicode="&#x50;" d="M875 350l-125-333h-500l-125 333 125 333h500z" horiz-adv-x="1000" />

<glyph glyph-name="so-prism" unicode="&#x51;" d="M542 767l375-567-375-267z m-84 0l-375-567 375-267z" horiz-adv-x="1000" />

<glyph glyph-name="so-rectangle" unicode="&#x52;" d="M125 17v666a42 42 0 0 0 42 42h666a42 42 0 0 0 42-42v-666a42 42 0 0 0-42-42h-666a42 42 0 0 0-42 42z" horiz-adv-x="1000" />

<glyph glyph-name="so-rounded-rectangle" unicode="&#x53;" d="M125 100v500a83 83 0 0 0 83 83h584a83 83 0 0 0 83-83v-500a83 83 0 0 0-83-83h-584a83 83 0 0 0-83 83z" horiz-adv-x="1000" />

<glyph glyph-name="so-ruler" unicode="&#x54;" d="M833 725h-666a42 42 0 0 1-42-42v-666a42 42 0 0 1 42-42h291a42 42 0 0 1 42 42v312a21 21 0 0 0 21 21h312a42 42 0 0 1 42 42v291a42 42 0 0 1-42 42z m-416-667h-167v84h167z m0 167h-167v83h167z m41 167h-208v83h125v125h83z m167 41h-83v167h83z m167 0h-84v167h84z" horiz-adv-x="1000" />

<glyph glyph-name="so-ruler-pencil" unicode="&#x55;" d="M917 725v-83h-250v83a42 42 0 0 0 41 42h167a42 42 0 0 0 42-42z m-250-583l125-209 125 209v416h-250z m-584-167v750a42 42 0 0 0 42 42h333a42 42 0 0 0 42-42v-750a42 42 0 0 0-42-42h-333a42 42 0 0 0-42 42z m84 583h208v84h-208z m0-166h208v83h-208z m0-167h208v83h-208z m0-167h208v84h-208z" horiz-adv-x="1000" />

<glyph glyph-name="so-structure" unicode="&#x56;" d="M917 642v-84a42 42 0 0 0-42-41h-250a42 42 0 0 0-42 41h-416v-208h416a42 42 0 0 0 42 42h250a42 42 0 0 0 42-42v-83a42 42 0 0 0-42-42h-250a42 42 0 0 0-42 42h-416v-209h416a42 42 0 0 0 42 42h250a42 42 0 0 0 42-42v-83a42 42 0 0 0-42-42h-250a42 42 0 0 0-42 42h-458a42 42 0 0 0-42 42v708a42 42 0 0 0 84 0v-83h416a42 42 0 0 0 42 41h250a42 42 0 0 0 42-41z" horiz-adv-x="1000" />

<glyph glyph-name="so-transform" unicode="&#x57;" d="M583 350a83 83 0 1 0-83 83 83 83 0 0 0 83-83z m249 174a38 38 0 0 0 1-7v-334a38 38 0 0 0-1-7 125 125 0 1 0-158-158 38 38 0 0 0-7-1h-334a38 38 0 0 0-7 1 125 125 0 1 0-158 158 38 38 0 0 0-1 7v334a38 38 0 0 0 1 7 125 125 0 1 0 158 158 38 38 0 0 0 7 1h334a38 38 0 0 0 7-1 125 125 0 1 0 158-158z m-82-341v334a38 38 0 0 0 2 7 124 124 0 0 0-78 78 38 38 0 0 0-7-2h-334a38 38 0 0 0-7 2 124 124 0 0 0-77-78 38 38 0 0 0 1-7v-334a38 38 0 0 0-1-7 124 124 0 0 0 77-77 38 38 0 0 0 7 1h334a38 38 0 0 0 7-1 124 124 0 0 0 78 77 38 38 0 0 0-2 7z" horiz-adv-x="1000" />

<glyph glyph-name="so-triangle" unicode="&#x58;" d="M875-25h-750l375 750z" horiz-adv-x="1000" />

<glyph glyph-name="so-trim" unicode="&#x59;" d="M292 683a42 42 0 0 0-42-41h-42v-42a42 42 0 0 0-83 0v83a42 42 0 0 0 42 42h83a42 42 0 0 0 42-42z m-167-500a42 42 0 0 1 83 0v84a42 42 0 0 1-83 0z m167-166a42 42 0 0 1 41-42h84a42 42 0 0 1 0 83h-84a42 42 0 0 1-41-41z m500 41h-42a42 42 0 0 1 0-83h83a42 42 0 0 1 42 42v83a42 42 0 0 1-83 0z m41 334a42 42 0 0 1 42 41v84a42 42 0 0 1-83 0v-84a42 42 0 0 1 41-41z m-125 291a42 42 0 0 1-41 42h-84a42 42 0 0 1 0-83h84a42 42 0 0 1 41 41z m-333-250v-166a42 42 0 0 1 42-42h166a42 42 0 0 1 42 42v166a42 42 0 0 1-42 42h-166a42 42 0 0 1-42-42z m167-375a42 42 0 0 1 0-83h83a42 42 0 0 1 0 83z m250 167a42 42 0 0 1 83 0v83a42 42 0 0 1-83 0z m-667 167a42 42 0 0 1 83 0v83a42 42 0 0 1-83 0z m333 333h-83a42 42 0 0 1 0-83h83a42 42 0 0 1 0 83z" horiz-adv-x="1000" />

<glyph glyph-name="so-tube" unicode="&#x5a;" d="M833 642c0-69-149-125-333-125s-333 56-333 125 149 125 333 125 333-56 333-125z m-666-133v-451c0-69 149-125 333-125s333 56 333 125v451c-80-51-206-76-333-76s-253 25-333 76z" horiz-adv-x="1000" />

<glyph glyph-name="so-unite" unicode="&#x5b;" d="M625 683v-187a21 21 0 0 1 21-21h187a42 42 0 0 0 42-42v-416a42 42 0 0 0-42-42h-416a42 42 0 0 0-42 42v187a21 21 0 0 1-21 21h-187a42 42 0 0 0-42 42v416a42 42 0 0 0 42 42h416a42 42 0 0 0 42-42z" horiz-adv-x="1000" />

<glyph glyph-name="so-v-align-bottom" unicode="&#x5c;" d="M917-25a42 42 0 0 0-42-42h-750a42 42 0 0 0 0 84h750a42 42 0 0 0 42-42z m-167 542h-167a42 42 0 0 1-41-42v-292h250v292a42 42 0 0 1-42 42z m-333 250h-167a42 42 0 0 1-42-42v-542h250v542a42 42 0 0 1-41 42z" horiz-adv-x="1000" />

<glyph glyph-name="so-minus-front" unicode="&#x5d;" d="M417 475h416a42 42 0 0 0 42-42v-416a42 42 0 0 0-42-42h-416a42 42 0 0 0-42 42v416a42 42 0 0 0 42 42z m-250 83a42 42 0 0 1 41 42v42h42a42 42 0 0 1 0 83h-83a42 42 0 0 1-42-42v-83a42 42 0 0 1 42-42z m-42-375a42 42 0 0 1 42-41h83a42 42 0 0 1 0 83h-42v42a42 42 0 0 1-83 0z m542 375a42 42 0 0 1 41 42v83a42 42 0 0 1-41 42h-84a42 42 0 0 1 0-83h42v-42a42 42 0 0 1 42-42z m-542-166a42 42 0 0 1 83 0v83a42 42 0 0 1-83 0z m333 333h-83a42 42 0 0 1 0-83h83a42 42 0 0 1 0 83z" horiz-adv-x="1000" />

<glyph glyph-name="so-new-artboard" unicode="&#x5e;" d="M375 767a42 42 0 0 0 42-42v-83a42 42 0 0 0-84 0v83a42 42 0 0 0 42 42z m-167-250h-83a42 42 0 0 1 0-84h83a42 42 0 0 1 0 84z m500-209h209l-209 209z m-41 209h-292a42 42 0 0 1-42-42v-500a42 42 0 0 1 42-42h500a42 42 0 0 1 42 42v292h-250z" horiz-adv-x="1000" />

<glyph glyph-name="so-paint-brush" unicode="&#x5f;" d="M917 558v-83a125 125 0 0 0-125-125h-209a42 42 0 0 1-41-42h41a42 42 0 0 0 42-41v-292a42 42 0 0 0-42-42h-166a42 42 0 0 0-42 42v292a42 42 0 0 0 42 41h41a125 125 0 0 0 125 125h209a42 42 0 0 1 41 42v83a42 42 0 0 1-41 42h-50a125 125 0 0 0-117-83h-417a125 125 0 0 0 0 250h417a125 125 0 0 0 117-84h50a125 125 0 0 0 125-125z m-763-375h25a79 79 0 0 1 71 85 97 97 0 0 1-13 50l-70 115-70-115a97 97 0 0 1-14-50 79 79 0 0 1 71-85z" horiz-adv-x="1000" />

<glyph glyph-name="so-v-align-center" unicode="&#x60;" d="M83 350a42 42 0 0 0 42 42h83v125a42 42 0 0 0 42 41h167a42 42 0 0 0 41-41v-334a42 42 0 0 0-41-41h-167a42 42 0 0 0-42 41v125h-83a42 42 0 0 0-42 42z m792 42h-83v250a42 42 0 0 1-42 41h-167a42 42 0 0 1-41-41v-584a42 42 0 0 1 41-41h167a42 42 0 0 1 42 41v250h83a42 42 0 0 1 0 84z" horiz-adv-x="1000" />

<glyph glyph-name="so-v-align-top" unicode="&#x61;" d="M917 725a42 42 0 0 0-42-42h-750a42 42 0 0 0 0 84h750a42 42 0 0 0 42-42z m-167-542a42 42 0 0 1 42 42v292h-250v-292a42 42 0 0 1 41-42z m-292-208v542h-250v-542a42 42 0 0 1 42-42h167a42 42 0 0 1 41 42z" horiz-adv-x="1000" />

<glyph glyph-name="blind-eyes" unicode="&#xe800;" d="M914 406a41 41 0 0 0 0-29 560 560 0 0 0-45-94 42 42 0 0 0-71 43 470 470 0 0 1 32 66c-61 152-189 250-330 250s-269-98-330-250a388 388 0 0 1 257-241 42 42 0 1 0-20-81 475 475 0 0 0-321 307 41 41 0 0 0 0 29c71 194 234 319 414 319s343-125 414-319z m-414-181a167 167 0 1 0 167 167 167 167 0 0 0-167-167z m83 167a83 83 0 1 1-83-84 83 83 0 0 1 83 84z m238-179a42 42 0 0 1-59 0l-54-54-53 54a42 42 0 0 1-59-59l53-54-53-54a42 42 0 1 1 59-59l53 54 54-54a42 42 0 0 1 59 59l-54 54 54 54a42 42 0 0 1 0 59z" horiz-adv-x="1000" />

<glyph glyph-name="disability" unicode="&#xe801;" d="M375 600a104 104 0 1 0 104 104 104 104 0 0 0-104-104z m292-333h-209a42 42 0 0 0-41 41v42h166a42 42 0 0 1 0 83h-166v84a42 42 0 0 1-84 0v-209a125 125 0 0 1 125-125h190l154-179a42 42 0 0 1 58-6l83 70a42 42 0 0 1-53 64l-52-43-140 163a42 42 0 0 1-31 15z m-292-375a334 334 0 0 1 274 143 42 42 0 0 1-69 47 250 250 0 1 0-312 369 42 42 0 0 1-36 75 333 333 0 0 1 143-634z" horiz-adv-x="1000" />

<glyph glyph-name="enter-people" unicode="&#xe802;" d="M188 704a104 104 0 1 0 104-104 104 104 0 0 0-104 104z m633-199a42 42 0 0 1-59-59l54-54h-191a42 42 0 0 1 0-84h191l-54-53a42 42 0 1 1 59-59l125 125a42 42 0 0 1 0 59z m-281-225a42 42 0 0 0-80-26l-43 131v-452a42 42 0 0 0-84 0v250h-83v-250a42 42 0 0 0-83 0v452l-44-131a42 42 0 0 0-79 26l83 250a42 42 0 0 0 40 28h250a42 42 0 0 0 39-28z m-207 195h-83v-208h83z" horiz-adv-x="1000" />

<glyph glyph-name="eye-plus" unicode="&#xe803;" d="M500 558a167 167 0 1 1 167-166 167 167 0 0 1-167 166z m0-250a83 83 0 1 0 83 84 83 83 0 0 0-83-84z m271-83v-62h62a42 42 0 0 0 0-84h-62v-62a42 42 0 0 0-83 0v62h-63a42 42 0 0 0 0 84h63v62a42 42 0 0 0 83 0z m143 181a41 41 0 0 0 0-29 556 556 0 0 0-45-94 42 42 0 1 0-71 43 471 471 0 0 1 32 66c-61 152-189 250-330 250s-269-98-330-250a388 388 0 0 1 257-241 42 42 0 1 0-20-81 475 475 0 0 0-321 307 41 41 0 0 0 0 29c71 194 234 319 414 319s343-125 414-319z" horiz-adv-x="1000" />

<glyph glyph-name="couple" unicode="&#xe804;" d="M813 704v-104h-209v104a104 104 0 0 0 209 0z m143-424a42 42 0 1 0-79-26l-44 131v-452a42 42 0 0 0-83 0v250h-83v-250a42 42 0 0 0-84 0v452l-43-131a42 42 0 0 0-80 0l-43 131v-452a42 42 0 0 0-84 0v250h-83v-250a42 42 0 0 0-83 0v452l-44-131a42 42 0 0 0-79 26l83 250a42 42 0 0 0 40 28h250a42 42 0 0 0 39-28l44-132 44 132a42 42 0 0 0 39 28h250a42 42 0 0 0 40-28z m-623 195h-83v-208h83z m417 0h-83v-208h83z m-458 333a104 104 0 1 1 104-104 104 104 0 0 1-104 104z" horiz-adv-x="1000" />

<glyph glyph-name="male" unicode="&#xe805;" d="M396 558h229a42 42 0 0 0 40-28l83-250a42 42 0 0 0-79-26l-65 193v-514a42 42 0 0 0-83 0v250h-42v-250a42 42 0 0 0-83 0v514l-65-193a42 42 0 0 0-79 26l83 250a42 42 0 0 0 40 28z m0 146a104 104 0 1 1 104 104 104 104 0 0 1-104-104z" horiz-adv-x="1000" />

<glyph glyph-name="people-gesture" unicode="&#xe806;" d="M771 392h-99l-72 143a42 42 0 0 1-37 23h-250a42 42 0 0 1-40-28l-83-250a42 42 0 1 1 79-26l44 131v-452a42 42 0 0 1 83 0v250h83v-250a42 42 0 0 1 84 0v491l46-93a42 42 0 0 1 37-23h125a42 42 0 0 1 0 84z m-292-125h-83v208h83z m-41 541a104 104 0 1 0-105-104 104 104 0 0 0 105 104z" horiz-adv-x="1000" />

<glyph glyph-name="male-gesture" unicode="&#xe807;" d="M813 392a42 42 0 0 0-42-42h-125a42 42 0 0 0-35 19l-69 104v-540a42 42 0 0 0-84 0v250h-41v-250a42 42 0 0 0-84 0v514l-64-193a42 42 0 1 0-79 26l83 250a42 42 0 0 0 40 28h250a42 42 0 0 0 34-18l71-107h103a42 42 0 0 0 42-41z m-375 208a104 104 0 1 1-105 104 104 104 0 0 1 105-104z" horiz-adv-x="1000" />

<glyph glyph-name="accessibility" unicode="&#xe808;" d="M396 704a104 104 0 1 0 104-104 104 104 0 0 0-104 104z m-271-187a42 42 0 0 0 42 41h666a42 42 0 0 0 0-83h-208v-542a42 42 0 0 0-83 0v292h-84v-292a42 42 0 0 0-83 0v542h-208a42 42 0 0 0-42 42z m333-209h84v167h-84z" horiz-adv-x="1000" />

<glyph glyph-name="people" unicode="&#xe809;" d="M279 227a42 42 0 0 1 52 27l44 131v-452a42 42 0 0 1 83 0v250h84v-250a42 42 0 0 1 83 0v452l44-131a42 42 0 1 1 79 26l-83 250a42 42 0 0 1-40 28h-250a42 42 0 0 1-39-28l-84-250a42 42 0 0 1 27-53z m179 248h84v-208h-84z m-62 229a104 104 0 1 0 104-104 104 104 0 0 0-104 104z" horiz-adv-x="1000" />

<glyph glyph-name="walk" unicode="&#xe80a;" d="M956-54a42 42 0 1 0-79-26l-118 354-144 36a42 42 0 0 0-31 30l-19 79-24-119a42 42 0 0 0-82 16l32 159h-81l-31-187 184-111a42 42 0 0 0 17-20l84-208a42 42 0 0 0-23-54 41 41 0 0 0-16-3 42 42 0 0 0-39 26l-78 195-196 118a42 42 0 0 0-20 43l26 152-76-101a42 42 0 0 0-20-14l-125-42a42 42 0 0 0-27 79l113 38 117 156a42 42 0 0 0 33 16h250a42 42 0 0 0 41-31l35-143 143-35a42 42 0 0 0 29-27z m-373 758a104 104 0 1 1-104-104 104 104 0 0 1 104 104z m-387-800l125 125a42 42 0 0 1 11 19l21 84a42 42 0 0 1-81 20l-18-72-116-117a42 42 0 1 1 58-59z" horiz-adv-x="1000" />

<glyph glyph-name="escalator-down" unicode="&#xe80b;" d="M229 704a104 104 0 1 0 104-104 104 104 0 0 0-104 104z m717-574a42 42 0 0 1-59 0l-95-96v66a42 42 0 0 1-84 0v-167a42 42 0 0 1 4-16 42 42 0 0 1 22-22 42 42 0 0 1 16-3h167a42 42 0 0 1 0 83h-66l95 96a42 42 0 0 1 0 59z m12 283a146 146 0 0 0-145-146h-67a42 42 0 0 1-31-14l-259-291a208 208 0 0 0-156-70h-112a146 146 0 0 0 0 291h20v250a125 125 0 0 0 250 0v-41l86 96a208 208 0 0 0 156 70h113a146 146 0 0 0 145-145z m-666-209l83 94v135a42 42 0 0 1-83 0z m583 209a63 63 0 0 1-62 62h-113a125 125 0 0 1-93-42l-259-291a125 125 0 0 0-94-42h-66a63 63 0 0 1 0-125h112a125 125 0 0 1 93 42l259 291a125 125 0 0 0 94 42h67a63 63 0 0 1 62 63z" horiz-adv-x="1000" />

<glyph glyph-name="escalator-up" unicode="&#xe80c;" d="M229 704a104 104 0 1 0 104-104 104 104 0 0 0-104 104z m71-812h-112a146 146 0 0 0 0 291h20v250a125 125 0 0 0 250 0v-41l86 96a208 208 0 0 0 156 70h113a146 146 0 0 0 0-291h-67a42 42 0 0 1-31-14l-259-291a208 208 0 0 0-156-70z m-8 312l83 94v135a42 42 0 0 1-83 0z m-104-229h112a125 125 0 0 1 93 42l259 291a125 125 0 0 0 94 42h67a63 63 0 0 1 0 125h-113a125 125 0 0 1-93-42l-259-291a125 125 0 0 0-94-42h-66a63 63 0 0 1 0-125z m745 164a42 42 0 0 1-16 3h-167a42 42 0 0 1 0-84h66l-95-95a42 42 0 1 1 59-59l95 95v-66a42 42 0 0 1 83 0v167a42 42 0 0 1-25 39z" horiz-adv-x="1000" />

<glyph glyph-name="female" unicode="&#xe80d;" d="M604 704v-104h-208v104a104 104 0 0 0 208 0z m0-771v250h63l-69 249 120-150a42 42 0 0 1 65 52l-167 209a42 42 0 0 1-33 15h-166a42 42 0 0 1-33-15l-166-209a42 42 0 0 1 65-52l120 150-70-249h63v-250a42 42 0 0 1 83 0v250h42v-250a42 42 0 0 1 83 0z" horiz-adv-x="1000" />

<glyph glyph-name="female-gesture" unicode="&#xe80e;" d="M854 392a42 42 0 0 0-41-42h-167a42 42 0 0 0-30 12l-85 86 73-265h-62v-250a42 42 0 0 0-84 0v250h-41v-250a42 42 0 0 0-84 0v250h-62l69 249-120-150a42 42 0 0 0-65 52l167 209a42 42 0 0 0 32 15h167a42 42 0 0 0 29-12l113-113h150a42 42 0 0 0 41-41z m-521 208h209v104a104 104 0 0 1-209 0z" horiz-adv-x="1000" />

<glyph glyph-name="bat" unicode="&#xe80f;" d="M515 686a42 42 0 0 1-34 25 434 434 0 0 1-434-223 42 42 0 0 1 16-56 253 253 0 0 0 58-43 252 252 0 0 0 74-180 252 252 0 0 0-74-179 42 42 0 0 1 59-59 254 254 0 0 0 402-58 42 42 0 0 1 56-16 434 434 0 0 1 223 435 42 42 0 0 1-66 28 204 204 0 0 0-285 285 42 42 0 0 1 5 41z m266-429a350 350 0 0 0-150-267 332 332 0 0 1-33 40 336 336 0 0 1-239 98 340 340 0 0 1-94-13 339 339 0 0 1 14 94 335 335 0 0 1-99 239 332 332 0 0 1-40 33 344 344 0 0 0 40 47 349 349 0 0 0 227 103 286 286 0 0 1 374-374z m106 400l-40-40-80 80 40 40a42 42 0 1 1-59 59l-70-70-104-104a140 140 0 0 1 198-198l105 104 69 70a42 42 0 1 1-59 59z m-174-174a57 57 0 0 0-80 0 57 57 0 0 0 0 80l75 75 80-80z" horiz-adv-x="1000" />

<glyph glyph-name="bear" unicode="&#xe810;" d="M792 808a166 166 0 0 1-136-72 413 413 0 0 1-311 0 166 166 0 1 1-231-230 414 414 0 0 1-31-156c0-216 179-458 417-458s417 242 417 458a414 414 0 0 1-31 156 166 166 0 0 1-94 302z m-639-228a82 82 0 0 0-28 62 83 83 0 0 0 83 83 82 82 0 0 0 62-28 429 429 0 0 1-117-117z m347-605c-191 0-333 198-333 375a333 333 0 0 0 666 0c0-177-142-375-333-375z m230 722a82 82 0 0 0 62 28 83 83 0 0 0 83-83 82 82 0 0 0-28-62 434 434 0 0 1-117 117z m-63-493c0-43-35-125-167-125s-167 82-167 125a42 42 0 0 0 84 0c0-4 4-27 41-37v56l-57 109a40 40 0 0 0 31 60h136a40 40 0 0 0 31-60l-57-109v-56c37 10 41 33 41 38a43 43 0 0 0 43 40 41 41 0 0 0 41-41z" horiz-adv-x="1000" />

<glyph glyph-name="bone" unicode="&#xe811;" d="M827 677a175 175 0 1 1-319-135l-200-200a175 175 0 0 1-215-273 174 174 0 0 1 80-46 175 175 0 1 1 319 135l200 200a175 175 0 1 1 135 319z m21-235a94 94 0 0 0-130 0 42 42 0 0 1-59 0l-251-251a42 42 0 0 1 0-59 92 92 0 1 0-156-70 42 42 0 0 1-40 40 92 92 0 1 0 70 156 42 42 0 0 1 59 0l251 251a42 42 0 0 1 0 59 92 92 0 1 0 157 70 42 42 0 0 1 39-39 91 91 0 0 0 60-27h0a92 92 0 0 0 0-130z" horiz-adv-x="1000" />

<glyph glyph-name="cat" unicode="&#xe812;" d="M424 341a31 31 0 0 0 26 51h100a31 31 0 0 0 27-51l-51-62a34 34 0 0 0-52 0z m-380-129a42 42 0 0 0 26 53l15 5c-1 12-2 25-2 38v459a42 42 0 0 0 64 35l188-113a357 357 0 0 0 165 36 358 358 0 0 0 165-36l189 113a42 42 0 0 0 63-35v-459c0-13-1-26-2-38l15-5a42 42 0 0 0-26-80l-5 2a414 414 0 0 0-59-118l23-23a42 42 0 0 0-59-59l-19 19a415 415 0 0 0-570 0l-19-19a42 42 0 0 0-59 59l23 23a414 414 0 0 0-58 118c-33-9-51 5-58 25z m123 85l153 51a42 42 0 0 0 27-79l-166-55a332 332 0 0 1 39-85l126 126a42 42 0 0 0 59-59l-131-131a331 331 0 0 1 453 0l-131 131a42 42 0 0 0 59 59l125-126a332 332 0 0 1 39 85l-165 55a42 42 0 0 0 26 79l153-51c0 4 0 8 0 11v385l-145-87a42 42 0 0 0-41-1 278 278 0 0 1-147 37 278 278 0 0 1-147-37 42 42 0 0 0-41 1l-145 87v-385c0-3 0-7 0-11z" horiz-adv-x="1000" />

<glyph glyph-name="chicken" unicode="&#xe813;" d="M500-108c130 0 375 61 375 291 0 206-150 353-251 429a336 336 0 0 1-94 184 42 42 0 0 1-59 0 336 336 0 0 1-95-184c-101-76-251-223-251-429 0-230 245-291 375-291z m0 810a194 194 0 0 0 42-102c0-1 0-1 0-2-1-1-1-2-1-4a41 41 0 0 0-81 0c0 2-1 3-1 4 0 1 0 1 0 2a194 194 0 0 0 41 102z m-101-178a130 130 0 0 1 101-49h1l1 0a129 129 0 0 1 99 49c85-70 191-187 191-341 0-205-280-208-292-208s-292 3-292 208c0 154 106 271 191 341z m-37-422l125-41a42 42 0 0 1 26 0l125 41a42 42 0 0 1 27 53c-6 16-55 153-165 153s-159-137-164-153a42 42 0 0 1 26-53z m138 123c28 0 52-30 68-58l-68-23-68 23c16 27 40 58 68 58z" horiz-adv-x="1000" />

<glyph glyph-name="cow" unicode="&#xe814;" d="M958 683a42 42 0 0 1-41 42h-209v42a42 42 0 0 1-83 0v-25a331 331 0 0 1-250 0v25a42 42 0 0 1-83 0v-42h-209a42 42 0 0 1-41-42 206 206 0 0 1 132-179 334 334 0 0 1-7-71v-118c-78-45-125-106-125-173 0-140 201-250 458-250s458 110 458 250c0 67-47 128-125 173v118a334 334 0 0 1-7 71 206 206 0 0 1 132 179z m-756-100a136 136 0 0 0-65 59h103a338 338 0 0 1-37-58c0 0 0-1-1-1z m673-441c0-79-154-167-375-167s-375 88-375 167c0 38 37 79 101 111l1 0a642 642 0 0 0 273 55 642 642 0 0 0 273-55l1 0c64-32 101-73 101-111z m-375 250a798 798 0 0 1-250-39v80a250 250 0 0 0 500 0v-80a793 793 0 0 1-250 39z m298 191c-1 0-1 1-1 1a341 341 0 0 1-37 58h103a136 136 0 0 0-65-59z m-381-441a83 83 0 1 0-84 83 83 83 0 0 0 84-83z m333 0a83 83 0 1 0-83 83 83 83 0 0 0 83-83z" horiz-adv-x="1000" />

<glyph glyph-name="crab" unicode="&#xe815;" d="M958 664a161 161 0 0 1-23 82 43 43 0 0 1-71 0 84 84 0 0 0-144 0 42 42 0 0 1-72 0 161 161 0 0 1-23-82 164 164 0 0 1 125-157v-43a440 440 0 0 1-250 80 440 440 0 0 1-250-80v43a164 164 0 0 1 125 157 161 161 0 0 1-23 82 43 43 0 0 1-72 0 84 84 0 0 0-144 0 42 42 0 0 1-71 0 161 161 0 0 1-23-82 164 164 0 0 1 125-157v-116a527 527 0 0 1-79-113 42 42 0 0 1 0-38 532 532 0 0 1 49-78l-69-26a42 42 0 0 1 31-78l98 38q12-10 24-20l-81-69a42 42 0 0 1 54-64l99 84a429 429 0 0 1 415 0l99-84a42 42 0 0 1 54 64l-82 69q12 10 24 20l98-38a42 42 0 0 1 31 78l-69 26a535 535 0 0 1 49 78 42 42 0 0 1 0 38 527 527 0 0 1-79 113v116a164 164 0 0 1 125 157z m-247-21a172 172 0 0 1 161 0 84 84 0 0 0-161 0z m-583 0a172 172 0 0 1 161 0 84 84 0 0 0-161 0z m45-384a384 384 0 0 0 327 201 384 384 0 0 0 328-201 384 384 0 0 0-328-202 384 384 0 0 0-327 202z" horiz-adv-x="1000" />

<glyph glyph-name="corgi" unicode="&#xe816;" d="M956 754a42 42 0 0 1-55 51l-193-77a681 681 0 0 1-208 39 668 668 0 0 1-208-38l-193 76a42 42 0 0 1-55-51l79-237a1372 1372 0 0 1-81-334c0-101 134-291 458-291s458 190 458 291a1372 1372 0 0 1-80 334z m-456-779c-267 0-375 147-375 208a1355 1355 0 0 0 81 319 41 41 0 0 1 0 28l-55 165 125-49a42 42 0 0 1 32 0 577 577 0 0 0 192 37 590 590 0 0 0 192-38 42 42 0 0 1 32 0l125 50-55-165a41 41 0 0 1 0-28 1355 1355 0 0 0 81-319c0-61-108-208-375-208z m167 229c0-43-35-125-167-125s-167 82-167 125a42 42 0 0 0 84 0c0-4 4-27 41-37v56l-57 109a40 40 0 0 0 31 60h136a40 40 0 0 0 31-60l-57-109v-56c37 10 41 33 41 38a42 42 0 0 0 42 40h1a41 41 0 0 0 41-41z" horiz-adv-x="1000" />

<glyph glyph-name="bird" unicode="&#xe817;" d="M946 702a42 42 0 0 0 0-59l-164-162a398 398 0 0 0-28-536 42 42 0 0 0-59 0l-216 214-102-203a42 42 0 0 0-31-22 40 40 0 0 0-6-1 42 42 0 0 0-29 12l-257 254a42 42 0 0 0 11 67l204 101-215 213a42 42 0 0 0 0 59 406 406 0 0 0 444 85 42 42 0 1 0-33-77 323 323 0 0 1-320-40l224-222a42 42 0 0 0-11-67l-204-101 174-172 103 202a42 42 0 0 0 66 11l226-222a314 314 0 0 1-28 417 42 42 0 0 0 0 59l158 156a141 141 0 0 1-163-25l-161-159a42 42 0 0 0-71 26 44 44 0 0 0 19 40l154 152a225 225 0 0 0 315 0z" horiz-adv-x="1000" />

<glyph glyph-name="fish-bone" unicode="&#xe818;" d="M776 582a42 42 0 0 1-55-7 389 389 0 0 1-89-183h-96l124 185a42 42 0 0 1-69 46l-155-231h-35l53 106a42 42 0 0 1-74 37l-72-143h-36a516 516 0 0 1-168 161 42 42 0 0 1-62-36v-334a42 42 0 0 1 62-36 516 516 0 0 1 168 161h36l71-143a42 42 0 1 1 75 37l-53 106h35l154-231a42 42 0 0 1 70 46l-124 185h90a392 392 0 0 1 58-198 42 42 0 0 1 55-15 526 526 0 0 1 215 236 42 42 0 0 1 0 38 564 564 0 0 1-178 213z m-651-318v172a469 469 0 0 0 75-86 471 471 0 0 0-75-86z m610-73a311 311 0 0 0 25 299 502 502 0 0 0 110-140 468 468 0 0 0-135-159z" horiz-adv-x="1000" />

<glyph glyph-name="fish" unicode="&#xe819;" d="M63 314a42 42 0 0 1 41 0 501 501 0 0 1 143 126c89-137 209-215 336-215 162 0 294 127 371 272a42 42 0 0 1 0 39 547 547 0 0 1-186 214 338 338 0 0 1-185 58c-127 0-247-77-336-214a500 500 0 0 1-143 126 42 42 0 0 1-62-37v-333a42 42 0 0 1 21-36z m691 343a508 508 0 0 0 115-140 477 477 0 0 0-141-161 299 299 0 0 0 26 301z m-171 68a243 243 0 0 0 101-23 380 380 0 0 1-31-382 236 236 0 0 0-70-12c-107 0-210 76-285 209 75 132 178 208 285 208z m-458-123a466 466 0 0 0 75-85 466 466 0 0 0-75-86z m833-530a181 181 0 0 0-319-115 180 180 0 0 0-278 0 181 181 0 0 0-319 115 42 42 0 0 0 83 0 97 97 0 0 1 195 0 42 42 0 0 0 83 0 97 97 0 1 1 194 0 42 42 0 1 0 84 0 97 97 0 0 1 194 0 42 42 0 0 0 83 0z" horiz-adv-x="1000" />

<glyph glyph-name="monkey-2" unicode="&#xe81a;" d="M126 448c-2-30 0-15-1-181a375 375 0 0 1 750 0c0 166 1 151-1 181a144 144 0 0 1 84 131 146 146 0 0 1-145 146 144 144 0 0 1-69-18 374 374 0 0 1-153 80l-81 20a41 41 0 0 1-20 0l-81-20a374 374 0 0 1-153-80 144 144 0 0 1-68 18 146 146 0 0 1-146-146 144 144 0 0 1 84-131z m749 131a62 62 0 0 0-17-43 393 393 0 0 1-22 53l-1 3a375 375 0 0 1-30 49l0 0a63 63 0 0 0 70-62z m-375 145c7-4 292-33 292-301v-156a292 292 0 0 0-584 0v156c0 266 287 298 292 301z m-305-83a379 379 0 0 1-30-49l-1-3a373 373 0 0 1-21-51c0-1 0-1 0-2a62 62 0 0 0-18 43 63 63 0 0 0 70 62z m55-166a166 166 0 0 1 50-118 223 223 0 0 1-29-111 229 229 0 0 1 458 0 223 223 0 0 1-29 111 166 166 0 0 1-200 262 165 165 0 0 1-83 23 167 167 0 0 1-167-167z m167 83a83 83 0 0 0 55-21 42 42 0 0 1 56 0 83 83 0 1 0 95-135 42 42 0 0 1-12-63 143 143 0 0 0 35-93 146 146 0 0 0-292 0 143 143 0 0 0 35 93 42 42 0 0 1-12 63 83 83 0 0 0 40 156z" horiz-adv-x="1000" />

<glyph glyph-name="monkey-3" unicode="&#xe81b;" d="M623 780a42 42 0 0 0-26-53 140 140 0 0 1-97-127 42 42 0 0 0-42-42h0a42 42 0 0 0-41 42 223 223 0 0 0 153 206 42 42 0 0 0 53-26z m-79-167a41 41 0 0 1 26-52 40 40 0 0 1 13-2 42 42 0 0 1 40 27 109 109 0 0 0 123 63 42 42 0 0 1 8 83 193 193 0 0 1-210-119z m-127-96a165 165 0 0 0 83-23 165 165 0 0 0 83 23 166 166 0 0 0 82-312 162 162 0 0 0 2-22 167 167 0 0 0-334 0 162 162 0 0 0 2 22 166 166 0 0 0 82 312z m55-105a83 83 0 0 1-55 21 83 83 0 0 1-22-163 42 42 0 0 0 28-56 83 83 0 1 1 154 0 42 42 0 0 0 28 56 83 83 0 1 1-77 142 42 42 0 0 0-56 0z m486 105a125 125 0 0 0-88-119 810 810 0 0 0 5-131 375 375 0 0 0-750 0 779 779 0 0 0 5 131 125 125 0 1 0 115 216 373 373 0 0 0 68 51 42 42 0 0 0 41-73 297 297 0 0 1-146-252v-73a292 292 0 0 1 584 0v73a296 296 0 0 1-73 193 42 42 0 0 0 4 59 41 41 0 0 0 18 8 125 125 0 0 0 217-83z m-767 34a42 42 0 0 1-66-34 42 42 0 0 1 27-39 458 458 0 0 0 39 73z m684-34a42 42 0 0 1-65 34 399 399 0 0 0 39-73 42 42 0 0 1 26 39z" horiz-adv-x="1000" />

<glyph glyph-name="monkey" unicode="&#xe81c;" d="M667 183c0-125-126-125-167-125s-167 0-167 125a42 42 0 0 0 84 0c0-29 11-41 83-41s83 12 83 41a42 42 0 0 0 84 0z m291 292a167 167 0 0 0-125-161v-26a183 183 0 0 0 84-146c0-140-183-250-417-250s-417 110-417 250a183 183 0 0 0 84 146v26a166 166 0 0 0 41 328c1 0 3-1 4-1a333 333 0 0 0 577 0c1 0 2 1 3 1a167 167 0 0 0 166-167z m-708 0v-150l42 13v144a124 124 0 0 0 36 89 128 128 0 0 0 172 4 128 128 0 0 0 172-4 124 124 0 0 0 36-89v-144l42-13v150a250 250 0 0 1-500 0z m-83-72a673 673 0 0 0 9 149 83 83 0 0 1-9-149z m666-261c0 19-6 49-61 87l-118 40a42 42 0 0 0-29 39v174a42 42 0 0 1-71 30l-24-25a42 42 0 0 0-59 0l-25 25a42 42 0 0 1-71-30v-174a42 42 0 0 0-28-39l-119-40c-54-38-61-68-61-87 0-79 137-167 333-167s333 88 333 167z m42 333a83 83 0 0 1-51 77c1-1 1-2 1-3a669 669 0 0 0 8-146 83 83 0 0 1 42 72z" horiz-adv-x="1000" />

<glyph glyph-name="panda" unicode="&#xe81d;" d="M792 808a166 166 0 0 1-136-72 413 413 0 0 1-311 0 166 166 0 1 1-231-230 414 414 0 0 1-31-156c0-338 216-458 417-458s417 120 417 458a414 414 0 0 1-31 156 166 166 0 0 1-94 302z m-292-833c-212 0-333 137-333 375a333 333 0 0 0 666 0c0-238-121-375-333-375z m167 208c0-43-35-125-167-125s-167 82-167 125a42 42 0 0 0 84 0c0-4 4-26 41-36v78l-57 88a32 32 0 0 0 31 47h136a32 32 0 0 0 31-47l-57-88v-78c37 10 41 32 41 38a44 44 0 0 0 43 39 41 41 0 0 0 41-41z m-354 189c-83 0-83 125 0 167s125 0 125 0 0-167-125-167z m374 1c-125 0-125 167-125 167s42 42 125 0 83-167 0-167z" horiz-adv-x="1000" />

<glyph glyph-name="paw" unicode="&#xe81e;" d="M625 642c0 93-55 166-125 166s-125-73-125-166 55-167 125-167 125 73 125 167z m-167 0c0 51 25 83 42 83s42-32 42-83-25-84-42-84-42 33-42 84z m-413-54a203 203 0 0 1 56-101 189 189 0 0 1 129-59 107 107 0 0 1 77 30 114 114 0 0 1 28 105 202 202 0 0 1-57 101c-66 66-157 79-206 30a114 114 0 0 1-27-106z m86 47a26 26 0 0 0 18 5 108 108 0 0 0 70-35 120 120 0 0 0 34-58 34 34 0 0 0-4-30c-12-12-53-7-89 29a121 121 0 0 0-33 59 34 34 0 0 0 4 30z m825-47a114 114 0 0 1-27 105c-50 50-141 37-207-29a202 202 0 0 1-57-101 114 114 0 0 1 28-105 106 106 0 0 1 77-30 189 189 0 0 1 129 59 203 203 0 0 1 57 101z m-82 17a121 121 0 0 0-34-59c-36-36-76-41-88-29a34 34 0 0 0-5 30 120 120 0 0 0 34 58 107 107 0 0 0 70 35 25 25 0 0 0 18-5 34 34 0 0 0 5-30z m-734-365a216 216 0 0 1 8-175 316 316 0 0 1 194-155 107 107 0 0 1 77 7 195 195 0 0 0 162 0 107 107 0 0 1 76-7 316 316 0 0 1 195 155 216 216 0 0 1 8 175c-43 116-175 193-329 193h-62c-154 0-286-77-329-193z m78-29c30 82 134 139 251 139h62c117 0 221-57 252-139a135 135 0 0 0-6-109 233 233 0 0 0-144-112 24 24 0 0 0-17 3 279 279 0 0 1-231 0 24 24 0 0 0-18-3 233 233 0 0 0-144 112 135 135 0 0 0-5 109z" horiz-adv-x="1000" />

<glyph glyph-name="pig" unicode="&#xe81f;" d="M500 413c-163 0-292-87-292-198s129-198 292-198 292 87 292 198-128 198-292 198z m0-313c-123 0-208 60-208 115s85 114 208 114 208-60 208-114-85-115-208-115z m333 314v61a334 334 0 0 1-4 54l124 217a42 42 0 0 1-48 61l-212-61a331 331 0 0 1-386 0l-212 61a42 42 0 0 1-48-61l124-217a334 334 0 0 1-4-54v-61a360 360 0 0 1-125-251c0-152 201-271 458-271s458 119 458 271a360 360 0 0 1-125 251z m-3 285l-37-65a329 329 0 0 1-27 41c-1 1-2 3-3 5z m-660 0l67-19c-1-2-2-4-3-5a329 329 0 0 1-27-41z m330-724c-224 0-375 97-375 188 0 53 44 160 103 192a42 42 0 0 1 22 37v83a250 250 0 0 0 500 0v-83a42 42 0 0 1 22-37c59-32 103-139 103-192 0-91-151-188-375-188z m125 250a42 42 0 1 0-42 42 42 42 0 0 0 42-42z m-167 0a42 42 0 1 0-41 42 42 42 0 0 0 41-42z" horiz-adv-x="1000" />

<glyph glyph-name="rabbit" unicode="&#xe820;" d="M750 142a42 42 0 0 1-42 41h-166v40l57 109a40 40 0 0 1-31 60h-136a40 40 0 0 1-31-60l57-109v-40h-166a42 42 0 0 1 0-83h41v-167a42 42 0 0 1 42-41h250a42 42 0 0 1 42 41v167h41a42 42 0 0 1 42 42z m-333-42h41v-125h-41z m166-125h-41v125h41z m167 833h-500a209 209 0 0 1-208-208v-458a251 251 0 0 1 200-245 42 42 0 0 1 16 81 167 167 0 0 0 0 327 42 42 0 0 1 34 41v171a208 208 0 0 0 416 0v-171a42 42 0 0 1 34-41 167 167 0 0 0 0-327 42 42 0 0 1 8-82c81 0 208 100 208 246v458a209 209 0 0 1-208 208z m-542-431a280 280 0 0 1-83-49v272a125 125 0 0 0 125 125h46a296 296 0 0 1-88-208z m584 140a298 298 0 0 1-88 208h46a125 125 0 0 0 125-125v-272a279 279 0 0 1-83 49z" horiz-adv-x="1000" />

<glyph glyph-name="shark" unicode="&#xe821;" d="M224 722a1164 1164 0 0 0 30-472l-10-72a42 42 0 0 0-83 11l11 73a1080 1080 0 0 1-45 492 42 42 0 0 0 40 54 709 709 0 0 0 703-619 42 42 0 0 0-83-11 626 626 0 0 1-563 544z m693-608a42 42 0 0 1-42-42 97 97 0 0 0-194 0 42 42 0 1 1-84 0 97 97 0 1 0-194 0 42 42 0 0 1-83 0 97 97 0 0 0-195 0 42 42 0 0 1-83 0 181 181 0 0 1 319-115 180 180 0 0 1 278 0 181 181 0 0 1 319 115 42 42 0 0 1-41 42z" horiz-adv-x="1000" />

<glyph glyph-name="shrimp" unicode="&#xe822;" d="M667 808h-167a42 42 0 0 1 0-83h167a209 209 0 0 0 204-167h-352c-158-1-272 23-380-75a297 297 0 0 1-97-216 375 375 0 0 1 375-375h333a42 42 0 0 1 42 41 125 125 0 0 1-125 125l-230 14a78 78 0 0 0-62 76 75 75 0 0 0 25 56c37 34 79 16 119 21h148a292 292 0 0 1 0 583z m-246-818l37-8v-7h-41a292 292 0 0 0-292 292 207 207 0 0 0 34 112 504 504 0 0 1 152-156 159 159 0 0 1-19-75 161 161 0 0 1 129-158z m3 316c-3-1-6-2-8-2a162 162 0 0 1-20-6c-3-2-6-3-9-4a167 167 0 0 1-18-9 421 421 0 0 0-150 155c78 52 152 30 247 35a443 443 0 0 1 0-167h-14a156 156 0 0 1-28-2z m243 2h-116a377 377 0 0 0 0 167h320a209 209 0 0 0-204-167z" horiz-adv-x="1000" />

<glyph glyph-name="spider" unicode="&#xe823;" d="M816 354a42 42 0 0 1 55 19l83 167a42 42 0 1 1-75 37l-65-131-95 42 87 31a42 42 0 0 1 27 31l41 208a42 42 0 0 1-81 17l-37-185-89-32v209a42 42 0 0 1-84 0v-65a162 162 0 0 1-166 0v65a42 42 0 0 1-84 0v-209l-88 32-37 185a42 42 0 0 1-82-17l42-208a42 42 0 0 1 27-31l86-31-95-42-65 131a42 42 0 0 1-75-37l84-167a42 42 0 0 1 54-19l45 20a290 290 0 0 1-11-35l-70-35a42 42 0 0 1-21-27l-84-334a42 42 0 0 1 30-50 43 43 0 0 1 10-1 42 42 0 0 1 41 31l78 315 8 4a291 291 0 0 1 580 0l8-4 78-315a42 42 0 0 1 41-31 43 43 0 0 1 10 1 42 42 0 0 1 30 50l-83 334a42 42 0 0 1-22 27l-70 35a290 290 0 0 1-11 35z m-316 288a83 83 0 0 0 83-96 318 318 0 0 1-83 12 320 320 0 0 1-82-12 83 83 0 0 0 82 96z m0-584a208 208 0 0 0-1 417h2a208 208 0 0 0-1-417z m42 125a42 42 0 0 0-42-41 125 125 0 0 0-125 125 42 42 0 0 0 83 0 42 42 0 0 1 42-42 42 42 0 0 0 42-42z" horiz-adv-x="1000" />

<glyph glyph-name="squid" unicode="&#xe824;" d="M167 267a42 42 0 0 1-42-42v-42a125 125 0 0 1 250 0v125h83v-375a42 42 0 0 1 84 0v375h83v-208a125 125 0 0 1 250 0v83a42 42 0 0 1-83 0v-83a42 42 0 0 0-84 0v208h125a42 42 0 0 1 42 42v83a375 375 0 0 1-750 0v-83a42 42 0 0 1 42-42h125v-125a42 42 0 0 0-84 0v42a42 42 0 0 1-41 42z m41 166a292 292 0 0 0 584 0v-41h-584z" horiz-adv-x="1000" />

<glyph glyph-name="octopus" unicode="&#xe825;" d="M174 365a42 42 0 0 1-59 59l-43-43a102 102 0 0 1 144-145l128 128 56-55-200-200a42 42 0 1 1 59-58l200 199 55-55-128-129a102 102 0 1 1 145-144l43 43a42 42 0 0 1-59 59l-43-43a19 19 0 0 0-27 27l158 157 81 81 237 21a42 42 0 0 1 35 55c-121 361-113 347-123 358-13 14-16 9-361 126a42 42 0 0 1-55-35l-21-237-81-81-157-158a19 19 0 0 0-27 27z m314 143a367 367 0 0 0 276 106 366 366 0 0 0-106-276h0l-85-85-170 170z m278-171a519 519 0 0 1 59 116l36-107z m-270 374l107-36a530 530 0 0 1-116-59z" horiz-adv-x="1000" />

<glyph glyph-name="turtle" unicode="&#xe826;" d="M917 558h-260c-4 2-7 4-11 6a163 163 0 0 1 21 78 167 167 0 0 1-334 0 163 163 0 0 1 21-78c-3-2-7-4-10-6h-261a42 42 0 0 1-38-57 403 403 0 0 1 134-162 355 355 0 0 1-8-144c-86-96-88-255-88-262a42 42 0 0 1 42-41 41 41 0 0 1 16 3l159 68a315 315 0 0 1 400 0l159-68a41 41 0 0 1 16-3 42 42 0 0 1 42 41c0 7-2 166-87 262a369 369 0 0 1 3 51 373 373 0 0 1-12 93 404 404 0 0 1 134 162 42 42 0 0 1-38 57z m-500 84a83 83 0 0 0 166 0 82 82 0 0 0-16-49 316 316 0 0 1-134 0 82 82 0 0 0-16 49z m-207-222a329 329 0 0 0-53 55h89a391 391 0 0 1-36-55z m-37-421a374 374 0 0 0 28 91 460 460 0 0 1 37-63z m77 247a289 289 0 0 0 17 97h0a255 255 0 0 0 201 171 223 223 0 0 0 64 0 265 265 0 0 0 218-268 262 262 0 0 0-250-271 262 262 0 0 0-250 271z m550-156a366 366 0 0 0 27-91l-65 28a482 482 0 0 1 38 63z m-10 330a382 382 0 0 1-36 55h89a329 329 0 0 0-53-55z m-248-308a42 42 0 0 0-42-42 172 172 0 0 0-167 176 42 42 0 0 0 84 0 88 88 0 0 1 83-92 42 42 0 0 0 42-42z" horiz-adv-x="1000" />

<glyph glyph-name="whale" unicode="&#xe827;" d="M958 350a42 42 0 0 1-41 42h-209v125a42 42 0 0 1-83 0v-125h-79a218 218 0 0 0-200 133 157 157 0 0 1 112 158 42 42 0 0 1-12 30 188 188 0 0 1-68 41 143 143 0 0 1-128-17 143 143 0 0 1-128 17 188 188 0 0 1-68-41 42 42 0 0 1-12-30 157 157 0 0 1 122-160l-17-254a352 352 0 0 1 117-287 42 42 0 1 1 56 62 269 269 0 0 0-82 139 402 402 0 0 1 157-79c45-58-10-144-13-148a42 42 0 0 1 43-64 251 251 0 0 1 173 105 204 204 0 0 1 30 104 975 975 0 0 1 169 21 374 374 0 0 0-147-116 42 42 0 1 1 34-76 458 458 0 0 1 238 242c1 1 1 2 2 3a458 458 0 0 1 34 175z m-832 315a69 69 0 0 0 95-11 42 42 0 0 1 59 0 69 69 0 0 0 94 11 79 79 0 0 0-82-65h-83a79 79 0 0 0-83 65z m457-482a42 42 0 0 1-40-51 131 131 0 0 0-16-91 123 123 0 0 0-37-36 176 176 0 0 1-44 166 42 42 0 0 1-22 12 284 284 0 0 0-190 135l13 199h13a302 302 0 0 1 286-209h327a373 373 0 0 0-21-85 847 847 0 0 0-269-40z m-41 542a42 42 0 0 0 0 83 166 166 0 0 0 125-56 166 166 0 0 0 125 56 42 42 0 0 0 0-83 83 83 0 0 1-84-83 42 42 0 0 0-83 0 83 83 0 0 1-83 83z" horiz-adv-x="1000" />

<glyph glyph-name="down-md" unicode="&#xe828;" d="M221 154a42 42 0 0 0 59 59l178-179v733a42 42 0 0 0 84 0v-733l179 179a42 42 0 0 0 59-59l-250-250a42 42 0 0 0-59 0z" horiz-adv-x="1000" />

<glyph glyph-name="down-lg" unicode="&#xe829;" d="M137 237a42 42 0 0 0 59 59l262-262v733a42 42 0 0 0 84 0v-733l262 262a42 42 0 0 0 59-59l-333-333a42 42 0 0 0-14-9 41 41 0 0 0-32 0 42 42 0 0 0-13 9z" horiz-adv-x="1000" />

<glyph glyph-name="up-md" unicode="&#xe82a;" d="M471 796a42 42 0 0 0 59 0l250-250a42 42 0 0 0-59-59l-179 179v-733a42 42 0 0 0-84 0v733l-178-179a42 42 0 0 0-59 59z" horiz-adv-x="1000" />

<glyph glyph-name="up-lg" unicode="&#xe82b;" d="M471 796a42 42 0 0 0 13 9 41 41 0 0 0 32 0 42 42 0 0 0 14-9l333-333a42 42 0 0 0-59-59l-262 262v-733a42 42 0 0 0-84 0v733l-262-262a42 42 0 0 0-59 59z" horiz-adv-x="1000" />

<glyph glyph-name="chevron-down" unicode="&#xe82c;" d="M708 517h-416a42 42 0 0 1-32-69l208-250a42 42 0 0 1 64 0l208 250a42 42 0 0 1-32 69z m-208-227l-119 143h238z" horiz-adv-x="1000" />

<glyph glyph-name="chevron" unicode="&#xe82d;" d="M532 793a43 43 0 0 1-64 0l-208-250a42 42 0 0 1 32-68h416a42 42 0 0 1 32 68z m-151-235l119 144 119-144z m327-333h-416a42 42 0 0 1-32-68l208-250a42 42 0 0 1 64 0l208 250a42 42 0 0 1-32 68z m-208-227l-119 144h238z" horiz-adv-x="1000" />

<glyph glyph-name="turn-right" unicode="&#xe82e;" d="M946 196l-208-209a42 42 0 0 0-59 59l137 137h-503a271 271 0 0 0 0 542h187a42 42 0 0 0 0-83h-187a188 188 0 0 1 0-375h503l-137 137a42 42 0 0 0 59 59l208-208a42 42 0 0 0 0-59z" horiz-adv-x="1000" />

<glyph glyph-name="down-sm" unicode="&#xe82f;" d="M262 112a42 42 0 0 0 59 59l137-137v733a42 42 0 0 0 84 0v-733l137 137a42 42 0 0 0 59-59l-208-208a42 42 0 0 0-59 0z" horiz-adv-x="1000" />

<glyph glyph-name="expand-lg" unicode="&#xe830;" d="M958 767v-417a42 42 0 0 0-83 0v316l-691-691h316a42 42 0 0 0 0-83h-417a42 42 0 0 0-41 41v417a42 42 0 0 0 83 0v-316l691 691h-316a42 42 0 0 0 0 83h417a42 42 0 0 0 41-41z" horiz-adv-x="1000" />

<glyph glyph-name="expand-sm" unicode="&#xe831;" d="M125 17v333a42 42 0 0 0 83 0v-233l525 525h-233a42 42 0 0 0 0 83h333a42 42 0 0 0 42-42v-333a42 42 0 0 0-83 0v233l-525-525h233a42 42 0 0 0 0-83h-333a42 42 0 0 0-42 42z" horiz-adv-x="1000" />

<glyph glyph-name="chevron-left" unicode="&#xe832;" d="M643 596a42 42 0 0 1-45-6l-250-208a42 42 0 0 1 0-64l250-209a42 42 0 0 1 27-9 41 41 0 0 1 18 4 42 42 0 0 1 24 38v416a42 42 0 0 1-24 38z m-60-365l-143 119 143 119z" horiz-adv-x="1000" />

<glyph glyph-name="left-lg" unicode="&#xe833;" d="M54 321a42 42 0 0 0-9 13 41 41 0 0 0 0 32 42 42 0 0 0 9 14l333 333a42 42 0 1 0 59-59l-262-262h733a42 42 0 0 0 0-84h-733l262-262a42 42 0 0 0-59-59z" horiz-adv-x="1000" />

<glyph glyph-name="left-md" unicode="&#xe834;" d="M54 321a42 42 0 0 0 0 59l250 250a42 42 0 0 0 59-59l-179-179h733a42 42 0 0 0 0-84h-733l179-178a42 42 0 0 0-59-59z" horiz-adv-x="1000" />

<glyph glyph-name="left-sm" unicode="&#xe835;" d="M54 321a42 42 0 0 0 0 59l208 208a42 42 0 0 0 59-59l-137-137h733a42 42 0 0 0 0-84h-733l137-137a42 42 0 1 0-59-59z" horiz-adv-x="1000" />

<glyph glyph-name="right-sm" unicode="&#xe836;" d="M738 112a42 42 0 0 0-59 59l137 137h-733a42 42 0 0 0 0 84h733l-137 137a42 42 0 0 0 59 59l208-208a42 42 0 0 0 0-59z" horiz-adv-x="1000" />

<glyph glyph-name="turn-left" unicode="&#xe837;" d="M958 454a271 271 0 0 0-270-271h-504l137-137a42 42 0 1 0-59-59l-208 209a42 42 0 0 0 0 59l208 208a42 42 0 0 0 59-59l-137-137h504a188 188 0 0 1 0 375h-188a42 42 0 0 0 0 83h188a271 271 0 0 0 270-271z" horiz-adv-x="1000" />

<glyph glyph-name="chevron-right" unicode="&#xe838;" d="M402 590a42 42 0 0 1-69-32v-416a42 42 0 0 1 24-38 41 41 0 0 1 18-4 42 42 0 0 1 27 10l250 208a42 42 0 0 1 0 64z m15-359v238l143-119z" horiz-adv-x="1000" />

<glyph glyph-name="right-md" unicode="&#xe839;" d="M696 71a42 42 0 0 0-59 59l179 178h-733a42 42 0 0 0 0 84h733l-179 179a42 42 0 0 0 59 59l250-250a42 42 0 0 0 0-59z" horiz-adv-x="1000" />

<glyph glyph-name="right-lg" unicode="&#xe83a;" d="M613-13a42 42 0 0 0-59 59l262 262h-733a42 42 0 0 0 0 84h733l-262 262a42 42 0 0 0 59 59l333-333a42 42 0 0 0 9-14 41 41 0 0 0 0-32 42 42 0 0 0-9-13z" horiz-adv-x="1000" />

<glyph glyph-name="chevron-up" unicode="&#xe83b;" d="M532 502a43 43 0 0 1-64 0l-208-250a42 42 0 0 1 32-69h416a42 42 0 0 1 32 69z m-151-235l119 143 119-143z" horiz-adv-x="1000" />

<glyph glyph-name="up-sm" unicode="&#xe83c;" d="M471 796a42 42 0 0 0 59 0l208-208a42 42 0 0 0-59-59l-137 137v-733a42 42 0 0 0-84 0v733l-137-137a42 42 0 0 0-59 59z" horiz-adv-x="1000" />

<glyph glyph-name="turn-right-2" unicode="&#xe83d;" d="M946 196l-208-209a42 42 0 0 0-59 59l137 137h-733a42 42 0 0 0-41 42v458a42 42 0 0 0 41 42h417a42 42 0 0 0 0-83h-375v-375h691l-137 137a42 42 0 0 0 59 59l208-208a42 42 0 0 0 0-59z" horiz-adv-x="1000" />

<glyph glyph-name="expand-md" unicode="&#xe83e;" d="M83-25v417a42 42 0 0 0 84 0v-316l607 607h-316a42 42 0 0 0 0 84h417a42 42 0 0 0 42-42v-417a42 42 0 0 0-84 0v316l-607-607h316a42 42 0 0 0 0-84h-417a42 42 0 0 0-42 42z" horiz-adv-x="1000" />

<glyph glyph-name="turn-left-2" unicode="&#xe83f;" d="M958 683v-458a42 42 0 0 0-41-42h-733l137-137a42 42 0 1 0-59-59l-208 209a42 42 0 0 0 0 59l208 208a42 42 0 0 0 59-59l-137-137h691v375h-375a42 42 0 0 0 0 83h417a42 42 0 0 0 41-42z" horiz-adv-x="1000" />

<glyph glyph-name="refresh" unicode="&#xe840;" d="M946 421a42 42 0 0 0 0-59l-83-83a42 42 0 0 0-59 0l-83 83a42 42 0 0 0 59 59l4-4a291 291 0 0 1-102 161 42 42 0 1 0 52 65 373 373 0 0 0 137-238l16 16a42 42 0 0 0 59 0z m-739 163a42 42 0 1 1 65-52 291 291 0 0 0 161 102l-4-4a42 42 0 1 1 59-59l83 83a42 42 0 0 1 0 59l-83 83a42 42 0 0 1-59-59l17-16a373 373 0 0 1-239-137z m521-416a291 291 0 0 0-161-102l4 5a42 42 0 0 1-59 59l-83-84a42 42 0 0 1 0-59l83-83a42 42 0 0 1 59 59l-16 16a373 373 0 0 1 238 137 42 42 0 1 1-65 52z m-462-111a42 42 0 1 1 52 65 291 291 0 0 0-102 161l5-4a42 42 0 1 1 59 59l-84 83a42 42 0 0 1-59 0l-83-83a42 42 0 0 1 59-59l17 17a373 373 0 0 1 136-239z" horiz-adv-x="1000" />

<glyph glyph-name="reload" unicode="&#xe841;" d="M167 350a42 42 0 0 0-84 0 416 416 0 0 0 677 325v60a42 42 0 1 0 83 0v-167a42 42 0 0 0-41-41h-167a42 42 0 0 0 0 83h73a333 333 0 0 1-541-260z m708 42a42 42 0 0 1-42-42 333 333 0 0 0-541-260h73a42 42 0 1 1 0 83h-167a42 42 0 0 1-41-41v-167a42 42 0 0 1 83 0v60a416 416 0 0 1 677 325 42 42 0 0 1-42 42z" horiz-adv-x="1000" />

<glyph glyph-name="reload-left" unicode="&#xe842;" d="M958 683v-541a42 42 0 0 0-41-42h-358l54-54a42 42 0 1 0-59-59l-125 125a42 42 0 0 0 0 59l125 125a42 42 0 0 0 59-59l-54-54h316v459h-750v-459h167a42 42 0 0 0 0-83h-209a42 42 0 0 0-41 42v541a42 42 0 0 0 41 42h834a42 42 0 0 0 41-42z" horiz-adv-x="1000" />

<glyph glyph-name="reload-right" unicode="&#xe843;" d="M958 683v-541a42 42 0 0 0-41-42h-209a42 42 0 0 0 0 83h167v459h-750v-459h316l-54 54a42 42 0 0 0 59 59l125-125a42 42 0 0 0 0-59l-125-125a42 42 0 0 0-59 59l54 54h-358a42 42 0 0 0-41 42v541a42 42 0 0 0 41 42h834a42 42 0 0 0 41-42z" horiz-adv-x="1000" />

<glyph glyph-name="scroll-h" unicode="&#xe844;" d="M905 380a42 42 0 0 0 0-59l-167-167a42 42 0 0 0-59 59l137 137-137 137a42 42 0 1 0 59 59z m-613-238a42 42 0 0 1 29 71l-137 137 137 137a42 42 0 1 1-59 59l-166-166a42 42 0 0 1 0-59l166-167a42 42 0 0 1 30-12z" horiz-adv-x="1000" />

<glyph glyph-name="scroll-v" unicode="&#xe845;" d="M304 529a42 42 0 0 0 0 59l167 167a42 42 0 0 0 59 0l166-167a42 42 0 1 0-59-59l-137 137-137-137a42 42 0 0 0-59 0z m0-417l167-167a42 42 0 0 1 59 0l166 167a42 42 0 0 1-59 59l-137-137-137 137a42 42 0 1 1-59-59z" horiz-adv-x="1000" />

<glyph glyph-name="amusement-park" unicode="&#xe846;" d="M375 392a125 125 0 0 1 4-32 42 42 0 0 0-81-20 208 208 0 0 0 358 190 42 42 0 0 0-62-56 125 125 0 0 1-219-82z m-250-42h3a372 372 0 0 1 24-99 42 42 0 1 1 78 31 292 292 0 1 0 553 183 42 42 0 0 1 80 20 374 374 0 0 1-70 141l2 1a42 42 0 0 1-59 59l-2-1a374 374 0 0 1-192 79v3a42 42 0 0 1-84 0v-3a373 373 0 0 1-192-80l-2 2a42 42 0 0 1-59-59l2-1a373 373 0 0 1-79-193h-3a42 42 0 0 1 0-83z m-42-333c15 0 28 1 42 2v-86a42 42 0 0 1 83 0v103a401 401 0 0 1 84 37v-140a42 42 0 0 1 83 0v201c34 29 52 48 83 76v-277a42 42 0 0 1 84 0v341a243 243 0 0 0 83 31v-372a42 42 0 0 1 83 0v372a265 265 0 0 0 84-27v-345a42 42 0 0 1 83 0v278c4-5 7-8 7-9a42 42 0 0 1 69 46 353 353 0 0 1-284 144c-137 0-218-76-296-149s-153-143-288-143a42 42 0 0 1 0-83z" horiz-adv-x="1000" />

<glyph glyph-name="apartment" unicode="&#xe847;" d="M917 808h-500a42 42 0 0 1-42-41v-209h-292a42 42 0 0 1-41-41v-584a42 42 0 0 1 41-41h834a42 42 0 0 1 41 41v834a42 42 0 0 1-41 41z m-792-333h250v-500h-250z m750-500h-417v750h417z m-83 583h-250v84h250z m0-166h-250v83h250z m0-167h-250v83h250z m0-167h-250v84h250z m-584 375h84v-83h-84z m0-166h84v-84h-84z m0-167h84v-83h-84z" horiz-adv-x="1000" />

<glyph glyph-name="office" unicode="&#xe848;" d="M917 558h-209v209a42 42 0 0 1-41 41h-334a42 42 0 0 1-41-41v-209h-209a42 42 0 0 1-41-41v-584a42 42 0 0 1 41-41h834a42 42 0 0 1 41 41v584a42 42 0 0 1-41 41z m-792-83h167v-500h-167z m250 42v208h250v-750h-83v83a42 42 0 0 1-84 0v-83h-83z m500-542h-167v500h167z m-333 583h-84v84h84z m0-166h-84v83h84z m0-167h-84v83h84z m-375 208h83v-83h-83z m0-166h83v-84h-83z m0-167h83v-83h-83z m666 250h-83v83h83z m0-167h-83v84h83z m0-166h-83v83h83z" horiz-adv-x="1000" />

<glyph glyph-name="building" unicode="&#xe849;" d="M932 639l-416 166a42 42 0 0 1-58-38v-167h-375a42 42 0 0 1-41-42v-625a42 42 0 0 1 41-41h834a42 42 0 0 1 41 41v667a42 42 0 0 1-26 39z m-807-122h333v-542h-333z m417-542v730l333-133v-55h-250v-84h250v-83h-250v-83h250v-84h-250v-83h250v-125z m-250 375h125v-83h-125z m-125 0h83v-83h-83z m125 125h125v-83h-125z m-125 0h83v-83h-83z m125-250h125v-83h-125z m-125 0h83v-83h-83z m125-125h125v-83h-125z m-125 0h83v-83h-83z" horiz-adv-x="1000" />

<glyph glyph-name="cabin-house" unicode="&#xe84a;" d="M375 350h250v-83h-250z m574 57a42 42 0 0 0-32-15h-42v-459a42 42 0 0 0-42-41h-666a42 42 0 0 0-42 41v459h-42l1 0a41 41 0 0 0-33 15 42 42 0 0 0 6 59l417 333a42 42 0 0 0 52 0l182-146v114a42 42 0 0 0 84 0v-180l151-121a42 42 0 0 0 6-59z m-538 235h179l-90 71z m-203-163h585l-99 79h-388z m334-379a42 42 0 0 1-84 0v-125h84z m250 292h-584v-42h84v-83h-84v-84h84v-83h-84v-125h167v125a125 125 0 0 0 250 0v-125h167v125h-84v83h84v84h-84v83h84z" horiz-adv-x="1000" />

<glyph glyph-name="church" unicode="&#xe84b;" d="M917 183h-125v42a42 42 0 0 1 27 73l-277 238v106h41a42 42 0 0 1 0 83h-41v42a42 42 0 0 1-84 0v-42h-41a42 42 0 0 1 0-83h41v-106l-277-238a42 42 0 0 1-4-58 41 41 0 0 1 31-14v-43h-125a42 42 0 0 1-41-41v-209a42 42 0 0 1 41-41h834a42 42 0 0 1 41 41v209a42 42 0 0 1-41 41z m-792-83h83v-125h-83z m167 42v141l208 179 208-179v-308h-83v125a125 125 0 0 1-250 0v-125h-83z m166-167v125a42 42 0 0 0 84 0v-125z m417 0h-83v125h83z" horiz-adv-x="1000" />

<glyph glyph-name="city" unicode="&#xe84c;" d="M917 392h-125v375a42 42 0 0 1-42 41h-500a42 42 0 0 1-42-41v-209h-125a42 42 0 0 1-41-41v-584a42 42 0 0 1 41-41h834a42 42 0 0 1 41 41v417a42 42 0 0 1-41 42z m-375-42v-375h-417v500h417z m41 208h-291v167h416v-333h-83v125a42 42 0 0 1-42 41z m292-583h-83v83a42 42 0 0 1-84 0v-83h-83v333h250z m-708 458h83v-83h-83z m166 0h167v-83h-167z m-166-166h83v-84h-83z m166 0h167v-84h-167z m-166-167h83v-83h-83z m166 0h167v-83h-167z" horiz-adv-x="1000" />

<glyph glyph-name="company" unicode="&#xe84d;" d="M917 558h-375v209a42 42 0 0 1-42 41h-417a42 42 0 0 1-41-41v-834a42 42 0 0 1 41-41h834a42 42 0 0 1 41 41v584a42 42 0 0 1-41 41z m-459-250h-333v84h333z m0 209v-42h-333v83h333z m-333-292h333v-83h-333z m333 500v-83h-333v83z m-333-667h333v-83h-333z m750-83h-333v500h333z m-208 208h-84v84h84z m0-166h-84v83h84z m166 166h-83v84h83z m-166 167h-84v83h84z m166 0h-83v83h83z m0-333h-83v83h83z" horiz-adv-x="1000" />

<glyph glyph-name="factory" unicode="&#xe84e;" d="M917 808h-167a42 42 0 0 1-42-41v-292h-83v83a42 42 0 0 1-60 38l-190-95v57a42 42 0 0 1-60 38l-250-125a42 42 0 0 1-23-38v-500a42 42 0 0 1 41-41h834a42 42 0 0 1 41 41v834a42 42 0 0 1-41 41z m-42-83v-83h-83v83z m-750-750v433l167 83v-58a42 42 0 0 1 60-37l190 95v-58a42 42 0 0 1 41-41h167a42 42 0 0 1 42 41v125h83v-583z m83 333h125v-83h-125z m209 0h166v-83h-166z m250 0h125v-83h-125z m-459-166h125v-84h-125z m209 0h166v-84h-166z m250 0h125v-84h-125z" horiz-adv-x="1000" />

<glyph glyph-name="landmark" unicode="&#xe84f;" d="M917-25h-125v792a42 42 0 0 1-84 0v-42h-41a459 459 0 0 1-459-458v-292h-125a42 42 0 0 1 0-83h834a42 42 0 0 1 0 83z m-625 0v83h291a42 42 0 0 1 0 84h-291v83h291a42 42 0 0 1 0 83h-289a372 372 0 0 0 20 84h269a42 42 0 0 1 0 83h-228a375 375 0 0 0 312 167h41v-667z" horiz-adv-x="1000" />

<glyph glyph-name="monument" unicode="&#xe850;" d="M917-25h-42v792a42 42 0 0 1-42 41h-666a42 42 0 0 1-42-41v-792h-42a42 42 0 0 1 0-83h834a42 42 0 0 1 0 83z m-125 750v-83h-584v83z m-417-750v208a125 125 0 0 0 250 0v-208z m333 0v208a208 208 0 0 1-416 0v-208h-84v583h584v-583z" horiz-adv-x="1000" />

<glyph glyph-name="mosque" unicode="&#xe851;" d="M863 796a42 42 0 0 1-59 0l-83-83a42 42 0 0 1-13-30v-172l-122 82a124 124 0 0 1 39 90 42 42 0 0 1-83 0 42 42 0 0 0-42-41h0a42 42 0 0 0 0 83 42 42 0 0 1 0 83 125 125 0 0 1-86-215l-122-82v172a42 42 0 0 1-12 30l-84 83a42 42 0 0 1-59 0l-83-83a42 42 0 0 1-12-30v-750a42 42 0 0 1 41-41h834a42 42 0 0 1 41 41v750a42 42 0 0 1-12 30z m-738-130l42 42 41-42v-691h-83z m167-255l208 139 208-139v-436h-83v125a125 125 0 0 1-250 0v-125h-83z m166-436v125a42 42 0 0 0 84 0v-125z m417 0h-83v691l41 42 42-42z m-250 333h-250v84h250z" horiz-adv-x="1000" />

<glyph glyph-name="mosque-2" unicode="&#xe852;" d="M917 808a42 42 0 0 1-42-41v-292h-143c46 115-3 220-113 277s-109 56-119 56a42 42 0 0 1-19-4l-100-52c-110-57-159-162-113-277h-143v292a42 42 0 0 1-83 0v-834a42 42 0 0 1 41-41h834a42 42 0 0 1 41 41v834a42 42 0 0 1-41 41z m-498-130c43 22 67 35 81 42l81-42c88-46 108-123 60-203h-282c-48 80-28 157 60 203z m39-703v125a42 42 0 0 0 84 0v-125z m417 0h-250v125a125 125 0 0 1-250 0v-125h-250v417h750z m-708 375h666v-83h-666z m500-167h166v-83h-166z m-500 0h166v-83h-166z" horiz-adv-x="1000" />

<glyph glyph-name="ferris-wheel" unicode="&#xe853;" d="M500 183a208 208 0 1 1-208 209 209 209 0 0 1 208-209z m0 334a125 125 0 1 0-125-125 125 125 0 0 0 125 125z m-375-167h3a373 373 0 0 1 79-192l-2-2a42 42 0 0 1 59-59l2 2a381 381 0 0 1 37-26l-86-115a42 42 0 1 1 66-50l97 129a371 371 0 0 1 78-18v-2a42 42 0 0 1 84 0v2a371 371 0 0 1 78 18l97-129a42 42 0 1 1 66 50l-86 115a376 376 0 0 1 37 26l2-2a42 42 0 0 1 59 59l-2 2a373 373 0 0 1 80 192h2a42 42 0 0 1 0 83h-2a373 373 0 0 1-80 193l2 1a42 42 0 0 1-59 59l-2-2a373 373 0 0 1-192 80v3a42 42 0 0 1-84 0v-3a373 373 0 0 1-192-80l-2 2a42 42 0 0 1-59-59l2-1a373 373 0 0 1-79-193h-3a42 42 0 0 1 0-83z m375 333a292 292 0 1 0-292-291 292 292 0 0 0 292 291z" horiz-adv-x="1000" />

<glyph glyph-name="park" unicode="&#xe854;" d="M917-25h-84v42a42 42 0 0 1 0 83v42a42 42 0 0 1 0 83v42a42 42 0 0 1-83 0v-42h-250v42a42 42 0 0 1-83 0v-42a42 42 0 0 1 0-83v-42a42 42 0 0 1 0-83v-42h-125v338a209 209 0 0 1 166 204v83a208 208 0 0 1-416 0v-83a209 209 0 0 1 166-204v-338h-125a42 42 0 0 1 0-83h834a42 42 0 0 1 0 83z m-792 542v83a125 125 0 0 0 250 0v-83a125 125 0 0 0-250 0z m375-375h250v-42h-250z m0-125h250v-42h-250z" horiz-adv-x="1000" />

<glyph glyph-name="police-station" unicode="&#xe855;" d="M917 392h-209v208a42 42 0 0 1-12 30l-166 166a42 42 0 0 1-59 0l-167-166a42 42 0 0 1-12-30v-208h-209a42 42 0 0 1-41-42v-417a42 42 0 0 1 41-41h834a42 42 0 0 1 41 41v417a42 42 0 0 1-41 42z m-792-84h167v-333h-167z m250 42v233l125 125 125-125v-608h-62v63a63 63 0 0 1-125 0v-63h-63z m500-375h-167v333h167z m-708 292h83v-84h-83z m0-167h83v-83h-83z m666 83h-83v84h83z m0-166h-83v83h83z m-395 521a63 63 0 1 0 62-63 63 63 0 0 0-62 63z" horiz-adv-x="1000" />

<glyph glyph-name="real-estate" unicode="&#xe856;" d="M956 405l-125 375a42 42 0 0 1-39 28h-584a42 42 0 0 1-39-28l-125-375a51 51 0 0 1-2-13v-459a42 42 0 0 1 41-41h834a42 42 0 0 1 41 41c0 4 0 464 0 460a41 41 0 0 1-2 12z m-718 320h524l97-292h-133l-196 197a42 42 0 0 1-59 0l-197-197h-133z m220-750v208h84v-208z m417 0h-250v250a42 42 0 0 1-42 42h-166a42 42 0 0 1-42-42v-250h-250v375h167a42 42 0 0 1 29 12l179 179 179-179a42 42 0 0 1 29-12h167z m-333 417a42 42 0 1 0-42 41 42 42 0 0 0 42-41z m-375-125h166v-84h-166z m500 0h166v-84h-166z m-500-125h166v-84h-166z m500 0h166v-84h-166z" horiz-adv-x="1000" />

<glyph glyph-name="skyscrapers" unicode="&#xe857;" d="M917 392h-209v291a42 42 0 0 1-41 42h-125v42a42 42 0 0 1-84 0v-42h-125a42 42 0 0 1-41-42v-291h-209a42 42 0 0 1-41-42v-417a42 42 0 0 1 41-41h834a42 42 0 0 1 41 41v417a42 42 0 0 1-41 42z m-792-84h167v-333h-167z m250 42v292h250v-667h-250z m500-375h-167v333h167z m-458 625h166v-83h-166z m0-167h166v-83h-166z m0-166h166v-84h-166z m-250 0h83v-84h-83z m0-167h83v-83h-83z m666 83h-83v84h83z m0-166h-83v83h83z m-416 83h166v-83h-166z" horiz-adv-x="1000" />

<glyph glyph-name="temple" unicode="&#xe858;" d="M917 433a42 42 0 0 1 29 72l-116 116-39 156a42 42 0 0 1-41 31h-500a42 42 0 0 1-40-31l-39-156-117-116a42 42 0 0 1 29-72h84v-333h-42a42 42 0 0 1 0-83h750a42 42 0 0 1 0 83h-42v333z m-679 138a42 42 0 0 1 11 19l34 135h435l33-135a42 42 0 0 1 11-19l54-54h-632z m387-138v-333h-250v333z m-375 0h42v-333h-42z m500-333h-42v333h42z m208-167a42 42 0 0 0-41-41h-834a42 42 0 0 0 0 83h834a42 42 0 0 0 41-42z" horiz-adv-x="1000" />

<glyph glyph-name="torii-gate" unicode="&#xe859;" d="M45 782a42 42 0 0 0 54 23 1257 1257 0 0 1 401-80 1257 1257 0 0 1 401 80 42 42 0 1 0 31-77 1322 1322 0 0 0-432-86 1322 1322 0 0 0-432 86 42 42 0 0 0-23 54z m913-849a42 42 0 0 0-41-41h-834a42 42 0 0 0 0 83h167v292h-83a42 42 0 0 0 0 83h83v167h-83a42 42 0 0 0 0 83h666a42 42 0 0 0 0-83h-83v-167h83a42 42 0 0 0 0-83h-83v-292h167a42 42 0 0 0 41-42z m-625 417h334v167h-334z m0-375h334v292h-334z" horiz-adv-x="1000" />

<glyph glyph-name="affiliate" unicode="&#xe85a;" d="M833 219v131a42 42 0 0 1-41 42h-250v89a167 167 0 1 1-84 0v-89h-250a42 42 0 0 1-41-42v-131a167 167 0 1 1 83 0v89h500v-89a167 167 0 1 1 83 0z m-541-161a83 83 0 1 0-84 84 83 83 0 0 0 84-84z m125 584a83 83 0 1 0 83-84 83 83 0 0 0-83 84z m375-667a83 83 0 1 0 83 83 83 83 0 0 0-83-83z" horiz-adv-x="1000" />

<glyph glyph-name="referral" unicode="&#xe85b;" d="M833 100a42 42 0 0 1 42 42v166a42 42 0 0 1-42 42h-291v89a167 167 0 1 1-84 0v-89h-291a42 42 0 0 1-42-42v-166a42 42 0 0 1 83 0v125h250v-125a42 42 0 0 1 84 0v125h250v-125a42 42 0 0 1 41-42z m-333 417a83 83 0 1 0 83 83 83 83 0 0 0-83-83z m458-542a42 42 0 0 0-41-42h-167a42 42 0 0 0 0 84h167a42 42 0 0 0 41-42z m-916 0a42 42 0 0 0 41 42h167a42 42 0 0 0 0-84h-167a42 42 0 0 0-41 42z m541 42a42 42 0 0 0 0-84h-166a42 42 0 0 0 0 84z" horiz-adv-x="1000" />

<glyph glyph-name="multi-level-marketing" unicode="&#xe85c;" d="M917 225h-84v125a42 42 0 0 1-41 42h-250v83h83a42 42 0 0 1 42 42v250a42 42 0 0 1-42 41h-250a42 42 0 0 1-42-41v-250a42 42 0 0 1 42-42h83v-83h-250a42 42 0 0 1-41-42v-125h-84a42 42 0 0 1-41-42v-250a42 42 0 0 1 41-41h250a42 42 0 0 1 42 41v250a42 42 0 0 1-42 42h-83v83h500v-83h-83a42 42 0 0 1-42-42v-250a42 42 0 0 1 42-41h250a42 42 0 0 1 41 41v250a42 42 0 0 1-41 42z m-625-83v-167h-167v167z m125 416v167h166v-167z m458-583h-167v167h167z" horiz-adv-x="1000" />

<glyph glyph-name="bank" unicode="&#xe85d;" d="M125-67h750a42 42 0 0 1 42 42v167a42 42 0 0 1-42 41h-42v209h42a42 42 0 0 1 42 41v125a42 42 0 0 1-25 38l-375 167a42 42 0 0 1-34 0l-375-167a42 42 0 0 1-25-38v-125a42 42 0 0 1 42-41h42v-209h-42a42 42 0 0 1-42-41v-167a42 42 0 0 1 42-42z m42 598l333 148 333-148v-56h-666z m583-139v-209h-111v209z m-194 0v-209h-111v209z m-195 0v-209h-111v209z m-194-292h666v-83h-666z m416 458a42 42 0 0 0-41-41h-84a42 42 0 0 0 0 83h84a42 42 0 0 0 41-42z" horiz-adv-x="1000" />

<glyph glyph-name="bill" unicode="&#xe85e;" d="M750 808h-500a125 125 0 0 1-125-125v-750a42 42 0 0 1 75-25l85 113 53-107a42 42 0 0 1 33-22 41 41 0 0 1 37 16l92 123 92-123a41 41 0 0 1 37-16 42 42 0 0 1 33 22l54 107 84-113a42 42 0 0 1 33-16 42 42 0 0 1 42 41v750a125 125 0 0 1-125 125z m42-750l-50 67a41 41 0 0 1-37 17 42 42 0 0 1-34-23l-53-106-85 112a42 42 0 0 1-66 0l-85-113-53 107a42 42 0 0 1-34 23 41 41 0 0 1-37-17l-50-67v625a42 42 0 0 0 42 42h500a42 42 0 0 0 42-42z m-84 417a42 42 0 0 0-41-42h-334a42 42 0 0 0 0 84h334a42 42 0 0 0 41-42z m-166-167a42 42 0 0 0-42-41h-167a42 42 0 0 0 0 83h167a42 42 0 0 0 42-42z" horiz-adv-x="1000" />

<glyph glyph-name="lightbulb-on" unicode="&#xe85f;" d="M500 808a375 375 0 0 1-167-710v-40a42 42 0 0 1 42-41h250a42 42 0 0 1 42 41v40a375 375 0 0 1-167 710z m109-645a42 42 0 0 1-26-38v-25h-166v25a42 42 0 0 1-26 38 292 292 0 1 0 218 0z m-234-271a42 42 0 0 0 0 83h250a42 42 0 0 0 0-83z m225 560a42 42 0 0 0-4-44l-125-166a42 42 0 0 0-67 50l75 100h-41a42 42 0 0 0-35 65l83 125a42 42 0 0 0 70-47l-41-60h48a42 42 0 0 0 37-23z" horiz-adv-x="1000" />

<glyph glyph-name="lightbulb-creative" unicode="&#xe860;" d="M254 394a251 251 0 0 1 121-260v-117a125 125 0 0 1 250 0v117a250 250 0 1 1-371 260z m246 123a164 164 0 0 0 105-38 167 167 0 0 0-38-282 42 42 0 0 1-25-38v-142a42 42 0 0 0-84 0v142a42 42 0 0 1-25 38 167 167 0 0 0 31 316 180 180 0 0 0 36 4z m0 166a42 42 0 0 0-42 42v42a42 42 0 0 0 84 0v-42a42 42 0 0 0-42-42z m324-68l-29-29a42 42 0 0 0-59 59l29 29a42 42 0 0 0 59-59z m-619-601a42 42 0 0 0-29 71l29 29a42 42 0 1 0 59-59l-29-29a42 42 0 0 0-30-12z m753 336a42 42 0 0 0-41-42h-42a42 42 0 0 0 0 84h42a42 42 0 0 0 41-42z m-791 0a42 42 0 0 0-42-42h-42a42 42 0 0 0 0 84h42a42 42 0 0 0 42-42z m657-265a42 42 0 1 0-59-59l-29 29a42 42 0 0 0 59 59z m-560 560a42 42 0 0 0-59-59l-29 29a42 42 0 0 0 59 59z" horiz-adv-x="1000" />

<glyph glyph-name="lightbulb" unicode="&#xe861;" d="M542 600a42 42 0 0 0-42-42 125 125 0 0 1-125-125 42 42 0 0 0-83 0 209 209 0 0 0 208 209 42 42 0 0 0 42-42z m333-167a373 373 0 0 0-208-335v-40a42 42 0 0 0-42-41h-250a42 42 0 0 0-42 41v40a375 375 0 1 0 542 335z m-83 0a292 292 0 1 1-401-270 42 42 0 0 0 26-38v-25h166v25a42 42 0 0 0 26 38 291 291 0 0 1 183 270z m-167-541a42 42 0 0 1 0 83h-250a42 42 0 0 1 0-83z" horiz-adv-x="1000" />

<glyph glyph-name="lightbulb-power" unicode="&#xe862;" d="M667 98a375 375 0 1 1-334 0v-40a42 42 0 0 1 42-41h250a42 42 0 0 1 42 41z m-58 65a42 42 0 0 1-26-38v-25h-166v25a42 42 0 0 1-26 38 292 292 0 1 0 218 0z m58-230a42 42 0 0 0-42-41h-250a42 42 0 0 0 0 83h250a42 42 0 0 0 42-42z m23 577a42 42 0 0 0 11-58l-83-125a42 42 0 0 0-30-19c-2 0-3 0-5 0a42 42 0 0 0-29 12l-54 54-54-53a42 42 0 0 0-64 6l-83 125a42 42 0 1 0 69 46l55-83 48 48a42 42 0 0 0 59 0l47-48 55 83a42 42 0 0 0 58 12z" horiz-adv-x="1000" />

<glyph glyph-name="calculator" unicode="&#xe863;" d="M250 808a125 125 0 0 1-125-125v-666a125 125 0 0 1 125-125h500a125 125 0 0 1 125 125v666a125 125 0 0 1-125 125z m542-125v-666a42 42 0 0 0-42-42h-500a42 42 0 0 0-42 42v666a42 42 0 0 0 42 42h500a42 42 0 0 0 42-42z m-417-250a42 42 0 1 0-42 42 42 42 0 0 0 42-42z m167 0a42 42 0 1 0-42 42 42 42 0 0 0 42-42z m166 0a42 42 0 1 0-41 42 42 42 0 0 0 41-42z m-333-166a42 42 0 1 0-42 41 42 42 0 0 0 42-41z m167 0a42 42 0 1 0-42 41 42 42 0 0 0 42-41z m166 0a42 42 0 1 0-41 41 42 42 0 0 0 41-41z m-166-167a42 42 0 1 0-42 42 42 42 0 0 0 42-42z m166 500a42 42 0 0 0-41-42h-334a42 42 0 0 0 0 84h334a42 42 0 0 0 41-42z" horiz-adv-x="1000" />

<glyph glyph-name="canvas" unicode="&#xe864;" d="M125 100h183l-54-106a42 42 0 0 1 75-38l72 144h57v-83a42 42 0 0 1 84 0v83h57l72-144a42 42 0 1 1 75 38l-54 106h183a42 42 0 0 1 42 42v500a42 42 0 0 1-42 41h-333v42a42 42 0 0 1-84 0v-42h-333a42 42 0 0 1-42-41v-500a42 42 0 0 1 42-42z m42 500h666v-417h-666z" horiz-adv-x="1000" />

<glyph glyph-name="canvas-down" unicode="&#xe865;" d="M125 100h183l-54-106a42 42 0 0 1 75-38l72 144h57v-83a42 42 0 0 1 84 0v83h57l72-144a42 42 0 1 1 75 38l-54 106h183a42 42 0 0 1 42 42v500a42 42 0 0 1-42 41h-333v42a42 42 0 0 1-84 0v-42h-333a42 42 0 0 1-42-41v-500a42 42 0 0 1 42-42z m42 500h666v-417h-666z m458-125v-167a42 42 0 0 0-26-38 42 42 0 0 0-16-3h-166a42 42 0 0 0 0 83h66l-96 96a42 42 0 0 0 59 59l96-96v66a42 42 0 0 0 83 0z" horiz-adv-x="1000" />

<glyph glyph-name="canvas-up" unicode="&#xe866;" d="M125 100h183l-54-106a42 42 0 0 1 75-38l72 144h57v-83a42 42 0 0 1 84 0v83h57l72-144a42 42 0 1 1 75 38l-54 106h183a42 42 0 0 1 42 42v500a42 42 0 0 1-42 41h-333v42a42 42 0 0 1-84 0v-42h-333a42 42 0 0 1-42-41v-500a42 42 0 0 1 42-42z m42 500h666v-417h-666z m455-109a41 41 0 0 0 3-16v-167a42 42 0 0 0-83 0v66l-96-95a42 42 0 0 0-59 59l96 95h-66a42 42 0 0 0 0 84h166a42 42 0 0 0 16-3 42 42 0 0 0 23-23z" horiz-adv-x="1000" />

<glyph glyph-name="canvas-statistic" unicode="&#xe867;" d="M125 100h183l-54-106a42 42 0 0 1 75-38l72 144h57v-83a42 42 0 0 1 84 0v83h57l72-144a42 42 0 1 1 75 38l-54 106h183a42 42 0 0 1 42 42v500a42 42 0 0 1-42 41h-333v42a42 42 0 0 1-84 0v-42h-333a42 42 0 0 1-42-41v-500a42 42 0 0 1 42-42z m42 500h666v-417h-666z m208-208v-84a42 42 0 0 0-83 0v84a42 42 0 0 0 83 0z m167 41v-125a42 42 0 0 0-84 0v125a42 42 0 0 0 84 0z m166 42v-167a42 42 0 0 0-83 0v167a42 42 0 0 0 83 0z" horiz-adv-x="1000" />

<glyph glyph-name="cash" unicode="&#xe868;" d="M48 328a42 42 0 0 1 35-20h834a42 42 0 0 1 37 61l-167 333a42 42 0 0 1-37 23h-500a42 42 0 0 1-37-23l-167-333a42 42 0 0 1 2-41z m228 314h448l125-250h-698z m682-459a42 42 0 0 0-41-41h-834a42 42 0 0 0 0 83h834a42 42 0 0 0 41-42z m0-166a42 42 0 0 0-41-42h-834a42 42 0 0 0 0 83h834a42 42 0 0 0 41-41z" horiz-adv-x="1000" />

<glyph glyph-name="chess-castle" unicode="&#xe869;" d="M208 142a42 42 0 0 1-40-32l-42-167a42 42 0 0 1 41-51h666a42 42 0 0 1 41 51l-42 167a42 42 0 0 1-40 32h-88l-32 291h78a42 42 0 0 1 42 42v292a42 42 0 0 1-42 41h-167a42 42 0 0 1-41-41v-84h-84v84a42 42 0 0 1-41 41h-167a42 42 0 0 1-42-41v-292a42 42 0 0 1 42-42h79l-33-291z m84 375v208h83v-83a42 42 0 0 1 42-42h166a42 42 0 0 1 42 42v83h83v-208z m328-375h-240l33 291h175z m139-84l21-83h-560l21 83z" horiz-adv-x="1000" />

<glyph glyph-name="pie-chart" unicode="&#xe86a;" d="M500 808a458 458 0 1 1 458-458 459 459 0 0 1-458 458z m-375-458a376 376 0 0 0 333 373v-356l-251-251a373 373 0 0 0-82 234z m375-375a373 373 0 0 0-234 82l251 251h356a376 376 0 0 0-373-333z m42 417v331a376 376 0 0 0 331-331z" horiz-adv-x="1000" />

<glyph glyph-name="coin" unicode="&#xe86b;" d="M354-108a378 378 0 0 1 146 28 372 372 0 0 1 146-28c152 0 271 81 271 184v173c0 103-119 184-271 184-7 0-14 0-21 0v195c0 101-119 180-271 180s-271-79-271-180v-556c0-101 119-180 271-180z m479 184c0-48-77-101-187-101s-188 53-188 101v39a347 347 0 0 1 188-51 347 347 0 0 1 187 51z m-187 274c110 0 187-53 187-101s-77-101-187-101-188 53-188 101 77 101 188 101z m-292 375c111 0 188-51 188-97s-77-97-188-97-187 51-187 97 77 97 187 97z m-187-228a353 353 0 0 1 187-50 353 353 0 0 1 188 50v-77a270 270 0 0 1-121-67 321 321 0 0 0-67-8c-110 0-187 52-187 98z m0-186a353 353 0 0 1 187-49c8 0 15 1 22 1a129 129 0 0 1-1-14v-87c-7 0-14-2-21-2-110 0-187 51-187 97z m0-185a353 353 0 0 1 187-49c7 0 14 0 21 1v-2a144 144 0 0 1 38-95 327 327 0 0 0-59-6c-110 0-187 51-187 97z" horiz-adv-x="1000" />

<glyph glyph-name="coin-2" unicode="&#xe86c;" d="M354-108a377 377 0 0 1 146 28 292 292 0 1 1 125 555v153c0 101-119 180-271 180s-271-79-271-180v-556c0-101 119-180 271-180z m271 500a208 208 0 1 0-208-209 209 209 0 0 0 208 209z m-271 333c111 0 188-51 188-97s-77-97-188-97-187 51-187 97 77 97 187 97z m-187-228a353 353 0 0 1 187-50 353 353 0 0 1 188 50v-34a293 293 0 0 1-158-115c-10-1-20-3-30-3-110 0-187 52-187 98z m0-186a349 349 0 0 1 178-48 291 291 0 0 1-12-80c0-7 1-14 2-22-100 6-168 53-168 96z m0-185a353 353 0 0 1 187-49 292 292 0 0 1 61-96 327 327 0 0 0-61-6c-110 0-187 51-187 97z" horiz-adv-x="1000" />

<glyph glyph-name="contact-book" unicode="&#xe86d;" d="M833 808h-666a42 42 0 0 1-42-41v-834a42 42 0 0 1 42-41h666a42 42 0 0 1 42 41v834a42 42 0 0 1-42 41z m-41-833h-584v750h584z m-417 521a125 125 0 1 0 125-125 125 125 0 0 0-125 125z m-83-375a208 208 0 0 0 416 0 42 42 0 0 0-83 0 125 125 0 0 1-250 0 42 42 0 0 0-83 0z" horiz-adv-x="1000" />

<glyph glyph-name="discount" unicode="&#xe86e;" d="M500 808a458 458 0 1 1 458-458 459 459 0 0 1-458 458z m0-833a375 375 0 1 0 375 375 375 375 0 0 0-375-375z m196 512l-333-333a42 42 0 1 0-59 59l333 333a42 42 0 1 0 59-59z m-425 9a83 83 0 1 0 83-83 83 83 0 0 0-83 83z m458-292a83 83 0 1 0-83 84 83 83 0 0 0 83-84z" horiz-adv-x="1000" />

<glyph glyph-name="document-tick" unicode="&#xe86f;" d="M863 588l0 0-208 208-1 0a46 46 0 0 1-29 12h-458a42 42 0 0 1-42-41v-834a42 42 0 0 1 42-41h666a42 42 0 0 1 42 41v625a45 45 0 0 1-12 30z m-71-613h-584v750h375v-167a42 42 0 0 1 42-41h167z m-137 446a42 42 0 0 0 0-59l-167-166a42 42 0 0 0-56-3l-84 69a42 42 0 0 0 54 65l54-46 140 140a42 42 0 0 0 59 0z" horiz-adv-x="1000" />

<glyph glyph-name="document" unicode="&#xe870;" d="M875 683a42 42 0 0 1-42 42h-125v42a42 42 0 0 1-41 41h-334a42 42 0 0 1-41-41v-42h-125a42 42 0 0 1-42-42v-750a42 42 0 0 1 42-41h666a42 42 0 0 1 42 41z m-500 42h250v-83h-250z m417-750h-584v667h84v-42a42 42 0 0 1 41-42h334a42 42 0 0 1 41 42v42h84z m-250 125a42 42 0 0 0-42-42h-167a42 42 0 0 0 0 84h167a42 42 0 0 0 42-42z m166 167a42 42 0 0 0-41-42h-334a42 42 0 0 0 0 83h334a42 42 0 0 0 41-41z m0 166a42 42 0 0 0-41-41h-334a42 42 0 0 0 0 83h334a42 42 0 0 0 41-42z" horiz-adv-x="1000" />

<glyph glyph-name="dollar" unicode="&#xe871;" d="M333 183a42 42 0 0 1-83 0 209 209 0 0 1 208-208v-42a42 42 0 0 1 84 0v42a208 208 0 0 1 0 417v250a125 125 0 0 0 125-125 42 42 0 0 1 83 0 209 209 0 0 1-208 208v42a42 42 0 0 1-84 0v-42a208 208 0 0 1 0-417v-250a125 125 0 0 0-125 125z m209 125a125 125 0 0 0 0-250z m-209 209a125 125 0 0 0 125 125v-250a125 125 0 0 0-125 125z" horiz-adv-x="1000" />

<glyph glyph-name="drawer" unicode="&#xe872;" d="M125-108h208a42 42 0 0 1 42 41v125h250v-125a42 42 0 0 1 42-41h208a42 42 0 0 1 42 41v792a83 83 0 0 1-84 83h-666a83 83 0 0 1-84-83v-792a42 42 0 0 1 42-41z m42 833h666v-167h-666z m0-250h666v-167h-666z m0-250h666v-250h-125v125a42 42 0 0 1-41 42h-334a42 42 0 0 1-41-42v-125h-125z m458 167a42 42 0 0 0-42-42h-166a42 42 0 0 0 0 83h166a42 42 0 0 0 42-41z m0 250a42 42 0 0 0-42-42h-166a42 42 0 0 0 0 83h166a42 42 0 0 0 42-41z" horiz-adv-x="1000" />

<glyph glyph-name="envelope" unicode="&#xe873;" d="M871 784a43 43 0 0 1-38 24h-666a43 43 0 0 1-28-11 42 42 0 0 1-14-30v-834a42 42 0 0 1 42-41h666a42 42 0 0 1 42 41v834a70 70 0 0 1-4 17z m-121-59l-62-83h-375l-63 83z m-542-83c19-19 51-88 84-84h166v-416c-27-6-185 15-200-17l-50-67z m42-667l63 83h375l62-83z m542 83c-19 19-51 88-84 84h-166v416c27 6 185-15 200 17l50 67z" horiz-adv-x="1000" />

<glyph glyph-name="euro" unicode="&#xe874;" d="M167 288h88a467 467 0 0 0-5 62 467 467 0 0 0 5 63h-88a42 42 0 0 0 0 83h107a374 374 0 0 0 345 271 332 332 0 0 0 150-36 42 42 0 0 0-38-74 249 249 0 0 1-112 26 286 286 0 0 1-256-187h220a42 42 0 0 0 0-83h-244a378 378 0 0 1 0-125h203a42 42 0 0 0 0-84h-179a286 286 0 0 1 256-187 249 249 0 0 1 113 27 42 42 0 0 0 37-75 332 332 0 0 0-150-36 374 374 0 0 0-345 271h-107a42 42 0 0 0 0 84z" horiz-adv-x="1000" />

<glyph glyph-name="globe" unicode="&#xe875;" d="M500 808a458 458 0 1 1 458-458 459 459 0 0 1-458 458z m-372-500h123a659 659 0 0 1 75-290 376 376 0 0 0-198 290z m123 84h-123a376 376 0 0 0 198 290 659 659 0 0 1-75-290z m207-403c-60 39-115 158-124 319h124z m0 403h-124c9 161 64 280 124 319z m84-403v319h124c-9-161-64-280-124-319z m0 403v319c60-39 115-158 124-319z m132-374a659 659 0 0 1 75 290h124a376 376 0 0 0-199-290z m75 374a659 659 0 0 1-75 290 376 376 0 0 0 199-290z" horiz-adv-x="1000" />

<glyph glyph-name="gold" unicode="&#xe876;" d="M50-49a42 42 0 0 1 33-18h834a42 42 0 0 1 39 55l-83 250a42 42 0 0 1-40 29h-95l-73 221a42 42 0 0 1-40 29h-250a42 42 0 0 1-39-29l-74-221h-95a42 42 0 0 1-40-29l-83-250a42 42 0 0 1 6-37z m450 156l-25 76h51z m303 76l56-166h-301l55 166z m-398 250h190l56-166h-301z m-208-250h190l55-166h-301z m303 417a42 42 0 0 0-42 42v83a42 42 0 0 0 84 0v-83a42 42 0 0 0-42-42z m295 45a42 42 0 0 0 0-59l-59-59a42 42 0 0 0-59 59l59 59a42 42 0 0 0 59 0z m-531-118l-59 59a42 42 0 0 0 59 59l59-59a42 42 0 1 0-59-59z m-139-135h83a42 42 0 0 0 0-84h-83a42 42 0 0 0 0 84z m667 0h83a42 42 0 0 0 0-84h-83a42 42 0 0 0 0 84z" horiz-adv-x="1000" />

<glyph glyph-name="hotel" unicode="&#xe877;" d="M917 808h-500a42 42 0 0 1-42-41v-125h-292a42 42 0 0 1-41-42v-667a42 42 0 0 1 41-41h834a42 42 0 0 1 41 41v834a42 42 0 0 1-41 41z m-375-833h-417v583h417z m333 0h-250v625a42 42 0 0 1-42 42h-125v83h417z m-667 458a42 42 0 0 0 42 42h167a42 42 0 0 0 0-83h-167a42 42 0 0 0-42 41z m0-166a42 42 0 0 0 42 41h167a42 42 0 0 0 0-83h-167a42 42 0 0 0-42 42z m0-167a42 42 0 0 0 42 42h167a42 42 0 0 0 0-84h-167a42 42 0 0 0-42 42z" horiz-adv-x="1000" />

<glyph glyph-name="invest" unicode="&#xe878;" d="M917 475h-375v125a125 125 0 0 0 125 125 42 42 0 0 1 0 83 208 208 0 0 1-188-118 264 264 0 0 1-334 29 42 42 0 0 1-17-51 258 258 0 0 1 138-134 241 241 0 0 1 87-16 329 329 0 0 1 105 20v-63h-375a42 42 0 0 1-41-42v-500a42 42 0 0 1 41-41h834a42 42 0 0 1 41 41v500a42 42 0 0 1-41 42z m-620 136a163 163 0 0 0-72 55 181 181 0 0 0 209-49 200 200 0 0 0-137-6z m578-560a125 125 0 0 1-76-76h-598a125 125 0 0 1-76 76v265a125 125 0 0 1 76 76h598a125 125 0 0 1 76-76z m-292 132a83 83 0 1 0-83 84 83 83 0 0 0 83-84z" horiz-adv-x="1000" />

<glyph glyph-name="invoice" unicode="&#xe879;" d="M625 517a42 42 0 0 0-42-42h-333a42 42 0 0 0 0 83h333a42 42 0 0 0 42-41z m-42-125h-333a42 42 0 0 1 0-84h333a42 42 0 0 1 0 84z m-166-167h-167a42 42 0 0 1 0-83h167a42 42 0 0 1 0 83z m541 125v-333a125 125 0 0 0-125-125h-666a125 125 0 0 0-125 125v666a125 125 0 0 0 125 125h500a125 125 0 0 0 125-125v-291h125a42 42 0 0 0 41-42z m-250 333a42 42 0 0 1-41 42h-500a42 42 0 0 1-42-42v-666a42 42 0 0 1 42-42h541z m167-375h-83v-333h41a42 42 0 0 1 42 42z" horiz-adv-x="1000" />

<glyph glyph-name="law" unicode="&#xe87a;" d="M956 381a38 38 0 0 1-2 8c0 0 0 1-1 2l-145 270a38 38 0 0 1-6 8 41 41 0 0 1-31 14h-229v84a42 42 0 0 1-84 0v-84h-229a41 41 0 0 1-31-14 38 38 0 0 1-5-8l-146-270c-1-1-1-2-1-2a38 38 0 0 1-2-8 41 41 0 0 1-2-8c0-1 0-2 0-2a188 188 0 0 1 375 0c0 0-1 1-1 2a40 40 0 0 1-1 8 38 38 0 0 1-3 8c0 0 0 1 0 2l-113 209h159v-500h-125a42 42 0 0 1 0-83h334a42 42 0 0 1 0 83h-125v500h159l-113-209c0-1 0-2 0-2a38 38 0 0 1-3-8 41 41 0 0 1-1-8c0-1-1-2-1-2a188 188 0 0 1 375 0c0 0 0 1 0 2a40 40 0 0 1-2 8z m-727-114a104 104 0 0 0-95 62h191a104 104 0 0 0-96-62z m76 146h-152l76 141z m466 141l76-141h-152z m0-287a104 104 0 0 0-96 62h191a104 104 0 0 0-95-62z m104-334a42 42 0 0 0-42-41h-666a42 42 0 0 0 0 83h666a42 42 0 0 0 42-42z" horiz-adv-x="1000" />

<glyph glyph-name="money" unicode="&#xe87b;" d="M917 683h-834a42 42 0 0 1-41-41v-584a42 42 0 0 1 41-41h834a42 42 0 0 1 41 41v584a42 42 0 0 1-41 41z m-42-507a125 125 0 0 1-76-76h-598a125 125 0 0 1-76 76v348a125 125 0 0 1 76 76h598a125 125 0 0 1 76-76z m-375 341a167 167 0 1 1 167-167 167 167 0 0 1-167 167z m0-250a83 83 0 1 0 83 83 83 83 0 0 0-83-83z m-208 83a42 42 0 0 0-42-42h-42a42 42 0 0 0 0 84h42a42 42 0 0 0 42-42z m541 0a42 42 0 0 0-41-42h-42a42 42 0 0 0 0 84h42a42 42 0 0 0 41-42z" horiz-adv-x="1000" />

<glyph glyph-name="poundsterling" unicode="&#xe87c;" d="M333 17v291h-83a42 42 0 0 0 0 84h83v166a208 208 0 0 0 417 0 42 42 0 0 0-83 0 125 125 0 0 1-250 0v-166h125a42 42 0 0 0 0-84h-125v-291h333a42 42 0 0 0 0-84h-500a42 42 0 0 0 0 84z" horiz-adv-x="1000" />

<glyph glyph-name="referral-2" unicode="&#xe87d;" d="M208-67a167 167 0 0 1 161 125h262a169 169 0 1 1 116 202l-130 222a167 167 0 1 1-234 0l-130-222a165 165 0 0 1-45 7 167 167 0 0 1 0-334z m584 250a83 83 0 1 0-84-83 83 83 0 0 0 84 83z m-292 500a83 83 0 1 0-83-83 83 83 0 0 0 83 83z m-45-243a165 165 0 0 1 45-7 163 163 0 0 1 45 7l130-221a167 167 0 0 1-44-77h-262a166 166 0 0 1-43 76z m-247-257a83 83 0 1 0-83-83 83 83 0 0 0 83 83z" horiz-adv-x="1000" />

<glyph glyph-name="statistic-down" unicode="&#xe87e;" d="M875 58v-125a42 42 0 0 0-83 0v125a42 42 0 0 0 83 0z m-417 167v-292a42 42 0 0 1 84 0v292a42 42 0 0 1-84 0z m-333-292a42 42 0 0 1 83 0v417a42 42 0 0 1-83 0z m750 667a42 42 0 0 1-83 0v-66l-262 262a42 42 0 0 1-59 0l-138-137-137 137a42 42 0 0 1-59-59l167-166a42 42 0 0 1 59 0l137 137 233-233h-66a42 42 0 0 1 0-83h166a42 42 0 0 1 42 41z" horiz-adv-x="1000" />

<glyph glyph-name="statistic-up" unicode="&#xe87f;" d="M167-108a42 42 0 0 0-42 41v125a42 42 0 0 0 83 0v-125a42 42 0 0 0-41-41z m375 41v292a42 42 0 0 1-84 0v-292a42 42 0 0 1 84 0z m291 459a42 42 0 0 1-41-42v-417a42 42 0 0 1 83 0v417a42 42 0 0 1-42 42z m16 413a41 41 0 0 1-16 3h-166a42 42 0 0 1 0-83h66l-233-233-137 138a42 42 0 0 1-59 0l-167-167a42 42 0 0 1 59-59l137 137 138-137a42 42 0 0 1 59 0l262 262v-66a42 42 0 0 1 83 0v167a42 42 0 0 1-26 38z" horiz-adv-x="1000" />

<glyph glyph-name="statistic-board" unicode="&#xe880;" d="M833 725h-666a125 125 0 0 1-125-125v-500a125 125 0 0 1 125-125h666a125 125 0 0 1 125 125v500a125 125 0 0 1-125 125z m42-625a42 42 0 0 0-42-42h-666a42 42 0 0 0-42 42v500a42 42 0 0 0 42 42h666a42 42 0 0 0 42-42z m-500 250v-167a42 42 0 0 0-83 0v167a42 42 0 0 0 83 0z m167 83v-250a42 42 0 0 0-84 0v250a42 42 0 0 0 84 0z m166 84v-334a42 42 0 0 0-83 0v334a42 42 0 0 0 83 0z" horiz-adv-x="1000" />

<glyph glyph-name="success-plan" unicode="&#xe881;" d="M96 5l678 678h-149a42 42 0 0 0 0 84h250a42 42 0 0 0 16-3 42 42 0 0 0 26-39v-250a42 42 0 0 0-84 0v149l-678-679a42 42 0 0 0-59 60z m-13 595a167 167 0 1 0 167-167 167 167 0 0 0-167 167z m84 0a83 83 0 1 1 83 83 83 83 0 0 1-83-83z m735-343a42 42 0 0 1-59-5l-179-215-93 93a42 42 0 0 1-59-59l125-126a42 42 0 0 1 30-12h2a42 42 0 0 1 30 15l208 250a42 42 0 0 1-5 59z" horiz-adv-x="1000" />

<glyph glyph-name="strategy" unicode="&#xe882;" d="M917 767h-834a42 42 0 0 1-41-42v-750a42 42 0 0 1 41-42h834a42 42 0 0 1 41 42v750a42 42 0 0 1-41 42z m-42-750h-750v666h750z m-667 166a42 42 0 0 0 42 42h8a538 538 0 0 1 383 159l8 8h-66a42 42 0 0 0 0 83h167a42 42 0 0 0 16-3 42 42 0 0 0 26-39v-166a42 42 0 0 0-84 0v66l-8-8a621 621 0 0 0-442-183h-8a42 42 0 0 0-42 41z m13 238l33 33-33 33a42 42 0 1 0 59 59l33-33 33 33a42 42 0 1 0 59-59l-34-33 34-33a42 42 0 1 0-59-59l-33 33-33-33a42 42 0 0 0-59 59z" horiz-adv-x="1000" />

<glyph glyph-name="failed-plan" unicode="&#xe883;" d="M905 696l-679-679h149a42 42 0 0 0 0-84h-250a42 42 0 0 0-16 3 42 42 0 0 0-22 23 42 42 0 0 0-4 16v250a42 42 0 0 0 84 0v-149l679 679a42 42 0 1 0 59-59z m-822-96a167 167 0 1 0 167-167 167 167 0 0 0-167 167z m84 0a83 83 0 1 1 83 83 83 83 0 0 1-83-83z m738-387a42 42 0 0 1-59 0l-75-75-75 75a42 42 0 0 1-59-59l75-75-75-74a42 42 0 1 1 59-60l75 75 75-75a42 42 0 0 1 59 60l-75 74 75 75a42 42 0 0 1 0 59z" horiz-adv-x="1000" />

<glyph glyph-name="tuxedo" unicode="&#xe884;" d="M917 642h-125v125a43 43 0 0 1-42 41h-500a43 43 0 0 1-42-41v-125h-125a42 42 0 0 1-41-42v-667a42 42 0 0 1 41-41h834a42 42 0 0 1 41 41v667a42 42 0 0 1-41 42z m-258 83l-159-186-159 186z m49-71v-204l-136 45z m-143-244l-44-60h-42l-44 59 65 22z m-273 244l136-159-136-45z m11-679h-178v583h83v-166a42 42 0 0 1 55-40l88 29 61-80z m88 0l97 292h24l97-292z m484 0h-178l-109 326 61 81 88-30a42 42 0 0 1 55 40v166h83z" horiz-adv-x="1000" />

<glyph glyph-name="tuxedo-2" unicode="&#xe885;" d="M917 642h-125v125a43 43 0 0 1-42 41h-500a43 43 0 0 1-42-41v-125h-125a42 42 0 0 1-41-42v-667a42 42 0 0 1 41-41h834a42 42 0 0 1 41 41v667a42 42 0 0 1-41 42z m-625 12l136-159-136-45z m166-679h-333v583h83v-166a42 42 0 0 1 55-40l195 65z m-117 750h318l-159-186z m367-71v-204l-136 45z m167-679h-333v442l195-65a42 42 0 0 1 55 40v166h83z m-83 250a42 42 0 0 0-42-42h-83a42 42 0 0 0 0 84h83a42 42 0 0 0 42-42z" horiz-adv-x="1000" />

<glyph glyph-name="wallet" unicode="&#xe886;" d="M875 384v174a42 42 0 0 1-42 42h-666a42 42 0 0 0 0 83h666a42 42 0 0 1 0 84h-666a125 125 0 0 1-125-125v-584a125 125 0 0 1 125-125h666a42 42 0 0 1 42 42v174a124 124 0 0 1 0 235z m-83-367h-625a42 42 0 0 0-42 41v466a124 124 0 0 1 42-7h625v-125h-125a125 125 0 0 1 0-250h125z m41 208h-166a42 42 0 0 0 0 83h166a42 42 0 0 0 0-83z" horiz-adv-x="1000" />

<glyph glyph-name="bag" unicode="&#xe887;" d="M208-67h584a125 125 0 0 1 125 125v417a125 125 0 0 1-125 125h-84v83a83 83 0 0 1-83 84h-250a83 83 0 0 1-83-84v-83h-84a125 125 0 0 1-125-125v-417a125 125 0 0 1 125-125z m542 584h42a42 42 0 0 0 41-42v-417a42 42 0 0 0-41-41h-42z m-375 166h250v-83h-250z m-42-166h334v-500h-334z m-166-42a42 42 0 0 0 41 42h42v-500h-42a42 42 0 0 0-41 41z" horiz-adv-x="1000" />

<glyph glyph-name="working-bag-2" unicode="&#xe888;" d="M208-67h584a125 125 0 0 1 125 125v417a125 125 0 0 1-125 125h-84v83a83 83 0 0 1-83 84h-250a83 83 0 0 1-83-84v-83h-84a125 125 0 0 1-125-125v-417a125 125 0 0 1 125-125z m167 750h250v-83h-250z m-208-208a42 42 0 0 0 41 42h584a42 42 0 0 0 41-42v-417a42 42 0 0 0-41-41h-584a42 42 0 0 0-41 41z" horiz-adv-x="1000" />

<glyph glyph-name="working-bag-3" unicode="&#xe889;" d="M208-67h584a125 125 0 0 1 125 125v417a125 125 0 0 1-125 125h-84v83a83 83 0 0 1-83 84h-250a83 83 0 0 1-83-84v-83h-84a125 125 0 0 1-125-125v-417a125 125 0 0 1 125-125z m167 750h250v-83h-250z m-208-208a42 42 0 0 0 41 42h584a42 42 0 0 0 41-42v-417a42 42 0 0 0-41-41h-584a42 42 0 0 0-41 41z m83-125a42 42 0 0 0 42 42h416a42 42 0 0 0 0-84h-416a42 42 0 0 0-42 42z m0-167a42 42 0 0 0 42 42h416a42 42 0 0 0 0-83h-416a42 42 0 0 0-42 41z" horiz-adv-x="1000" />

<glyph glyph-name="working-bag-4" unicode="&#xe88a;" d="M208-67h584a125 125 0 0 1 125 125v417a125 125 0 0 1-125 125h-84v83a83 83 0 0 1-83 84h-250a83 83 0 0 1-83-84v-83h-84a125 125 0 0 1-125-125v-417a125 125 0 0 1 125-125z m167 750h250v-83h-250z m-208-208a42 42 0 0 0 41 42h584a42 42 0 0 0 41-42v-56l-333-148-333 148z m0-147l316-141a42 42 0 0 1 34 0l316 141v-270a42 42 0 0 0-41-41h-584a42 42 0 0 0-41 41z" horiz-adv-x="1000" />

<glyph glyph-name="yen" unicode="&#xe88b;" d="M863 796a42 42 0 0 0 0-59l-262-262h107a42 42 0 0 0 0-83h-166v-125h166a42 42 0 0 0 0-84h-166v-250a42 42 0 0 0-84 0v250h-166a42 42 0 0 0 0 84h166v125h-166a42 42 0 0 0 0 83h107l-262 262a42 42 0 0 0 59 59l304-304 304 304a42 42 0 0 0 59 0z" horiz-adv-x="1000" />

<glyph glyph-name="add-node" unicode="&#xe88c;" d="M250 600h-83a42 42 0 0 0 0 83h83v84a42 42 0 0 0 83 0v-84h84a42 42 0 0 0 0-83h-84v-83a42 42 0 0 0-83 0z m625-167v-166a42 42 0 0 0-42-42h-166a42 42 0 0 0-42 42v41h-292v-250h292v42a42 42 0 0 0 42 42h166a42 42 0 0 0 42-42v-167a42 42 0 0 0-42-41h-166a42 42 0 0 0-42 41v42h-333a42 42 0 0 0-42 42v333a42 42 0 0 0 42 42h333v41a42 42 0 0 0 42 42h166a42 42 0 0 0 42-42z m-167-458h84v83h-84z m84 417h-84v-84h84z" horiz-adv-x="1000" />

<glyph glyph-name="all-out" unicode="&#xe88d;" d="M125 350a375 375 0 1 1 375 375 376 376 0 0 1-375-375z m375 292a292 292 0 1 0-292-292 292 292 0 0 0 292 292z m417-42l-167 167h167z m-667 167l-167-167v167z m500-834l167 167v-167z m-500 0h-167v167z" horiz-adv-x="1000" />

<glyph glyph-name="animation" unicode="&#xe88e;" d="M917 392h-417a42 42 0 0 1-42-42v-417a42 42 0 0 1 42-41h417a42 42 0 0 1 41 41v417a42 42 0 0 1-41 42z m-42-417h-333v333h333z m-792 333a42 42 0 0 0-41 42v417a42 42 0 0 0 41 41h417a42 42 0 0 0 0-83h-375v-375a42 42 0 0 0-42-42z m625 292a42 42 0 0 0 0-83h-375v-375a42 42 0 0 0-83 0v416a42 42 0 0 0 42 42z" horiz-adv-x="1000" />

<glyph glyph-name="binary" unicode="&#xe88f;" d="M167 392a125 125 0 0 1 125 125v83a125 125 0 0 1-250 0v-83a125 125 0 0 1 125-125z m-42 208a42 42 0 0 0 83 0v-83a42 42 0 0 0-83 0z m667 0a125 125 0 0 1-250 0v-83a125 125 0 0 1 250 0z m-84-83a42 42 0 0 0-83 0v83a42 42 0 0 0 83 0z m-291-125a42 42 0 0 0-42 41v250a42 42 0 0 0 83 0v-250a42 42 0 0 0-41-41z m541 291v-250a42 42 0 0 0-83 0v250a42 42 0 0 0 83 0z m-666-583v83a125 125 0 0 1-250 0v-83a125 125 0 0 1 250 0z m-167 0v83a42 42 0 0 0 83 0v-83a42 42 0 0 0-83 0z m250 0a125 125 0 0 1 250 0v83a125 125 0 0 1-250 0z m83 83a42 42 0 0 0 84 0v-83a42 42 0 0 0-84 0z m500 84v-250a42 42 0 0 0-83 0v250a42 42 0 0 0 83 0z m-208 41a42 42 0 0 0 42-41v-250a42 42 0 0 0-84 0v250a42 42 0 0 0 42 41z" horiz-adv-x="1000" />

<glyph glyph-name="compare" unicode="&#xe890;" d="M42 517a42 42 0 0 0 41 41h316l-95 96a42 42 0 1 0 59 59l167-167a42 42 0 0 0 0-59l-167-166a42 42 0 1 0-59 59l95 95h-316a42 42 0 0 0-41 42z m875-292h-316l95 96a42 42 0 0 1-59 59l-166-167a42 42 0 0 1 0-59l166-167a42 42 0 0 1 59 59l-95 96h316a42 42 0 0 1 0 83z" horiz-adv-x="1000" />

<glyph glyph-name="website-dashboard" unicode="&#xe891;" d="M125-67h750a42 42 0 0 1 42 42v750a42 42 0 0 1-42 42h-750a42 42 0 0 1-42-42v-750a42 42 0 0 1 42-42z m42 500h83v-416h-83z m666-416h-500v416h500z m-666 666h666v-166h-666z" horiz-adv-x="1000" />

<glyph glyph-name="data-quality" unicode="&#xe892;" d="M792 767h-167a42 42 0 0 1-29-12l-96-96-95 96a42 42 0 0 1-30 12h-167a125 125 0 0 1-125-125v-584a125 125 0 0 1 125-125h584a125 125 0 0 1 125 125v584a125 125 0 0 1-125 125z m41-709a42 42 0 0 0-41-41h-584a42 42 0 0 0-41 41v584a42 42 0 0 0 41 41h150l113-112a42 42 0 0 1 59 0l112 112h150a42 42 0 0 0 41-41z m-137 405a42 42 0 0 0 0-59l-208-208a42 42 0 0 0-59 0l-83 83a42 42 0 0 0 59 59l53-54 179 179a42 42 0 0 0 59 0z" horiz-adv-x="1000" />

<glyph glyph-name="data-usage" unicode="&#xe893;" d="M42 350a459 459 0 0 0 458 458 42 42 0 0 0 0-83 375 375 0 1 1 150-719 42 42 0 1 0 33-76 458 458 0 0 0-641 420z m641 420a42 42 0 1 1-33-76 375 375 0 0 0 118-606 42 42 0 1 1 59-59 458 458 0 0 1-144 741z" horiz-adv-x="1000" />

<glyph glyph-name="delete-node" unicode="&#xe894;" d="M250 624l-54-53a42 42 0 0 0-59 59l54 53-54 54a42 42 0 0 0 59 59l54-54 54 54a42 42 0 0 0 59-59l-54-54 54-53a42 42 0 1 0-59-59z m625-191v-166a42 42 0 0 0-42-42h-166a42 42 0 0 0-42 42v41h-333v-250h333v42a42 42 0 0 0 42 42h166a42 42 0 0 0 42-42v-167a42 42 0 0 0-42-41h-166a42 42 0 0 0-42 41v42h-375a42 42 0 0 0-42 42v333a42 42 0 0 0 42 42h375v41a42 42 0 0 0 42 42h166a42 42 0 0 0 42-42z m-167-458h84v83h-84z m84 417h-84v-84h84z" horiz-adv-x="1000" />

<glyph glyph-name="diagram-venn" unicode="&#xe895;" d="M667 808a290 290 0 0 1-167-52 292 292 0 1 1-284-506 292 292 0 1 1 568 0 292 292 0 0 1-117 558z m-130-336a262 262 0 0 1-74 0 203 203 0 0 0 37 168 203 203 0 0 0 37-168z m-100-135a206 206 0 0 0-102-29 209 209 0 0 0 79 64 292 292 0 0 1 23-35z m149 35a209 209 0 0 0 80-64 206 206 0 0 0-103 29 292 292 0 0 1 23 35z m-461 145a209 209 0 0 0 208 208 206 206 0 0 0 104-29 288 288 0 0 1-54-246 293 293 0 0 1-136-122 208 208 0 0 0-122 189z m583-334a208 208 0 1 0-411 45 285 285 0 0 1 203 50 285 285 0 0 1 203-50 207 207 0 0 0 5-45z m45 145a293 293 0 0 1-136 122 288 288 0 0 1-54 246 206 206 0 0 0 104 29 208 208 0 0 0 86-397z" horiz-adv-x="1000" />

<glyph glyph-name="drag-indicator" unicode="&#xe896;" d="M417 683a83 83 0 1 0-84 84 83 83 0 0 0 84-84z m-84-250a83 83 0 1 1 84-83 83 83 0 0 1-84 83z m0-333a83 83 0 1 1 84-83 83 83 0 0 1-84 83z m334 500a83 83 0 1 1-84 83 83 83 0 0 1 84-83z m0-333a83 83 0 1 1-84 83 83 83 0 0 1 84-83z m0-334a83 83 0 1 1-84 84 83 83 0 0 1 84-84z" horiz-adv-x="1000" />

<glyph glyph-name="extension" unicode="&#xe897;" d="M130-108h231a42 42 0 0 1 42 41v88a55 55 0 0 0 42 55 51 51 0 0 0 60-50v-93a42 42 0 0 1 41-41h139a88 88 0 0 1 88 88v143h51a134 134 0 0 1 133 157 138 138 0 0 1-138 112h-46v143a88 88 0 0 1-88 88h-143v46a138 138 0 0 1-112 138 134 134 0 0 1-157-133v-51h-143a88 88 0 0 1-88-88v-185a42 42 0 0 1 41-42h88a55 55 0 0 0 55-42 51 51 0 0 0-50-59h-93a42 42 0 0 1-41-42v-185a88 88 0 0 1 88-88z m-5 231h51a134 134 0 0 1 132 157 138 138 0 0 1-137 112h-46v143a5 5 0 0 0 5 5h185a42 42 0 0 1 42 42v92a51 51 0 0 0 59 50 55 55 0 0 0 42-55v-87a42 42 0 0 1 42-42h185a5 5 0 0 0 5-5v-185a42 42 0 0 1 42-42h87a55 55 0 0 0 55-42 51 51 0 0 0-50-59h-92a42 42 0 0 1-42-42v-185a5 5 0 0 0-5-5h-97v51a134 134 0 0 1-156 132 138 138 0 0 1-112-137v-46h-190a5 5 0 0 0-5 5z" horiz-adv-x="1000" />

<glyph glyph-name="h-split" unicode="&#xe898;" d="M917 725a42 42 0 0 0-42-42h-750a42 42 0 0 0 0 84h750a42 42 0 0 0 42-42z m-42-208h-750a42 42 0 0 1 0-84h750a42 42 0 0 1 0 84z m42-292v-250a42 42 0 0 0-42-42h-750a42 42 0 0 0-42 42v250a42 42 0 0 0 42 42h750a42 42 0 0 0 42-42z m-84-42h-666v-166h666z" horiz-adv-x="1000" />

<glyph glyph-name="mind-map" unicode="&#xe899;" d="M792 225a165 165 0 0 1-84-24l-65 65a163 163 0 0 1-20 196l39 97c1 0 3-1 5-1a126 126 0 1 1-83 32l-32-82a158 158 0 0 1-136-15l-136 137-1 0a123 123 0 0 1 13 53 125 125 0 1 1-125-125 123 123 0 0 1 53 13l1 0 136-137a163 163 0 0 1 18-194l-118-144a103 103 0 0 1-28 4 105 105 0 1 1 93-57l123 151a159 159 0 0 1 139 13l65-64a165 165 0 0 1-24-85 167 167 0 1 1 167 167z m-625 417a42 42 0 1 0 41 41 42 42 0 0 0-41-41z m250-292a83 83 0 1 0 83-83 83 83 0 0 0-83 83z m375-375a83 83 0 1 0 83 83 83 83 0 0 0-83-83z m41 458a83 83 0 1 0-83-83 83 83 0 0 0 83 83z m-666-125a83 83 0 1 0 83 84 83 83 0 0 0-83-84z m791 250a42 42 0 1 0-41 42 42 42 0 0 0 41-42z m-875-333a42 42 0 1 0-41-42 42 42 0 0 0 41 42z" horiz-adv-x="1000" />

<glyph glyph-name="nat" unicode="&#xe89a;" d="M284 308h174a42 42 0 0 1 0 84h-174a125 125 0 1 1 0-84z m-117 0a42 42 0 1 0 41 42 42 42 0 0 0-41-42z m779 72a42 42 0 0 0 0-59l-125-125a42 42 0 0 0-59 59l54 53h-151a417 417 0 0 0-415-375 42 42 0 0 0 0 84 333 333 0 0 1 0 666 42 42 0 0 0 0 84 417 417 0 0 0 415-375h151l-54 54a42 42 0 0 0 59 59z" horiz-adv-x="1000" />

<glyph glyph-name="node" unicode="&#xe89b;" d="M833 475h-166a42 42 0 0 1-42-42v-41h-333v166h41a42 42 0 0 1 42 42v167a42 42 0 0 1-42 41h-166a42 42 0 0 1-42-41v-167a42 42 0 0 1 42-42h41v-541a42 42 0 0 1 42-42h375v-42a42 42 0 0 1 42-41h166a42 42 0 0 1 42 41v167a42 42 0 0 1-42 42h-166a42 42 0 0 1-42-42v-42h-333v250h333v-41a42 42 0 0 1 42-42h166a42 42 0 0 1 42 42v166a42 42 0 0 1-42 42z m-625 250h84v-83h-84z m500-667h84v-83h-84z m84 250h-84v84h84z" horiz-adv-x="1000" />

<glyph glyph-name="more-h" unicode="&#xe89c;" d="M83 350a83 83 0 1 0 84-83 83 83 0 0 0-84 83z m417-83a83 83 0 1 1-83 83 83 83 0 0 1 83-83z m333 166a83 83 0 1 1 84-83 83 83 0 0 1-84 83z" horiz-adv-x="1000" />

<glyph glyph-name="more-v" unicode="&#xe89d;" d="M417 683a83 83 0 1 0 83-83 83 83 0 0 0-83 83z m83-416a83 83 0 1 1-83 83 83 83 0 0 1 83-83z m0-334a83 83 0 1 1-83 84 83 83 0 0 1 83-84z" horiz-adv-x="1000" />

<glyph glyph-name="present-to-all" unicode="&#xe89e;" d="M833 725h-666a125 125 0 0 1-125-125v-500a125 125 0 0 1 125-125h666a125 125 0 0 1 125 125v500a125 125 0 0 1-125 125z m42-625a42 42 0 0 0-42-42h-666a42 42 0 0 0-42 42v500a42 42 0 0 0 42 42h666a42 42 0 0 0 42-42z m-179 280a42 42 0 1 0-59-59l-95 95v-233a42 42 0 0 0-84 0v233l-95-95a42 42 0 1 0-59 59l167 166a42 42 0 0 0 59 0z" horiz-adv-x="1000" />

<glyph glyph-name="privacy-tips" unicode="&#xe89f;" d="M892 638l-375 167a42 42 0 0 1-34 0l-375-167a42 42 0 0 1-25-38v-29a771 771 0 0 1 397-674 42 42 0 0 1 40 0 771 771 0 0 1 397 674v29a42 42 0 0 1-25 38z m-59-67a688 688 0 0 0-333-589 688 688 0 0 0-333 589v2l333 148 333-148z m-375-138h84v-333h-84z m0 167h84v-83h-84z" horiz-adv-x="1000" />

<glyph glyph-name="qr-code" unicode="&#xe8a0;" d="M875 767h-250a42 42 0 0 1-42-42v-250a42 42 0 0 1 42-42h42v-83h83v83h83v-83h84v375a42 42 0 0 1-42 42z m-125-250h-83v166h166v-166z m-625-84h250a42 42 0 0 1 42 42v250a42 42 0 0 1-42 42h-250a42 42 0 0 1-42-42v-250a42 42 0 0 1 42-42z m42 250h166v-166h-166z m41-500v-83h-83v83z m-83-166h83v-84h-83z m167 83v-83h-84v83z m0 83h-84v84h84v83h83v-167z m-84 167v-83h-83v83z m375-125v-42h-41v84h-84v-167h125v-125a42 42 0 0 1 42-42h250a42 42 0 0 1 42 42v250a42 42 0 0 1-42 42h-208v83h-84z m250-42v-166h-166v166z m-458-83h83v-83h42v-84h-208v84h83z m167 500h-84v83h84z m-84-83h84v-167h-84z m-250 125h84v-84h-84z m500 0h84v-84h-84z m84-584h-84v84h84z" horiz-adv-x="1000" />

<glyph glyph-name="select-all" unicode="&#xe8a1;" d="M750 558a42 42 0 0 1-42 42h-416a42 42 0 0 1-42-42v-416a42 42 0 0 1 42-42h416a42 42 0 0 1 42 42z m-83-375h-334v334h334z m-125 584v-84h-84v84z m208-84h-83v84h83z m-417 0h-83v84h83z m-166 84l-84-84v84z m750-84l-84 84h84z m-459-750v84h84v-84z m209 84h83v-84h-83z m-417 0h83v-84h-83z m667 291h-84v84h84z m0-208h-84v83h84z m0 417h-84v83h84z m-750-209h-84v84h84z m0-208h-84v83h84z m0 417h-84v83h84z m-84-500l84-84h-84z m750-84l84 84v-84z" horiz-adv-x="1000" />

</font>
</defs>
</svg>
