<svg xmlns="http://www.w3.org/2000/svg" viewBox="0 0 24 24"><path d="M21,3H3A2,2,0,0,0,1,5v7a2,2,0,0,0,2,2H21a2,2,0,0,0,2-2V5A2,2,0,0,0,21,3Zm0,9H3V5H21Z"/><path d="M6,11H18a1,1,0,0,0,0-2H6a1,1,0,0,0,0,2Z"/><path d="M17,8h1a1,1,0,0,0,0-2H17a1,1,0,0,0,0,2Z"/><path d="M9.793,21.707a1,1,0,0,0,1.414,0l2-2a1,1,0,0,0,0-1.414L12.914,18l1.293-1.293a1,1,0,0,0-1.414-1.414l-2,2a1,1,0,0,0,0,1.414l.293.293L9.793,20.293A1,1,0,0,0,9.793,21.707Z"/><path d="M15.293,21.707a1,1,0,0,0,1.414,0l2-2a1,1,0,0,0,0-1.414L18.414,18l1.293-1.293a1,1,0,0,0-1.414-1.414l-2,2a1,1,0,0,0,0,1.414l.293.293-1.293,1.293A1,1,0,0,0,15.293,21.707Z"/><path d="M4.293,21.707a1,1,0,0,0,1.414,0l2-2a1,1,0,0,0,0-1.414L7.414,18l1.293-1.293a1,1,0,0,0-1.414-1.414l-2,2a1,1,0,0,0,0,1.414L5.586,19,4.293,20.293A1,1,0,0,0,4.293,21.707Z"/></svg>