<svg xmlns="http://www.w3.org/2000/svg" viewBox="0 0 24 24"><path d="M20.062,4.25l-3.4-3A1,1,0,0,0,16,1H8a1,1,0,0,0-.662.25l-3.4,3a1,1,0,0,0-.329.618l-1.6,12A1,1,0,0,0,3,18H5.111C5.756,20.883,9.09,23,12,23s6.244-2.117,6.889-5H21a1,1,0,0,0,.991-1.132l-1.6-12A1,1,0,0,0,20.062,4.25ZM18,16a1,1,0,0,0-1,1c0,2.154-2.75,4-5,4s-5-1.846-5-4a1,1,0,0,0-1-1H4.142l.133-1H6a1,1,0,0,0,0-2H4.542l.134-1H6a1,1,0,0,0,0-2H4.942l.134-1H6A1,1,0,0,0,6,7H5.342l.2-1.5L8.378,3h7.244l2.836,2.5.2,1.5H18a1,1,0,0,0,0,2h.924l.134,1H18a1,1,0,0,0,0,2h1.324l.134,1H18a1,1,0,0,0,0,2h1.725l.133,1Z"/><path d="M13,5H11A3,3,0,0,0,8,8v6a4,4,0,0,0,8,0V8A3,3,0,0,0,13,5Zm1,9a2,2,0,0,1-4,0V8a1,1,0,0,1,1-1h2a1,1,0,0,1,1,1Z"/></svg>