<svg xmlns="http://www.w3.org/2000/svg" viewBox="0 0 24 24"><path d="M21,11V4a3,3,0,0,0-3-3H6A3,3,0,0,0,3,4v7a2,2,0,0,0-2,2v8a2,2,0,0,0,2,2H6a1,1,0,0,0,.707-.293L8.414,21h7.172l1.707,1.707A1,1,0,0,0,18,23h3a2,2,0,0,0,2-2V13A2,2,0,0,0,21,11ZM5,4A1,1,0,0,1,6,3H18a1,1,0,0,1,1,1v7a2,2,0,0,0-2,2v2H7V13a2,2,0,0,0-2-2ZM21,21H18.414l-1.707-1.707A1,1,0,0,0,16,19H8a1,1,0,0,0-.707.293L5.586,21H3V13H5v3a1,1,0,0,0,1,1H18a1,1,0,0,0,1-1V13h2ZM7,6A1,1,0,1,1,8,7,1,1,0,0,1,7,6Zm4,0a1,1,0,1,1,1,1A1,1,0,0,1,11,6Zm4,0a1,1,0,1,1,1,1A1,1,0,0,1,15,6ZM9,10a1,1,0,1,1,1,1A1,1,0,0,1,9,10Zm4,0a1,1,0,1,1,1,1A1,1,0,0,1,13,10Z"/></svg>