<svg xmlns="http://www.w3.org/2000/svg" viewBox="0 0 24 24"><path d="M21,1H3A2,2,0,0,0,1,3V21a2,2,0,0,0,2,2H21a2,2,0,0,0,2-2V3A2,2,0,0,0,21,1ZM3,3H21V6.556H3ZM21,21H3V8.556H21Zm-9-1.223a5,5,0,1,0-5-5A5.074,5.074,0,0,0,12,19.777ZM9.846,16.848a12.55,12.55,0,0,0,2.6-.953,11.685,11.685,0,0,1,2.536-.951A2.983,2.983,0,0,1,9.846,16.848ZM12,11.777a2.991,2.991,0,0,1,2.43,1.255,13.666,13.666,0,0,0-2.877,1.073,10.585,10.585,0,0,1-2.532.88c-.005-.07-.021-.136-.021-.208A3,3,0,0,1,12,11.777ZM20,5a1,1,0,0,1-1,1H17a1,1,0,0,1,0-2h2A1,1,0,0,1,20,5Z"/></svg>