<svg xmlns="http://www.w3.org/2000/svg" viewBox="0 0 24 24"><path d="M21,10a1,1,0,0,1,1,1v4a1,1,0,0,1-2,0V11A1,1,0,0,1,21,10ZM3,16a1,1,0,0,0,1-1V11a1,1,0,0,0-2,0v4A1,1,0,0,0,3,16ZM17.58,4.791A6.955,6.955,0,0,1,19,9v9a1,1,0,0,1-1,1H16v3a1,1,0,0,1-2,0V19H10v3a1,1,0,0,1-2,0V19H6a1,1,0,0,1-1-1V9A6.955,6.955,0,0,1,6.42,4.791c-.286-.209-.942-.917-2.127-2.084A1,1,0,0,1,5.707,1.293C7.116,2.724,7.57,3.116,7.791,3.42a6.948,6.948,0,0,1,8.418,0c.209-.287.842-.866,2.084-2.127a1,1,0,0,1,1.414,1.414C18.282,4.111,17.884,4.57,17.58,4.791ZM7,9v1H17V9A5,5,0,0,0,7,9Zm10,3H7v5H17ZM10,8A1,1,0,1,0,9,7,1,1,0,0,0,10,8Zm4,0a1,1,0,1,0-1-1A1,1,0,0,0,14,8Z"/></svg>