<svg xmlns="http://www.w3.org/2000/svg" viewBox="0 0 24 24"><path d="M20,12v8a3,3,0,0,1-3,3H5a3,3,0,0,1-3-3V4A3,3,0,0,1,5,1h7a1,1,0,0,1,0,2H5A1,1,0,0,0,4,4V20a1,1,0,0,0,1,1H17a1,1,0,0,0,1-1V12a1,1,0,0,1,2,0ZM10,18a1,1,0,1,0,1-1A1,1,0,0,0,10,18ZM23,4.6V5.4a.4.4,0,0,1-.4.4h-.628a.416.416,0,0,0-.38.269l0,.006a.415.415,0,0,0,.08.458l.444.444a.4.4,0,0,1,0,.571l-.561.561a.4.4,0,0,1-.571,0l-.444-.444a.415.415,0,0,0-.458-.08l-.006,0a.414.414,0,0,0-.269.38V8.6a.4.4,0,0,1-.4.4H18.6a.4.4,0,0,1-.4-.4V7.968a.414.414,0,0,0-.269-.38l-.006,0a.415.415,0,0,0-.458.08l-.444.444a.4.4,0,0,1-.571,0l-.561-.561a.4.4,0,0,1,0-.571l.444-.444a.415.415,0,0,0,.08-.458l0-.006a.416.416,0,0,0-.38-.269H15.4a.4.4,0,0,1-.4-.4V4.6a.4.4,0,0,1,.4-.4h.628a.415.415,0,0,0,.38-.27l0-.005a.415.415,0,0,0-.08-.458l-.444-.444a.4.4,0,0,1,0-.571l.561-.561a.4.4,0,0,1,.571,0l.444.444a.413.413,0,0,0,.458.079l.006,0a.416.416,0,0,0,.269-.38V1.4a.4.4,0,0,1,.4-.4H19.4a.4.4,0,0,1,.4.4v.628a.416.416,0,0,0,.269.38l.006,0a.413.413,0,0,0,.458-.079l.444-.444a.4.4,0,0,1,.571,0l.561.561a.4.4,0,0,1,0,.571l-.444.444a.415.415,0,0,0-.08.458l0,.005a.415.415,0,0,0,.38.27H22.6A.4.4,0,0,1,23,4.6ZM20.2,5A1.2,1.2,0,1,0,19,6.2,1.2,1.2,0,0,0,20.2,5Z"/></svg>