<svg xmlns="http://www.w3.org/2000/svg" viewBox="0 0 24 24"><path d="M8.707,1.293a1,1,0,0,0-1.414,0l-.75.75a2.049,2.049,0,0,0-.6,1.457,2.42,2.42,0,0,0,.6,1.543l-1.25,1.25A1,1,0,0,0,6.707,7.707l1.25-1.25A2.049,2.049,0,0,0,8.561,5a2.42,2.42,0,0,0-.6-1.543l.75-.75A1,1,0,0,0,8.707,1.293Z"/><path d="M13.707,1.293a1,1,0,0,0-1.414,0l-.75.75a2.049,2.049,0,0,0-.6,1.457,2.42,2.42,0,0,0,.6,1.543l-1.25,1.25a1,1,0,0,0,1.414,1.414l1.25-1.25A2.049,2.049,0,0,0,13.561,5a2.42,2.42,0,0,0-.6-1.543l.75-.75A1,1,0,0,0,13.707,1.293Z"/><path d="M18.707,1.293a1,1,0,0,0-1.414,0l-.75.75a2.049,2.049,0,0,0-.6,1.457,2.42,2.42,0,0,0,.6,1.543l-1.25,1.25a1,1,0,0,0,1.414,1.414l1.25-1.25A2.049,2.049,0,0,0,18.561,5a2.42,2.42,0,0,0-.6-1.543l.75-.75A1,1,0,0,0,18.707,1.293Z"/><path d="M22,10H2a1,1,0,0,0-1,1,9.008,9.008,0,0,0,4.689,7.9l-2.4,2.4a1,1,0,0,0,1.414,1.414l3-3,.008-.012A8.971,8.971,0,0,0,10,20h4a8.971,8.971,0,0,0,2.285-.3l.008.012,3,3a1,1,0,0,0,1.414-1.414l-2.4-2.4A9.008,9.008,0,0,0,23,11,1,1,0,0,0,22,10Zm-1.3,3H16a1,1,0,0,0,0,2h3.736A6.992,6.992,0,0,1,14,18H10a6.992,6.992,0,0,1-5.736-3H12a1,1,0,0,0,0-2H3.3a7.045,7.045,0,0,1-.227-1H20.929A7.045,7.045,0,0,1,20.7,13Z"/></svg>