<svg xmlns="http://www.w3.org/2000/svg" viewBox="0 0 24 24"><path d="M8,6V7.441a.646.646,0,0,1-.186.449A.412.412,0,0,1,7.565,8a2.442,2.442,0,0,0-1.81.708A2.482,2.482,0,0,0,5,10.5V21a2,2,0,0,0,2,2H17a2,2,0,0,0,2-2V10.5A2.5,2.5,0,0,0,16.436,8a.327.327,0,0,1-.25-.111A.645.645,0,0,1,16,7.442V6.208A2.042,2.042,0,0,0,14,4H10A2,2,0,0,0,8,6Zm9,15H13V13h4ZM10,7.441V6l3.955-.023A.41.41,0,0,1,14,6.208V7.442a2.639,2.639,0,0,0,.79,1.88,2.357,2.357,0,0,0,1.7.678h0a.649.649,0,0,1,.362.142A.5.5,0,0,1,17,10.5V11H13a2,2,0,0,0-2,2v8H7V10.5a.5.5,0,0,1,.5-.5h.014a2.4,2.4,0,0,0,1.7-.678A2.64,2.64,0,0,0,10,7.441Z"/><path d="M14,3a1,1,0,0,0,0-2H10a1,1,0,0,0,0,2Z"/></svg>