<svg xmlns="http://www.w3.org/2000/svg" viewBox="0 0 24 24"><path d="M4,23h6a2,2,0,0,0,2-2V12A5,5,0,0,0,2,12v9A2,2,0,0,0,4,23ZM7,9a3.006,3.006,0,0,1,2.829,2H4.171A3.006,3.006,0,0,1,7,9ZM4,13h6v8H4Z"/><path d="M19.186,7.89A.644.644,0,0,1,19,7.442V6.208A2.042,2.042,0,0,0,17,4H13a2,2,0,0,0-2,2,1,1,0,0,0,2,0l3.955-.023A.414.414,0,0,1,17,6.208V7.442a2.637,2.637,0,0,0,.79,1.88,2.306,2.306,0,0,0,1.7.678.547.547,0,0,1,.363.142A.5.5,0,0,1,20,10.5V11H14a1,1,0,0,0,0,2h6v4H14a1,1,0,0,0,0,2h6v2H14a1,1,0,0,0,0,2h6a2,2,0,0,0,2-2V10.5a2.482,2.482,0,0,0-.755-1.791A2.452,2.452,0,0,0,19.435,8,.327.327,0,0,1,19.186,7.89Z"/><path d="M17,3a1,1,0,0,0,0-2H13a1,1,0,0,0,0,2Z"/><circle cx="8" cy="15" r="1"/><circle cx="6" cy="19" r="1"/></svg>