<svg xmlns="http://www.w3.org/2000/svg" viewBox="0 0 24 24"><path d="M15.729,5.622a1,1,0,0,0-1.415,0L12.99,6.946A1,1,0,1,0,14.4,8.36l1.325-1.324A1,1,0,0,0,15.729,5.622Z"/><path d="M16.964,8.271,15.639,9.6a1,1,0,1,0,1.414,1.414l1.325-1.324a1,1,0,1,0-1.414-1.415Z"/><path d="M22.707,8.076l-1.5-3.09A4.749,4.749,0,0,0,19.016,2.8l-3.093-1.5a2.994,2.994,0,0,0-3.421.6L8.88,5.518a3,3,0,0,0-.6,3.421l.776,1.593a1,1,0,0,1-.192,1.146L1.717,18.822a2.447,2.447,0,0,0,3.461,3.461l7.144-7.144a1,1,0,0,1,1.145-.192l1.595.776a3,3,0,0,0,3.421-.6L22.105,11.5a2.994,2.994,0,0,0,.6-3.421Zm-2.016,2.008-3.622,3.622a1,1,0,0,1-1.133.218l-1.6-.776a3,3,0,0,0-3.433.577L3.764,20.869a.448.448,0,0,1-.633-.633l7.144-7.144a3,3,0,0,0,.577-3.434l-.776-1.593a1,1,0,0,1,.218-1.133l3.623-3.623a.994.994,0,0,1,1.131-.218l3.094,1.5A2.736,2.736,0,0,1,19.405,5.86l1.5,3.09A1,1,0,0,1,20.691,10.084Z"/></svg>