<svg xmlns="http://www.w3.org/2000/svg" viewBox="0 0 24 24"><path d="M2,23a.993.993,0,0,0,.707-.293l8.3-8.3a6.3,6.3,0,0,0,.9.55,6.409,6.409,0,0,0,6.918-.771l3.811-3.119a1,1,0,0,0,.32-1.076l-2-6.3a1,1,0,0,0-.65-.65l-6.3-2a1,1,0,0,0-1.076.32L9.812,5.178A6.377,6.377,0,0,0,9.591,13l-8.3,8.3A1,1,0,0,0,2,23ZM11.359,6.443l2.689-3.285L19.2,4.8l1.638,5.156L17.557,12.64a4.4,4.4,0,0,1-6.2-6.2Z"/><path d="M12.519,10.111a1,1,0,0,0,.707-.293l2.8-2.8a1,1,0,1,0-1.414-1.414L11.812,8.4a1,1,0,0,0,.707,1.707Z"/><path d="M14.182,12.188a1,1,0,0,0,1.414,0l2.8-2.795a1,1,0,1,0-1.414-1.414l-2.8,2.795A1,1,0,0,0,14.182,12.188Z"/></svg>