<svg xmlns="http://www.w3.org/2000/svg" viewBox="0 0 24 24"><path d="M22,11h-.051a9.951,9.951,0,0,0-2.621-5.781l.492-.557a1,1,0,1,0-1.5-1.324l-.491.555a9.927,9.927,0,0,0-11.662,0l-.491-.555a1,1,0,0,0-1.5,1.324l.492.557A9.951,9.951,0,0,0,2.051,11H2a1,1,0,0,0,0,2h.051a9.957,9.957,0,0,0,2.621,5.781l-.492.557a1,1,0,1,0,1.5,1.324l.491-.555a9.927,9.927,0,0,0,11.662,0l.491.555a1,1,0,0,0,1.5-1.324l-.492-.557A9.957,9.957,0,0,0,21.949,13H22a1,1,0,0,0,0-2Zm-2.069,0H17.91a5.978,5.978,0,0,0-1.246-2.767L18,6.724A7.968,7.968,0,0,1,19.931,11ZM8,12a4,4,0,1,1,4,4A4,4,0,0,1,8,12Zm4-8a7.953,7.953,0,0,1,4.5,1.394L15.163,6.911a5.946,5.946,0,0,0-6.326,0L7.5,5.394A7.953,7.953,0,0,1,12,4ZM6,6.724,7.336,8.233A5.978,5.978,0,0,0,6.09,11H4.069A7.968,7.968,0,0,1,6,6.724ZM4.069,13H6.09a5.978,5.978,0,0,0,1.246,2.767L6,17.276A7.968,7.968,0,0,1,4.069,13ZM12,20a7.953,7.953,0,0,1-4.5-1.394l1.341-1.517a5.946,5.946,0,0,0,6.326,0L16.5,18.606A7.953,7.953,0,0,1,12,20Zm6-2.724-1.334-1.509A5.978,5.978,0,0,0,17.91,13h2.021A7.968,7.968,0,0,1,18,17.276Z"/><circle cx="12" cy="12" r="2"/></svg>