<svg xmlns="http://www.w3.org/2000/svg" viewBox="0 0 24 24"><path d="M12,23A8.994,8.994,0,0,0,15,5.525V4A3,3,0,0,0,9,4V5.525A8.994,8.994,0,0,0,12,23ZM5.085,12.964c.006-.038.011-.075.018-.112A34.293,34.293,0,0,0,12,13.5a34.293,34.293,0,0,0,6.9-.648c.007.037.012.074.018.112a6.438,6.438,0,0,1,.036,1.834A31.293,31.293,0,0,1,12,15.5a31.293,31.293,0,0,1-6.951-.7A6.44,6.44,0,0,1,5.085,12.964ZM12,21a7,7,0,0,1-6.329-4.029A35.585,35.585,0,0,0,12,17.5a35.585,35.585,0,0,0,6.329-.529A7,7,0,0,1,12,21ZM11,4a1,1,0,0,1,2,0V5.059a8.5,8.5,0,0,0-2,0Zm7.283,6.933A32.565,32.565,0,0,1,12,11.5a32.565,32.565,0,0,1-6.283-.567A7,7,0,0,1,18.283,10.933Z"/></svg>