<svg xmlns="http://www.w3.org/2000/svg" viewBox="0 0 24 24"><path d="M21.445,17.168,18.852,18.9,17.671,18.5a5.5,5.5,0,0,0,1.27-2.763l2.375-.792A1,1,0,0,0,22,14V9a1,1,0,0,0-2,0v4.279l-1.179.393A6.688,6.688,0,0,0,13,9.068V2a1,1,0,0,0-2,0V9.068a6.688,6.688,0,0,0-5.821,4.6L4,13.279V9A1,1,0,0,0,2,9v5a1,1,0,0,0,.684.948l2.375.792A5.5,5.5,0,0,0,6.329,18.5L5.148,18.9,2.555,17.168a1,1,0,0,0-1.11,1.664l3,2A1,1,0,0,0,5,21a.983.983,0,0,0,.316-.052l2.832-.943A7.507,7.507,0,0,0,9,20.413V22a1,1,0,0,0,2,0V20.932a7.387,7.387,0,0,0,2,0V22a1,1,0,0,0,2,0V20.413a7.507,7.507,0,0,0,.852-.408l2.832.943A.983.983,0,0,0,19,21a1,1,0,0,0,.555-.168l3-2a1,1,0,1,0-1.11-1.664ZM7,15c0-2.206,2.243-4,5-4s5,1.794,5,4-2.243,4-5,4S7,17.206,7,15Z"/></svg>