<svg xmlns="http://www.w3.org/2000/svg" viewBox="0 0 24 24"><path d="M12,1C8.046,1,4.285,6.2,3.358,10.078,1.805,16.539,5.689,23,12,23c5.554,0,9-5.111,9-10C21,6.452,15.615,1,12,1ZM5,13a10.018,10.018,0,0,1,.143-1.666A33.951,33.951,0,0,0,12,12a33.951,33.951,0,0,0,6.857-.666A10.084,10.084,0,0,1,19,13c0,.029,0,.063,0,.093A24.3,24.3,0,0,1,12,14a24.3,24.3,0,0,1-7-.907C5,13.063,5,13.029,5,13ZM11.989,3c2.663.058,5.456,3.849,6.372,6.391A32.388,32.388,0,0,1,12,10a32.388,32.388,0,0,1-6.361-.609C6.551,6.86,9.322,3.088,11.989,3ZM12,21c-4.012,0-5.962-3.1-6.672-5.737A27.973,27.973,0,0,0,12,16a27.973,27.973,0,0,0,6.672-.737C17.962,17.9,16.012,21,12,21Z"/></svg>