<svg xmlns="http://www.w3.org/2000/svg" viewBox="0 0 24 24"><path d="M2.514,17.874l9,5c.021.011.043.016.064.026s.051.021.078.031a.892.892,0,0,0,.688,0c.027-.01.052-.019.078-.031s.043-.015.064-.026l9-5A1,1,0,0,0,22,16.9L21,7V2a1,1,0,0,0-1.625-.781L14.649,5h-5.3L4.625,1.219A1,1,0,0,0,3,2l0,4.9-1,10A1,1,0,0,0,2.514,17.874ZM5,7V4.081l3.375,2.7A1,1,0,0,0,9,7h6a1,1,0,0,0,.625-.219L19,4.079l0,3.021.934,9.345L13,20.3V17.333l1.42-.946A1.3,1.3,0,0,0,15,15.3h0A1.3,1.3,0,0,0,13.7,14H10.3A1.3,1.3,0,0,0,9,15.3H9a1.3,1.3,0,0,0,.58,1.084l1.42.946V20.3L4.06,16.445Z"/><circle cx="8.5" cy="11" r="2"/><circle cx="15.5" cy="11" r="2"/></svg>