<svg xmlns="http://www.w3.org/2000/svg" viewBox="0 0 24 24"><path d="M21,5H17V3a2,2,0,0,0-2-2H9A2,2,0,0,0,7,3V5H3A2,2,0,0,0,1,7V19a2,2,0,0,0,2,2H21a2,2,0,0,0,2-2V7A2,2,0,0,0,21,5ZM16.09,19H7.91A6.008,6.008,0,0,0,3,14.09V11.91A6.008,6.008,0,0,0,7.91,7h8.18A6.008,6.008,0,0,0,21,11.91v2.18A6.008,6.008,0,0,0,16.09,19ZM21,7V9.873A4.015,4.015,0,0,1,18.126,7ZM9,3h6V5H9ZM3,7H5.874A4.015,4.015,0,0,1,3,9.873ZM3,19V16.127A4.015,4.015,0,0,1,5.874,19Zm18,0H18.126A4.015,4.015,0,0,1,21,16.127Z"/><path d="M12,9a4,4,0,1,0,4,4A4,4,0,0,0,12,9Zm0,6a2,2,0,1,1,2-2A2,2,0,0,1,12,15Z"/></svg>