<svg xmlns="http://www.w3.org/2000/svg" viewBox="0 0 24 24"><path d="M22,5H18.779A2.5,2.5,0,0,0,19,4c0-1.8-.681-3-4-3a3.662,3.662,0,0,0-3,2.259A3.662,3.662,0,0,0,9,1C5.681,1,5,2.2,5,4a2.5,2.5,0,0,0,.221,1H2A1,1,0,0,0,1,6v4a1,1,0,0,0,1,1H4V22a1,1,0,0,0,1,1H19a1,1,0,0,0,1-1V11h2a1,1,0,0,0,1-1V6A1,1,0,0,0,22,5ZM15,3c2,0,2,.293,2,1,0,.485-.7,1-2,1H13.391C13.825,3.965,14.446,3,15,3ZM7,4c0-.707,0-1,2-1,.554,0,1.175.965,1.609,2H9C7.7,5,7,4.485,7,4ZM6,11h6.758L6,17.757Zm5.242,10L18,14.243V21ZM18,11.415,8.414,21H6v-.415L15.586,11H18ZM21,9H3V7H21Z"/></svg>