<svg xmlns="http://www.w3.org/2000/svg" viewBox="0 0 24 24"><path d="M20.867,1.271a3.224,3.224,0,0,0-3.574.675L14.019,5.22a3.878,3.878,0,0,0-4.038,0L6.662,1.9a3.205,3.205,0,0,0-3.529-.63A3.464,3.464,0,0,0,1,4.456v8.4a3.465,3.465,0,0,0,2.133,3.184,3.344,3.344,0,0,0,1.3.271,3.239,3.239,0,0,0,2.269-.946l1.03-1.029L7.005,21.9a1,1,0,0,0,1.442.992L12,21.118,15.553,22.9A1,1,0,0,0,17,21.9l-.732-7.572,1.075,1.074a3.16,3.16,0,0,0,2.213.9,3.374,3.374,0,0,0,1.316-.273A3.465,3.465,0,0,0,23,12.851V4.456A3.464,3.464,0,0,0,20.867,1.271ZM14,8.653a2,2,0,1,1-2-2A2,2,0,0,1,14,8.653ZM5.271,13.968a1.21,1.21,0,0,1-1.358.225A1.474,1.474,0,0,1,3,12.851V4.456a1.475,1.475,0,0,1,.913-1.343,1.231,1.231,0,0,1,1.38.247L8.567,6.634A3.962,3.962,0,0,0,8.134,7.68,1.026,1.026,0,0,0,8,7.653H6a1,1,0,0,0,0,2H8a.884.884,0,0,0,.134-.027,3.955,3.955,0,0,0,.433,1.047Zm9.56,6.329-2.384-1.192a1,1,0,0,0-.894,0L9.169,20.3l.792-8.19.02-.02A3.947,3.947,0,0,0,11,12.511V15a1,1,0,0,0,2,0V12.511a3.947,3.947,0,0,0,1.019-.424l.02.02ZM21,12.851a1.474,1.474,0,0,1-.913,1.342,1.224,1.224,0,0,1-1.38-.247l-3.274-3.273a3.955,3.955,0,0,0,.433-1.047A.884.884,0,0,0,16,9.653h2a1,1,0,0,0,0-2H16a1.026,1.026,0,0,0-.134.027,3.962,3.962,0,0,0-.433-1.046l3.3-3.3a1.216,1.216,0,0,1,1.358-.226A1.475,1.475,0,0,1,21,4.456Z"/></svg>