<svg xmlns="http://www.w3.org/2000/svg" viewBox="0 0 24 24"><path d="M4,11A3,3,0,0,0,7,8V6A3,3,0,0,0,1,6V8A3,3,0,0,0,4,11ZM3,6A1,1,0,0,1,5,6V8A1,1,0,0,1,3,8Z"/><path d="M19,6a3,3,0,0,0-6,0V8a3,3,0,0,0,6,0ZM17,8a1,1,0,0,1-2,0V6a1,1,0,0,1,2,0Z"/><path d="M11,10V4A1,1,0,0,0,9,4v6a1,1,0,0,0,2,0Z"/><path d="M22,3a1,1,0,0,0-1,1v6a1,1,0,0,0,2,0V4A1,1,0,0,0,22,3Z"/><path d="M7,18V16a3,3,0,0,0-6,0v2a3,3,0,0,0,6,0ZM3,18V16a1,1,0,0,1,2,0v2a1,1,0,0,1-2,0Z"/><path d="M9,18a3,3,0,0,0,6,0V16a3,3,0,0,0-6,0Zm2-2a1,1,0,0,1,2,0v2a1,1,0,0,1-2,0Z"/><path d="M22,13a1,1,0,0,0-1,1v6a1,1,0,0,0,2,0V14A1,1,0,0,0,22,13Z"/><path d="M17,14v6a1,1,0,0,0,2,0V14a1,1,0,0,0-2,0Z"/></svg>