<svg xmlns="http://www.w3.org/2000/svg" viewBox="0 0 24 24"><path d="M21,2H15a1,1,0,0,0-1,1V9a1,1,0,0,0,1,1h1v2h2V10h2v2h2V3A1,1,0,0,0,21,2ZM18,8H16V4h4V8Z"/><path d="M3,10H9a1,1,0,0,0,1-1V3A1,1,0,0,0,9,2H3A1,1,0,0,0,2,3V9A1,1,0,0,0,3,10ZM4,4H8V8H4Z"/><rect x="3" y="16" width="2" height="2"/><rect x="3" y="20" width="2" height="2"/><rect x="5" y="18" width="2" height="2"/><polygon points="9 16 9 12 7 12 7 14 5 14 5 16 7 16 9 16"/><rect x="3" y="12" width="2" height="2"/><path d="M14,15v1H13V14H11v4h3v3a1,1,0,0,0,1,1h6a1,1,0,0,0,1-1V15a1,1,0,0,0-1-1H16V12H14Zm6,1v4H16V16Z"/><polygon points="9 20 7 20 7 22 12 22 12 20 11 20 11 18 9 18 9 20"/><rect x="11" y="4" width="2" height="2"/><rect x="11" y="8" width="2" height="4"/><rect x="5" y="5" width="2" height="2"/><rect x="17" y="5" width="2" height="2"/><rect x="17" y="17" width="2" height="2"/></svg>