<svg xmlns="http://www.w3.org/2000/svg" viewBox="0 0 24 24"><path d="M18,7a1,1,0,0,0-1-1H7A1,1,0,0,0,6,7V17a1,1,0,0,0,1,1H17a1,1,0,0,0,1-1Zm-2,9H8V8h8Z"/><rect x="11" y="2" width="2" height="2"/><rect x="16" y="2" width="2" height="2"/><rect x="6" y="2" width="2" height="2"/><polygon points="2 2 2 4 4 2 2 2"/><polygon points="22 2 20 2 22 4 22 2"/><rect x="11" y="20" width="2" height="2"/><rect x="16" y="20" width="2" height="2"/><rect x="6" y="20" width="2" height="2"/><rect x="20" y="11" width="2" height="2"/><rect x="20" y="16" width="2" height="2"/><rect x="20" y="6" width="2" height="2"/><rect x="2" y="11" width="2" height="2"/><rect x="2" y="16" width="2" height="2"/><rect x="2" y="6" width="2" height="2"/><polygon points="2 22 4 22 2 20 2 22"/><polygon points="22 22 22 20 20 22 22 22"/></svg>