<svg xmlns="http://www.w3.org/2000/svg" viewBox="0 0 24 24"><path d="M22,1H18a1,1,0,0,0-1,1V3H7V2A1,1,0,0,0,6,1H2A1,1,0,0,0,1,2V6A1,1,0,0,0,2,7H3V17H2a1,1,0,0,0-1,1v4a1,1,0,0,0,1,1H6a1,1,0,0,0,1-1V21H17v1a1,1,0,0,0,1,1h4a1,1,0,0,0,1-1V18a1,1,0,0,0-1-1H21V7h1a1,1,0,0,0,1-1V2A1,1,0,0,0,22,1ZM3,3H5V5H3ZM5,21H3V19H5Zm12-3v1H7V18a1,1,0,0,0-1-1H5V7H6A1,1,0,0,0,7,6V5H17V6a1,1,0,0,0,1,1h1V17H18A1,1,0,0,0,17,18Zm4,3H19V19h2ZM21,5H19V3h2Z"/><path d="M14,9a1,1,0,0,0,0-2H10a1,1,0,0,0,0,2h1v6H10a1,1,0,0,0,0,2h4a1,1,0,0,0,0-2H13V9Z"/></svg>