<svg xmlns="http://www.w3.org/2000/svg" viewBox="0 0 24 24"><path d="M20,3H4A3,3,0,0,0,1,6V18a3,3,0,0,0,3,3H20a3,3,0,0,0,3-3V6A3,3,0,0,0,20,3Zm1,15a1,1,0,0,1-1,1H4a1,1,0,0,1-1-1V6A1,1,0,0,1,4,5H20a1,1,0,0,1,1,1Z"/><path d="M18,15H6a1,1,0,0,0,0,2H18a1,1,0,0,0,0-2Z"/><path d="M6,9H8A1,1,0,0,0,8,7H6A1,1,0,0,0,6,9Z"/><path d="M11,9h2a1,1,0,0,0,0-2H11a1,1,0,0,0,0,2Z"/><path d="M18,7H16a1,1,0,0,0,0,2h2a1,1,0,0,0,0-2Z"/><path d="M6,13H8a1,1,0,0,0,0-2H6a1,1,0,0,0,0,2Z"/><path d="M11,13h2a1,1,0,0,0,0-2H11a1,1,0,0,0,0,2Z"/><path d="M18,11H16a1,1,0,0,0,0,2h2a1,1,0,0,0,0-2Z"/></svg>