<svg xmlns="http://www.w3.org/2000/svg" viewBox="0 0 24 24"><path d="M20,1H4A3,3,0,0,0,1,4V14a3,3,0,0,0,3,3H20a3,3,0,0,0,3-3V4A3,3,0,0,0,20,1Zm1,13a1,1,0,0,1-1,1H4a1,1,0,0,1-1-1V4A1,1,0,0,1,4,3H20a1,1,0,0,1,1,1Z"/><path d="M18,11H6a1,1,0,0,0,0,2H18a1,1,0,0,0,0-2Z"/><path d="M6,7H8A1,1,0,0,0,8,5H6A1,1,0,0,0,6,7Z"/><path d="M11,7h2a1,1,0,0,0,0-2H11a1,1,0,0,0,0,2Z"/><path d="M18,5H16a1,1,0,0,0,0,2h2a1,1,0,0,0,0-2Z"/><path d="M6,10H8A1,1,0,0,0,8,8H6a1,1,0,0,0,0,2Z"/><path d="M11,10h2a1,1,0,0,0,0-2H11a1,1,0,0,0,0,2Z"/><path d="M18,8H16a1,1,0,0,0,0,2h2a1,1,0,0,0,0-2Z"/><path d="M12.707,19.293a1,1,0,0,0-1.414,0l-2,2a1,1,0,0,0,1.414,1.414L12,21.414l1.293,1.293a1,1,0,0,0,1.414-1.414Z"/></svg>