<svg xmlns="http://www.w3.org/2000/svg" viewBox="0 0 24 24"><path d="M18.184,11.019c-.043-.253-1.237-7.419-1.2-7.184A1,1,0,0,0,16,3H12a1,1,0,0,0,0,2h3.153l.586,3.517L9.566,12.505a5.106,5.106,0,1,0,1.081,1.682l5.45-3.521.113.679a5,5,0,1,0,1.974-.326ZM6,19a3,3,0,0,1,0-6,2.967,2.967,0,0,1,1.821.633L5.458,15.16a1,1,0,1,0,1.084,1.68l2.37-1.531A2.972,2.972,0,0,1,9,16,3,3,0,0,1,6,19Zm12,0a2.99,2.99,0,0,1-1.449-5.611l.463,2.776a1,1,0,1,0,1.972-.33l-.463-2.782A3,3,0,0,1,18,19ZM8.707,6.293l2,2A1,1,0,1,1,9.293,9.707L7.586,8H6A1,1,0,0,1,6,6H8A1,1,0,0,1,8.707,6.293Z"/></svg>