<svg xmlns="http://www.w3.org/2000/svg" viewBox="0 0 24 24"><path d="M12,1A11,11,0,1,0,23,12,11.013,11.013,0,0,0,12,1Zm0,20a9,9,0,1,1,9-9A9.01,9.01,0,0,1,12,21ZM12,4a8.006,8.006,0,0,0-7.908,6.851l0,.007,0,.032c-.022.159-.041.317-.054.478C4.012,11.588,4,11.8,4,12a8,8,0,0,0,.08,1.067c.012.089.025.177.04.266a8.111,8.111,0,0,0,.226.989c0,.014.006.028.01.042l0,0a8.039,8.039,0,0,0,5.274,5.273l0,0c.01,0,.02,0,.03.006a7.953,7.953,0,0,0,1,.23c.087.015.174.028.262.04A8.028,8.028,0,0,0,12,20a8.028,8.028,0,0,0,1.069-.08c.088-.012.175-.025.262-.04a7.953,7.953,0,0,0,1-.23c.01,0,.02,0,.03-.006l0,0a8.039,8.039,0,0,0,5.274-5.273l0,0c0-.014.005-.028.01-.042a8.111,8.111,0,0,0,.226-.989c.015-.089.028-.177.04-.266A8,8,0,0,0,20,12c0-.2-.012-.412-.032-.632-.013-.161-.032-.319-.054-.478l0-.032,0-.007A8.006,8.006,0,0,0,12,4Zm0,2a6,6,0,0,1,5.65,4H6.35A6,6,0,0,1,12,6ZM6.906,15.155a2.993,2.993,0,0,1,1.939,1.939A6.046,6.046,0,0,1,6.906,15.155Zm8.249,1.939a2.993,2.993,0,0,1,1.939-1.939A6.046,6.046,0,0,1,15.155,17.094Zm2.77-4.193c0,.034-.01.067-.016.1A5,5,0,0,0,13,17.909l-.1.017a6.2,6.2,0,0,1-1.794,0l-.1-.017A5,5,0,0,0,6.091,13c-.006-.034-.011-.067-.016-.1A6.029,6.029,0,0,1,6,12H18A6.029,6.029,0,0,1,17.925,12.9Z"/></svg>