<svg xmlns="http://www.w3.org/2000/svg" viewBox="0 0 24 24"><path d="M20,10h-.341L17.18,4.214A2,2,0,0,0,15.341,3H4.754A2.008,2.008,0,0,0,2.831,4.451L1.038,10.726a1.019,1.019,0,0,0-.005.111A.889.889,0,0,0,1,11v5a2,2,0,0,0,2,2h.142a3.981,3.981,0,0,0,7.716,0h2.284a3.981,3.981,0,0,0,7.716,0H21a2,2,0,0,0,2-2V13A3,3,0,0,0,20,10ZM12,5h3.341l2.142,5H12ZM4.754,5H10v5H3.325ZM7,19a2,2,0,1,1,2-2A2,2,0,0,1,7,19Zm10,0a2,2,0,1,1,2-2A2,2,0,0,1,17,19Zm4-3h-.142a3.981,3.981,0,0,0-7.716,0H10.858a3.981,3.981,0,0,0-7.716,0H3V12H20a1,1,0,0,1,1,1Z"/></svg>