<svg xmlns="http://www.w3.org/2000/svg" viewBox="0 0 24 24"><path d="M11.27,1.023A11.2,11.2,0,0,0,1,12.343V14a6.006,6.006,0,0,0,5,5.91V22a1,1,0,0,0,2,0V19.91a5.994,5.994,0,0,0,3.769-2.284A9.008,9.008,0,0,0,20,23a1,1,0,0,0,.98-.8l2-10A1.807,1.807,0,0,0,23,12,11,11,0,0,0,11.27,1.023ZM7,15a1,1,0,1,1,1-1A1,1,0,0,1,7,15Zm12.189,5.953A7.009,7.009,0,0,1,13,14V13h7.78ZM12,11a1,1,0,0,0-1,1v2a4,4,0,0,1-3,3.858V16.816a3,3,0,1,0-2,0v1.042A4,4,0,0,1,3,14V12.343A9.2,9.2,0,0,1,11.4,3.02,9.006,9.006,0,0,1,20.946,11Z"/></svg>