<svg xmlns="http://www.w3.org/2000/svg" viewBox="0 0 24 24"><path d="M16,3a1,1,0,0,0-.707,1.707,1.81,1.81,0,0,1,.591.9,5.958,5.958,0,0,0-5.184-.94A2.519,2.519,0,0,0,9,6.95C8.95,7.976,8.659,8,8.219,8.046A4.542,4.542,0,0,1,5.1,7.072L2.6,5.2A1,1,0,0,0,1,6V9a1.006,1.006,0,0,0,.168.555l1.713,2.569A4.989,4.989,0,1,0,10.9,16.988a17,17,0,0,0,2.2-.044,5,5,0,1,0,8.438-4.478C23,11.216,23,8.91,23,8,23,4.045,18.421,3,16,3ZM6,19a3,3,0,1,1,3-3A3,3,0,0,1,6,19Zm12,0a3,3,0,0,1-3-3v-.021A3,3,0,1,1,18,19Zm1.478-7.752a4.912,4.912,0,0,0-6.352,3.666,14.66,14.66,0,0,1-2.228.08A5.009,5.009,0,0,0,6,11a4.952,4.952,0,0,0-1.33.2L3,8.7V8l.9.671a6.519,6.519,0,0,0,4.515,1.366c1.625-.156,2.5-1.161,2.588-2.987.009-.175.049-.375.419-.517a4.287,4.287,0,0,1,3.875,1.174,1,1,0,0,0,1.154.188,2.706,2.706,0,0,0,1.412-1.86,2.368,2.368,0,0,0-.01-.814C19.273,5.527,21,6.258,21,8,21,9.839,20.731,11.023,19.478,11.248Z"/></svg>