<svg xmlns="http://www.w3.org/2000/svg" viewBox="0 0 24 24"><path d="M23,18.667a4.332,4.332,0,0,1-7.667,2.766,4.328,4.328,0,0,1-6.666,0A4.332,4.332,0,0,1,1,18.667a1,1,0,0,1,2,0,2.334,2.334,0,0,0,4.667,0,1,1,0,0,1,2,0,2.333,2.333,0,1,0,4.666,0,1,1,0,1,1,2,0,2.334,2.334,0,0,0,4.667,0,1,1,0,0,1,2,0ZM17.02,16.8l.858-4.293L12,9.152,6.122,12.511,6.98,16.8a1,1,0,0,1-1.96.392l-1-5A1,1,0,0,1,4.5,11.132L6,10.277V6A2,2,0,0,1,8,4h3V2a1,1,0,0,1,2,0V4h3a2,2,0,0,1,2,2v4.277l1.5.855A1,1,0,0,1,19.98,12.2l-1,5A1,1,0,0,1,18,18a.948.948,0,0,1-.2-.02A1,1,0,0,1,17.02,16.8ZM16,6H8V9.134l3.5-2a1,1,0,0,1,.992,0l3.5,2Z"/></svg>