<svg xmlns="http://www.w3.org/2000/svg" viewBox="0 0 24 24"><path d="M6.018,14.182V4A2.991,2.991,0,0,1,7.075,1.717,3.032,3.032,0,0,1,9.524,1.04a3.088,3.088,0,0,1,2.509,3.071V8H14a1,1,0,0,1,0,2H11.033a1,1,0,0,1-1-1V4.111a1.089,1.089,0,0,0-.829-1.1A1.006,1.006,0,0,0,8.018,4V16.575a1,1,0,0,1-1.706.708L4.8,15.774a1.1,1.1,0,0,0-1.37-.19,1,1,0,0,0-.134,1.526L6.32,20.126A2.985,2.985,0,0,0,8.438,21h6.068a2.985,2.985,0,0,0,2.118-.874,6.824,6.824,0,0,0,1.925-3.839l.422-2.942a1,1,0,1,1,1.979.283l-.422,2.942a8.833,8.833,0,0,1-2.492,4.972A4.972,4.972,0,0,1,14.506,23H8.438a4.966,4.966,0,0,1-3.529-1.458L1.882,18.526a3,3,0,0,1,.38-4.567A3.087,3.087,0,0,1,6.018,14.182Zm16.688-8.89-4-4a1,1,0,0,0-1.414,1.414L19.586,5H15a1,1,0,0,0,0,2h4.586L17.293,9.293a1,1,0,1,0,1.414,1.414l4-4A1,1,0,0,0,22.706,5.292Z"/></svg>