<svg xmlns="http://www.w3.org/2000/svg" viewBox="0 0 24 24"><path d="M5.448,22.342A6.272,6.272,0,0,0,8.236,23h7.27a4.923,4.923,0,0,0,3.456-1.385c2.948-2.87,2.573-6.268,2.988-7.986a4.935,4.935,0,0,0-2.506-5.023h0c-1.672-.939-3.217-.489-6.41-.606V4.111a3.087,3.087,0,0,0-2.509-3.07A3.005,3.005,0,0,0,7.018,4L7.011,9.987H7a5.006,5.006,0,0,0-5,5v1.777A6.2,6.2,0,0,0,5.448,22.342ZM4,14.987a3,3,0,0,1,3-3h.01V15a1,1,0,0,0,2,0V11l.008-7A1.007,1.007,0,0,1,10.2,3.014a1.09,1.09,0,0,1,.83,1.1V9a1,1,0,0,0,1,1c4.587.092,5.4-.225,6.431.35a2.946,2.946,0,0,1,1.506,3c-.414,1.794-.05,4.546-2.4,6.836A2.969,2.969,0,0,1,15.506,21H8.236a4.267,4.267,0,0,1-1.894-.447A4.213,4.213,0,0,1,4,16.764Z"/></svg>