<svg xmlns="http://www.w3.org/2000/svg" viewBox="0 0 24 24"><polygon points="13.18 10.632 12 7 10.82 10.632 7 10.82 10.09 12.464 8.91 17 12 14.13 15.09 17 13.91 12.464 17 10.82 13.18 10.632"/><path d="M13,4V2a1,1,0,0,0-2,0V4a1,1,0,0,0,2,0Z"/><path d="M11,20v2a1,1,0,0,0,2,0V20a1,1,0,0,0-2,0Z"/><path d="M19.778,4.222a1,1,0,0,0-1.414,0L16.95,5.636A1,1,0,1,0,18.364,7.05l1.414-1.414A1,1,0,0,0,19.778,4.222Z"/><path d="M4.222,19.778a1,1,0,0,0,1.414,0L7.05,18.364A1,1,0,0,0,5.636,16.95L4.222,18.364A1,1,0,0,0,4.222,19.778Z"/><path d="M22,11H20a1,1,0,0,0,0,2h2a1,1,0,0,0,0-2Z"/><path d="M2,13H4a1,1,0,0,0,0-2H2a1,1,0,0,0,0,2Z"/><path d="M18.364,19.778a1,1,0,0,0,1.414-1.414L18.364,16.95a1,1,0,0,0-1.414,1.414Z"/><path d="M7.05,7.05a1,1,0,0,0,0-1.414L5.636,4.222A1,1,0,0,0,4.222,5.636L5.636,7.05a1,1,0,0,0,1.414,0Z"/></svg>