<svg xmlns="http://www.w3.org/2000/svg" viewBox="0 0 24 24"><path d="M12,23c10.207,0,11-7.634,11-9.974,0-5.406-3.8-7.594-5.8-8A1,1,0,0,0,16.1,6.455a3.686,3.686,0,0,1,.469,2.407c-.087.141-.429.157-.573.157-.788,0-1.145-1.009-1.286-1.61-.452-1.912.128-4.212.734-4.514A1,1,0,0,0,14.9,1c-.29.029-6.168.68-9.177,5.512A2.3,2.3,0,0,1,5.9,5.453,1,1,0,0,0,4.444,4.176C4.3,4.27,1,6.54,1,12.023,1,19.2,4.8,23,12,23ZM3.887,7.95a13.987,13.987,0,0,0,.605,2.071,1,1,0,0,0,1.9-.081,9.506,9.506,0,0,1,6.475-6.423,8.966,8.966,0,0,0-.1,4.352c.472,2,1.651,3.15,3.232,3.15a2.471,2.471,0,0,0,2.274-1.105,3.145,3.145,0,0,0,.338-2.072A5.971,5.971,0,0,1,21,13.026C21,16,19.831,21,12,21c-6.056,0-9-2.937-9-8.977A9,9,0,0,1,3.887,7.95Z"/></svg>