<svg xmlns="http://www.w3.org/2000/svg" viewBox="0 0 24 24"><path d="M9,21a1,1,0,0,0,1-1V19a2,2,0,0,1,4,0v.78A1.223,1.223,0,0,0,15.228,21,7.7,7.7,0,0,0,23,13.73,7.5,7.5,0,0,0,15.5,6H13V4a1,1,0,0,0-2,0V6H8.772A7.7,7.7,0,0,0,1,13.27a7.447,7.447,0,0,0,2.114,5.453A7.81,7.81,0,0,0,9,21ZM8.772,8H15.5A5.5,5.5,0,0,1,21,13.67a5.643,5.643,0,0,1-5,5.279,4,4,0,0,0-8,.029A5.5,5.5,0,0,1,3,13.33,5.684,5.684,0,0,1,8.772,8Z"/><path d="M6,13.5H7v1a1,1,0,0,0,2,0v-1h1a1,1,0,0,0,0-2H9v-1a1,1,0,0,0-2,0v1H6a1,1,0,0,0,0,2Z"/><circle cx="18" cy="11" r="1"/><circle cx="16" cy="14" r="1"/></svg>