<svg xmlns="http://www.w3.org/2000/svg" viewBox="0 0 24 24"><path d="M12,1C6.359,1,1,4.957,1,11c0,.622.423,4.166,2.294,4.877a1.854,1.854,0,0,0,.774.111,7.993,7.993,0,0,0,15.865,0,1.6,1.6,0,0,0,.773-.106C22.577,15.169,23,11.625,23,11,23,5.1,17.835,1,12,1Zm4.538,3.087a4.991,4.991,0,0,1-9.076,0A10.285,10.285,0,0,1,16.538,4.087ZM12,21a6.005,6.005,0,0,1-5.995-6.213A9.487,9.487,0,0,1,12,12a9.324,9.324,0,0,1,6,2.785A6.005,6.005,0,0,1,12,21Zm8.041-7.021C19.791,13.83,16.637,10,12,10c-4.572,0-7.7,3.772-8.041,3.977A5.855,5.855,0,0,1,3,11,7.4,7.4,0,0,1,5.784,5.174a6.962,6.962,0,0,0,12.432,0A7.4,7.4,0,0,1,21,11,5.855,5.855,0,0,1,20.041,13.979Z"/><path d="M10,14a1,1,0,0,0-1,1v1a1,1,0,0,0,2,0V15A1,1,0,0,0,10,14Z"/><path d="M14,14a1,1,0,0,0-1,1v1a1,1,0,0,0,2,0V15A1,1,0,0,0,14,14Z"/></svg>