<svg xmlns="http://www.w3.org/2000/svg" viewBox="0 0 24 24"><path d="M20,6H17A5,5,0,0,0,7,6H4A1,1,0,0,0,3,7v4.184A1,1,0,0,0,3.423,12c.607.43.912,0,1.577,0a2,2,0,0,1,0,4,1.979,1.979,0,0,1-.666-.126A1,1,0,0,0,3,16.816V22a1,1,0,0,0,1,1H9.184a1,1,0,0,0,.942-1.334,1.992,1.992,0,1,1,3.748,0A1,1,0,0,0,14.816,23H20a1,1,0,0,0,1-1V16.816a1,1,0,0,0-1.334-.942A1.979,1.979,0,0,1,19,16a2,2,0,0,1,0-4c.65,0,.985.42,1.577,0A1,1,0,0,0,21,11.184V7A1,1,0,0,0,20,6Zm-1,4a4,4,0,0,0,0,8v3H16a4,4,0,0,0-8,0H5V18a4,4,0,0,0,0-8V8H8.142a1,1,0,0,0,.791-.388.994.994,0,0,0,.176-.862,3,3,0,1,1,5.782,0A1,1,0,0,0,15.858,8H19Z"/></svg>