<svg xmlns="http://www.w3.org/2000/svg" viewBox="0 0 24 24"><path d="M6,19H2a1,1,0,0,0,0,2H6a1,1,0,0,0,0-2Z"/><path d="M6,15H2a1,1,0,0,0,0,2H6a1,1,0,0,0,0-2Z"/><path d="M6,11H2a1,1,0,0,0,0,2H6a1,1,0,0,0,0-2Z"/><path d="M14,19H10a1,1,0,0,0,0,2h4a1,1,0,0,0,0-2Z"/><path d="M14,15H10a1,1,0,0,0,0,2h4a1,1,0,0,0,0-2Z"/><path d="M14,11H10a1,1,0,0,0,0,2h4a1,1,0,0,0,0-2Z"/><path d="M14,7H10a1,1,0,0,0,0,2h4a1,1,0,0,0,0-2Z"/><path d="M14,3H10a1,1,0,0,0,0,2h4a1,1,0,0,0,0-2Z"/><path d="M22,19H18a1,1,0,0,0,0,2h4a1,1,0,0,0,0-2Z"/><path d="M22,15H18a1,1,0,0,0,0,2h4a1,1,0,0,0,0-2Z"/></svg>