<svg xmlns="http://www.w3.org/2000/svg" viewBox="0 0 24 24"><path d="M13,15V3a1,1,0,0,0-2,0V15a1,1,0,0,0,2,0Z"/><path d="M5,15V8A1,1,0,0,0,3,8v7a1,1,0,0,0,2,0Z"/><path d="M8,11a1,1,0,0,0-1,1v3a1,1,0,0,0,2,0V12A1,1,0,0,0,8,11Z"/><path d="M16,5a1,1,0,0,0-1,1v9a1,1,0,0,0,2,0V6A1,1,0,0,0,16,5Z"/><path d="M21,15V10a1,1,0,0,0-2,0v5a1,1,0,0,0,2,0Z"/><polygon points="2 20 2 22 6 22 6 20 4 18 2 20"/><polygon points="10 20 10 22 14 22 14 20 12 18 10 20"/><polygon points="18 20 18 22 22 22 22 20 20 18 18 20"/></svg>