<svg xmlns="http://www.w3.org/2000/svg" viewBox="0 0 24 24"><path d="M4.222,4.222a11.012,11.012,0,0,0,0,15.556,1,1,0,0,0,1.414-1.414,9.01,9.01,0,0,1,0-12.728A1,1,0,0,0,4.222,4.222Z"/><path d="M18.364,18.364a1,1,0,1,0,1.414,1.414,11.012,11.012,0,0,0,0-15.556,1,1,0,1,0-1.414,1.414A9.01,9.01,0,0,1,18.364,18.364Z"/><path d="M7.379,17.692l.036.035a.941.941,0,0,0,.65.261,1.018,1.018,0,0,0,.728-.316,1.031,1.031,0,0,0-.036-1.429,6.008,6.008,0,0,1,0-8.486A1,1,0,1,0,7.343,6.343,8.02,8.02,0,0,0,7.379,17.692Z"/><path d="M15.351,6.387A1,1,0,0,0,15.337,7.8a6.019,6.019,0,0,1-.044,8.442,1,1,0,1,0,1.414,1.414A8.025,8.025,0,0,0,16.765,6.4,1,1,0,0,0,15.351,6.387Z"/><path d="M12,9a3,3,0,1,0,3,3A3,3,0,0,0,12,9Zm0,4a1,1,0,1,1,1-1A1,1,0,0,1,12,13Z"/></svg>