<svg xmlns="http://www.w3.org/2000/svg" viewBox="0 0 24 24"><path d="M12,8a3.005,3.005,0,0,1,2.25,1.016,1,1,0,0,0,1.5-1.323,5,5,0,0,0-8.593,4.556,1,1,0,0,0,1.938-.5A3,3,0,0,1,12,8Z"/><path d="M3,12h.06a8.92,8.92,0,0,0,.595,2.375,1,1,0,1,0,1.853-.75A7,7,0,1,1,18.78,9.25a1,1,0,0,0,1.936-.5,8.968,8.968,0,0,0-1.683-3.369l.038-.038a1,1,0,0,0-1.414-1.414l-.041.041A8.982,8.982,0,0,0,13,2.062V2a1,1,0,0,0-2,0v.059A8.956,8.956,0,0,0,6.389,3.975l-.046-.046A1,1,0,0,0,4.929,5.343l.046.046A8.956,8.956,0,0,0,3.059,10H3a1,1,0,0,0,0,2Z"/><path d="M2,20c.352,0,.674-.035,1-.066V22a1,1,0,0,0,2,0V19.54a9.631,9.631,0,0,0,2-.891V22a1,1,0,0,0,2,0V17.18c.81-.7,1.258-1.149,2-1.822V22a1,1,0,0,0,2,0V13.827a5.84,5.84,0,0,1,2-.739V22a1,1,0,0,0,2,0V13.08a6.364,6.364,0,0,1,2,.649V22a1,1,0,0,0,2,0V15.337c.1.12.158.2.17.222a1,1,0,0,0,1.662-1.114A8.479,8.479,0,0,0,16,11c-3.279,0-5.218,1.813-7.092,3.568S5.24,18,2,18a1,1,0,0,0,0,2Z"/></svg>