<svg xmlns="http://www.w3.org/2000/svg" viewBox="0 0 24 24"><path d="M22,7H17V2a1,1,0,0,0-1-1H8A1,1,0,0,0,7,2V7H2A1,1,0,0,0,1,8V22a1,1,0,0,0,1,1H22a1,1,0,0,0,1-1V8A1,1,0,0,0,22,7ZM3,9H7V21H3ZM9,8V3h6V21H13V19a1,1,0,0,0-2,0v2H9ZM21,21H17V9h4Z"/><rect x="11" y="5" width="2" height="2"/><rect x="11" y="9" width="2" height="2"/><rect x="11" y="13" width="2" height="2"/><rect x="4" y="10" width="2" height="2"/><rect x="4" y="14" width="2" height="2"/><rect x="4" y="18" width="2" height="2"/><rect x="18" y="10" width="2" height="2"/><rect x="18" y="14" width="2" height="2"/><rect x="18" y="18" width="2" height="2"/></svg>