<svg xmlns="http://www.w3.org/2000/svg" viewBox="0 0 24 24"><path d="M22.372,5.071l-10-4A1,1,0,0,0,11,2V6H2A1,1,0,0,0,1,7V22a1,1,0,0,0,1,1H22a1,1,0,0,0,1-1V6A1,1,0,0,0,22.372,5.071ZM3,8h8V21H3ZM13,21V3.477l8,3.2V8H15v2h6v2H15v2h6v2H15v2h6v3Z"/><rect x="7" y="12" width="3" height="2"/><rect x="4" y="12" width="2" height="2"/><rect x="7" y="9" width="3" height="2"/><rect x="4" y="9" width="2" height="2"/><rect x="7" y="15" width="3" height="2"/><rect x="4" y="15" width="2" height="2"/><rect x="7" y="18" width="3" height="2"/><rect x="4" y="18" width="2" height="2"/></svg>