<svg xmlns="http://www.w3.org/2000/svg" viewBox="0 0 24 24"><path d="M22,11H19V2a1,1,0,0,0-1-1H6A1,1,0,0,0,5,2V7H2A1,1,0,0,0,1,8V22a1,1,0,0,0,1,1H22a1,1,0,0,0,1-1V12A1,1,0,0,0,22,11Zm-9,1v9H3V9H13Zm1-5H7V3H17v8H15V8A1,1,0,0,0,14,7Zm7,14H19V19a1,1,0,0,0-2,0v2H15V13h6Z"/><rect x="4" y="10" width="2" height="2"/><rect x="8" y="10" width="4" height="2"/><rect x="4" y="14" width="2" height="2"/><rect x="8" y="14" width="4" height="2"/><rect x="4" y="18" width="2" height="2"/><rect x="8" y="18" width="4" height="2"/></svg>