<svg xmlns="http://www.w3.org/2000/svg" viewBox="0 0 24 24"><path d="M22,1H18a1,1,0,0,0-1,1V9H15V7a1,1,0,0,0-1.447-.895L9,8.382V7a1,1,0,0,0-1.447-.895l-6,3A1,1,0,0,0,1,10V22a1,1,0,0,0,1,1H22a1,1,0,0,0,1-1V2A1,1,0,0,0,22,1ZM21,3V5H19V3ZM3,21V10.618l4-2V10a1,1,0,0,0,1.447.895L13,8.618V10a1,1,0,0,0,1,1h4a1,1,0,0,0,1-1V7h2V21Z"/><rect x="5" y="13" width="3" height="2"/><rect x="10" y="13" width="4" height="2"/><rect x="16" y="13" width="3" height="2"/><rect x="5" y="17" width="3" height="2"/><rect x="10" y="17" width="4" height="2"/><rect x="16" y="17" width="3" height="2"/></svg>