<svg xmlns="http://www.w3.org/2000/svg" viewBox="0 0 24 24"><path d="M22,1a1,1,0,0,0-1,1V9H17.578c1.09-2.756-.082-5.27-2.712-6.638S12.245,1,12,1a1.016,1.016,0,0,0-.462.112l-2.4,1.25C6.5,3.729,5.332,6.244,6.422,9H3V2A1,1,0,0,0,1,2V22a1,1,0,0,0,1,1H22a1,1,0,0,0,1-1V2A1,1,0,0,0,22,1ZM10.057,4.138C11.077,3.606,11.664,3.3,12,3.127l1.943,1.011c2.117,1.1,2.6,2.95,1.44,4.862H8.617C7.463,7.09,7.937,5.239,10.057,4.138ZM11,21V18a1,1,0,0,1,2,0v3Zm10,0H15V18a3,3,0,0,0-6,0v3H3V11H21Z"/><rect x="4" y="12" width="16" height="2"/><rect x="16" y="16" width="4" height="2"/><rect x="4" y="16" width="4" height="2"/></svg>