<svg xmlns="http://www.w3.org/2000/svg" viewBox="0 0 24 24"><path d="M22,11H17V6a1,1,0,0,0-.293-.707l-4-4a1,1,0,0,0-1.414,0l-4,4A1,1,0,0,0,7,6v5H2a1,1,0,0,0-1,1V22a1,1,0,0,0,1,1H22a1,1,0,0,0,1-1V12A1,1,0,0,0,22,11ZM3,13H7v8H3Zm6-1V6.414l3-3,3,3V21H13.5V19.5a1.5,1.5,0,0,0-3,0V21H9Zm12,9H17V13h4Z"/><rect x="4" y="14" width="2" height="2"/><rect x="4" y="18" width="2" height="2"/><rect x="18" y="14" width="2" height="2"/><rect x="18" y="18" width="2" height="2"/><circle cx="12" cy="7.5" r="1.5"/></svg>