<svg xmlns="http://www.w3.org/2000/svg" viewBox="0 0 24 24"><path d="M22,11H17V4a1,1,0,0,0-1-1H13V2a1,1,0,0,0-2,0V3H8A1,1,0,0,0,7,4v7H2a1,1,0,0,0-1,1V22a1,1,0,0,0,1,1H22a1,1,0,0,0,1-1V12A1,1,0,0,0,22,11ZM3,13H7v8H3Zm6-1V5h6V21H9Zm12,9H17V13h4Z"/><rect x="10" y="6" width="4" height="2"/><rect x="10" y="10" width="4" height="2"/><rect x="10" y="14" width="4" height="2"/><rect x="4" y="14" width="2" height="2"/><rect x="4" y="18" width="2" height="2"/><rect x="18" y="14" width="2" height="2"/><rect x="18" y="18" width="2" height="2"/><rect x="10" y="18" width="4" height="2"/></svg>