<svg xmlns="http://www.w3.org/2000/svg" viewBox="0 0 24 24"><path d="M19,15a3.947,3.947,0,0,0-2.019.567l-1.548-1.548a3.916,3.916,0,0,0-.484-4.7l.933-2.332c.04,0,.078.012.118.012a3.03,3.03,0,1,0-1.974-.757l-.789,1.973a3.791,3.791,0,0,0-3.256.351L6.707,5.293,6.7,5.287A2.957,2.957,0,0,0,7,4,3,3,0,1,0,4,7a2.96,2.96,0,0,0,1.287-.3l.006.009L8.567,9.981A3.908,3.908,0,0,0,9.01,14.63L6.17,18.1A2.474,2.474,0,0,0,5.5,18a2.53,2.53,0,1,0,2.218,1.369l2.955-3.613a3.82,3.82,0,0,0,3.346-.323l1.548,1.548A3.947,3.947,0,0,0,15,19a4,4,0,1,0,4-4ZM4,5A1,1,0,1,1,5,4,1,1,0,0,1,4,5Zm6,7a2,2,0,1,1,2,2A2,2,0,0,1,10,12Zm9,9a2,2,0,1,1,2-2A2,2,0,0,1,19,21Zm1-11a2,2,0,1,1-2,2A2,2,0,0,1,20,10ZM4,13a2,2,0,1,1,2-2A2,2,0,0,1,4,13ZM23,7a1,1,0,1,1-1-1A1,1,0,0,1,23,7ZM2,15a1,1,0,1,1-1,1A1,1,0,0,1,2,15Z"/></svg>