<svg xmlns="http://www.w3.org/2000/svg" viewBox="0 0 24 24"><path d="M19,1a3.976,3.976,0,0,0-3.268,1.729,9.917,9.917,0,0,0-7.464,0,3.984,3.984,0,1,0-5.539,5.54A9.941,9.941,0,0,0,2,12c0,5.192,4.276,11,10,11s10-5.808,10-11a9.941,9.941,0,0,0-.729-3.731A3.984,3.984,0,0,0,19,1ZM3.667,6.478A1.978,1.978,0,0,1,3,5,2,2,0,0,1,5,3a1.978,1.978,0,0,1,1.478.667A10.3,10.3,0,0,0,3.667,6.478ZM12,21c-4.579,0-8-4.751-8-9a8,8,0,0,1,16,0C20,16.249,16.579,21,12,21ZM17.522,3.667A1.978,1.978,0,0,1,19,3a2,2,0,0,1,2,2,1.978,1.978,0,0,1-.667,1.478A10.407,10.407,0,0,0,17.522,3.667ZM16,15.5c0,1.038-.836,3-4,3s-4-1.962-4-3a1,1,0,0,1,2,0c.008.111.109.644,1,.882V15.051L9.617,12.426A.954.954,0,0,1,10.368,11h3.264a.954.954,0,0,1,.751,1.426L13,15.051v1.331c.891-.239.992-.778,1-.911a1.029,1.029,0,0,1,1.032-.952A.984.984,0,0,1,16,15.5Z"/></svg>