<svg xmlns="http://www.w3.org/2000/svg" viewBox="0 0 24 24"><path d="M23,4.459a3.851,3.851,0,0,0-.558-1.973,1.04,1.04,0,0,0-1.716,0,2.018,2.018,0,0,1-3.452,0,1,1,0,0,0-1.716,0A3.851,3.851,0,0,0,15,4.459a3.931,3.931,0,0,0,3,3.78V9.268a10.548,10.548,0,0,0-6-1.916A10.548,10.548,0,0,0,6,9.268V8.239a3.931,3.931,0,0,0,3-3.78,3.851,3.851,0,0,0-.558-1.973,1.04,1.04,0,0,0-1.716,0,2.018,2.018,0,0,1-3.452,0,1,1,0,0,0-1.716,0A3.851,3.851,0,0,0,1,4.459a3.931,3.931,0,0,0,3,3.78v2.773A12.639,12.639,0,0,0,2.111,13.73a1,1,0,0,0,0,.918,12.757,12.757,0,0,0,1.177,1.859l-1.651.642a1,1,0,0,0,.726,1.864l2.364-.921q.277.257.568.492L3.352,20.238a1,1,0,0,0,1.3,1.524l2.372-2.02a10.292,10.292,0,0,0,9.96,0l2.372,2.02a1,1,0,0,0,1.3-1.524L18.7,18.584q.291-.235.568-.492l2.364.921a1,1,0,0,0,.726-1.864l-1.651-.642a12.843,12.843,0,0,0,1.177-1.859,1,1,0,0,0,0-.918A12.639,12.639,0,0,0,20,11.012V8.239A3.931,3.931,0,0,0,23,4.459Zm-5.93.505a4.126,4.126,0,0,0,3.86,0,2.024,2.024,0,0,1-3.86,0Zm-14,0a4.126,4.126,0,0,0,3.86,0,2.024,2.024,0,0,1-3.86,0Zm1.069,9.225A9.217,9.217,0,0,1,12,9.352a9.217,9.217,0,0,1,7.861,4.837A9.217,9.217,0,0,1,12,19.027,9.217,9.217,0,0,1,4.139,14.189Z"/></svg>