<svg xmlns="http://www.w3.org/2000/svg" viewBox="0 0 24 24"><path d="M18.624,6.425a1,1,0,0,0-1.314.169A9.336,9.336,0,0,0,15.171,11h-2.3l2.964-4.445a1,1,0,0,0-1.664-1.11L10.465,11H9.618L10.9,8.447a1,1,0,0,0-1.79-.894L7.382,11H6.519A12.379,12.379,0,0,0,2.5,7.132,1,1,0,0,0,1,8v8a1,1,0,0,0,1.5.868A12.379,12.379,0,0,0,6.519,13h.863l1.723,3.447a1,1,0,1,0,1.79-.894L9.618,13h.847l3.7,5.555a1,1,0,0,0,1.664-1.11L12.868,13h2.148a9.4,9.4,0,0,0,1.4,4.755,1,1,0,0,0,1.31.359,12.62,12.62,0,0,0,5.163-5.661,1,1,0,0,0,0-.906A13.53,13.53,0,0,0,18.624,6.425ZM3,14.054V9.946A11.26,11.26,0,0,1,4.807,12,11.3,11.3,0,0,1,3,14.054Zm14.65,1.768a7.454,7.454,0,0,1,.6-7.17A12.037,12.037,0,0,1,20.869,12,11.22,11.22,0,0,1,17.65,15.822Z"/></svg>