<svg xmlns="http://www.w3.org/2000/svg" viewBox="0 0 24 24"><path d="M14.949,1.684a1,1,0,0,1-.633,1.265A3.366,3.366,0,0,0,12,6.007,1,1,0,0,1,11,7h-.008A1,1,0,0,1,10,6a5.361,5.361,0,0,1,3.684-4.949A1,1,0,0,1,14.949,1.684Zm-1.9,4a.994.994,0,0,0,.623,1.254A.969.969,0,0,0,14,6.993a1.011,1.011,0,0,0,.946-.665A2.622,2.622,0,0,1,17.9,4.818a1,1,0,0,0,.2-1.99A4.623,4.623,0,0,0,13.051,5.684ZM10,8a3.958,3.958,0,0,1,2,.545A3.958,3.958,0,0,1,14,8a3.992,3.992,0,0,1,1.964,7.472A3.882,3.882,0,0,1,16,16a4,4,0,0,1-8,0,3.882,3.882,0,0,1,.036-.528A3.992,3.992,0,0,1,10,8Zm1.331,2.521A1.979,1.979,0,0,0,10,10a1.993,1.993,0,0,0-.519,3.919,1,1,0,0,1,.667,1.337,2,2,0,1,0,3.7,0,1,1,0,0,1,.667-1.337,1.992,1.992,0,1,0-1.85-3.4A1,1,0,0,1,11.331,10.521ZM23,8a2.994,2.994,0,0,1-2.116,2.852A19.439,19.439,0,0,1,21,14,9,9,0,0,1,3,14a18.7,18.7,0,0,1,.121-3.147A2.991,2.991,0,1,1,5.878,5.672,8.96,8.96,0,0,1,7.5,4.451a1,1,0,0,1,1,1.733A7.121,7.121,0,0,0,5,12.246V14a7,7,0,0,0,14,0V12.246a7.1,7.1,0,0,0-1.75-4.63,1,1,0,0,1,.089-1.411.972.972,0,0,1,.442-.212A2.993,2.993,0,0,1,23,8ZM4.573,7.183A1,1,0,0,0,3,8a1,1,0,0,0,.642.934A10.991,10.991,0,0,1,4.573,7.183ZM21,8a1,1,0,0,0-1.569-.819,9.585,9.585,0,0,1,.933,1.751A1,1,0,0,0,21,8Z"/></svg>