<svg xmlns="http://www.w3.org/2000/svg" viewBox="0 0 24 24"><path d="M4.164,11.635A1,1,0,0,0,2.75,10.221l-1.031,1.03a2.457,2.457,0,0,0,3.475,3.475l3.07-3.071L9.6,12.988,4.81,17.775a1,1,0,1,0,1.414,1.414L11.012,14.4l1.333,1.333L9.274,18.806a2.457,2.457,0,1,0,3.475,3.474l1.03-1.03a1,1,0,0,0-1.414-1.414l-1.031,1.03a.457.457,0,0,1-.646-.646l3.778-3.778L16.407,14.5l5.684-.517a1,1,0,0,0,.858-1.312c-2.9-8.667-2.727-8.337-2.96-8.592-.311-.344-.373-.215-8.661-3.028a1,1,0,0,0-1.312.857L9.5,7.593,7.557,9.534,3.779,13.312a.457.457,0,0,1-.645-.647ZM11.719,8.2a8.8,8.8,0,0,1,6.609-2.53,8.781,8.781,0,0,1-2.529,6.61h0l-2.039,2.04-4.08-4.08Zm6.657,4.112A12.455,12.455,0,0,0,19.79,9.521l.862,2.585ZM11.893,3.348l2.586.862a12.713,12.713,0,0,0-2.793,1.414Z"/></svg>