<svg xmlns="http://www.w3.org/2000/svg" viewBox="0 0 24 24"><path d="M19,1a3.979,3.979,0,0,0-3.268,1.729,9.917,9.917,0,0,0-7.464,0,3.984,3.984,0,1,0-5.539,5.54A9.941,9.941,0,0,0,2,12c0,8.11,5.166,11,10,11s10-2.89,10-11a9.941,9.941,0,0,0-.729-3.731A3.984,3.984,0,0,0,19,1ZM12,21c-5.084,0-8-3.28-8-9a8,8,0,0,1,16,0C20,17.72,17.084,21,12,21Zm4-5c0,1.038-.836,3-4,3s-4-1.962-4-3a1,1,0,0,1,2,0c.008.111.109.644,1,.882V14.991l-1.383-2.1a.765.765,0,0,1,.751-1.14h3.264a.765.765,0,0,1,.751,1.14L13,14.991v1.891c.891-.239.992-.778,1-.911a1.047,1.047,0,0,1,1.03-.952A.984.984,0,0,1,16,16ZM7.514,11.472c-2,0-2-3,0-4s3,0,3,0S10.514,11.472,7.514,11.472Zm8.972-.028c-3,0-3-4-3-4s1-1,3,0S18.486,11.444,16.486,11.444Z"/></svg>