<svg xmlns="http://www.w3.org/2000/svg" viewBox="0 0 24 24"><path d="M6,13.858V15H4.75a1,1,0,0,0-.8.4l-.75,1a1,1,0,0,0-.057,1.115l3,5a1,1,0,0,0,1.714,0l3-5A1,1,0,0,0,10.8,16.4l-.75-1a1,1,0,0,0-.8-.4H8V13.858A3.981,3.981,0,0,0,8,6.142V5H9A1,1,0,0,0,9,3H8V2A1,1,0,0,0,6,2V3H5A1,1,0,0,0,5,5H6V6.142a3.981,3.981,0,0,0,0,7.716Zm2.8,3.2L7,20.057,5.2,17.063,5.25,17h3.5ZM7,8a2,2,0,1,1-2,2A2,2,0,0,1,7,8Z"/><path d="M21,10a4,4,0,0,0-3-3.858V5h1a1,1,0,0,0,0-2H18V2a1,1,0,0,0-2,0V3H15a1,1,0,0,0,0,2h1V6.142a3.981,3.981,0,0,0,0,7.716V15H14.75a1,1,0,0,0-.8.4l-.75,1a1,1,0,0,0-.057,1.115l3,5a1,1,0,0,0,1.714,0l3-5A1,1,0,0,0,20.8,16.4l-.75-1a1,1,0,0,0-.8-.4H18V13.858A4,4,0,0,0,21,10Zm-2.2,7.063L17,20.057l-1.8-2.994L15.25,17h3.5ZM15,10a2,2,0,1,1,2,2A2,2,0,0,1,15,10Z"/></svg>