<svg xmlns="http://www.w3.org/2000/svg" viewBox="0 0 24 24"><path d="M14,14H10a1,1,0,0,0,0,2h4a1,1,0,0,0,0-2Z"/><path d="M20.789,5.276l-.705-.352-1.492-.746A8.813,8.813,0,0,0,12,1,8.846,8.846,0,0,0,5.408,4.178l-1.492.746-.7.352A3.98,3.98,0,0,0,1,8.854V18a1,1,0,0,0,1,1H5v3a1,1,0,0,0,1,1H18a1,1,0,0,0,1-1V19h3a1,1,0,0,0,1-1V8.854A3.98,3.98,0,0,0,20.789,5.276ZM21,8.854V14H19c.137-2.476-.452-4.394.994-6.879A1.985,1.985,0,0,1,21,8.854ZM7,10.728A9.464,9.464,0,0,0,5.812,6.212l.265-.132L9,7.054V9a1,1,0,0,0,2,0V7.72A3.729,3.729,0,0,0,12,8a3.674,3.674,0,0,0,1-.28V11a1,1,0,0,0,2,0V7.054l2.923-.974.265.132A9.471,9.471,0,0,0,17,10.728V18H7ZM12,3a6.2,6.2,0,0,1,4.137,1.567L12,5.946,7.863,4.567A6.2,6.2,0,0,1,12,3ZM4.006,7.121C5.454,9.617,4.862,11.506,5,14H3V8.854A1.987,1.987,0,0,1,4.006,7.121ZM3,17V16H5v1Zm4,4V20H17v1Zm12-4V16h2v1Z"/></svg>