<svg xmlns="http://www.w3.org/2000/svg" viewBox="0 0 24 24"><path d="M23,20a13.185,13.185,0,0,0-4.333-9.689,1,1,0,0,0-1.334,1.49,10.987,10.987,0,0,1,2.416,3.121H13a1,1,0,0,0,0,2h7.557a11.008,11.008,0,0,1,.4,2.078H9a1,1,0,0,0,0,2H22A1,1,0,0,0,23,20Z"/><path d="M1.293,22.707a1,1,0,0,0,1.414,0l6.078-6.078h0L22.707,2.707a1,1,0,0,0-1.414-1.414l-6.6,6.6A12.891,12.891,0,0,0,10,7H3V5h9a1,1,0,0,0,0-2H2A1,1,0,0,0,1,4V20a.993.993,0,0,0,.656.93l-.363.363A1,1,0,0,0,1.293,22.707ZM13.124,9.462l-5.46,5.46H3V9h7A10.951,10.951,0,0,1,13.124,9.462ZM3,19V16.922H5.664L3.586,19Z"/></svg>