<svg xmlns="http://www.w3.org/2000/svg" viewBox="0 0 24 24"><path d="M15.185,1.018a1,1,0,1,0-.37,1.964C18.341,3.647,21,5.805,21,8c0,2.71-4.122,5-9,5S3,10.71,3,8c0-2.2,2.659-4.353,6.185-5.018a1,1,0,1,0-.37-1.964C4.287,1.871,1,4.808,1,8c0,3.049,2.922,5.578,7.116,6.558A.985.985,0,0,0,8,15v6a1,1,0,0,0,.684.948l3,1a.986.986,0,0,0,.632,0l3-1A1,1,0,0,0,16,21V15a.985.985,0,0,0-.116-.442C20.078,13.578,23,11.049,23,8,23,4.808,19.713,1.871,15.185,1.018ZM14,20.279l-2,.667-2-.667V15.721l2-.667,2,.667Z"/></svg>