<svg xmlns="http://www.w3.org/2000/svg" viewBox="0 0 24 24"><path d="M2,23H22a1,1,0,0,0,1-1V6a1,1,0,0,0-1-1H19V2a1.018,1.018,0,0,0-1-1H6A1.022,1.022,0,0,0,5,2V5H2A1,1,0,0,0,1,6V22A1,1,0,0,0,2,23ZM7,3.868l3.011,2.008L7,7.382Zm10,0V7.382L13.989,5.876ZM14.7,3,12,4.8,9.3,3ZM3,7H5V9a1,1,0,0,0,1,1c.442,0,.444-.143,5-2.382V11a1,1,0,0,0,2,0V7.618C17.66,9.908,17.581,10,18,10a1,1,0,0,0,1-1V7h2V21H3Z"/><path d="M12,13a1,1,0,0,0-1,1v1a1,1,0,0,0,2,0V14A1,1,0,0,0,12,13Z"/><path d="M12,17a1,1,0,0,0-1,1v1a1,1,0,0,0,2,0V18A1,1,0,0,0,12,17Z"/><path d="M19,12H15a1,1,0,0,0,0,2h4a1,1,0,0,0,0-2Z"/></svg>