<svg xmlns="http://www.w3.org/2000/svg" viewBox="0 0 24 24"><path d="M2.734,19.68,6.2,15.942l1.863,1.864L4.321,21.267a1,1,0,1,0,1.358,1.466l4.334-4.012a17.267,17.267,0,0,0,2.811-1.086l1.561,4.681a1,1,0,0,0,.826.676.994.994,0,0,0,.966-.455l5.834-9.167A1,1,0,0,0,22,12.279l-1.47-2.206A17.151,17.151,0,0,0,21.94,6.358l1.03-4.115A1,1,0,0,0,21.758,1.03L17.643,2.059a17.17,17.17,0,0,0-3.717,1.412L11.721,2A1,1,0,0,0,10.63,1.99L1.463,7.823a1,1,0,0,0,.221,1.792l4.681,1.561a17.162,17.162,0,0,0-1.085,2.81L1.266,18.32a1,1,0,0,0,1.468,1.36Zm12.883.01L14.6,16.625a17.262,17.262,0,0,0,4.794-4.655l.585.876ZM18.127,4l2.5-.624L20,5.873A15.243,15.243,0,0,1,9.788,16.707l-2.495-2.5A15.244,15.244,0,0,1,18.127,4ZM4.31,8.382l6.844-4.355.876.584A17.254,17.254,0,0,0,7.376,9.4Zm9.845,1.463a1.667,1.667,0,1,1,2.357,0A1.666,1.666,0,0,1,14.155,9.845Z"/></svg>