<svg xmlns="http://www.w3.org/2000/svg" viewBox="0 0 24 24"><path d="M18.861,12.831a1,1,0,0,0-1.414,0l-1.6,1.6-.893-.893.831-.832a3.139,3.139,0,0,0,.9-1.9A4.157,4.157,0,0,0,20.4,9.63a1,1,0,0,0,0-1.414l-1.6-1.6,1.6-1.6A1,1,0,1,0,18.985,3.6l-1.6,1.6-1.6-1.6a1,1,0,0,0-1.414,0A4.25,4.25,0,0,0,13.191,7.32a3.151,3.151,0,0,0-1.9.9l-.832.832-.893-.894,1.6-1.6a1,1,0,0,0,0-1.414L7.322,1.293a1,1,0,0,0-1.414,0L1.293,5.908a1,1,0,0,0,0,1.414l3.846,3.847a1,1,0,0,0,1.414,0l1.6-1.6.893.894-.831.831a3.142,3.142,0,0,0-.9,1.9A4.25,4.25,0,0,0,3.6,14.37a1,1,0,0,0,0,1.414l1.6,1.6-1.6,1.6A1,1,0,0,0,5.015,20.4l1.6-1.6,1.6,1.6a1,1,0,0,0,1.414,0,4.142,4.142,0,0,0,1.18-3.719,3.151,3.151,0,0,0,1.9-.9l.832-.831.893.893-1.6,1.6a1,1,0,0,0,0,1.414l3.847,3.846a1,1,0,0,0,1.414,0l4.615-4.615a1,1,0,0,0,0-1.414ZM15.242,5.887l2.871,2.871a2.263,2.263,0,0,1-2.871-2.871ZM8.759,18.114,5.887,15.242a2.265,2.265,0,0,1,2.872,2.872ZM5.846,9.048,3.414,6.615l3.2-3.2L9.047,5.846Zm8.524,2.245L11.293,14.37A1.176,1.176,0,0,1,9.63,12.707L12.707,9.63a1.176,1.176,0,0,1,1.663,1.663Zm3.015,9.293-2.433-2.432,3.2-3.2,2.432,2.433Z"/></svg>