<svg xmlns="http://www.w3.org/2000/svg" viewBox="0 0 24 24"><path d="M23,11a5.021,5.021,0,0,1-2.5,4.331,1,1,0,0,1-1-1.732A3,3,0,0,0,18,8a2.979,2.979,0,0,0-1,.188A1,1,0,0,1,15.73,7.6a3.977,3.977,0,0,0-7.46,0A1,1,0,0,1,7,8.188,2.961,2.961,0,0,0,3,11a3.011,3.011,0,0,0,1.5,2.6,1,1,0,0,1-1,1.732A5,5,0,0,1,6,6a4.608,4.608,0,0,1,.783.067,5.971,5.971,0,0,1,10.434,0A4.608,4.608,0,0,1,18,6,5.006,5.006,0,0,1,23,11ZM12,14a1,1,0,0,0,1-1V12a1,1,0,0,0-2,0v1A1,1,0,0,0,12,14Zm-1,6a1,1,0,0,0,2,0V19a1,1,0,0,0-2,0Zm3.121-7.536-.707.708a1,1,0,1,0,1.414,1.414l.707-.708a1,1,0,0,0-1.414-1.414ZM9.879,19.536l.707-.708a1,1,0,0,0-1.414-1.414l-.707.708a1,1,0,1,0,1.414,1.414ZM16,15H15a1,1,0,0,0,0,2h1a1,1,0,0,0,0-2ZM7,16a1,1,0,0,0,1,1H9a1,1,0,0,0,0-2H8A1,1,0,0,0,7,16Zm6.414,2.828.707.708a1,1,0,0,0,1.414-1.414l-.707-.708a1,1,0,0,0-1.414,1.414ZM9.879,12.464a1,1,0,0,0-1.414,1.414l.707.708a1,1,0,1,0,1.414-1.414Z"/></svg>