<svg xmlns="http://www.w3.org/2000/svg" viewBox="0 0 24 24"><path d="M6.252,10.751A4.222,4.222,0,0,0,5.6,10.7a4.6,4.6,0,0,0,0,9.2,1,1,0,1,0,0-2,2.6,2.6,0,0,1,0-5.2,2.549,2.549,0,0,1,.863.162,1,1,0,0,0,1.272-.589,3.488,3.488,0,0,1,6.53,0,1.03,1.03,0,0,0,1.272.589,2.317,2.317,0,0,1,1.255-.122A2.594,2.594,0,0,1,16.4,17.9a1,1,0,1,0,0,2,4.587,4.587,0,0,0,2.386-8.513A4.789,4.789,0,0,0,19,10,4.987,4.987,0,0,0,9.328,8.277,5.549,5.549,0,0,0,6.252,10.751ZM14,7a3,3,0,0,1,3,3,2.769,2.769,0,0,1-.1.731,4.884,4.884,0,0,0-1.153.02,5.518,5.518,0,0,0-4.024-2.7A2.974,2.974,0,0,1,14,7Zm9,3a1,1,0,0,1-1,1H21a1,1,0,0,1,0-2h1A1,1,0,0,1,23,10ZM14,4a1,1,0,0,1-1-1V2a1,1,0,0,1,2,0V3A1,1,0,0,1,14,4Zm4.95,2.05a1,1,0,0,1-.707-1.707l.707-.707A1,1,0,1,1,20.364,5.05l-.707.707A1,1,0,0,1,18.95,6.05ZM8.343,5.757,7.636,5.05A1,1,0,1,1,9.05,3.636l.707.707A1,1,0,1,1,8.343,5.757Zm-.05,15.536L10.586,19H9a1,1,0,0,1-.707-1.707l4-4a1,1,0,0,1,1.414,1.414L11.414,17H13a1,1,0,0,1,.707,1.707l-4,4a1,1,0,0,1-1.414-1.414Z"/></svg>