<svg xmlns="http://www.w3.org/2000/svg" viewBox="0 0 24 24"><path d="M21.242,7.757A5.96,5.96,0,0,1,23,12a5,5,0,0,1-1.693,3.75,1,1,0,0,1-1.323-1.5A3,3,0,0,0,21,12a4.045,4.045,0,0,0-4.083-4,3.686,3.686,0,0,0-2.376.873,1,1,0,0,1-1.606-.635A4.978,4.978,0,0,0,7.787,4,5.194,5.194,0,0,0,3,9.271a5.7,5.7,0,0,0,2.724,4.878,1,1,0,0,1-1.051,1.7A7.687,7.687,0,0,1,1,9.271,7.212,7.212,0,0,1,7.705,2.006a6.964,6.964,0,0,1,6.838,4.518A5.571,5.571,0,0,1,17.021,6h0A5.947,5.947,0,0,1,21.242,7.757ZM8,22a1,1,0,0,0,2,0V21a1,1,0,0,0-2,0Zm8,0a1,1,0,0,0,2,0V21a1,1,0,0,0-2,0ZM9,19a1,1,0,0,0,1-1V13a1,1,0,0,0-2,0v5A1,1,0,0,0,9,19Zm8,0a1,1,0,0,0,1-1V13a1,1,0,0,0-2,0v5A1,1,0,0,0,17,19Zm-5,1a1,1,0,0,0,2,0V19a1,1,0,0,0-2,0Zm1-3a1,1,0,0,0,1-1V11a1,1,0,0,0-2,0v5A1,1,0,0,0,13,17Z"/></svg>