<svg xmlns="http://www.w3.org/2000/svg" viewBox="0 0 24 24"><path d="M23,11a5.021,5.021,0,0,1-2.5,4.331,1,1,0,0,1-1-1.732A3,3,0,0,0,18,8a2.979,2.979,0,0,0-1,.188A1,1,0,0,1,15.73,7.6,4.013,4.013,0,0,0,12,5,3.962,3.962,0,0,0,8.27,7.6,1,1,0,0,1,7,8.188,2.965,2.965,0,0,0,6,8a3,3,0,0,0-1.5,5.6,1,1,0,1,1-1,1.732A5,5,0,0,1,6,6a4.608,4.608,0,0,1,.783.067,5.971,5.971,0,0,1,10.434,0A4.608,4.608,0,0,1,18,6,5.006,5.006,0,0,1,23,11ZM7,15a1,1,0,0,0,1-1V12a1,1,0,0,0-2,0v2A1,1,0,0,0,7,15ZM6,20a1,1,0,0,0,2,0V18a1,1,0,0,0-2,0Zm11-5a1,1,0,0,0,1-1V12a1,1,0,0,0-2,0v2A1,1,0,0,0,17,15Zm-1,5a1,1,0,0,0,2,0V18a1,1,0,0,0-2,0Zm-4-8a1,1,0,0,0,1-1V9a1,1,0,0,0-2,0v2A1,1,0,0,0,12,12Zm-1,5a1,1,0,0,0,2,0V15a1,1,0,0,0-2,0Z"/></svg>