<svg xmlns="http://www.w3.org/2000/svg" viewBox="0 0 24 24"><path d="M12,6a6.006,6.006,0,0,1,6,6,1,1,0,0,1-2,0,4,4,0,0,0-8,0,1,1,0,0,1-2,0A6.006,6.006,0,0,1,12,6Zm1-2V3a1,1,0,0,0-2,0V4a1,1,0,0,0,2,0Zm5.364,1.292L17.657,6a1,1,0,0,0,1.414,1.415l.707-.707a1,1,0,0,0-1.414-1.416ZM19,12a1,1,0,0,0,1,1h1a1,1,0,0,0,0-2H20A1,1,0,0,0,19,12ZM2,12a1,1,0,0,0,1,1H4a1,1,0,0,0,0-2H3A1,1,0,0,0,2,12ZM4.221,5.293a1,1,0,0,0,0,1.415l.707.707A1,1,0,1,0,6.343,6l-.707-.708A1,1,0,0,0,4.221,5.293ZM22,14H2a1,1,0,0,0,0,2H22a1,1,0,0,0,0-2Zm-2,4a1,1,0,0,0-1-1H5a1,1,0,0,0,0,2H19A1,1,0,0,0,20,18ZM8,20a1,1,0,0,0,0,2h8a1,1,0,0,0,0-2Z"/></svg>