<svg xmlns="http://www.w3.org/2000/svg" viewBox="0 0 24 24"><path d="M11,16a2.99,2.99,0,0,1,2-2.816V5a1,1,0,0,1,2,0v8.184A2.995,2.995,0,1,1,11,16ZM10,5a4,4,0,0,1,8,0v5.262A7,7,0,0,1,13.984,23a7.177,7.177,0,0,1-.826-.049,7.067,7.067,0,0,1-6.071-5.835A6.986,6.986,0,0,1,10,10.261ZM9.063,16.809a5.038,5.038,0,0,0,4.328,4.155A5,5,0,0,0,19,16a5.013,5.013,0,0,0-2.5-4.325,1,1,0,0,1-.5-.865V5a2,2,0,0,0-4,0v5.81a1,1,0,0,1-.5.865A5,5,0,0,0,9.063,16.809ZM4,5H8A1,1,0,0,0,8,3H4A1,1,0,0,0,4,5ZM9,8A1,1,0,0,0,8,7H6A1,1,0,0,0,6,9H8A1,1,0,0,0,9,8Z"/></svg>