<svg xmlns="http://www.w3.org/2000/svg" viewBox="0 0 24 24"><path d="M17.751,8.285a5.96,5.96,0,0,0-.826-1.713,1,1,0,1,1,1.64-1.144,7.938,7.938,0,0,1,1.1,2.287A1,1,0,0,1,19,8.959,1.046,1.046,0,0,1,18.709,9,1,1,0,0,1,17.751,8.285ZM4.332,7.715a1,1,0,0,0,.673,1.244A1.046,1.046,0,0,0,5.291,9a1,1,0,0,0,.958-.715,5.96,5.96,0,0,1,.826-1.713,1,1,0,0,0-1.64-1.144A7.938,7.938,0,0,0,4.332,7.715ZM21,22a1,1,0,0,1-1,1H4a1,1,0,0,1,0-2H7.236l1.022-3.746A3.64,3.64,0,0,1,3.5,15.825h0a3.659,3.659,0,0,1,1.307-5L8.346,8.753v-4.1a3.654,3.654,0,0,1,7.308,0v4.1l3.538,2.071a3.659,3.659,0,0,1,1.307,5h0a3.63,3.63,0,0,1-4.757,1.429L16.764,21H20A1,1,0,0,1,21,22Zm-7.031-8.082,2.54,1.487a1.651,1.651,0,0,0,2.263-.591h0a1.655,1.655,0,0,0-.592-2.262l-2.533-1.484A3.774,3.774,0,0,1,13.969,13.918ZM10.346,7.6A3.934,3.934,0,0,1,12,7.193a3.864,3.864,0,0,1,1.654.407V4.654a1.654,1.654,0,0,0-3.308,0Zm3.3,3.147A1.648,1.648,0,1,0,12,12.5,1.664,1.664,0,0,0,13.644,10.746Zm-3.613,3.172a3.74,3.74,0,0,1-1.679-2.851L5.819,12.551a1.655,1.655,0,0,0-.592,2.262h0a1.651,1.651,0,0,0,2.263.591ZM14.691,21l-1.409-5.166L12,15.083l-.211.124-1.071.627L9.309,21Z"/></svg>