<svg xmlns="http://www.w3.org/2000/svg" viewBox="0 0 24 24"><path d="M20.707,1.293a1,1,0,0,0-1.414,0l-2,2A1,1,0,0,0,17,4V8.132L14.059,6.171A2.983,2.983,0,0,0,15,4a1,1,0,0,0-2,0,1,1,0,0,1-1,1h0a1,1,0,0,1,0-2,1,1,0,0,0,0-2A2.992,2.992,0,0,0,9.941,6.171L7,8.132V4a1,1,0,0,0-.293-.707l-2-2a1,1,0,0,0-1.414,0l-2,2A1,1,0,0,0,1,4V22a1,1,0,0,0,1,1H22a1,1,0,0,0,1-1V4a1,1,0,0,0-.293-.707ZM3,4.414l1-1,1,1V21H3Zm4,6.121L12,7.2l5,3.333V21H15V18a3,3,0,0,0-6,0v3H7ZM11,21V18a1,1,0,0,1,2,0v3Zm10,0H19V4.414l1-1,1,1Zm-6-8H9V11h6Z"/></svg>