<svg xmlns="http://www.w3.org/2000/svg" viewBox="0 0 24 24"><path d="M3,8a1,1,0,0,0,.707-.293l4-4A1,1,0,0,0,6.293,2.293l-4,4A1,1,0,0,0,3,8Z"/><path d="M19.793,15.793l-4,4a1,1,0,1,0,1.414,1.414l4-4a1,1,0,0,0-1.414-1.414Z"/><path d="M21.707,9.293a1,1,0,0,0-1.414,0l-11,11a1,1,0,1,0,1.414,1.414l11-11A1,1,0,0,0,21.707,9.293Z"/><path d="M3,15a1,1,0,0,0,.707-.293l11-11a1,1,0,1,0-1.414-1.414l-11,11A1,1,0,0,0,3,15Z"/><path d="M3,22a1,1,0,0,0,.707-.293l18-18a1,1,0,1,0-1.414-1.414l-18,18A1,1,0,0,0,3,22Z"/></svg>