<svg xmlns="http://www.w3.org/2000/svg" viewBox="0 0 24 24"><path d="M18.884,9.65l2.323-2.323a3.122,3.122,0,1,0-4.414-4.415L15.022,4.683l-.233-.3a1,1,0,0,0-1.5-.093L10.686,6.9c-1.562-.342-4.278-.724-5.393.392C4.6,7.987,3.369,9.864,3,10c-1.856,0-2,2.9-2,7a3.38,3.38,0,0,0,2.005,3.182,2.431,2.431,0,0,0,2.7-.474,18.973,18.973,0,0,0,2.419-3.788l7.546,5.87a1,1,0,0,0,1.321-.082l5.714-5.714a1,1,0,0,0,.082-1.322Zm-.677-5.324a1.121,1.121,0,0,1,1.586,1.586L17.647,8.059,16.259,6.274ZM4.293,18.293a.487.487,0,0,1-.522.041A1.384,1.384,0,0,1,3,17a19.516,19.516,0,0,1,.364-5.037c1.434-.293,2.39-2.3,3.335-3.249A4.579,4.579,0,0,1,8.945,8.64L5.293,12.292a1,1,0,0,0,.093,1.5l1.137.885A20.57,20.57,0,0,1,4.293,18.293ZM16.2,19.669,7.508,12.905l6.4-6.4,2.316,2.978-2.868,2.869a1,1,0,1,0,1.414,1.414l2.691-2.692,3.21,4.127Z"/></svg>