<svg xmlns="http://www.w3.org/2000/svg" viewBox="0 0 24 24"><path d="M3,6A1,1,0,0,0,4,5V4H5A1,1,0,0,0,5,2H3A1,1,0,0,0,2,3V5A1,1,0,0,0,3,6Z"/><path d="M2,15a1,1,0,0,0,1,1H5a1,1,0,0,0,0-2H4V13a1,1,0,0,0-2,0Z"/><path d="M9,18a1,1,0,0,0-1,1v2a1,1,0,0,0,1,1h2a1,1,0,0,0,0-2H10V19A1,1,0,0,0,9,18Z"/><path d="M21,18a1,1,0,0,0-1,1v1H19a1,1,0,0,0,0,2h2a1,1,0,0,0,1-1V19A1,1,0,0,0,21,18Z"/><path d="M22,9a1,1,0,0,0-1-1H19a1,1,0,0,0,0,2h1v1a1,1,0,0,0,2,0Z"/><path d="M15,2H13a1,1,0,0,0,0,2h1V5a1,1,0,0,0,2,0V3A1,1,0,0,0,15,2Z"/><path d="M8,9v6a1,1,0,0,0,1,1h6a1,1,0,0,0,1-1V9a1,1,0,0,0-1-1H9A1,1,0,0,0,8,9Zm2,1h4v4H10Z"/><path d="M14,20a1,1,0,0,0,0,2h2a1,1,0,0,0,0-2Z"/><path d="M22,14a1,1,0,0,0-2,0v2a1,1,0,0,0,2,0Z"/><path d="M2,10a1,1,0,0,0,2,0V8A1,1,0,0,0,2,8Z"/><path d="M10,2H8A1,1,0,0,0,8,4h2a1,1,0,0,0,0-2Z"/></svg>