<svg xmlns="http://www.w3.org/2000/svg" viewBox="0 0 24 24"><path d="M2.5,22.864a1,1,0,0,0,1.368-.36L7.635,16.04A10.577,10.577,0,0,0,11,16.952V20a1,1,0,0,0,2,0V16.952a10.577,10.577,0,0,0,3.365-.912L20.136,22.5A1,1,0,1,0,21.864,21.5l-3.756-6.44A12.127,12.127,0,0,0,20.8,12.6a1,1,0,0,0-1.6-1.2,10.241,10.241,0,0,1-2.108,1.92L14.962,9.664A3.966,3.966,0,0,0,13,3.142V2a1,1,0,0,0-2,0V3.142A3.966,3.966,0,0,0,9.038,9.664L6.907,13.317A10.3,10.3,0,0,1,4.8,11.4a1,1,0,0,0-1.6,1.2,12.127,12.127,0,0,0,2.692,2.456L2.136,21.5A1,1,0,0,0,2.5,22.864ZM12,5a2,2,0,1,1-2,2A2,2,0,0,1,12,5Zm-1.29,5.768a3.7,3.7,0,0,0,2.58,0l2.054,3.522A8.592,8.592,0,0,1,13,14.932V14a1,1,0,0,0-2,0v.932a8.592,8.592,0,0,1-2.344-.642Z"/></svg>