<svg xmlns="http://www.w3.org/2000/svg" viewBox="0 0 24 24"><path d="M23,4a1,1,0,0,0-1-1H2A1,1,0,0,0,1,4V20a1,1,0,0,0,1,1H22a1,1,0,0,0,1-1ZM8.521,19a23.938,23.938,0,0,0,.986-3.133c1.821.612,3.505,1.272,5.4,1.724-.208.588-.4,1.068-.551,1.409ZM3,9.508A4.571,4.571,0,0,1,7.427,8.069a13.792,13.792,0,0,1,.5,5.266A6.534,6.534,0,0,0,3,14.12ZM14.357,5a22.425,22.425,0,0,1,1.176,3.483c-2.238-.512-4.093-1.347-6.5-2.058C8.855,5.888,8.681,5.409,8.521,5ZM9.871,13.878a14.64,14.64,0,0,0-.237-5.171A43.9,43.9,0,0,0,15.918,10.6a13.485,13.485,0,0,1-.428,5.078C13.559,15.23,11.652,14.463,9.871,13.878Zm8.074-3.054a10.287,10.287,0,0,0,3.055-.3v5.139A9.108,9.108,0,0,1,17.474,16,15.458,15.458,0,0,0,17.945,10.824ZM21,8.458a9.022,9.022,0,0,1-3.344.354A23.3,23.3,0,0,0,16.521,5H21ZM6.357,5c.11.252.245.579.393.972A6.367,6.367,0,0,0,3,6.917V5ZM3,16.711A4.578,4.578,0,0,1,7.583,15.3,22.472,22.472,0,0,1,6.357,19H3ZM16.521,19c.122-.311.252-.664.384-1.052A10.865,10.865,0,0,0,21,17.725V19Z"/></svg>