<svg xmlns="http://www.w3.org/2000/svg" viewBox="0 0 24 24"><path d="M2,8A1,1,0,0,0,3,7V4H6A1,1,0,0,0,6,2H2A1,1,0,0,0,1,3V7A1,1,0,0,0,2,8Z"/><path d="M2,22H6a1,1,0,0,0,0-2H3V17a1,1,0,0,0-2,0v4A1,1,0,0,0,2,22Z"/><path d="M23,17a1,1,0,0,0-2,0v3H18a1,1,0,0,0,0,2h4a1,1,0,0,0,1-1Z"/><path d="M17,3a1,1,0,0,0,1,1h3V7a1,1,0,0,0,2,0V3a1,1,0,0,0-1-1H18A1,1,0,0,0,17,3Z"/><path d="M10,22h4a1,1,0,0,0,0-2H10a1,1,0,0,0,0,2Z"/><path d="M23,10.5a1,1,0,0,0-2,0v3a1,1,0,0,0,2,0Z"/><path d="M2,14.5a1,1,0,0,0,1-1v-3a1,1,0,0,0-2,0v3A1,1,0,0,0,2,14.5Z"/><path d="M10,4h4a1,1,0,0,0,0-2H10a1,1,0,0,0,0,2Z"/></svg>