<svg xmlns="http://www.w3.org/2000/svg" viewBox="0 0 24 24"><path d="M20,3H18.816A3,3,0,0,0,16,1H4A3,3,0,0,0,4,7H16a3,3,0,0,0,2.816-2H20a1,1,0,0,1,1,1V9a1,1,0,0,1-1,1H14a3,3,0,0,0-3,3H10a1,1,0,0,0-1,1v8a1,1,0,0,0,1,1h4a1,1,0,0,0,1-1V14a1,1,0,0,0-1-1H13a1,1,0,0,1,1-1h6a3,3,0,0,0,3-3V6A3,3,0,0,0,20,3ZM16,5H4A1,1,0,0,1,4,3H16a1,1,0,0,1,0,2ZM13,21H11V15h2Z"/><path d="M4.855,8.481a1.04,1.04,0,0,0-1.71,0L1.47,11.246A3.307,3.307,0,0,0,1,12.963,2.885,2.885,0,0,0,3.7,16h.6A2.885,2.885,0,0,0,7,12.963a3.315,3.315,0,0,0-.469-1.717ZM4.3,14H3.7c-.33,0-.7-.426-.7-1.037s.312-.8,1-2.033c.685,1.223,1,1.411,1,2.033S4.632,14,4.3,14Z"/></svg>