<svg xmlns="http://www.w3.org/2000/svg" viewBox="0 0 24 24"><path d="M12.336,1.293a1,1,0,0,0-1.414,0L7.959,4.256a1,1,0,0,0,0,1.414L9.778,7.489,2.423,9.94a1,1,0,0,0-.681.882L1,21.934a1.151,1.151,0,0,0,.291.773A1.006,1.006,0,0,0,2.065,23l11.112-.741a1,1,0,0,0,.883-.681l2.451-7.354,1.819,1.819a1,1,0,0,0,1.414,0l2.963-2.964a1,1,0,0,0,0-1.414Zm.038,19.013-7.786.519,3.464-3.464a3.057,3.057,0,0,0,3.543-.58,3.1,3.1,0,0,0,0-4.377,3.17,3.17,0,0,0-4.378,0,3.09,3.09,0,0,0-.58,3.543L3.174,19.411l.519-7.786L11.359,9.07l3.571,3.571ZM8.633,15.367a1.1,1.1,0,1,1,1.548,0A1.095,1.095,0,0,1,8.633,15.367Zm10.4-1.447-2.255-2.255v0L12.336,7.219l0,0L10.08,4.963l1.549-1.549,8.957,8.956Z"/></svg>