<svg xmlns="http://www.w3.org/2000/svg" viewBox="0 0 24 24"><path d="M1,18.891a1,1,0,0,0,.293.707L4.4,22.707a1,1,0,0,0,1.414,0l7.774-7.773h0L16.7,11.824a1,1,0,0,0,0-1.414L13.59,7.3a1,1,0,0,0-1.414,0L9.067,10.409h0L1.293,18.184A1,1,0,0,0,1,18.891ZM12.883,9.422l1.7,1.7-1.7,1.7-1.695-1.7ZM9.774,12.531l1.7,1.7-6.36,6.359-1.695-1.7Z"/><path d="M19.809,4.191a1,1,0,0,0-1.414,0L16.84,5.746A1,1,0,1,0,18.254,7.16l1.555-1.555A1,1,0,0,0,19.809,4.191Z"/><path d="M22,10.9H19.8a1,1,0,0,0,0,2H22a1,1,0,0,0,0-2Z"/><path d="M18.254,16.629a1,1,0,1,0-1.414,1.414L18.4,19.6a1,1,0,0,0,1.414-1.414Z"/><path d="M4.4,4.191a1,1,0,0,0,0,1.414L5.957,7.16A1,1,0,0,0,7.371,5.746L5.816,4.191A1,1,0,0,0,4.4,4.191Z"/><path d="M11.106,2V4.2a1,1,0,1,0,2,0V2a1,1,0,0,0-2,0Z"/></svg>