<svg xmlns="http://www.w3.org/2000/svg" viewBox="0 0 24 24"><circle cx="12" cy="12" r="2"/><path d="M23,5a3.992,3.992,0,0,0-7.858-1H8.858A3.992,3.992,0,1,0,4,8.858v6.284A3.992,3.992,0,1,0,8.858,20h6.284A3.992,3.992,0,1,0,20,15.142V8.858A4,4,0,0,0,23,5ZM19,3a2,2,0,1,1-2,2A2,2,0,0,1,19,3ZM15.142,18H8.858A4,4,0,0,0,6,15.142V8.858A4,4,0,0,0,8.858,6h6.284A4,4,0,0,0,18,8.858v6.284A4,4,0,0,0,15.142,18ZM3,5A2,2,0,1,1,5,7,2,2,0,0,1,3,5ZM5,21a2,2,0,1,1,2-2A2,2,0,0,1,5,21Zm16-2a2,2,0,1,1-2-2A2,2,0,0,1,21,19Z"/></svg>