<svg xmlns="http://www.w3.org/2000/svg" viewBox="0 0 24 24"><path d="M16,1H8.5A5.5,5.5,0,0,0,3.313,8.333a.978.978,0,0,0,.1.171A2.965,2.965,0,0,0,3,10v3.343a4.968,4.968,0,0,0,1.464,3.536L6,18.414V22a1,1,0,0,0,1,1H17a1,1,0,0,0,1-1V18.414l1.536-1.535A4.968,4.968,0,0,0,21,13.343V6A5.006,5.006,0,0,0,16,1Zm0,20H8V19h8Zm3-7.657a2.983,2.983,0,0,1-.878,2.122L16.586,17H7.414L5.878,15.465A2.983,2.983,0,0,1,5,13.343V10a1,1,0,0,1,2,0v3a1,1,0,0,0,2,0V12h7a1,1,0,0,0,0-2H9A3,3,0,0,0,6,7a2.971,2.971,0,0,0-.932.163A3.478,3.478,0,0,1,8.5,3H16a3,3,0,0,1,3,3Z"/></svg>