<svg xmlns="http://www.w3.org/2000/svg" viewBox="0 0 24 24"><path d="M12,1A11,11,0,1,0,23,12,11.013,11.013,0,0,0,12,1Zm0,2a9,9,0,0,1,7.478,4H4.522A9,9,0,0,1,12,3ZM3.529,15.009a5.012,5.012,0,0,1,3.71,1.823,4.827,4.827,0,0,1,1.109,3.386A9.032,9.032,0,0,1,3.529,15.009Zm12.123,5.209a4.822,4.822,0,0,1,1.109-3.386,5.011,5.011,0,0,1,3.71-1.823A9.032,9.032,0,0,1,15.652,20.218ZM21,12a8.935,8.935,0,0,1-.059,1,7.006,7.006,0,0,0-5.723,2.559,6.8,6.8,0,0,0-1.505,5.273,8.817,8.817,0,0,1-3.426,0,6.8,6.8,0,0,0-1.505-5.273A7.078,7.078,0,0,0,3.059,13a8.751,8.751,0,0,1,.466-4h16.95A8.936,8.936,0,0,1,21,12Zm-10.5.5A1.5,1.5,0,1,1,12,14,1.5,1.5,0,0,1,10.5,12.5Z"/></svg>