<svg xmlns="http://www.w3.org/2000/svg" viewBox="0 0 24 24"><path d="M17,11a4,4,0,1,0,4,4A4,4,0,0,0,17,11Zm0,6a2,2,0,1,1,2-2A2,2,0,0,1,17,17Zm4,5a1,1,0,0,1-1,1H4a1,1,0,0,1,0-2H20A1,1,0,0,1,21,22ZM2.937,1.648,5.7,9.025c5.227-2.989,12.626-2.342,12.942-2.31a4.752,4.752,0,0,1,4.343,3.868,1,1,0,0,1-.835,1.142,1.139,1.139,0,0,1-.154.011,1,1,0,0,1-.987-.846,2.743,2.743,0,0,0-2.544-2.184c-.081-.006-7.289-.64-11.954,2.152a.95.95,0,0,1-.109.039l2.208,5.888,2.613-.747a1,1,0,0,1,.548,1.924l-3.5,1a1.015,1.015,0,0,1-1.211-.61l-6-16a1,1,0,0,1,1.874-.7Z"/></svg>