<svg xmlns="http://www.w3.org/2000/svg" viewBox="0 0 24 24"><path d="M1.113,18.462A1,1,0,0,0,2,19H5.219l.811,3.243a1,1,0,0,0,1.818.287L12,15.887l4.152,6.643a1,1,0,0,0,1.818-.287L18.781,19H22a1,1,0,0,0,.819-1.573L18.317,11A7,7,0,1,0,5.683,11l-4.5,6.432A1,1,0,0,0,1.113,18.462ZM20.079,17H18a1,1,0,0,0-.97.757L16.6,19.474,13.673,14.79a6.991,6.991,0,0,0,3.441-2.026ZM12,3A5,5,0,1,1,7,8,5.006,5.006,0,0,1,12,3ZM6.886,12.764a6.991,6.991,0,0,0,3.441,2.026L7.4,19.474,6.97,17.757A1,1,0,0,0,6,17H3.921ZM10,8a2,2,0,1,1,2,2A2,2,0,0,1,10,8Z"/></svg>