<svg xmlns="http://www.w3.org/2000/svg" viewBox="0 0 24 24"><path d="M22,13a1,1,0,0,0,1-1A11,11,0,0,0,11.756,1,11,11,0,0,0,1.407,14.963,2.838,2.838,0,0,0,4.146,17,.855.855,0,0,1,5,17.854V19a4,4,0,0,0,8,0V17h2.08A7.006,7.006,0,0,0,22,23a1,1,0,0,0,1-1V16a1,1,0,0,0-1-1H17V13Zm-1,4v3.9A5.013,5.013,0,0,1,17.1,17Zm-6-2H13V13h2Zm-3-4a1,1,0,0,0-1,1v7a2,2,0,0,1-4,0V17.854A2.857,2.857,0,0,0,4.146,15a.832.832,0,0,1-.813-.577,8.943,8.943,0,0,1-.317-2.953h0A9.153,9.153,0,0,1,11.8,3a9,9,0,0,1,9.146,8Z"/></svg>