<svg xmlns="http://www.w3.org/2000/svg" viewBox="0 0 24 24"><path d="M19.8,5.4A1,1,0,0,0,19,5H15V4a2,2,0,0,0-2-2H3A2,2,0,0,0,1,4V17a1,1,0,0,0,1,1H3a4,4,0,0,0,8,0h2a4,4,0,0,0,8,0,2,2,0,0,0,2-2V10a1,1,0,0,0-.2-.6ZM7,20a2,2,0,0,1-2-2,2.04,2.04,0,0,1,2-2,2.044,2.044,0,0,1,2,2A2,2,0,0,1,7,20Zm3.451-4A4.065,4.065,0,0,0,7,14a4.068,4.068,0,0,0-3.451,2H3V4H13V16ZM17,20a2,2,0,0,1-2-2,2,2,0,0,1,4,0A2,2,0,0,1,17,20Zm4-4h-.549A4.062,4.062,0,0,0,17,14a4.18,4.18,0,0,0-2,.543V7h3.5L21,10.333ZM9,8h2v2H9v2H7V10H5V8H7V6H9Z"/></svg>