<svg xmlns="http://www.w3.org/2000/svg" viewBox="0 0 24 24"><path d="M20.9,6.471a2.555,2.555,0,0,0-.062-2.524A3.424,3.424,0,0,0,17.756,2.9,3.542,3.542,0,0,0,14.5,1a3.8,3.8,0,0,0-2.5.9A3.8,3.8,0,0,0,9.5,1,3.542,3.542,0,0,0,6.244,2.9,3.433,3.433,0,0,0,3.16,3.947,2.555,2.555,0,0,0,3.1,6.471C2.123,7.1,1,8.568,1,12s1.123,4.9,2.1,5.529a2.555,2.555,0,0,0,.062,2.524A3.437,3.437,0,0,0,6.244,21.1,3.542,3.542,0,0,0,9.5,23h5a3.542,3.542,0,0,0,3.256-1.9,3.425,3.425,0,0,0,3.084-1.049,2.555,2.555,0,0,0,.062-2.524C21.877,16.9,23,15.432,23,12S21.877,7.1,20.9,6.471ZM14.5,3a1.623,1.623,0,0,1,1.407.679L13.586,6H13V4C13,3.468,13.7,3,14.5,3Zm-5,0c.8,0,1.5.468,1.5,1V6h-.586L8.093,3.679A1.623,1.623,0,0,1,9.5,3Zm10,13a1,1,0,0,0-.848,1.53c.641,1.026.541,1.385.542,1.385a3.21,3.21,0,0,1-2,.105A1,1,0,0,0,16,20c0,.532-.7,1-1.5,1H13V19a1,1,0,0,0-2,0v2H9.5C8.7,21,8,20.532,8,20a1,1,0,0,0-1-1,1.05,1.05,0,0,0-.192.019,3.233,3.233,0,0,1-2-.1s-.1-.361.54-1.39a1,1,0,0,0,.022-.974A1.042,1.042,0,0,0,4.541,16C4.008,15.951,3,15.05,3,12S4.008,8.049,4.5,8a1,1,0,0,0,.848-1.53c-.641-1.026-.541-1.385-.542-1.385a2.843,2.843,0,0,1,1.715-.149L9.293,7.707A1,1,0,0,0,10,8h1v3H9.414L8,9.586V9A1,1,0,0,0,6,9v1c0,.672.523.837,1.586,2L6.293,13.293c-.448.448-.241.959-.293,1.707a1,1,0,0,0,2,0v-.586L9.414,13H11v2a1,1,0,0,0,2,0V13h1.586L16,14.414V15a1,1,0,0,0,2,0c-.052-.752.159-1.255-.293-1.707L16.414,12C17.449,10.869,18,10.672,18,10V9a1,1,0,0,0-2,0v.586L14.586,11H13V8h1a1,1,0,0,0,.707-.293l2.771-2.771a2.867,2.867,0,0,1,1.714.144s.1.361-.54,1.39a1,1,0,0,0-.022.974A1.042,1.042,0,0,0,19.459,8c.533.05,1.541.951,1.541,4S19.992,15.951,19.5,16Z"/></svg>