<svg xmlns="http://www.w3.org/2000/svg" viewBox="0 0 24 24"><path d="M6,22a1,1,0,0,0,2,0c0-.023.124-2.226,4-3.91,3.812,1.655,3.993,3.8,4,3.928A1,1,0,0,0,18,22c0-.13-.056-2.8-3.657-4.957C17.694,15.34,18,13.841,18,12s-.306-3.34-3.657-5.043C17.944,4.8,18,2.13,18,2a1,1,0,0,0-2,0c0,.023-.124,2.226-4,3.91C8.156,4.241,8,2.074,8,2A1,1,0,0,0,6,2c0,.13.056,2.8,3.657,4.957C6.306,8.66,6,10.159,6,12s.306,3.34,3.657,5.043C6.056,19.2,6,21.87,6,22ZM8,12c0-1.308.012-2.266,4-3.917,3.988,1.651,4,2.609,4,3.917s-.012,2.266-4,3.917C8.012,14.266,8,13.308,8,12Z"/></svg>