<svg xmlns="http://www.w3.org/2000/svg" viewBox="0 0 24 24"><path d="M16,1h-.93a2.993,2.993,0,0,0-2.5,1.336,1.009,1.009,0,0,0-.116.238.483.483,0,0,1-.916,0,1.009,1.009,0,0,0-.116-.238A2.993,2.993,0,0,0,8.93,1H8A5.006,5.006,0,0,0,3,6V8.409c0,2.417.122,4.862.362,7.263L3.825,20.3A2.99,2.99,0,0,0,6.81,23h.12a2.993,2.993,0,0,0,2.5-1.336L12,17.8l2.574,3.861A2.993,2.993,0,0,0,17.07,23h.12a2.99,2.99,0,0,0,2.985-2.7l.463-4.627c.24-2.4.362-4.846.362-7.263V6A5.006,5.006,0,0,0,16,1Zm3,7.409c0,2.352-.119,4.728-.353,7.064L18.185,20.1a1,1,0,0,1-.995.9h-.12a1,1,0,0,1-.832-.445l-3.406-5.11a1,1,0,0,0-1.664,0l-3.406,5.11A1,1,0,0,1,6.93,21H6.81a1,1,0,0,1-.995-.9l-.462-4.627C5.119,13.137,5,10.761,5,8.409V6A3,3,0,0,1,8,3h.93a1,1,0,0,1,.775.368,2.483,2.483,0,0,0,4.59,0A1,1,0,0,1,15.07,3H16a3,3,0,0,1,3,3ZM15.8,6.493a1,1,0,0,1-.2,1.4A5.919,5.919,0,0,1,12,9,5.5,5.5,0,0,1,8.368,7.774,1,1,0,1,1,9.632,6.226,3.5,3.5,0,0,0,12,7a3.911,3.911,0,0,0,2.4-.7A1,1,0,0,1,15.8,6.493Z"/></svg>