<svg xmlns="http://www.w3.org/2000/svg" viewBox="0 0 24 24"><path d="M17.084,7.325a1,1,0,0,0,.228-1.4,11.726,11.726,0,0,0-4.906-3.846,1.017,1.017,0,0,0-.6-.064,1.041,1.041,0,0,0-.21.065A10.967,10.967,0,0,0,4.911,10a1,1,0,0,0,1.959.4A8.825,8.825,0,0,1,12,4.1a9.546,9.546,0,0,1,3.689,3A1,1,0,0,0,17.084,7.325Z"/><path d="M10.867,13.267a1,1,0,0,0-1.334,1.49A3.693,3.693,0,0,0,12,15.7a1,1,0,0,0,0-2A1.7,1.7,0,0,1,10.867,13.267Z"/><path d="M13.7,12a1,1,0,0,0,2,0A3.7,3.7,0,0,0,12,8.3a1,1,0,0,0,0,2A1.7,1.7,0,0,1,13.7,12Z"/><path d="M21,14.6H18.862A8.433,8.433,0,0,0,19.09,10a1,1,0,1,0-1.959.4C18,14.589,15.2,17.3,12,17.3a5.315,5.315,0,0,1-5.109-3.771,1,1,0,0,0-1.925.542c.052.184.133.352.2.529H3a1,1,0,0,0-1,1V21a1,1,0,0,0,1,1H21a1,1,0,0,0,1-1V15.6A1,1,0,0,0,21,14.6ZM20,20H4V16.6H6.281A7.487,7.487,0,0,0,12,19.3c2.987,0,4.246-1.359,5.719-2.7H20Z"/></svg>