<svg xmlns="http://www.w3.org/2000/svg" viewBox="0 0 24 24"><path d="M3.864,15.37A3.979,3.979,0,0,0,8.63,20.136a3.978,3.978,0,0,0,6.74,0,3.979,3.979,0,0,0,4.766-4.766,3.978,3.978,0,0,0,0-6.74A3.979,3.979,0,0,0,15.37,3.864a3.978,3.978,0,0,0-6.74,0A3.979,3.979,0,0,0,3.864,8.63a3.978,3.978,0,0,0,0,6.74ZM5.411,10.1A1,1,0,0,0,6,8.683,1.98,1.98,0,0,1,8.683,6a1,1,0,0,0,1.42-.589,1.981,1.981,0,0,1,3.794,0A1,1,0,0,0,15.317,6,1.98,1.98,0,0,1,18,8.683a1,1,0,0,0,.589,1.42,1.98,1.98,0,0,1,0,3.793A1,1,0,0,0,18,15.316,1.98,1.98,0,0,1,15.318,18a1,1,0,0,0-1.421.588,1.98,1.98,0,0,1-3.794,0A1,1,0,0,0,8.682,18,1.98,1.98,0,0,1,6,15.316a1,1,0,0,0-.589-1.42,1.98,1.98,0,0,1,0-3.793Z"/><circle cx="12" cy="12" r="2"/></svg>