<svg xmlns="http://www.w3.org/2000/svg" viewBox="0 0 24 24"><path d="M21.052,7.683a2.681,2.681,0,0,0-2.088-.665.8.8,0,0,0-.119.022l-2.488.6.6-2.487a.788.788,0,0,0,.021-.118,2.681,2.681,0,0,0-.664-2.088A2.884,2.884,0,0,0,12,2.994a2.884,2.884,0,0,0-4.317-.045,2.681,2.681,0,0,0-.664,2.088.788.788,0,0,0,.021.118l.6,2.487-2.488-.6a.8.8,0,0,0-.119-.022,2.668,2.668,0,0,0-2.088.665A2.885,2.885,0,0,0,2.994,12a2.884,2.884,0,0,0-.045,4.317,2.681,2.681,0,0,0,2.087.664.8.8,0,0,0,.119-.021l2.488-.6-.6,2.488a.8.8,0,0,0-.021.119,2.678,2.678,0,0,0,.664,2.087A2.884,2.884,0,0,0,12,21.006a2.884,2.884,0,0,0,4.317.045,2.678,2.678,0,0,0,.664-2.087.8.8,0,0,0-.021-.119l-.6-2.488,2.488.6a.8.8,0,0,0,.119.021,2.687,2.687,0,0,0,2.087-.664A2.884,2.884,0,0,0,21.006,12a2.885,2.885,0,0,0,.046-4.317Zm-2.518,5.2,1.044.55A.838.838,0,0,1,19.243,15l-4.008-.971a1,1,0,0,0-1.207,1.207c.708,3.6,1.251,3.975.8,4.487a.912.912,0,0,1-1.388-.144l-.55-1.044a1,1,0,0,0-1.77,0l-.55,1.044a.912.912,0,0,1-1.388.144c-.455-.51.083-.872.8-4.487a1,1,0,0,0-1.207-1.207c-3.57.7-3.969,1.25-4.487.8a.874.874,0,0,1,.144-1.388l1.044-.55a1,1,0,0,0,0-1.77l-1.044-.55A.839.839,0,0,1,4,9.821a.86.86,0,0,1,.278-.644A.631.631,0,0,1,4.757,9l4.008.972A1,1,0,0,0,9.972,8.765c-.708-3.6-1.251-3.975-.795-4.487a.912.912,0,0,1,1.388.143l.55,1.045a1.041,1.041,0,0,0,1.77,0l.55-1.044c.343-.652,1.6-.475,1.564.335l-.971,4.008a1,1,0,0,0,1.207,1.207L19.243,9a.644.644,0,0,1,.479.177A.86.86,0,0,1,20,9.821a.839.839,0,0,1-.422.744l-1.044.55a1,1,0,0,0,0,1.77Z"/></svg>