<svg xmlns="http://www.w3.org/2000/svg" viewBox="0 0 24 24"><path d="M20.553,3.105l-6,3C11.225,7.77,9.274,9.953,8.755,12.6c-.738,3.751,1.992,7.958,2.861,8.321A.985.985,0,0,0,12,21h0c6.682,0,11-3.532,11-9,0-6.691-.9-8.318-1.293-8.707A1,1,0,0,0,20.553,3.105Zm-7.6,15.86a8.594,8.594,0,0,1,5.44-8.046,1,1,0,1,0-.788-1.838,10.363,10.363,0,0,0-6.393,7.667,6.59,6.59,0,0,1-.494-3.777c.4-2,1.989-3.706,4.728-5.076l5.03-2.515A29.2,29.2,0,0,1,21,12C21,16.063,17.94,18.67,12.954,18.965Z"/><path d="M8.553,7.9a1,1,0,0,0,.894-1.79l-6-3a1,1,0,0,0-1.154.188C1.9,3.682,1,5.309,1,12a8.377,8.377,0,0,0,5.634,8.073,1,1,0,1,0,.732-1.861A6.386,6.386,0,0,1,3,12a29.2,29.2,0,0,1,.523-6.62Z"/></svg>