<svg xmlns="http://www.w3.org/2000/svg" viewBox="0 0 24 24"><path d="M20.87,8.009a9.67,9.67,0,0,0-5.236,2.306A7.676,7.676,0,0,0,16,8a9.463,9.463,0,0,0-3.375-6.781,1,1,0,0,0-1.25,0A9.463,9.463,0,0,0,8,8a7.681,7.681,0,0,0,.366,2.315A9.673,9.673,0,0,0,3.13,8.009,1,1,0,0,0,2.011,9.148C2.7,13.871,7.6,18,11,18v4a1,1,0,0,0,2,0V18c3.419,0,8.218-4.029,8.989-8.852A1,1,0,0,0,20.87,8.009ZM12,3.391A7.075,7.075,0,0,1,14,8a7.08,7.08,0,0,1-2,4.61A7.08,7.08,0,0,1,10,8,7.075,7.075,0,0,1,12,3.391ZM4.408,10.33a8.215,8.215,0,0,1,5.183,5.248A8.764,8.764,0,0,1,4.408,10.33Zm10,5.248a8.218,8.218,0,0,1,5.183-5.248A8.767,8.767,0,0,1,14.409,15.578Z"/></svg>