<svg xmlns="http://www.w3.org/2000/svg" viewBox="0 0 24 24"><path d="M4,23H20a1,1,0,0,0,1-1V6a1,1,0,0,0-.293-.707l-4-4A1,1,0,0,0,16,1H4A1,1,0,0,0,3,2V22A1,1,0,0,0,4,23ZM5,3H15.586L19,6.414V21H5Z"/><path d="M12,15a1,1,0,0,0-1,1v1a1,1,0,0,0,2,0V16A1,1,0,0,0,12,15Z"/><path d="M12.545,6.05a2.946,2.946,0,0,0-2.418.632A3.151,3.151,0,0,0,9,9.118a1,1,0,1,0,2,0,1.155,1.155,0,0,1,.4-.9.917.917,0,0,1,.775-.2,1.069,1.069,0,0,1,.8.88,1.145,1.145,0,0,1-.618,1.263A2.359,2.359,0,0,0,11,12.351V13a1,1,0,0,0,2,0v-.649a.4.4,0,0,1,.165-.359,3.142,3.142,0,0,0,1.789-3.421A3.085,3.085,0,0,0,12.545,6.05Z"/></svg>