<svg xmlns="http://www.w3.org/2000/svg" viewBox="0 0 24 24"><path d="M20,3H4A3,3,0,0,0,1,6V18a3,3,0,0,0,3,3H20a3,3,0,0,0,3-3V6A3,3,0,0,0,20,3Zm1,15a1,1,0,0,1-1,1H4a1,1,0,0,1-1-1V6A1,1,0,0,1,4,5H20a1,1,0,0,1,1,1Z"/><path d="M6,7A1,1,0,0,0,5,8v8a1,1,0,0,0,2,0V8A1,1,0,0,0,6,7Z"/><path d="M9,7A1,1,0,0,0,8,8v4a1,1,0,0,0,2,0V8A1,1,0,0,0,9,7Z"/><path d="M12,7a1,1,0,0,0-1,1v8a1,1,0,0,0,2,0V8A1,1,0,0,0,12,7Z"/><path d="M15,7a1,1,0,0,0-1,1v4a1,1,0,0,0,2,0V8A1,1,0,0,0,15,7Z"/><path d="M18,7a1,1,0,0,0-1,1v8a1,1,0,0,0,2,0V8A1,1,0,0,0,18,7Z"/><path d="M9,14a1,1,0,0,0-1,1v1a1,1,0,0,0,2,0V15A1,1,0,0,0,9,14Z"/><path d="M15,14a1,1,0,0,0-1,1v1a1,1,0,0,0,2,0V15A1,1,0,0,0,15,14Z"/></svg>