<svg xmlns="http://www.w3.org/2000/svg" viewBox="0 0 24 24"><path d="M18,1H6A3,3,0,0,0,3,4V22a1,1,0,0,0,1.707.707L6.845,20.57l1.323,1.984A1,1,0,0,0,8.9,23a.986.986,0,0,0,.806-.288L12,20.414l2.293,2.293a1,1,0,0,0,1.539-.153l1.323-1.984,2.138,2.137A1,1,0,0,0,21,22V4A3,3,0,0,0,18,1Zm1,18.586-1.293-1.293a.984.984,0,0,0-.806-.288,1,1,0,0,0-.733.44L14.845,20.43l-2.138-2.137a1,1,0,0,0-1.414,0L9.155,20.43,7.832,18.445a1,1,0,0,0-1.539-.152L5,19.586V4A1,1,0,0,1,6,3H18a1,1,0,0,1,1,1Z"/><path d="M12,10H8a1,1,0,0,0,0,2h4a1,1,0,0,0,0-2Z"/><path d="M12,14H8a1,1,0,0,0,0,2h4a1,1,0,0,0,0-2Z"/><path d="M16,10H15a1,1,0,0,0,0,2h1a1,1,0,0,0,0-2Z"/><path d="M16,14H15a1,1,0,0,0,0,2h1a1,1,0,0,0,0-2Z"/><path d="M16,5H8A1,1,0,0,0,8,7h8a1,1,0,0,0,0-2Z"/></svg>