<svg xmlns="http://www.w3.org/2000/svg" viewBox="0 0 24 24"><path d="M2.181,1.757,1.122,5.994A4,4,0,0,0,1.855,9.45a3.838,3.838,0,0,0,.3.3V22a1,1,0,0,0,1,1H14.3a1,1,0,0,0,0-2H4.151V10.9A3.955,3.955,0,0,0,8.063,9.589c.03.035.051.076.082.11A4.04,4.04,0,0,0,11.11,11h.083a4.038,4.038,0,0,0,2.964-1.3c.031-.034.052-.076.082-.111A3.954,3.954,0,0,0,18.151,10.9V13a1,1,0,0,0,2,0V9.752a3.838,3.838,0,0,0,.3-.3,4,4,0,0,0,.733-3.456L20.121,1.757A1,1,0,0,0,19.151,1h-16A1,1,0,0,0,2.181,1.757ZM18.37,3l.87,3.479A2.028,2.028,0,0,1,17.272,9,2.041,2.041,0,0,1,15.25,7.14L14.905,3ZM9.4,3H12.9l.317,3.8A2.031,2.031,0,0,1,11.193,9H11.11A2.028,2.028,0,0,1,9.088,6.807ZM7.4,3l-.012.134-.292,3.5v0l-.041.5A2.041,2.041,0,0,1,5.031,9,2.029,2.029,0,0,1,3.062,6.479L3.932,3Z"/><path d="M21.055,15.472a1.728,1.728,0,0,0-1.555.778,1.728,1.728,0,0,0-1.555-.778c-1.141,0-2.246,1.009-1.87,2.948.38,1.964,3.425,3.663,3.425,3.663s3.045-1.7,3.425-3.663C23.3,16.481,22.2,15.472,21.055,15.472Z"/></svg>