<svg xmlns="http://www.w3.org/2000/svg" viewBox="0 0 24 24"><path d="M19.152,14a1,1,0,0,0,1-1V9.752a4.019,4.019,0,0,0,.3-.3,4,4,0,0,0,.732-3.456L20.121,1.758A1,1,0,0,0,19.152,1h-16a1,1,0,0,0-.97.757L1.122,5.994A4,4,0,0,0,1.855,9.45a3.838,3.838,0,0,0,.3.3V22a1,1,0,0,0,1,1H14.3a1,1,0,0,0,0-2H4.151V10.9A3.955,3.955,0,0,0,8.063,9.589c.03.035.051.076.082.11A4.04,4.04,0,0,0,11.11,11h.083a4.036,4.036,0,0,0,2.964-1.3c.032-.034.052-.076.082-.11A3.957,3.957,0,0,0,18.152,10.9V13A1,1,0,0,0,19.152,14ZM7.386,3.134l-.292,3.5v0l-.041.5A2.041,2.041,0,0,1,5.031,9,2.029,2.029,0,0,1,3.062,6.479L3.932,3H7.4Zm5.3,5.211A2.009,2.009,0,0,1,11.193,9H11.11A2.028,2.028,0,0,1,9.088,6.807L9.4,3H12.9l.317,3.8A2.013,2.013,0,0,1,12.686,8.345ZM17.272,9a2.042,2.042,0,0,1-2.023-1.86L14.9,3H18.37l.87,3.479A2.029,2.029,0,0,1,17.272,9Z"/><polygon points="19 15 17.667 17.667 15 18.056 17.222 19.889 16.528 23 19 21.222 21.472 23 20.778 19.889 23 18.056 20.333 17.667 19 15"/></svg>