<svg xmlns="http://www.w3.org/2000/svg" viewBox="0 0 24 24"><path d="M20.215,2.036A6.4,6.4,0,0,0,16.615,1H6A5,5,0,0,0,1,6.166,2.873,2.873,0,0,0,3,8.83v.341a3,3,0,0,0,.039,5.671,9,9,0,0,0,17.922,0A3,3,0,0,0,21,9.171V9h1a1,1,0,0,0,1-1V7.236A6.269,6.269,0,0,0,20.215,2.036ZM3.845,3.914A2.971,2.971,0,0,1,6,3H16.615a4.42,4.42,0,0,1,2.483.694A4.278,4.278,0,0,1,20.993,7H16.472A18.023,18.023,0,0,1,8.447,5.105c-.9-.451-1.4.535-1.74.774C5.562,7.024,3.049,7.582,3,6.1A2.977,2.977,0,0,1,3.845,3.914ZM20,13a1,1,0,0,0-1,1A7,7,0,0,1,5,14a1,1,0,0,0-1-1,1,1,0,0,1,0-2,1,1,0,0,0,1-1V8.915A6.07,6.07,0,0,0,8.208,7.207,20.05,20.05,0,0,0,16.472,9H19v1a1,1,0,0,0,1,1,1,1,0,0,1,0,2Zm-9.5,0A1.5,1.5,0,1,1,9,11.5,1.5,1.5,0,0,1,10.5,13Zm6,0A1.5,1.5,0,1,1,15,11.5,1.5,1.5,0,0,1,16.5,13Z"/></svg>