<svg xmlns="http://www.w3.org/2000/svg" viewBox="0 0 24 24"><path d="M12,9a3.982,3.982,0,0,0-2.96,6.666A7,7,0,0,0,5,22a1,1,0,0,0,1,1H18a1,1,0,0,0,1-1,7,7,0,0,0-4.04-6.334A3.982,3.982,0,0,0,12,9Zm0,2a2,2,0,1,1-2,2A2,2,0,0,1,12,11Zm4.9,10H7.1a5,5,0,0,1,9.8,0ZM12,7a1,1,0,0,1-1-1V2a1,1,0,0,1,2,0V6A1,1,0,0,1,12,7Zm4.6,1.9A1,1,0,0,1,15.89,7.2l2.828-2.829a1,1,0,1,1,1.414,1.414L17.3,8.611A1,1,0,0,1,16.6,8.9ZM8.11,8.611a1,1,0,0,1-1.414,0L3.868,5.782A1,1,0,0,1,5.282,4.368L8.11,7.2A1,1,0,0,1,8.11,8.611ZM23,13a1,1,0,0,1-1,1H18.5a1,1,0,0,1,0-2H22A1,1,0,0,1,23,13ZM1,13a1,1,0,0,1,1-1H5.5a1,1,0,0,1,0,2H2A1,1,0,0,1,1,13Z"/></svg>