<svg xmlns="http://www.w3.org/2000/svg" viewBox="0 0 24 24"><path d="M12,7a4,4,0,1,0,4,4A4,4,0,0,0,12,7Zm0,6a2,2,0,1,1,2-2A2,2,0,0,1,12,13Zm6.5,2v1.5H20a1,1,0,0,1,0,2H18.5V20a1,1,0,0,1-2,0V18.5H15a1,1,0,0,1,0-2h1.5V15a1,1,0,0,1,2,0Zm3.438-4.345a.987.987,0,0,1,0,.69,13.339,13.339,0,0,1-1.08,2.264,1,1,0,1,1-1.715-1.028A11.3,11.3,0,0,0,19.928,11C18.451,7.343,15.373,5,12,5S5.549,7.343,4.072,11a9.315,9.315,0,0,0,6.167,5.787,1,1,0,1,1-.478,1.942,11.393,11.393,0,0,1-7.7-7.383.99.99,0,0,1,0-.691C3.773,6,7.674,3,12,3S20.227,6,21.938,10.655Z"/></svg>