<svg xmlns="http://www.w3.org/2000/svg" viewBox="0 0 24 24"><path d="M22.948,21.684a1,1,0,1,1-1.9.632l-2.827-8.479-3.467-.867a1,1,0,0,1-.728-.727l-.477-1.908L12.98,13.2a1,1,0,0,1-1.96-.392L11.78,9H9.847L9.1,13.493l4.416,2.65a1,1,0,0,1,.414.486l2,5a1,1,0,0,1-.558,1.3A.986.986,0,0,1,15,23a1,1,0,0,1-.929-.629L12.2,17.685,7.485,14.857a1,1,0,0,1-.471-1.021l.611-3.67L5.8,12.6a1,1,0,0,1-.484.349l-3,1a1,1,0,0,1-.632-1.9l2.7-.9L7.2,7.4A1,1,0,0,1,8,7h6a1,1,0,0,1,.97.757l.854,3.418,3.418.855a1,1,0,0,1,.706.654ZM14,3.5A2.5,2.5,0,1,0,11.5,6,2.5,2.5,0,0,0,14,3.5ZM4.707,22.707l3-3a1,1,0,0,0,.263-.465l.5-2a1,1,0,0,0-1.94-.484L6.1,18.488l-2.8,2.805a1,1,0,1,0,1.414,1.414Z"/></svg>