<svg xmlns="http://www.w3.org/2000/svg" viewBox="0 0 24 24"><path d="M16.993,1.293a1,1,0,0,0-.973-.257,10.046,10.046,0,0,0-4.013,2.4,5.8,5.8,0,0,0-1.7,3.368A3.829,3.829,0,0,1,9.15,9.15,3.829,3.829,0,0,1,6.8,10.305a5.8,5.8,0,0,0-3.368,1.7,11.426,11.426,0,0,0-2.385,3.962,1,1,0,0,0,.242,1.024l5.714,5.714a1,1,0,0,0,1.656-.391,9.351,9.351,0,0,1,1.9-3.18c1.781-1.781,3.377-.52,5.714-2.858,2.317-2.316,1.09-3.946,2.858-5.714a8.134,8.134,0,0,1,3.13-1.886,1,1,0,0,0,.441-1.671ZM4.85,13.421A3.834,3.834,0,0,1,7.2,12.266a5.788,5.788,0,0,0,3.368-1.7,5.788,5.788,0,0,0,1.7-3.368A3.834,3.834,0,0,1,13.421,4.85a8.091,8.091,0,0,1,2.605-1.7l1.351,1.351c-6.444,3.241-2.31,7.578-7.716,8.657-1.91.382-3.6,1.2-5.137,4.233L3.17,16.042A8.8,8.8,0,0,1,4.85,13.421Zm7.668,2.6C10.6,16.4,8.9,17.241,7.381,20.252L6.029,18.9c2.325-5.395,4.369-2.456,7.392-5.479,2.911-2.91.31-5.312,5.463-7.408L20.231,7.36C13.8,10.6,17.917,14.939,12.518,16.02Z"/></svg>