<svg xmlns="http://www.w3.org/2000/svg" viewBox="0 0 24 24"><path d="M3.293,13.707a1,1,0,0,1,0-1.414l2-2a1,1,0,0,1,1.414,0L8,11.586l1.293-1.293a1,1,0,0,1,1.414,0L12,11.586l1.293-1.293a1,1,0,0,1,1.414,0L16,11.586l1.293-1.293a1,1,0,0,1,1.414,0l2,2a1,1,0,1,1-1.414,1.414L18,12.414l-1.293,1.293a1,1,0,0,1-1.414,0L14,12.414l-1.293,1.293a1,1,0,0,1-1.414,0L10,12.414,8.707,13.707a1,1,0,0,1-1.414,0L6,12.414,4.707,13.707A1,1,0,0,1,3.293,13.707ZM3,8a7.008,7.008,0,0,1,7-7h4a7.008,7.008,0,0,1,7,7,1,1,0,0,1-1,1H4A1,1,0,0,1,3,8ZM5.1,7H18.9A5.008,5.008,0,0,0,14,3H10A5.008,5.008,0,0,0,5.1,7ZM3,16a1,1,0,0,1,1-1h8a1,1,0,0,1,.832.445L14,17.2l1.168-1.752A1,1,0,0,1,16,15h4a1,1,0,0,1,1,1,7.008,7.008,0,0,1-7,7H10A7.008,7.008,0,0,1,3,16Zm2.1,1A5.008,5.008,0,0,0,10,21h4a5.008,5.008,0,0,0,4.9-4H16.535l-1.7,2.555a1.039,1.039,0,0,1-1.664,0L11.465,17Z"/></svg>