<svg xmlns="http://www.w3.org/2000/svg" viewBox="0 0 24 24"><path d="M20,9H2a1,1,0,0,0-1,1v4a8.983,8.983,0,0,0,3.356,7H2a1,1,0,0,0,0,2H18a1,1,0,0,0,0-2H15.644a8.995,8.995,0,0,0,3.3-6H20a3,3,0,0,0,0-6ZM10,21a7.008,7.008,0,0,1-7-7V11H7v1a2,2,0,0,0-2,2v3a1,1,0,0,0,1,1h4a1,1,0,0,0,1-1V14a2,2,0,0,0-2-2V11h8v3A7.008,7.008,0,0,1,10,21ZM9,14v2H7V14Zm10-1V11c.306.069,2-.366,2,1C21,13.322,19.254,12.943,19,13ZM3.293,7.707a1,1,0,0,1,0-1.414l1.25-1.25a2.42,2.42,0,0,1-.6-1.543,2.049,2.049,0,0,1,.6-1.457l.75-.75A1,1,0,0,1,6.707,2.707l-.75.75A2.42,2.42,0,0,1,6.561,5a2.049,2.049,0,0,1-.6,1.457l-1.25,1.25a1,1,0,0,1-1.414,0Zm8.414-5-.75.75A2.42,2.42,0,0,1,11.561,5a2.049,2.049,0,0,1-.6,1.457l-1.25,1.25A1,1,0,0,1,8.293,6.293l1.25-1.25a2.42,2.42,0,0,1-.6-1.543,2.049,2.049,0,0,1,.6-1.457l.75-.75a1,1,0,0,1,1.414,1.414Zm5,0-.75.75A2.42,2.42,0,0,1,16.561,5a2.049,2.049,0,0,1-.6,1.457l-1.25,1.25a1,1,0,0,1-1.414-1.414l1.25-1.25a2.42,2.42,0,0,1-.6-1.543,2.049,2.049,0,0,1,.6-1.457l.75-.75a1,1,0,0,1,1.414,1.414Z"/></svg>