<svg xmlns="http://www.w3.org/2000/svg" viewBox="0 0 24 24"><path d="M16.939,4.432a22.507,22.507,0,0,1-2.817-2.567,3.072,3.072,0,0,0-4.244,0A22.607,22.607,0,0,1,7.061,4.432a9.082,9.082,0,0,0,0,15.136C9.528,21.317,9.94,23.015,12,23.015s2.415-1.657,4.939-3.447a9.082,9.082,0,0,0,0-15.136Zm-1.156,13.5a23.991,23.991,0,0,0-3.076,2.786,1.021,1.021,0,0,1-1.414,0,24.094,24.094,0,0,0-3.076-2.786,7.08,7.08,0,0,1,0-11.866,24,24,0,0,0,3.075-2.786,1,1,0,0,1,1.416,0,24.057,24.057,0,0,0,3.075,2.786,7.08,7.08,0,0,1,0,11.866ZM10.949,7.684a1,1,0,0,1-.623,1.261c-.225.082-2.094.861-1.356,3.813a1,1,0,0,1-.727,1.212A1.025,1.025,0,0,1,8,14a1,1,0,0,1-.969-.758C6.061,9.368,8.342,7.5,9.684,7.052A1,1,0,0,1,10.949,7.684Z"/></svg>