<svg xmlns="http://www.w3.org/2000/svg" viewBox="0 0 24 24"><path d="M22,7H20.908C20.562,5.083,19.185,4,17,4c-.794,0-1.825-.906-2.654-1.633C13.478,1.6,12.791,1,12,1,10.906,1,9.057,2.567,7.592,4c-.14.053-3.585-.518-4.452,3H2A1,1,0,0,0,1,8v4a11,11,0,0,0,22,0V8A1,1,0,0,0,22,7ZM7,6h4a1,1,0,0,0,0-2h-.42a7.449,7.449,0,0,1,1.378-.986,8.616,8.616,0,0,1,1.068.855C14.107,4.818,15.452,6,17,6c1.038,0,1.613.3,1.857,1H5.234A1.772,1.772,0,0,1,7,6ZM3,9H21v2H3Zm9,12a9.011,9.011,0,0,1-8.941-8H20.941A9.011,9.011,0,0,1,12,21Z"/></svg>