<svg xmlns="http://www.w3.org/2000/svg" viewBox="0 0 24 24"><path d="M14,1a1,1,0,0,0-1,1V7a4,4,0,0,0,3,3.858v2.354A2.5,2.5,0,0,0,14.5,15.5v5a2.5,2.5,0,0,0,5,0v-5A2.5,2.5,0,0,0,18,13.212V10.858A4,4,0,0,0,21,7V2a1,1,0,0,0-2,0V6H18V2a1,1,0,0,0-2,0V6H15V2A1,1,0,0,0,14,1Zm3.5,19.5a.5.5,0,0,1-1,0v-5a.5.5,0,0,1,1,0ZM18.731,8a2,2,0,0,1-3.462,0ZM11,6c0-2.757-1.794-5-4-5S3,3.243,3,6a4.92,4.92,0,0,0,3,4.822v2.39A2.5,2.5,0,0,0,4.5,15.5v5a2.5,2.5,0,0,0,5,0v-5A2.5,2.5,0,0,0,8,13.212v-2.39A4.92,4.92,0,0,0,11,6ZM5,6c0-1.626.916-3,2-3S9,4.374,9,6,8.084,9,7,9,5,7.626,5,6ZM7.5,20.5a.5.5,0,0,1-1,0v-5a.5.5,0,0,1,1,0Z"/></svg>