<svg xmlns="http://www.w3.org/2000/svg" viewBox="0 0 24 24"><path d="M16.539,5H13.156A2.682,2.682,0,0,1,16,3a1,1,0,0,0,0-2,4.686,4.686,0,0,0-4.9,4H7.461a4.279,4.279,0,0,0-3.2,1.5,5.38,5.38,0,0,0-.583,6.091l4.539,8.079A4.35,4.35,0,0,0,12,23a4.35,4.35,0,0,0,3.783-2.328l4.539-8.079A5.38,5.38,0,0,0,19.739,6.5,4.279,4.279,0,0,0,16.539,5Zm2.039,6.612C14.272,18.644,14.19,21,12,21s-2.264-2.343-6.578-9.388C4.307,9.63,5.522,7,7.461,7h9.078C18.493,7,19.684,9.646,18.578,11.612ZM8,11a1,1,0,0,1-.707-1.707l1-1A1,1,0,0,1,9.707,9.707l-1,1A1,1,0,0,1,8,11Zm2.793-.293a1,1,0,0,1,0-1.414l1-1a1,1,0,0,1,1.414,1.414l-1,1a1,1,0,0,1-1.414,0Zm5.914-2.414a1,1,0,0,1,0,1.414l-1,1a1,1,0,0,1-1.414-1.414l1-1A1,1,0,0,1,16.707,8.293Zm-3.5,8a1,1,0,0,1,0,1.414l-1,1a1,1,0,0,1-1.414-1.414l1-1A1,1,0,0,1,13.207,16.293Zm-2.5-2.586-1,1a1,1,0,0,1-1.414-1.414l1-1a1,1,0,0,1,1.414,1.414Zm5-1.414a1,1,0,0,1,0,1.414l-1,1a1,1,0,0,1-1.414-1.414l1-1A1,1,0,0,1,15.707,12.293Z"/></svg>