<svg xmlns="http://www.w3.org/2000/svg" viewBox="0 0 24 24"><path d="M22,9H13V6a3,3,0,0,1,3-3,1,1,0,0,0,0-2,4.993,4.993,0,0,0-4.495,2.851,6.328,6.328,0,0,0-8.02-.708,1,1,0,0,0-.414,1.228,6.179,6.179,0,0,0,3.32,3.218,5.785,5.785,0,0,0,2.07.372A7.889,7.889,0,0,0,11,7.491V9H2a1,1,0,0,0-1,1V22a1,1,0,0,0,1,1H22a1,1,0,0,0,1-1V10A1,1,0,0,0,22,9ZM7.123,5.728A3.914,3.914,0,0,1,5.4,4.409,4.332,4.332,0,0,1,10.421,5.59,4.809,4.809,0,0,1,7.123,5.728ZM21,19.184A2.987,2.987,0,0,0,19.184,21H4.816A2.987,2.987,0,0,0,3,19.184V12.816A2.987,2.987,0,0,0,4.816,11H19.184A2.987,2.987,0,0,0,21,12.816ZM14,16a2,2,0,1,1-2-2A2,2,0,0,1,14,16Z"/></svg>