<svg xmlns="http://www.w3.org/2000/svg" viewBox="0 0 24 24"><path d="M22,2H2A1,1,0,0,0,1,3V21a1,1,0,0,0,1,1H22a1,1,0,0,0,1-1V3A1,1,0,0,0,22,2ZM21,20H3V4H21ZM5,16a1,1,0,0,1,1-1h.2a12.918,12.918,0,0,0,9.193-3.808L15.586,11H14a1,1,0,0,1,0-2h4a1.01,1.01,0,0,1,.382.077A1,1,0,0,1,19,10v4a1,1,0,0,1-2,0V12.414l-.192.192A14.9,14.9,0,0,1,6.2,17H6A1,1,0,0,1,5,16Zm.293-5.707L6.086,9.5l-.793-.793A1,1,0,1,1,6.707,7.293l.793.793.793-.793A1,1,0,1,1,9.707,8.707L8.914,9.5l.793.793a1,1,0,1,1-1.414,1.414L7.5,10.914l-.793.793a1,1,0,0,1-1.414-1.414Z"/></svg>