<svg xmlns="http://www.w3.org/2000/svg" viewBox="0 0 24 24"><path d="M7.553,10.9l2,1a1,1,0,0,0,.894-1.79l-2-1a1,1,0,1,0-.894,1.79Z"/><path d="M15.553,9.105l-2,1a1,1,0,0,0,.894,1.79l2-1a1,1,0,1,0-.894-1.79Z"/><path d="M15.225,14.368a4,4,0,0,1-6.45,0,1,1,0,0,0-1.55,1.264,6,6,0,0,0,9.55,0,1,1,0,1,0-1.55-1.264Z"/><path d="M22.585,1.189a1,1,0,0,0-.9-.138l-4.229,1.41a10.914,10.914,0,0,0-10.91,0L2.316,1.051A1,1,0,0,0,1,2V12a11,11,0,0,0,22,0V2A1,1,0,0,0,22.585,1.189ZM12,21a9,9,0,1,1,9-9A9.011,9.011,0,0,1,12,21Z"/></svg>