<svg xmlns="http://www.w3.org/2000/svg" viewBox="0 0 24 24"><path d="M14,15.582a1,1,0,0,0-.97.756A2.366,2.366,0,0,1,12.005,17a2.344,2.344,0,0,1-1.035-.662A1,1,0,0,0,9,16.582C9,17.7,10.815,19,12,19s3-1.3,3-2.418A1,1,0,0,0,14,15.582Z"/><path d="M12,1A11,11,0,1,0,23,12,11.013,11.013,0,0,0,12,1Zm8,9a3,3,0,1,1-3-3A3,3,0,0,1,20,10ZM17.74,5.075A4.87,4.87,0,0,0,17,5a5.009,5.009,0,0,0-4.9,4h-.2A5.009,5.009,0,0,0,7,5a4.87,4.87,0,0,0-.74.075,8.977,8.977,0,0,1,11.48,0ZM7,7a3,3,0,1,1-3,3A3,3,0,0,1,7,7Zm5,14a9.008,9.008,0,0,1-8.933-7.95A4.978,4.978,0,0,0,11.9,11h.2a4.978,4.978,0,0,0,8.832,2.05A9.008,9.008,0,0,1,12,21Z"/></svg>