<svg xmlns="http://www.w3.org/2000/svg" viewBox="0 0 24 24"><path d="M15.225,14.368a4,4,0,0,1-6.45,0,1,1,0,0,0-1.55,1.264,6,6,0,0,0,9.55,0,1,1,0,1,0-1.55-1.264Z"/><path d="M9,12a1,1,0,0,0,1-1V10a1,1,0,0,0-2,0v1A1,1,0,0,0,9,12Z"/><path d="M15,12a1,1,0,0,0,1-1V10a1,1,0,0,0-2,0v1A1,1,0,0,0,15,12Z"/><path d="M12,1A10.986,10.986,0,0,0,3.521,5H2A1,1,0,0,0,2,7h.214A10.993,10.993,0,1,0,12,1Zm0,2a8.953,8.953,0,0,1,5.644,2H6.356A8.953,8.953,0,0,1,12,3Zm0,18A8.994,8.994,0,0,1,4.522,7H19.478A8.994,8.994,0,0,1,12,21Z"/></svg>