<svg xmlns="http://www.w3.org/2000/svg" viewBox="0 0 24 24"><path d="M9,12a1,1,0,0,0,1-1V9A1,1,0,0,0,8,9v2A1,1,0,0,0,9,12Z"/><path d="M15,12a1,1,0,0,0,1-1V9a1,1,0,0,0-2,0v2A1,1,0,0,0,15,12Z"/><path d="M12,1A11,11,0,1,0,23,12,11.013,11.013,0,0,0,12,1Zm0,2a9,9,0,0,1,8.972,8.451l-4.485,2.691-2.236-1.127a5.018,5.018,0,0,0-4.5,0L7.513,14.142,3.028,11.451A9,9,0,0,1,12,3Zm8.074,12.95L18.6,15.207l2.2-1.319A8.88,8.88,0,0,1,20.074,15.95ZM12,21a9.051,9.051,0,0,1-7-3.353L10.649,14.8a3.01,3.01,0,0,1,2.7,0L19,17.647A9.048,9.048,0,0,1,12,21ZM3.2,13.888l2.2,1.319-1.475.743A8.88,8.88,0,0,1,3.2,13.888Z"/></svg>