<svg xmlns="http://www.w3.org/2000/svg" viewBox="0 0 24 24"><path d="M9,12a1,1,0,0,0,1-1V9A1,1,0,0,0,8,9v2A1,1,0,0,0,9,12Z"/><path d="M15,12a1,1,0,0,0,1-1V9a1,1,0,0,0-2,0v2A1,1,0,0,0,15,12Z"/><path d="M12,1A11,11,0,1,0,23,12,11.013,11.013,0,0,0,12,1Zm0,20a9,9,0,1,1,9-9A9.01,9.01,0,0,1,12,21Z"/><path d="M12,13.782A3.044,3.044,0,0,0,10,13c-2,0-2,1.333-4,1.333C6,14.333,8,17,10,17a3.044,3.044,0,0,0,2-.782A3.044,3.044,0,0,0,14,17c2,0,4-2.667,4-2.667-2,0-2-1.333-4-1.333A3.044,3.044,0,0,0,12,13.782Z"/></svg>