<svg xmlns="http://www.w3.org/2000/svg" viewBox="0 0 24 24"><path d="M12,1A11,11,0,1,0,23,12,11.013,11.013,0,0,0,12,1Zm0,2a8.97,8.97,0,0,1,1.457.129L10.019,6.567A3.947,3.947,0,0,0,8,6a4,4,0,0,0-4,4,3.947,3.947,0,0,0,.567,2.019L3.129,13.457A8.943,8.943,0,0,1,12,3ZM6,10a2,2,0,1,1,2,2A2,2,0,0,1,6,10Zm6,11a9.009,9.009,0,0,1-8.225-5.362l2.206-2.2A3.947,3.947,0,0,0,8,14a4,4,0,0,0,4-4,3.947,3.947,0,0,0-.567-2.019l4.206-4.206A9,9,0,0,1,12,21Z"/><path d="M15,12a1,1,0,0,0,1-1V9a1,1,0,0,0-2,0v2A1,1,0,0,0,15,12Z"/><path d="M15.225,14.368A4.045,4.045,0,0,1,12,16a1,1,0,0,0,0,2,6.033,6.033,0,0,0,4.775-2.368,1,1,0,1,0-1.55-1.264Z"/></svg>