<svg xmlns="http://www.w3.org/2000/svg" viewBox="0 0 24 24"><path d="M12,3C7.674,3,3.773,6.005,2.062,10.654a.993.993,0,0,0,0,.692,11.393,11.393,0,0,0,7.7,7.383,1,1,0,0,0,.478-1.942A9.315,9.315,0,0,1,4.072,11C5.549,7.343,8.626,5,12,5s6.451,2.343,7.928,6a11.284,11.284,0,0,1-.785,1.58,1,1,0,0,0,1.715,1.029,13.449,13.449,0,0,0,1.08-2.263.993.993,0,0,0,0-.692C20.227,6.005,16.326,3,12,3Z"/><path d="M16,11a4,4,0,1,0-4,4A4,4,0,0,0,16,11Zm-4,2a2,2,0,1,1,2-2A2,2,0,0,1,12,13Z"/><path d="M19.707,15.293a1,1,0,0,0-1.414,0L17,16.586l-1.293-1.293a1,1,0,0,0-1.414,1.414L15.586,18l-1.293,1.293a1,1,0,1,0,1.414,1.414L17,19.414l1.293,1.293a1,1,0,0,0,1.414-1.414L18.414,18l1.293-1.293A1,1,0,0,0,19.707,15.293Z"/></svg>