<svg xmlns="http://www.w3.org/2000/svg" viewBox="0 0 24 24"><path d="M12,3C7.674,3,3.773,6,2.062,10.655a.99.99,0,0,0,0,.691,11.393,11.393,0,0,0,7.7,7.383,1,1,0,0,0,.478-1.942A9.315,9.315,0,0,1,4.072,11C5.549,7.343,8.627,5,12,5s6.451,2.343,7.928,6a11.3,11.3,0,0,1-.785,1.581,1,1,0,1,0,1.715,1.028,13.339,13.339,0,0,0,1.08-2.264.987.987,0,0,0,0-.69C20.227,6,16.326,3,12,3Z"/><path d="M12,7a4,4,0,1,0,4,4A4,4,0,0,0,12,7Zm0,6a2,2,0,1,1,2-2A2,2,0,0,1,12,13Z"/><path d="M17.5,14a1,1,0,0,0-1,1v1.5H15a1,1,0,0,0,0,2h1.5V20a1,1,0,0,0,2,0V18.5H20a1,1,0,0,0,0-2H18.5V15A1,1,0,0,0,17.5,14Z"/></svg>