<svg xmlns="http://www.w3.org/2000/svg" viewBox="0 0 24 24"><circle cx="7" cy="3.5" r="2.5"/><path d="M20.948,7.684A1,1,0,0,0,20,7H14a1,1,0,0,0-.948.684L12,10.838,10.949,7.684A1,1,0,0,0,10,7H4a1,1,0,0,0-.949.684l-2,6a1,1,0,0,0,1.9.632L4,11.162V22a1,1,0,0,0,2,0V16H8v6a1,1,0,0,0,2,0V11.162l1.051,3.154a1,1,0,0,0,1.9,0L14,11.162V22a1,1,0,0,0,2,0V16h2v6a1,1,0,0,0,2,0V11.162l1.052,3.154a1,1,0,1,0,1.9-.632ZM8,14H6V9H8Zm10,0H16V9h2Z"/><path d="M17,1a2.5,2.5,0,0,0-2.5,2.5V6h5V3.5A2.5,2.5,0,0,0,17,1Z"/></svg>