<svg xmlns="http://www.w3.org/2000/svg" viewBox="0 0 24 24"><circle cx="11.5" cy="3.5" r="2.5"/><path d="M4.707,22.707l3-3a1,1,0,0,0,.263-.465l.5-2a1,1,0,0,0-1.94-.484L6.1,18.488l-2.8,2.805a1,1,0,1,0,1.414,1.414Z"/><path d="M19.948,12.684a1,1,0,0,0-.706-.654l-3.418-.855L14.97,7.757A1,1,0,0,0,14,7H8a1,1,0,0,0-.8.4L4.388,11.15l-2.7.9a1,1,0,0,0,.632,1.9l3-1A1,1,0,0,0,5.8,12.6l1.825-2.434-.611,3.67a1,1,0,0,0,.471,1.021L12.2,17.685l1.875,4.686A1,1,0,0,0,15,23a.986.986,0,0,0,.371-.071,1,1,0,0,0,.558-1.3l-2-5a1,1,0,0,0-.414-.486L9.1,13.493,9.847,9H11.78l-.76,3.8a1,1,0,0,0,1.96.392l.573-2.861.477,1.908a1,1,0,0,0,.728.727l3.467.867,2.827,8.479a1,1,0,1,0,1.9-.632Z"/></svg>