<svg xmlns="http://www.w3.org/2000/svg" viewBox="0 0 24 24"><path d="M19.5,7H16.8A5,5,0,0,0,13.06,8.678L11,11V10a3,3,0,0,0-6,0v6H4.5a3.5,3.5,0,0,0,0,7H7.2a5,5,0,0,0,3.736-1.678l6.21-6.986A1.006,1.006,0,0,1,17.9,14h1.6a3.5,3.5,0,0,0,0-7ZM7,10a1,1,0,0,1,2,0v3.245L7,15.5Zm12.5,2H17.9a3,3,0,0,0-2.242,1.007l-6.21,6.986A3,3,0,0,1,7.2,21H4.5a1.5,1.5,0,0,1,0-3H6.1a3,3,0,0,0,2.242-1.007l6.21-6.986A3,3,0,0,1,16.8,9h2.7a1.5,1.5,0,0,1,0,3Z"/><circle cx="8" cy="3.5" r="2.5"/><path d="M22.707,17.293a1,1,0,0,0-1.414,0L19,19.586V18a1,1,0,0,0-2,0v4a1.01,1.01,0,0,0,.077.382,1,1,0,0,0,.541.541A1.01,1.01,0,0,0,18,23h4a1,1,0,0,0,0-2H20.414l2.293-2.293A1,1,0,0,0,22.707,17.293Z"/></svg>