<svg xmlns="http://www.w3.org/2000/svg" viewBox="0 0 24 24"><path d="M21.624,1.6a3.371,3.371,0,0,0-4.307.439l-2.339,2.34c-.148.147-.294.3-.439.445l-4.9-3.576A1.009,1.009,0,0,0,8.757,1.1L4.125,2.507a1,1,0,0,0-.416,1.664L9.64,10.1c-.859.981-1.631,1.891-2.346,2.764l-.056.07H3.611a1,1,0,0,0-.707.293L1.293,14.84A1,1,0,0,0,1.486,16.4L5.3,18.691l2.288,3.814a1,1,0,0,0,1.564.192l1.611-1.61a1,1,0,0,0,.293-.707V16.753l.07-.057c.87-.713,1.78-1.484,2.765-2.345l5.93,5.93a1,1,0,0,0,1.664-.416l1.41-4.632a1,1,0,0,0-.15-.88l-3.576-4.9c.149-.145.3-.291.445-.438L22.04,6.587A3.28,3.28,0,0,0,21.624,1.6Zm-1,3.575L17.15,8.622a1,1,0,0,0-.11,1.307l3.8,5.2-.779,2.559L14.64,12.272a1,1,0,0,0-1.37-.041c-2.258,2-3.593,3.061-3.848,3.273a1,1,0,0,0-.367.774v3.688l-.412.412-1.758-2.93a1,1,0,0,0-.343-.343L3.613,15.348l.412-.412H7.712a1,1,0,0,0,.774-.367c.1-.118,1.275-1.6,3.273-3.846a1,1,0,0,0-.041-1.371L6.3,3.936l2.56-.781,5.2,3.8a1,1,0,0,0,1.3-.108l3.365-3.391a1.374,1.374,0,0,1,1.724-.23,1.279,1.279,0,0,1,.171,1.952Z"/></svg>