<svg xmlns="http://www.w3.org/2000/svg" viewBox="0 0 24 24"><path d="M21,20H12a1,1,0,0,0,0,2h9a1,1,0,0,0,0-2Z"/><path d="M22.973,12.414A6.163,6.163,0,0,0,16.786,7H15V4h3a1,1,0,0,0,0-2H10a1,1,0,0,0,0,2h3V7H6.413L2.706,3.293A1,1,0,0,0,1,4V8a1,1,0,0,0,.105.447l2,4A1,1,0,0,0,4,13H6.983a2.981,2.981,0,0,1,2.673,1.651C10.793,16.91,12.47,19,17,19a6,6,0,0,0,6-6C23,12.762,22.985,12.54,22.973,12.414Zm-3.012,3.275A4.009,4.009,0,0,1,17,17c-3.628,0-4.664-1.471-5.558-3.248A4.972,4.972,0,0,0,6.983,11H4.617L3,7.764V6.414L5.292,8.707A1,1,0,0,0,6,9h9v4a1,1,0,0,0,1,1h4.857A3.928,3.928,0,0,1,19.961,15.689ZM17,12V9.02A4.177,4.177,0,0,1,20.861,12Z"/></svg>