<svg xmlns="http://www.w3.org/2000/svg" viewBox="0 0 24 24"><path d="M5.394,10.26a1.014,1.014,0,0,0-.817.287L1.293,13.83a1,1,0,0,0,.313,1.626l4.856,2.082,2.082,4.856a1,1,0,0,0,1.626.313l3.283-3.283a1,1,0,0,0,.287-.818L13.5,16.4l.446-.446,4.516,4.517A1,1,0,0,0,20,20.309l2.836-4.329a1,1,0,0,0-.042-1.155l-3.348-4.378,1.918-1.919a4.171,4.171,0,0,0,0-5.891h0a4.165,4.165,0,0,0-5.892,0L13.554,4.555,9.175,1.206A1,1,0,0,0,8.02,1.163L3.691,4a1,1,0,0,0-.159,1.544L8.049,10.06l-.446.446Zm15.381,5.218L19,18.184l-3.646-3.647,2.664-2.664ZM5.815,5,8.523,3.225l3.605,2.756L9.463,8.646ZM8.677,12.26l8.21-8.209a2.215,2.215,0,0,1,3.062,0h0a2.169,2.169,0,0,1,0,3.063l-6.715,6.715h0v0l-1.491,1.491a1,1,0,0,0-.287.818L11.7,18.35l-1.9,1.9L8.143,16.383a1,1,0,0,0-.525-.526L3.751,14.2l1.9-1.9,2.209.246A1,1,0,0,0,8.677,12.26Z"/></svg>