<svg xmlns="http://www.w3.org/2000/svg" viewBox="0 0 24 24"><path d="M22,17.667a1,1,0,0,0-1,1,2.334,2.334,0,0,1-4.667,0,1,1,0,1,0-2,0,2.333,2.333,0,1,1-4.666,0,1,1,0,0,0-2,0,2.334,2.334,0,0,1-4.667,0,1,1,0,0,0-2,0,4.332,4.332,0,0,0,7.667,2.766,4.328,4.328,0,0,0,6.666,0A4.332,4.332,0,0,0,23,18.667,1,1,0,0,0,22,17.667Z"/><path d="M17.8,17.98A.948.948,0,0,0,18,18a1,1,0,0,0,.979-.8l1-5a1,1,0,0,0-.484-1.064L18,10.277V6a2,2,0,0,0-2-2H13V2a1,1,0,0,0-2,0V4H8A2,2,0,0,0,6,6v4.277l-1.5.855A1,1,0,0,0,4.02,12.2l1,5A1,1,0,0,0,6.98,16.8l-.858-4.293L12,9.152l5.878,3.359L17.02,16.8A1,1,0,0,0,17.8,17.98ZM16,9.134l-3.5-2a1,1,0,0,0-.992,0l-3.5,2V6h8Z"/></svg>