<svg xmlns="http://www.w3.org/2000/svg" viewBox="0 0 24 24"><path d="M20.428,3.572a5.323,5.323,0,0,0-6.989-.5,2.069,2.069,0,0,0-.666-.118h0a2.08,2.08,0,0,0-1.479.613L9.749,5.116a2.034,2.034,0,0,0-.52,2.064L7.18,9.229A2.072,2.072,0,0,0,6.6,9.136h0a2.082,2.082,0,0,0-1.48.613L3.572,11.293a2.047,2.047,0,0,0-.5,2.146,5.345,5.345,0,0,0,7.484,7.484,2.069,2.069,0,0,0,.666.118h0a2.08,2.08,0,0,0,1.479-.613l1.544-1.544a2.034,2.034,0,0,0,.52-2.064l2.049-2.049a2.072,2.072,0,0,0,.583.093h0a2.082,2.082,0,0,0,1.48-.613l1.544-1.544a2.047,2.047,0,0,0,.495-2.146A5.324,5.324,0,0,0,20.428,3.572ZM9.75,17.469a2.077,2.077,0,0,0-.614,1.478,2.127,2.127,0,0,0,.066.5,3.464,3.464,0,0,1-4.216-.432A3.36,3.36,0,0,1,4.548,14.8a2.111,2.111,0,0,0,.5.068h0a2.076,2.076,0,0,0,1.477-.613l.065-.065,3.219,3.219Zm6.176-6.176a2.034,2.034,0,0,0-.52,2.064l-2.049,2.049a2.073,2.073,0,0,0-.584-.093h0a2.075,2.075,0,0,0-1.479.613l-.065.065L8.009,12.772l.065-.065a2.077,2.077,0,0,0,.614-1.48,2.11,2.11,0,0,0-.094-.584l2.049-2.049a2.11,2.11,0,0,0,.584.094h0a2.076,2.076,0,0,0,1.479-.614l.065-.065,3.219,3.219Zm3.525-2.087a2.08,2.08,0,0,0-1.981.543l-.065.065L14.186,6.6l.065-.065a2.084,2.084,0,0,0,.543-1.981,3.364,3.364,0,0,1,4.657,4.657Z"/></svg>