<svg xmlns="http://www.w3.org/2000/svg" viewBox="0 0 24 24"><path d="M2,9A1,1,0,0,0,3,8V6A1,1,0,0,0,1,6V8A1,1,0,0,0,2,9Z"/><path d="M22,5a1,1,0,0,0-1,1V8a1,1,0,0,0,2,0V6A1,1,0,0,0,22,5Z"/><path d="M20.708,19.294l0,0L18.8,17.385A2.985,2.985,0,0,0,20,15V4a3,3,0,0,0-3-3H7A3,3,0,0,0,4,4V15a2.985,2.985,0,0,0,1.2,2.385L3.293,19.293h0l-2,2a1,1,0,0,0,1.414,1.414L4.414,21H19.586l1.707,1.707a1,1,0,0,0,1.414-1.414ZM6.414,19l1-1h9.172l1,1ZM18,15a1,1,0,0,1-1,1H7a1,1,0,0,1-1-1V14H18Zm0-3H6V7H18Zm0-7H6V4A1,1,0,0,1,7,3H17a1,1,0,0,1,1,1Z"/></svg>