<svg xmlns="http://www.w3.org/2000/svg" viewBox="0 0 24 24"><path d="M22,3H19a1,1,0,0,0,0,2h3a1,1,0,0,0,0-2Z"/><path d="M1,4A1,1,0,0,0,2,5h8.184a3,3,0,1,0,0-2H2A1,1,0,0,0,1,4ZM13,3a1,1,0,1,1-1,1A1,1,0,0,1,13,3Z"/><path d="M2,13H6.184a3,3,0,1,0,0-2H2a1,1,0,0,0,0,2Zm7-2a1,1,0,1,1-1,1A1,1,0,0,1,9,11Z"/><path d="M22,11H15a1,1,0,0,0,0,2h7a1,1,0,0,0,0-2Z"/><path d="M22,19H17a1,1,0,0,0,0,2h5a1,1,0,0,0,0-2Z"/><path d="M2,21H8.184a3,3,0,1,0,0-2H2a1,1,0,0,0,0,2Zm9-2a1,1,0,1,1-1,1A1,1,0,0,1,11,19Z"/></svg>