<svg xmlns="http://www.w3.org/2000/svg" viewBox="0 0 24 24"><path d="M13,6.184V2a1,1,0,0,0-2,0V6.184a3,3,0,1,0,2,0ZM12,10a1,1,0,1,1,1-1A1,1,0,0,1,12,10Z"/><path d="M21,10.184V2a1,1,0,0,0-2,0v8.184a3,3,0,1,0,2,0ZM20,14a1,1,0,1,1,1-1A1,1,0,0,1,20,14Z"/><path d="M4,14A2.993,2.993,0,0,0,5,8.184V2A1,1,0,0,0,3,2V8.184A2.993,2.993,0,0,0,4,14Zm0-4a1,1,0,1,1-1,1A1,1,0,0,1,4,10Z"/><path d="M21,22V19a1,1,0,0,0-2,0v3a1,1,0,0,0,2,0Z"/><path d="M13,22V15a1,1,0,0,0-2,0v7a1,1,0,0,0,2,0Z"/><path d="M5,22V17a1,1,0,0,0-2,0v5a1,1,0,0,0,2,0Z"/></svg>