<svg xmlns="http://www.w3.org/2000/svg" viewBox="0 0 24 24"><path d="M9.223,21.4a7.122,7.122,0,0,0,5.035-2.087l7.984-7.984a1,1,0,1,0-1.414-1.414L12.844,17.9a4.93,4.93,0,0,1-6.807.273,4.766,4.766,0,0,1-.1-6.843l6.8-6.8a2.845,2.845,0,0,1,4.023,4.023l-6.8,6.8a.945.945,0,0,1-1.3,0,.925.925,0,0,1,0-1.3l5.437-5.437A1,1,0,0,0,12.673,7.2L7.236,12.635a2.927,2.927,0,0,0,0,4.133,2.992,2.992,0,0,0,4.132,0l6.8-6.8A4.845,4.845,0,1,0,11.313,3.12l-6.8,6.8a6.765,6.765,0,0,0,.148,9.713A6.607,6.607,0,0,0,9.223,21.4Z"/></svg>