<svg xmlns="http://www.w3.org/2000/svg" viewBox="0 0 24 24"><path d="M22,8.5H19.535l-3.7-5.555a1,1,0,0,0-1.664,1.11L17.132,8.5H6.868L9.832,4.055a1,1,0,0,0-1.664-1.11L4.465,8.5H2a1,1,0,0,0,0,2H3v8a3,3,0,0,0,3,3H18a3,3,0,0,0,3-3v-8h1a1,1,0,0,0,0-2Zm-3,10a1,1,0,0,1-1,1H6a1,1,0,0,1-1-1v-8H19Z"/><path d="M8,18a1,1,0,0,0,1-1V13a1,1,0,0,0-2,0v4A1,1,0,0,0,8,18Z"/><path d="M12,18a1,1,0,0,0,1-1V13a1,1,0,0,0-2,0v4A1,1,0,0,0,12,18Z"/><path d="M16,18a1,1,0,0,0,1-1V13a1,1,0,0,0-2,0v4A1,1,0,0,0,16,18Z"/></svg>