<svg xmlns="http://www.w3.org/2000/svg" viewBox="0 0 24 24"><path d="M17,12a5,5,0,1,0-5,5A5.006,5.006,0,0,0,17,12Zm-5,3a3,3,0,1,1,3-3A3,3,0,0,1,12,15Z"/><path d="M12,5a1,1,0,0,0,1-1V2a1,1,0,0,0-2,0V4A1,1,0,0,0,12,5Z"/><path d="M11,20v2a1,1,0,0,0,2,0V20a1,1,0,0,0-2,0Z"/><path d="M19.778,4.222a1,1,0,0,0-1.414,0L16.95,5.636A1,1,0,1,0,18.364,7.05l1.414-1.414A1,1,0,0,0,19.778,4.222Z"/><path d="M4.222,19.778a1,1,0,0,0,1.414,0L7.05,18.364A1,1,0,0,0,5.636,16.95L4.222,18.364A1,1,0,0,0,4.222,19.778Z"/><path d="M22,11H20a1,1,0,0,0,0,2h2a1,1,0,0,0,0-2Z"/><path d="M4,13a1,1,0,0,0,0-2H2a1,1,0,0,0,0,2Z"/><path d="M18.364,19.778a1,1,0,0,0,1.414-1.414L18.364,16.95a1,1,0,0,0-1.414,1.414Z"/><path d="M5.636,7.05A1,1,0,0,0,7.05,5.636L5.636,4.222A1,1,0,0,0,4.222,5.636Z"/></svg>