<svg xmlns="http://www.w3.org/2000/svg" viewBox="0 0 24 24"><path d="M15.716,4.354a8.031,8.031,0,1,0-2.7,13.138l3.58,3.581A3.164,3.164,0,0,0,21.073,16.6l-3.58-3.58A8.046,8.046,0,0,0,15.716,4.354ZM10.034,16.069A6.033,6.033,0,1,1,14.3,14.3,6,6,0,0,1,10.034,16.069Zm9.625,1.943a1.165,1.165,0,0,1-1.647,1.647l-3.186-3.186a8.214,8.214,0,0,0,.89-.757,8.214,8.214,0,0,0,.757-.89Z"/><path d="M10.035,13a2.968,2.968,0,0,1-2.966-2.965V10a.984.984,0,0,0-1-.982,1.014,1.014,0,0,0-1,1.017A4.972,4.972,0,0,0,10.035,15a1,1,0,0,0,0-2Z"/></svg>