<svg xmlns="http://www.w3.org/2000/svg" viewBox="0 0 24 24"><path d="M12,13.5h4a1,1,0,0,0,0-2H13V7.7a1,1,0,1,0-2,0v4.8A1,1,0,0,0,12,13.5Z"/><path d="M2.293,22.207a1,1,0,0,0,1.414,0l2.682-2.682a8.958,8.958,0,0,0,11.222,0l2.682,2.682a1,1,0,0,0,1.414-1.414l-2.682-2.682a9,9,0,1,0-14.05,0L2.293,20.793A1,1,0,0,0,2.293,22.207ZM12,5.5a7,7,0,1,1-7,7A7.008,7.008,0,0,1,12,5.5Z"/><path d="M3,6.5a1,1,0,0,0,.707-.293l3-3A1,1,0,0,0,5.293,1.793l-3,3A1,1,0,0,0,3,6.5Z"/><path d="M21.707,4.793l-3-3a1,1,0,0,0-1.414,1.414l3,3a1,1,0,0,0,1.414-1.414Z"/></svg>