<svg xmlns="http://www.w3.org/2000/svg" viewBox="0 0 24 24"><path d="M8,2H5A3,3,0,0,0,2,5V8A1,1,0,0,0,4,8V5A1,1,0,0,1,5,4H8A1,1,0,0,0,8,2Z"/><path d="M2,19a3,3,0,0,0,3,3H8a1,1,0,0,0,0-2H5a1,1,0,0,1-1-1V16a1,1,0,0,0-2,0Z"/><path d="M21,15a1,1,0,0,0-1,1v3a1,1,0,0,1-1,1H16a1,1,0,0,0,0,2h3a3,3,0,0,0,3-3V16A1,1,0,0,0,21,15Z"/><path d="M19,2H16a1,1,0,0,0,0,2h3a1,1,0,0,1,1,1V8a1,1,0,0,0,2,0V5A3,3,0,0,0,19,2Z"/><path d="M8,9V8A1,1,0,0,0,6,8V9A1,1,0,0,0,8,9Z"/><path d="M18,9V8a1,1,0,0,0-2,0V9a1,1,0,0,0,2,0Z"/><path d="M8.775,14.368a1,1,0,0,0-1.55,1.264,6,6,0,0,0,9.55,0,1,1,0,1,0-1.55-1.264,4,4,0,0,1-6.45,0Z"/><path d="M11,7a1,1,0,0,0-1,1v3.01A3,3,0,0,0,13,14a1,1,0,0,0-.01-2,.991.991,0,0,1-.99-.99V8A1,1,0,0,0,11,7Z"/></svg>