<svg xmlns="http://www.w3.org/2000/svg" viewBox="0 0 24 24"><path d="M2,3V8A1,1,0,0,0,4,8V4H8A1,1,0,0,0,8,2H3A1,1,0,0,0,2,3Z"/><path d="M2,21a1,1,0,0,0,1,1H8a1,1,0,0,0,0-2H4V16a1,1,0,0,0-2,0Z"/><path d="M22,21V16a1,1,0,0,0-2,0v4H16a1,1,0,0,0,0,2h5A1,1,0,0,0,22,21Z"/><path d="M22,3a1,1,0,0,0-1-1H16a1,1,0,0,0,0,2h4V8a1,1,0,0,0,2,0Z"/><path d="M17.662,18.748a1,1,0,0,0,.088-1.411A6.627,6.627,0,0,0,12.757,15H11.244A6.626,6.626,0,0,0,6.25,17.338a1,1,0,0,0,1.5,1.324A4.651,4.651,0,0,1,11.244,17h1.513a4.653,4.653,0,0,1,3.493,1.661A1,1,0,0,0,17.662,18.748Z"/><path d="M12,5a4,4,0,1,0,4,4A4,4,0,0,0,12,5Zm0,6a2,2,0,1,1,2-2A2,2,0,0,1,12,11Z"/></svg>