<svg xmlns="http://www.w3.org/2000/svg" viewBox="0 0 24 24"><path d="M3.615,6.256l8,3.333a.989.989,0,0,0,.77,0l8-3.333a1,1,0,0,0,0-1.845l-8-3.334a1.007,1.007,0,0,0-.77,0l-8,3.334a1,1,0,0,0,0,1.845ZM12,3.083l5.4,2.25L12,7.583,6.6,5.333Z"/><path d="M20.923,9.393a1,1,0,0,0-1.308-.538L12,12.028,4.385,8.855a1,1,0,1,0-.77,1.846l8,3.333a1,1,0,0,0,.77,0l8-3.333A1,1,0,0,0,20.923,9.393Z"/><path d="M20.923,13.837a1,1,0,0,0-1.308-.538L12,16.472,4.385,13.3a1,1,0,1,0-.77,1.846l8,3.334a1,1,0,0,0,.77,0l8-3.334A1,1,0,0,0,20.923,13.837Z"/><path d="M19.615,17.744,12,20.917,4.385,17.744a1,1,0,1,0-.77,1.845l8,3.334a1,1,0,0,0,.77,0l8-3.334a1,1,0,1,0-.77-1.845Z"/></svg>