<svg xmlns="http://www.w3.org/2000/svg" viewBox="0 0 24 24"><path d="M21.929,2.926a1,1,0,0,0-.851-.855c-.342-.05-8.4-1.114-13.744,4.232A9.092,9.092,0,0,0,5.385,17.2L2.333,20.253a1,1,0,0,0,1.415,1.414L6.8,18.615a9.825,9.825,0,0,0,4.261,1.014A9.194,9.194,0,0,0,17.7,16.666a13.853,13.853,0,0,0,2.985-4.523,1,1,0,0,0-.216-1.091L18.414,9H20.8a1,1,0,0,0,.988-.844A19.743,19.743,0,0,0,21.929,2.926ZM19.921,7H16a1,1,0,0,0-.707,1.707l3.273,3.273a11.683,11.683,0,0,1-2.283,3.272A7.064,7.064,0,0,1,8.3,17.114l4.4-4.4A1,1,0,1,0,11.282,11.3l-4.4,4.4A7.064,7.064,0,0,1,8.748,7.717c3.733-3.733,9.233-3.84,11.263-3.73A18.954,18.954,0,0,1,19.921,7Z"/></svg>