<svg xmlns="http://www.w3.org/2000/svg" viewBox="0 0 24 24"><path d="M12,1A11,11,0,1,0,23,12,11.013,11.013,0,0,0,12,1Zm0,2a8.948,8.948,0,0,1,5.611,1.975l-2.14,2.14a5.96,5.96,0,0,0-6.942,0l-2.14-2.14A8.948,8.948,0,0,1,12,3Zm4,9a4,4,0,1,1-4-4A4,4,0,0,1,16,12ZM3,12A8.948,8.948,0,0,1,4.975,6.389l2.14,2.14a5.96,5.96,0,0,0,0,6.942l-2.14,2.14A8.948,8.948,0,0,1,3,12Zm9,9a8.948,8.948,0,0,1-5.611-1.975l2.14-2.14a5.96,5.96,0,0,0,6.942,0l2.14,2.14A8.948,8.948,0,0,1,12,21Zm7.025-3.389-2.14-2.14a5.96,5.96,0,0,0,0-6.942l2.14-2.14a8.958,8.958,0,0,1,0,11.222Z"/></svg>