<svg xmlns="http://www.w3.org/2000/svg" viewBox="0 0 24 24"><path d="M20.428,3.572a5.368,5.368,0,0,0-7.591,0L11.293,5.116A1,1,0,1,0,12.707,6.53l1.544-1.544a3.451,3.451,0,0,1,4.763,0,3.369,3.369,0,0,1,0,4.763L17.47,11.293a1,1,0,1,0,1.414,1.414l1.544-1.544a5.368,5.368,0,0,0,0-7.591Z"/><path d="M3.572,20.428a5.368,5.368,0,0,0,7.591,0l1.544-1.544a1,1,0,0,0-1.414-1.414L9.749,19.014a3.451,3.451,0,0,1-4.763,0,3.369,3.369,0,0,1,0-4.763L6.53,12.707a1,1,0,1,0-1.414-1.414L3.572,12.837a5.368,5.368,0,0,0,0,7.591Z"/><path d="M8.912,16.088a.993.993,0,0,0,.707-.293L15.8,9.619a1,1,0,1,0-1.414-1.414L8.205,14.381a1,1,0,0,0,.707,1.707Z"/></svg>