<svg xmlns="http://www.w3.org/2000/svg" viewBox="0 0 24 24"><path d="M12,1A11,11,0,1,0,23,12,11.013,11.013,0,0,0,12,1Zm0,20a9,9,0,1,1,9-9A9.01,9.01,0,0,1,12,21Z"/><path d="M12,4a1,1,0,0,0-1,1V7a1,1,0,0,0,2,0V5A1,1,0,0,0,12,4Z"/><path d="M12,16a1,1,0,0,0-1,1v2a1,1,0,0,0,2,0V17A1,1,0,0,0,12,16Z"/><path d="M15.536,9.465a1,1,0,0,0,.707-.293l1.414-1.415a1,1,0,0,0-1.415-1.414L14.828,7.758a1,1,0,0,0,.708,1.707Z"/><path d="M7.757,14.828,6.343,16.243a1,1,0,0,0,1.415,1.414l1.414-1.415a1,1,0,0,0-1.415-1.414Z"/><path d="M16,12a1,1,0,0,0,1,1h2a1,1,0,0,0,0-2H17A1,1,0,0,0,16,12Z"/><path d="M8,12a1,1,0,0,0-1-1H5a1,1,0,0,0,0,2H7A1,1,0,0,0,8,12Z"/><path d="M16.243,14.828a1,1,0,0,0-1.415,1.414l1.414,1.415a1,1,0,0,0,1.415-1.414Z"/><path d="M7.758,6.343A1,1,0,1,0,6.343,7.757L7.757,9.172A1,1,0,0,0,9.172,7.758Z"/></svg>