<svg xmlns="http://www.w3.org/2000/svg" viewBox="0 0 24 24"><path d="M2,13a1,1,0,0,0,1-1A8.994,8.994,0,0,1,16.421,4.165L15.293,5.293A1,1,0,0,0,16,7h4a1,1,0,0,0,1-1V2a1,1,0,0,0-1.707-.707L17.882,2.7A11,11,0,0,0,1,12,1,1,0,0,0,2,13Z"/><path d="M22,11a1,1,0,0,0-1,1,9.01,9.01,0,0,1-9,9,8.9,8.9,0,0,1-4.42-1.166l1.127-1.127A1,1,0,0,0,8,17H4a1,1,0,0,0-1,1v4a1,1,0,0,0,.617.924A.987.987,0,0,0,4,23a1,1,0,0,0,.707-.293L6.118,21.3A10.891,10.891,0,0,0,12,23,11.013,11.013,0,0,0,23,12,1,1,0,0,0,22,11Z"/></svg>