<svg xmlns="http://www.w3.org/2000/svg" viewBox="0 0 24 24"><path d="M12,23a2,2,0,0,0,2-2H10A2,2,0,0,0,12,23Z"/><path d="M20,9H18.414l2.293-2.293A1,1,0,0,0,20,5H16a1,1,0,0,0,0,2h1.586L15.293,9.293A1,1,0,0,0,16,11h4a1,1,0,0,0,0-2Z"/><path d="M20.707,17.293,19,15.586V13H17v3a1,1,0,0,0,.293.707l.293.293H6.414l.293-.293A1,1,0,0,0,7,16V10a4.98,4.98,0,0,1,5.912-4.912L14.5,3.5a.913.913,0,0,0-.168-.1A7,7,0,0,0,13,3.084V2a1,1,0,0,0-2,0V3.08A7,7,0,0,0,5,10v5.586L3.293,17.293A1,1,0,0,0,4,19H20a1,1,0,0,0,.707-1.707Z"/></svg>