<svg xmlns="http://www.w3.org/2000/svg" viewBox="0 0 24 24"><path d="M19.364,2A17.384,17.384,0,0,0,2,19.363a1,1,0,0,0,2,0A15.381,15.381,0,0,1,19.364,4a1,1,0,0,0,0-2Z"/><path d="M7.909,20.363a1,1,0,0,0,1-1A10.467,10.467,0,0,1,19.364,8.909a1,1,0,1,0,0-2A12.469,12.469,0,0,0,6.909,19.363,1,1,0,0,0,7.909,20.363Z"/><path d="M13.818,19.363a5.552,5.552,0,0,1,5.546-5.545,1,1,0,0,0,0-2,7.554,7.554,0,0,0-7.546,7.545,1,1,0,0,0,2,0Z"/><path d="M21,19.364A1.637,1.637,0,1,0,19.364,21,1.637,1.637,0,0,0,21,19.364Z"/></svg>