<svg xmlns="http://www.w3.org/2000/svg" viewBox="0 0 24 24"><path d="M12,2A15.037,15.037,0,0,0,1.293,6.436,1,1,0,0,0,2.707,7.85a13.141,13.141,0,0,1,18.586,0,1,1,0,0,0,1.414-1.414A15.037,15.037,0,0,0,12,2Z"/><path d="M19.374,10.078a10.427,10.427,0,0,0-14.748,0,1,1,0,0,0,1.415,1.414,8.426,8.426,0,0,1,11.918,0,1,1,0,0,0,1.415-1.414Z"/><path d="M15.333,15.381a1,1,0,0,0,.708-1.707,5.714,5.714,0,0,0-8.082,0,1,1,0,1,0,1.415,1.414,3.8,3.8,0,0,1,5.252,0A1,1,0,0,0,15.333,15.381Z"/><circle cx="12" cy="19.5" r="1.5"/></svg>