<svg xmlns="http://www.w3.org/2000/svg" viewBox="0 0 24 24"><path d="M18,6a4.608,4.608,0,0,0-.783.067,5.971,5.971,0,0,0-10.434,0A4.608,4.608,0,0,0,6,6,5,5,0,0,0,6,16a1,1,0,0,0,0-2A3,3,0,0,1,6,8a2.965,2.965,0,0,1,1,.188A1,1,0,0,0,8.27,7.6a3.977,3.977,0,0,1,7.46,0A1,1,0,0,0,17,8.188,2.965,2.965,0,0,1,18,8a3,3,0,0,1,0,6,1,1,0,0,0,0,2A5,5,0,0,0,18,6Z"/><path d="M9.293,20.707a1,1,0,0,0,1.414,0l4-4A1,1,0,0,0,14,15H12.414l2.293-2.293a1,1,0,0,0-1.414-1.414l-4,4A1,1,0,0,0,10,17h1.586L9.293,19.293A1,1,0,0,0,9.293,20.707Z"/></svg>