<svg xmlns="http://www.w3.org/2000/svg" viewBox="0 0 24 24"><path d="M20.565,13.182A5.892,5.892,0,0,0,21,11a6.028,6.028,0,0,0-.184-1.453A1,1,0,0,0,19.39,8.9,2.335,2.335,0,0,1,16,6.833a2.3,2.3,0,0,1,.085-.578A1.017,1.017,0,0,0,15.9,5.42a1.051,1.051,0,0,0-.766-.415L15,5A5.957,5.957,0,0,0,9.71,8.222a6.916,6.916,0,0,0-2.005-.216A7.212,7.212,0,0,0,1,15.271,7.737,7.737,0,0,0,8.729,23H18a5.006,5.006,0,0,0,5-5,5.96,5.96,0,0,0-1.758-4.243A6.021,6.021,0,0,0,20.565,13.182ZM14.01,7.123A4.334,4.334,0,0,0,19,11.113a3.782,3.782,0,0,1-.216,1.155,6.011,6.011,0,0,0-4.239.256,6.987,6.987,0,0,0-2.98-3.529A3.979,3.979,0,0,1,14.01,7.123ZM18,21H8.729A5.735,5.735,0,0,1,3,15.271,5.194,5.194,0,0,1,7.787,10a4.934,4.934,0,0,1,2.08.375,5.1,5.1,0,0,1,3.068,3.858,1,1,0,0,0,1.606.635,3.878,3.878,0,0,1,4.272-.414l.013,0A3.987,3.987,0,0,1,21,18,3,3,0,0,1,18,21Z"/></svg>