<svg xmlns="http://www.w3.org/2000/svg" viewBox="0 0 24 24"><path d="M22,15H2a1,1,0,0,0,0,2H22a1,1,0,0,0,0-2Z"/><path d="M18,19H6a1,1,0,0,0,0,2H18a1,1,0,0,0,0-2Z"/><path d="M18,6a4.608,4.608,0,0,0-.783.067,5.971,5.971,0,0,0-10.434,0A4.608,4.608,0,0,0,6,6a5.005,5.005,0,0,0-4.843,6.249,1,1,0,0,0,1.938-.5A3,3,0,0,1,6,8a2.965,2.965,0,0,1,1,.188A1,1,0,0,0,8.27,7.6a3.977,3.977,0,0,1,7.46,0A1,1,0,0,0,17,8.188,2.965,2.965,0,0,1,18,8a3,3,0,0,1,2.905,3.751,1,1,0,0,0,.72,1.218,1.019,1.019,0,0,0,.25.031,1,1,0,0,0,.968-.751A5.005,5.005,0,0,0,18,6Z"/></svg>