<svg xmlns="http://www.w3.org/2000/svg" viewBox="0 0 24 24"><path d="M22,12A6.99,6.99,0,0,0,9.191,8.118a6.905,6.905,0,0,0-1.486-.112A7.212,7.212,0,0,0,1,15.271,7.737,7.737,0,0,0,8.729,23H18a5.006,5.006,0,0,0,5-5,5.96,5.96,0,0,0-1.358-3.8A6.931,6.931,0,0,0,22,12ZM15,7a5,5,0,0,1,4.94,5.772A6.074,6.074,0,0,0,17,12h0a5.582,5.582,0,0,0-2.457.523,7.189,7.189,0,0,0-3.364-3.745A4.977,4.977,0,0,1,15,7Zm3,14H8.729A5.735,5.735,0,0,1,3,15.271,5.194,5.194,0,0,1,7.787,10a5.074,5.074,0,0,1,5.148,4.233,1,1,0,0,0,1.607.635,3.931,3.931,0,0,1,5.214.242A3.981,3.981,0,0,1,21,18,3,3,0,0,1,18,21Z"/></svg>