<svg xmlns="http://www.w3.org/2000/svg" viewBox="0 0 24 24"><path d="M18,12.5a4.608,4.608,0,0,0-.783.067,5.994,5.994,0,0,0-.577-.83A9.737,9.737,0,0,1,21,10.7a1,1,0,0,0,0-2,11.74,11.74,0,0,0-5.976,1.632A5.947,5.947,0,0,0,12,9.5a6.021,6.021,0,0,0-5.217,3.067,4.652,4.652,0,0,0-.76-.065A16.878,16.878,0,0,1,21,3.5a1,1,0,0,0,0-2A18.883,18.883,0,0,0,3.479,13.207,4.984,4.984,0,0,0,6,22.5H18a5,5,0,0,0,0-10Zm0,8H6a3,3,0,0,1,0-6,2.969,2.969,0,0,1,1,.187A1,1,0,0,0,8.27,14.1a3.977,3.977,0,0,1,7.46,0A1,1,0,0,0,17,14.687a2.969,2.969,0,0,1,1-.187,3,3,0,0,1,0,6Z"/></svg>