<svg xmlns="http://www.w3.org/2000/svg" viewBox="0 0 24 24"><path d="M12,2V3a1,1,0,0,0,2,0V2a1,1,0,0,0-2,0Z"/><path d="M6.636,6.05A1,1,0,0,0,8.05,4.636l-.707-.707A1,1,0,0,0,5.929,5.343Z"/><path d="M22,10H21a1,1,0,0,0,0,2h1a1,1,0,0,0,0-2Z"/><path d="M18.657,3.929l-.707.707A1,1,0,1,0,19.364,6.05l.707-.707a1,1,0,0,0-1.414-1.414Z"/><path d="M18.853,12.294A5.876,5.876,0,0,0,19,11,5.992,5.992,0,0,0,7.81,8.01c-.035,0-.069,0-.1,0A7.212,7.212,0,0,0,1,15.271,7.737,7.737,0,0,0,8.729,23H18a5.006,5.006,0,0,0,5-5,6,6,0,0,0-4.147-5.706ZM13,7a4,4,0,0,1,4,4,3.824,3.824,0,0,1-.133,1,5.73,5.73,0,0,0-2.324.523,6.91,6.91,0,0,0-4.5-4.214A3.991,3.991,0,0,1,13,7Zm5,14H8.729A5.735,5.735,0,0,1,3,15.271c0-5.947,7.9-7.2,9.717-1.906a5.044,5.044,0,0,1,.214.857l0,.016a1,1,0,0,0,1.607.634A3.812,3.812,0,0,1,17.035,14,4.055,4.055,0,0,1,21,18,3,3,0,0,1,18,21Z"/></svg>