<svg xmlns="http://www.w3.org/2000/svg" viewBox="0 0 24 24"><path d="M18,6a4.608,4.608,0,0,0-.783.067,5.971,5.971,0,0,0-10.434,0A4.608,4.608,0,0,0,6,6a5,5,0,0,0-2.5,9.331,1,1,0,0,0,1-1.732A3,3,0,0,1,6,8a2.979,2.979,0,0,1,1,.188A1,1,0,0,0,8.27,7.6a3.977,3.977,0,0,1,7.46,0A1,1,0,0,0,17,8.188,2.961,2.961,0,0,1,21,11a3.011,3.011,0,0,1-1.5,2.6,1,1,0,0,0,1,1.732A5,5,0,0,0,18,6Z"/><path d="M16,17.2c0-3.243-3.237-5.87-3.375-5.981a1,1,0,0,0-1.25,0C11.237,11.33,8,13.957,8,17.2,8,19.65,9.421,21,12,21S16,19.65,16,17.2Zm-6,0a6.15,6.15,0,0,1,2-3.839A6.15,6.15,0,0,1,14,17.2c0,1.112-.335,1.8-2,1.8S10,18.312,10,17.2Z"/></svg>