<svg xmlns="http://www.w3.org/2000/svg" viewBox="0 0 24 24"><path d="M19.8,15.924a1.053,1.053,0,0,0-.957-.453,7.23,7.23,0,0,1-5.622-2.177A1,1,0,0,0,11.8,14.706a9.352,9.352,0,0,0,5.335,2.7A7.4,7.4,0,0,1,11.569,20,7.811,7.811,0,0,1,4,11.984a7.989,7.989,0,0,1,5.341-7.65c-.042.133-.082.267-.119.4a1,1,0,1,0,1.929.528,8.278,8.278,0,0,1,.72-1.785,1,1,0,0,0-.036-1.019A1.034,1.034,0,0,0,10.923,2,9.854,9.854,0,0,0,2,11.984,9.811,9.811,0,0,0,11.569,22a9.528,9.528,0,0,0,8.309-5.059A1,1,0,0,0,19.8,15.924Z"/><path d="M20.5,13v-.5H21a1,1,0,0,0,0-2h-.5V10a1,1,0,0,0-2,0v.5H18a1,1,0,0,0,0,2h.5V13a1,1,0,0,0,2,0Z"/><path d="M16.5,2a1,1,0,0,0-1,1v.5H15a1,1,0,0,0,0,2h.5V6a1,1,0,0,0,2,0V5.5H18a1,1,0,0,0,0-2h-.5V3A1,1,0,0,0,16.5,2Z"/><path d="M10.5,12a1,1,0,0,0,1-1v-.5H12a1,1,0,0,0,0-2h-.5V8a1,1,0,0,0-2,0v.5H9a1,1,0,0,0,0,2h.5V11A1,1,0,0,0,10.5,12Z"/></svg>