<svg xmlns="http://www.w3.org/2000/svg" viewBox="0 0 24 24"><path d="M16,1A6.982,6.982,0,0,0,9.085,6.961a5.542,5.542,0,0,0-2.833,2.39A4.6,4.6,0,1,0,5.6,18.5a1,1,0,1,0,0-2,2.6,2.6,0,1,1,.865-5.037,1,1,0,0,0,1.27-.59,3.49,3.49,0,0,1,6.53,0,1,1,0,0,0,1.27.59A2.584,2.584,0,0,1,16.4,11.3,2.647,2.647,0,0,1,19,13.9a2.6,2.6,0,0,1-2.6,2.6,1,1,0,1,0,0,2A4.6,4.6,0,0,0,21,13.9a4.52,4.52,0,0,0-.1-.914A6.993,6.993,0,0,0,16,1Zm3.979,10.026a4.542,4.542,0,0,0-4.231-1.675A5.639,5.639,0,0,0,11.2,6.6a5,5,0,1,1,8.775,4.422Z"/><path d="M8.293,22.707a1,1,0,0,0,1.414,0l4-4A1,1,0,0,0,13,17H11.414l2.293-2.293a1,1,0,0,0-1.414-1.414l-4,4A1,1,0,0,0,9,19h1.586L8.293,21.293A1,1,0,0,0,8.293,22.707Z"/></svg>