<svg xmlns="http://www.w3.org/2000/svg" viewBox="0 0 24 24"><path d="M5.6,18.5a1,1,0,1,0,0-2,2.6,2.6,0,1,1,.866-5.037,1,1,0,0,0,1.27-.59,3.485,3.485,0,0,1,6.528,0,1,1,0,0,0,1.27.59,2.537,2.537,0,0,1,2.856.789l.011.009A2.572,2.572,0,0,1,19,13.9a2.6,2.6,0,0,1-2.6,2.6,1,1,0,1,0,0,2A4.6,4.6,0,0,0,21,13.9a4.552,4.552,0,0,0-.424-1.917A5.991,5.991,0,0,0,22.945,8.95a1,1,0,0,0-1.057-1.321,3.839,3.839,0,0,1-.445.027,4.005,4.005,0,0,1-3.791-5.329A1,1,0,0,0,16.6,1.006a5.991,5.991,0,0,0-5.316,5.613c-.094,0-.186-.019-.281-.019A5.52,5.52,0,0,0,6.252,9.351,4.6,4.6,0,1,0,5.6,18.5ZM15.432,3.408a6.026,6.026,0,0,0,4.9,6.147,4.069,4.069,0,0,1-.974.835,4.52,4.52,0,0,0-3.615-1.039,5.813,5.813,0,0,0-2.5-2.264A4,4,0,0,1,15.432,3.408Z"/><path d="M13.707,13.293a1,1,0,0,0-1.414,0l-4,4A1,1,0,0,0,9,19h1.586L8.293,21.293a1,1,0,1,0,1.414,1.414l4-4A1,1,0,0,0,13,17H11.414l2.293-2.293A1,1,0,0,0,13.707,13.293Z"/></svg>