<svg xmlns="http://www.w3.org/2000/svg" viewBox="0 0 24 24"><path d="M1,13.9a4.6,4.6,0,0,0,4.6,4.6,1,1,0,1,0,0-2,2.6,2.6,0,1,1,.866-5.037,1,1,0,0,0,1.27-.59A3.512,3.512,0,0,1,11,8.6a3.562,3.562,0,0,1,3.264,2.273,1,1,0,0,0,1.27.59,2.537,2.537,0,0,1,2.856.789l.011.009A2.572,2.572,0,0,1,19,13.9a2.6,2.6,0,0,1-2.6,2.6,1,1,0,1,0,0,2A4.6,4.6,0,0,0,21,13.9a4.552,4.552,0,0,0-.424-1.917A5.991,5.991,0,0,0,22.945,8.95a1,1,0,0,0-1.057-1.321,3.839,3.839,0,0,1-.445.027,4.005,4.005,0,0,1-3.791-5.329A1,1,0,0,0,16.6,1.006a5.991,5.991,0,0,0-5.316,5.613c-.094,0-.186-.019-.281-.019A5.52,5.52,0,0,0,6.252,9.351,4.6,4.6,0,0,0,1,13.9ZM15.432,3.408c0,.077-.005.155-.005.232a6.028,6.028,0,0,0,4.91,5.915,4.054,4.054,0,0,1-.975.835,4.53,4.53,0,0,0-3.61-1.04h0a5.847,5.847,0,0,0-2.5-2.264A4,4,0,0,1,15.432,3.408Z"/><path d="M9.947,14.105a1,1,0,0,0-1.342.448l-1,2a1,1,0,0,0,1.79.894l1-2A1,1,0,0,0,9.947,14.105Z"/><path d="M13.947,14.105a1,1,0,0,0-1.342.448l-1,2a1,1,0,0,0,1.79.894l1-2A1,1,0,0,0,13.947,14.105Z"/><path d="M9.947,19.105a1,1,0,0,0-1.342.448l-1,2a1,1,0,0,0,1.79.894l1-2A1,1,0,0,0,9.947,19.105Z"/><path d="M13.947,19.105a1,1,0,0,0-1.342.448l-1,2a1,1,0,0,0,1.79.894l1-2A1,1,0,0,0,13.947,19.105Z"/></svg>