<svg xmlns="http://www.w3.org/2000/svg" viewBox="0 0 24 24"><path d="M9.979,5.636a8.884,8.884,0,0,0-2.474,4.747,5.518,5.518,0,0,0-1.253,1.468A4.6,4.6,0,1,0,5.6,21H16.4a4.6,4.6,0,1,0-.652-9.149,5.53,5.53,0,0,0-1.678-1.787c.051-.061.095-.129.152-.185a3,3,0,0,1,4.243,0,1,1,0,1,0,1.414-1.414,5.006,5.006,0,0,0-7.071,0,4.882,4.882,0,0,0-.627.777,4.926,4.926,0,0,0-2.237-.026,6.867,6.867,0,0,1,1.45-2.166,7.008,7.008,0,0,1,9.9,0,1,1,0,0,0,1.414-1.414A9.009,9.009,0,0,0,9.979,5.636ZM11,11.1a3.515,3.515,0,0,1,3.265,2.273,1,1,0,0,0,1.27.59A2.594,2.594,0,1,1,16.4,19H5.6a2.6,2.6,0,1,1,.865-5.037,1,1,0,0,0,1.27-.59A3.515,3.515,0,0,1,11,11.1Z"/></svg>