<svg xmlns="http://www.w3.org/2000/svg" viewBox="0 0 24 24"><path d="M17.023,6h0a5.571,5.571,0,0,0-2.478.523A6.964,6.964,0,0,0,7.705,2.006,7.212,7.212,0,0,0,1,9.271a7.687,7.687,0,0,0,3.673,6.581,1,1,0,0,0,1.051-1.7A5.7,5.7,0,0,1,3,9.271,5.194,5.194,0,0,1,7.787,4a4.978,4.978,0,0,1,5.148,4.233,1,1,0,0,0,1.606.635A3.686,3.686,0,0,1,16.917,8,4.045,4.045,0,0,1,21,12a3,3,0,0,1-1.016,2.25,1,1,0,0,0,1.323,1.5A5,5,0,0,0,23,12a6,6,0,0,0-5.977-6Z"/><path d="M8,22a1,1,0,0,0,2,0V21a1,1,0,0,0-2,0Z"/><path d="M16,22a1,1,0,0,0,2,0V21a1,1,0,0,0-2,0Z"/><path d="M9,19a1,1,0,0,0,1-1V13a1,1,0,0,0-2,0v5A1,1,0,0,0,9,19Z"/><path d="M17,19a1,1,0,0,0,1-1V13a1,1,0,0,0-2,0v5A1,1,0,0,0,17,19Z"/><path d="M12,20a1,1,0,0,0,2,0V19a1,1,0,0,0-2,0Z"/><path d="M13,17a1,1,0,0,0,1-1V11a1,1,0,0,0-2,0v5A1,1,0,0,0,13,17Z"/></svg>