<svg xmlns="http://www.w3.org/2000/svg" viewBox="0 0 24 24"><path d="M20.293,11.893l-4.2,4.2a1,1,0,1,0,1.414,1.414l4.2-4.2a1,1,0,0,0-1.414-1.414Z"/><path d="M13.693,18.493l-1.8,1.8a1,1,0,1,0,1.414,1.414l1.8-1.8a1,1,0,0,0-1.414-1.414Z"/><path d="M7.2,8.2a.993.993,0,0,0,.707-.293l4.2-4.2a1,1,0,0,0-1.414-1.414l-4.2,4.2A1,1,0,0,0,7.2,8.2Z"/><path d="M5.507,8.893a1,1,0,0,0-1.414,0l-1.8,1.8a1,1,0,1,0,1.414,1.414l1.8-1.8A1,1,0,0,0,5.507,8.893Z"/><path d="M14.507,9.493a1,1,0,0,0-1.414,0l-4.2,4.2a1,1,0,1,0,1.414,1.414l4.2-4.2A1,1,0,0,0,14.507,9.493Z"/><path d="M6.493,16.093l-1.8,1.8a1,1,0,1,0,1.414,1.414l1.8-1.8a1,1,0,0,0-1.414-1.414Z"/></svg>