<svg xmlns="http://www.w3.org/2000/svg" viewBox="0 0 24 24"><path d="M18,6a4.608,4.608,0,0,0-.783.067,5.971,5.971,0,0,0-10.434,0A4.608,4.608,0,0,0,6,6a5,5,0,0,0-2.5,9.331,1,1,0,1,0,1-1.732A3,3,0,0,1,6,8a2.965,2.965,0,0,1,1,.188A1,1,0,0,0,8.27,7.6,3.962,3.962,0,0,1,12,5a4.013,4.013,0,0,1,3.73,2.6A1,1,0,0,0,17,8.188,2.961,2.961,0,0,1,21,11a3.011,3.011,0,0,1-1.5,2.6,1,1,0,0,0,1,1.732A5,5,0,0,0,18,6Z"/><path d="M7,15a1,1,0,0,0,1-1V12a1,1,0,0,0-2,0v2A1,1,0,0,0,7,15Z"/><path d="M6,20a1,1,0,0,0,2,0V18a1,1,0,0,0-2,0Z"/><path d="M17,15a1,1,0,0,0,1-1V12a1,1,0,0,0-2,0v2A1,1,0,0,0,17,15Z"/><path d="M16,20a1,1,0,0,0,2,0V18a1,1,0,0,0-2,0Z"/><path d="M12,12a1,1,0,0,0,1-1V9a1,1,0,0,0-2,0v2A1,1,0,0,0,12,12Z"/><path d="M11,17a1,1,0,0,0,2,0V15a1,1,0,0,0-2,0Z"/></svg>