<svg xmlns="http://www.w3.org/2000/svg" viewBox="0 0 24 24"><path d="M18,6a4.608,4.608,0,0,0-.783.067,5.971,5.971,0,0,0-10.434,0A4.608,4.608,0,0,0,6,6a5,5,0,0,0-2.5,9.331,1,1,0,0,0,1-1.732A3,3,0,0,1,6,8a2.979,2.979,0,0,1,1,.188A1,1,0,0,0,8.27,7.6a3.977,3.977,0,0,1,7.46,0A1,1,0,0,0,17,8.188,2.961,2.961,0,0,1,21,11a3.011,3.011,0,0,1-1.5,2.6,1,1,0,0,0,1,1.732A5,5,0,0,0,18,6Z"/><path d="M12,14a1,1,0,0,0,1-1V12a1,1,0,0,0-2,0v1A1,1,0,0,0,12,14Z"/><path d="M11,20a1,1,0,0,0,2,0V19a1,1,0,0,0-2,0Z"/><path d="M14.121,12.464l-.707.708a1,1,0,1,0,1.414,1.414l.707-.708a1,1,0,0,0-1.414-1.414Z"/><path d="M9.879,19.536l.707-.708a1,1,0,0,0-1.414-1.414l-.707.708a1,1,0,1,0,1.414,1.414Z"/><path d="M16,15H15a1,1,0,0,0,0,2h1a1,1,0,0,0,0-2Z"/><path d="M7,16a1,1,0,0,0,1,1H9a1,1,0,0,0,0-2H8A1,1,0,0,0,7,16Z"/><path d="M13.414,18.828l.707.708a1,1,0,0,0,1.414-1.414l-.707-.708a1,1,0,0,0-1.414,1.414Z"/><path d="M9.879,12.464a1,1,0,0,0-1.414,1.414l.707.708a1,1,0,1,0,1.414-1.414Z"/></svg>