<svg xmlns="http://www.w3.org/2000/svg" viewBox="0 0 24 24"><path d="M22,11H18.414l2.293-2.293a1,1,0,1,0-1.414-1.414L15.586,11H13V8.414l3.707-3.707a1,1,0,1,0-1.414-1.414L13,5.586V2a1,1,0,0,0-2,0V5.586L8.707,3.293A1,1,0,1,0,7.293,4.707L11,8.414V11H8.414L4.707,7.293A1,1,0,1,0,3.293,8.707L5.586,11H2a1,1,0,0,0,0,2H5.586L3.293,15.293a1,1,0,0,0,1.414,1.414L8.414,13H11v2.586L7.293,19.293a1,1,0,1,0,1.414,1.414L11,18.414V22a1,1,0,0,0,2,0V18.414l2.293,2.293a1,1,0,0,0,1.414-1.414L13,15.586V13h2.586l3.707,3.707a1,1,0,0,0,1.414-1.414L18.414,13H22a1,1,0,0,0,0-2Z"/></svg>