<svg xmlns="http://www.w3.org/2000/svg" viewBox="0 0 24 24"><path d="M6.252,10.751A4.222,4.222,0,0,0,5.6,10.7a4.6,4.6,0,0,0,0,9.2,1,1,0,1,0,0-2,2.6,2.6,0,0,1,0-5.2,2.549,2.549,0,0,1,.863.162,1,1,0,0,0,1.272-.589,3.488,3.488,0,0,1,6.53,0,1.03,1.03,0,0,0,1.272.589,2.317,2.317,0,0,1,1.255-.122A2.594,2.594,0,0,1,16.4,17.9a1,1,0,1,0,0,2,4.587,4.587,0,0,0,2.386-8.513A4.789,4.789,0,0,0,19,10,4.987,4.987,0,0,0,9.328,8.277,5.549,5.549,0,0,0,6.252,10.751ZM14,7a3,3,0,0,1,3,3,2.769,2.769,0,0,1-.1.731,4.884,4.884,0,0,0-1.153.02,5.518,5.518,0,0,0-4.024-2.7A2.974,2.974,0,0,1,14,7Z"/><path d="M22,9H21a1,1,0,0,0,0,2h1a1,1,0,0,0,0-2Z"/><path d="M15,3V2a1,1,0,0,0-2,0V3a1,1,0,0,0,2,0Z"/><path d="M19.657,5.757l.707-.707A1,1,0,1,0,18.95,3.636l-.707.707a1,1,0,1,0,1.414,1.414Z"/><path d="M9.05,6.05a1,1,0,0,0,.707-1.707L9.05,3.636A1,1,0,1,0,7.636,5.05l.707.707A1,1,0,0,0,9.05,6.05Z"/><path d="M8.293,22.707a1,1,0,0,0,1.414,0l4-4A1,1,0,0,0,13,17H11.414l2.293-2.293a1,1,0,0,0-1.414-1.414l-4,4A1,1,0,0,0,9,19h1.586L8.293,21.293A1,1,0,0,0,8.293,22.707Z"/></svg>