<svg xmlns="http://www.w3.org/2000/svg" viewBox="0 0 24 24"><path d="M22,15H2a1,1,0,0,0,0,2H22a1,1,0,0,0,0-2Z"/><path d="M18,21a1,1,0,0,0,0-2H6a1,1,0,0,0,0,2Z"/><path d="M7,12a1,1,0,0,0,2,0,3,3,0,0,1,6,0,1,1,0,0,0,2,0A5,5,0,0,0,7,12Z"/><path d="M11,5a1,1,0,0,0,2,0V4a1,1,0,0,0-2,0Z"/><path d="M18,12a1,1,0,0,0,1,1h1a1,1,0,0,0,0-2H19A1,1,0,0,0,18,12Z"/><path d="M4,11a1,1,0,0,0,0,2H5a1,1,0,0,0,0-2Z"/><path d="M5.636,5.636a1,1,0,0,0,0,1.414l.707.707A1,1,0,0,0,7.757,6.343L7.05,5.636A1,1,0,0,0,5.636,5.636Z"/><path d="M16.95,5.636l-.707.707a1,1,0,1,0,1.414,1.414l.707-.707A1,1,0,1,0,16.95,5.636Z"/></svg>