<svg xmlns="http://www.w3.org/2000/svg" viewBox="0 0 24 24"><path d="M12,18a6,6,0,1,0-6-6A6.006,6.006,0,0,0,12,18ZM12,8a4,4,0,1,1-4,4A4,4,0,0,1,12,8Z"/><path d="M12,4a1,1,0,0,0,1-1V2a1,1,0,0,0-2,0V3A1,1,0,0,0,12,4Z"/><path d="M11,21v1a1,1,0,0,0,2,0V21a1,1,0,0,0-2,0Z"/><path d="M18.364,6.636a1,1,0,0,0,.707-.293l.707-.707a1,1,0,0,0-1.414-1.414l-.707.707a1,1,0,0,0,.707,1.707Z"/><path d="M4.929,17.657l-.707.707a1,1,0,1,0,1.414,1.414l.707-.707a1,1,0,0,0-1.414-1.414Z"/><path d="M22,11H21a1,1,0,0,0,0,2h1a1,1,0,0,0,0-2Z"/><path d="M2,13H3a1,1,0,0,0,0-2H2a1,1,0,0,0,0,2Z"/><path d="M17.657,17.657a1,1,0,0,0,0,1.414l.707.707a1,1,0,0,0,1.414-1.414l-.707-.707A1,1,0,0,0,17.657,17.657Z"/><path d="M4.929,6.343A1,1,0,0,0,6.343,4.929l-.707-.707A1,1,0,0,0,4.222,5.636Z"/></svg>