<svg xmlns="http://www.w3.org/2000/svg" viewBox="0 0 24 24"><path d="M6,12a1,1,0,0,0,2,0,4,4,0,0,1,8,0,1,1,0,0,0,2,0A6,6,0,0,0,6,12Z"/><path d="M13,4V3a1,1,0,0,0-2,0V4a1,1,0,0,0,2,0Z"/><path d="M18.364,5.292,17.657,6a1,1,0,0,0,1.414,1.415l.707-.707a1,1,0,0,0-1.414-1.416Z"/><path d="M19,12a1,1,0,0,0,1,1h1a1,1,0,0,0,0-2H20A1,1,0,0,0,19,12Z"/><path d="M2,12a1,1,0,0,0,1,1H4a1,1,0,0,0,0-2H3A1,1,0,0,0,2,12Z"/><path d="M4.221,5.293a1,1,0,0,0,0,1.415l.707.707A1,1,0,1,0,6.343,6l-.707-.708A1,1,0,0,0,4.221,5.293Z"/><path d="M22,14H2a1,1,0,0,0,0,2H22a1,1,0,0,0,0-2Z"/><path d="M20,18a1,1,0,0,0-1-1H5a1,1,0,0,0,0,2H19A1,1,0,0,0,20,18Z"/><path d="M8,20a1,1,0,0,0,0,2h8a1,1,0,0,0,0-2Z"/></svg>