<svg xmlns="http://www.w3.org/2000/svg" viewBox="0 0 24 24"><path d="M8,16a1,1,0,0,0,1-1,3,3,0,0,1,6,0,1,1,0,0,0,2,0A5,5,0,0,0,7,15,1,1,0,0,0,8,16Z"/><path d="M18,10.414l.707-.707a1,1,0,0,0-1.414-1.414L16.586,9A1,1,0,1,0,18,10.414Z"/><path d="M20,16h1a1,1,0,0,0,0-2H20a1,1,0,0,0,0,2Z"/><path d="M4,14H3a1,1,0,0,0,0,2H4a1,1,0,0,0,0-2Z"/><path d="M5.293,9.707,6,10.414A1,1,0,1,0,7.414,9l-.707-.707A1,1,0,0,0,5.293,9.707Z"/><path d="M4,18a1,1,0,0,0,1,1H19a1,1,0,0,0,0-2H5A1,1,0,0,0,4,18Z"/><path d="M8,21a1,1,0,0,0,0,2h8a1,1,0,0,0,0-2Z"/><path d="M12,9a1,1,0,0,0,1-1V4.414l1.293,1.293a1,1,0,0,0,1.414-1.414l-3-3a1,1,0,0,0-1.416,0l-3,3A1,1,0,0,0,9.707,5.707L11,4.414V8A1,1,0,0,0,12,9Z"/></svg>