<svg xmlns="http://www.w3.org/2000/svg" viewBox="0 0 24 24"><circle cx="14" cy="16" r="3"/><path d="M18,10.262V5a4,4,0,0,0-8,0v5.261a6.986,6.986,0,0,0-2.913,6.854,7.067,7.067,0,0,0,6.07,5.835,7.194,7.194,0,0,0,.827.049A7,7,0,0,0,18,10.262Zm-.678,9.475a4.958,4.958,0,0,1-3.931,1.227,5,5,0,0,1-1.89-9.289,1,1,0,0,0,.5-.865V5a2,2,0,0,1,4,0v5.81a1,1,0,0,0,.5.865,4.995,4.995,0,0,1,.823,8.062Z"/><path d="M8,3H4A1,1,0,0,0,4,5H8A1,1,0,0,0,8,3Z"/><path d="M9,8A1,1,0,0,0,8,7H6A1,1,0,0,0,6,9H8A1,1,0,0,0,9,8Z"/></svg>