<svg xmlns="http://www.w3.org/2000/svg" viewBox="0 0 24 24"><path d="M13,3.051V2a1,1,0,0,0-2,0V3.051A11.01,11.01,0,0,0,1,14a1,1,0,0,0,1.707.707,3.488,3.488,0,0,1,2.245-1.034,1.709,1.709,0,0,1,1.216.882,1,1,0,0,0,1.724-.1c.154-.3.743-1.17,1.407-1.225.487-.044,1.077.373,1.7,1.135V20a3,3,0,0,0,6,0V19a1,1,0,0,0-2,0v1a1,1,0,0,1-2,0V14.361c.623-.762,1.209-1.178,1.7-1.135.664.055,1.253.925,1.4,1.221a1,1,0,0,0,1.727.108,1.707,1.707,0,0,1,1.211-.881,3.448,3.448,0,0,1,2.25,1.033A1,1,0,0,0,23,14,11.01,11.01,0,0,0,13,3.051Zm4.093,9.364c-1.4-1.5-3.314-1.695-5.093.06-1.752-1.728-3.672-1.592-5.093-.06a3.493,3.493,0,0,0-3.684-.409,9,9,0,0,1,17.554,0A3.486,3.486,0,0,0,17.093,12.415Z"/></svg>