<svg xmlns="http://www.w3.org/2000/svg" viewBox="0 0 24 24"><path d="M18.709,9A1.046,1.046,0,0,0,19,8.959a1,1,0,0,0,.673-1.244,7.938,7.938,0,0,0-1.1-2.287,1,1,0,1,0-1.64,1.144,5.96,5.96,0,0,1,.826,1.713A1,1,0,0,0,18.709,9Z"/><path d="M4.332,7.715a1,1,0,0,0,.673,1.244A1.046,1.046,0,0,0,5.291,9a1,1,0,0,0,.958-.715,5.96,5.96,0,0,1,.826-1.713,1,1,0,0,0-1.64-1.144A7.938,7.938,0,0,0,4.332,7.715Z"/><path d="M20,21H16.764l-1.022-3.746A3.64,3.64,0,0,0,20.5,15.825h0a3.659,3.659,0,0,0-1.307-5L15.654,8.753v-4.1a3.654,3.654,0,0,0-7.308,0v4.1L4.808,10.824a3.659,3.659,0,0,0-1.307,5h0a3.63,3.63,0,0,0,4.757,1.429L7.236,21H4a1,1,0,0,0,0,2H20a1,1,0,0,0,0-2Zm-4.352-9.933,2.533,1.484a1.655,1.655,0,0,1,.592,2.262h0a1.651,1.651,0,0,1-2.263.591l-2.54-1.487A3.774,3.774,0,0,0,15.648,11.067Zm-5.3-6.413a1.654,1.654,0,0,1,3.308,0V7.6A3.864,3.864,0,0,0,12,7.193a3.934,3.934,0,0,0-1.654.406ZM12,12.5a1.654,1.654,0,1,1,1.644-1.757A1.655,1.655,0,0,1,12,12.5Zm-4.509,2.9a1.651,1.651,0,0,1-2.263-.591h0a1.655,1.655,0,0,1,.592-2.262l2.533-1.484a3.74,3.74,0,0,0,1.679,2.851ZM9.309,21l1.409-5.166,1.071-.627L12,15.083l1.282.751L14.691,21Z"/></svg>