<svg xmlns="http://www.w3.org/2000/svg" viewBox="0 0 24 24"><path d="M19.73,16.663A3.467,3.467,0,0,0,20.5,14.5a3.5,3.5,0,0,0-7,0,3.467,3.467,0,0,0,.77,2.163A6.04,6.04,0,0,0,12,18.69a6.04,6.04,0,0,0-2.27-2.027A3.467,3.467,0,0,0,10.5,14.5a3.5,3.5,0,0,0-7,0,3.467,3.467,0,0,0,.77,2.163A6,6,0,0,0,1,22a1,1,0,0,0,1,1H22a1,1,0,0,0,1-1A6,6,0,0,0,19.73,16.663ZM7,13a1.5,1.5,0,1,1-1.5,1.5A1.5,1.5,0,0,1,7,13ZM3.127,21a4,4,0,0,1,7.746,0ZM17,13a1.5,1.5,0,1,1-1.5,1.5A1.5,1.5,0,0,1,17,13Zm-3.873,8a4,4,0,0,1,7.746,0Z"/><path d="M12,11a1,1,0,0,0,1-1V7h3a1,1,0,0,0,0-2H13V2a1,1,0,0,0-2,0V5H8A1,1,0,0,0,8,7h3v3A1,1,0,0,0,12,11Z"/></svg>