<svg xmlns="http://www.w3.org/2000/svg" viewBox="0 0 24 24"><path d="M12,9a3.982,3.982,0,0,0-2.96,6.666A7,7,0,0,0,5,22a1,1,0,0,0,1,1H18a1,1,0,0,0,1-1,7,7,0,0,0-4.04-6.334A3.982,3.982,0,0,0,12,9Zm0,2a2,2,0,1,1-2,2A2,2,0,0,1,12,11Zm4.9,10H7.1a5,5,0,0,1,9.8,0Z"/><path d="M13,6V2a1,1,0,0,0-2,0V6a1,1,0,0,0,2,0Z"/><path d="M17.3,8.611l2.828-2.829a1,1,0,1,0-1.414-1.414L15.89,7.2A1,1,0,1,0,17.3,8.611Z"/><path d="M8.11,7.2,5.282,4.368A1,1,0,0,0,3.868,5.782L6.7,8.611A1,1,0,0,0,8.11,7.2Z"/><path d="M22,12H18.5a1,1,0,0,0,0,2H22a1,1,0,0,0,0-2Z"/><path d="M2,14H5.5a1,1,0,0,0,0-2H2a1,1,0,0,0,0,2Z"/></svg>