<svg xmlns="http://www.w3.org/2000/svg" viewBox="0 0 24 24"><path d="M9,14a4,4,0,1,0-4-4A4,4,0,0,0,9,14ZM9,8a2,2,0,1,1-2,2A2,2,0,0,1,9,8Z"/><path d="M2,19v2a1,1,0,0,0,2,0V19a2,2,0,0,1,2-2h6a2,2,0,0,1,2,2v2a1,1,0,0,0,2,0V19a4,4,0,0,0-4-4H6A4,4,0,0,0,2,19Z"/><path d="M15.7,5.747a1,1,0,1,0-1.414,1.414,4.015,4.015,0,0,1,0,5.678A1,1,0,1,0,15.7,14.253a6.014,6.014,0,0,0,0-8.506Z"/><path d="M18,18a1,1,0,0,0,.7-.281,10.667,10.667,0,0,0,0-15.438,1,1,0,0,0-1.39,1.438,8.667,8.667,0,0,1,0,12.562A1,1,0,0,0,18,18Z"/></svg>