<svg xmlns="http://www.w3.org/2000/svg" viewBox="0 0 24 24"><path d="M16,15H8a5.006,5.006,0,0,0-5,5v2a1,1,0,0,0,1,1H20a1,1,0,0,0,1-1V20A5.006,5.006,0,0,0,16,15Zm3,6H5V20a3,3,0,0,1,3-3h8a3,3,0,0,1,3,3Z"/><path d="M18.707,10.707a1,1,0,0,0-.26-1.6C17.063,8.413,17,6.049,17,6A5,5,0,0,0,7,6c0,.024-.055,2.412-1.447,3.108a1,1,0,0,0-.26,1.6A9.735,9.735,0,0,0,12,13,9.735,9.735,0,0,0,18.707,10.707ZM9,6a3,3,0,0,1,6,0,6.716,6.716,0,0,0,1.351,3.953A8.815,8.815,0,0,1,12,11,8.816,8.816,0,0,1,7.649,9.953,6.716,6.716,0,0,0,9,6Z"/></svg>