<svg xmlns="http://www.w3.org/2000/svg" viewBox="0 0 24 24"><circle cx="8" cy="13" r="1.5"/><path d="M12,1C8.264,1,6.474,2.073,5.674,2.834A3.067,3.067,0,0,0,2.105,4.553a5.022,5.022,0,0,0,.277,4.934A2.982,2.982,0,0,0,2.713,14.7L1.052,19.684a1,1,0,0,0,.053.763c.3.6,1.97,2.553,10.9,2.553s10.6-1.954,10.9-2.553a1,1,0,0,0,.053-.763c-.684-2.02-1.245-3.805-1.4-4.12A10.641,10.641,0,0,0,23,10C23,5.672,18.794,1,12,1ZM3.158,19.689l.657-1.97a9.021,9.021,0,0,0,2.016,2.822A8.46,8.46,0,0,1,3.158,19.689ZM12,21a7.009,7.009,0,0,1-7-7,1,1,0,0,0-1-1,1,1,0,0,1-1-1c0-1.569,2.916-.493,5.033-3.354,2.122,4.221,5.6,7.616,10.336,8.243A6.991,6.991,0,0,1,12,21Zm6.171-.46a8.978,8.978,0,0,0,2.015-2.82l.657,1.969A8.442,8.442,0,0,1,18.171,20.54Zm1.383-5.568c-.333-.014-.656-.044-.971-.087C10.406,13.77,9.612,5.008,8,5.008c-1.018,0-1.046,1.25-1.016,1.13A3.6,3.6,0,0,1,4.364,8.849l-.018,0A3.274,3.274,0,0,1,3.9,5.447a1.14,1.14,0,0,1,1.658-.552C7.006,5.62,6.231,3,12,3c5.559,0,9,3.633,9,7A8.319,8.319,0,0,1,19.554,14.972Z"/></svg>