<svg xmlns="http://www.w3.org/2000/svg" viewBox="0 0 24 24"><path d="M12,13a9.732,9.732,0,0,0,6.707-2.293,1,1,0,0,0-.26-1.6C17.063,8.413,17,6.049,17,6A5,5,0,0,0,7,6c0,.024-.055,2.412-1.447,3.108a1,1,0,0,0-.26,1.6A9.732,9.732,0,0,0,12,13ZM9,6a3,3,0,0,1,6,0,6.716,6.716,0,0,0,1.351,3.953A8.812,8.812,0,0,1,12,11,8.813,8.813,0,0,1,7.649,9.953,6.716,6.716,0,0,0,9,6Z"/><path d="M12,15a9.22,9.22,0,0,0-8.966,6.742A1,1,0,0,0,4,23H20a1,1,0,0,0,.966-1.258A9.22,9.22,0,0,0,12,15ZM5.438,21a7.383,7.383,0,0,1,13.125,0Z"/></svg>