<svg xmlns="http://www.w3.org/2000/svg" viewBox="0 0 24 24"><path d="M20.163,3.837a6.28,6.28,0,0,0-8.87,0L3.837,11.293a6.272,6.272,0,0,0,8.87,8.87l7.456-7.456A6.28,6.28,0,0,0,20.163,3.837ZM12.745,17.3,6.7,11.254,11.255,6.7,17.3,12.746ZM5.251,18.749a4.279,4.279,0,0,1,0-6.042l.039-.039,6.041,6.043-.038.038A4.279,4.279,0,0,1,5.251,18.749Zm13.5-7.456-.039.039L12.669,5.289l.038-.038a4.272,4.272,0,0,1,6.042,6.042Z"/><path d="M11.293,10.47a1,1,0,1,0,0-1.414A1,1,0,0,0,11.293,10.47Z"/><path d="M14.944,12.707a1,1,0,1,0-1.414,0A1,1,0,0,0,14.944,12.707Z"/><path d="M9.056,11.293a1,1,0,1,0,1.414,0A1,1,0,0,0,9.056,11.293Z"/><path d="M11.293,13.53a1,1,0,1,0,1.414,0A1,1,0,0,0,11.293,13.53Z"/></svg>