<svg xmlns="http://www.w3.org/2000/svg" viewBox="0 0 24 24"><path d="M15.7,6.3a4.478,4.478,0,0,1,.485.574,1,1,0,1,0,1.63-1.159,6.442,6.442,0,0,0-9.8-.829L2.886,10.011a6.437,6.437,0,0,0,6.4,10.718,1,1,0,0,0-.574-1.916A4.437,4.437,0,0,1,4.3,11.425L6.156,9.57l2.137,2.137a1,1,0,0,0,1.414-1.414L7.57,8.156,9.426,6.3A4.441,4.441,0,0,1,15.7,6.3Z"/><path d="M17,9a6,6,0,1,0,6,6A6.008,6.008,0,0,0,17,9Zm4,6a3.957,3.957,0,0,1-.567,2.019l-5.452-5.452A3.947,3.947,0,0,1,17,11,4,4,0,0,1,21,15Zm-8,0a3.957,3.957,0,0,1,.567-2.019l5.452,5.452A3.947,3.947,0,0,1,17,19,4,4,0,0,1,13,15Z"/></svg>