<svg xmlns="http://www.w3.org/2000/svg" viewBox="0 0 24 24"><path d="M18,5H16.816A2.966,2.966,0,0,0,17,4a3,3,0,0,0-3-3H7A5,5,0,0,0,2.023,6.487,4.878,4.878,0,0,0,3.632,9.626,4.946,4.946,0,0,0,2.3,10.638a5.022,5.022,0,0,0-1.276,3.849A5.133,5.133,0,0,0,6.172,19H8a1,1,0,0,1,1,1v2a1,1,0,0,0,2,0V20a3,3,0,0,0-3-3H6.172a3.118,3.118,0,0,1-3.158-2.7A3,3,0,0,1,6,11H18a1,1,0,0,0,0-2H7.172A3.118,3.118,0,0,1,4.014,6.3,3,3,0,0,1,7,3h7a1,1,0,0,1,0,2H7A1,1,0,0,0,7,7H18a3,3,0,0,1,0,6H6a1,1,0,0,0,0,2h4a3,3,0,0,1,3,3v4a1,1,0,0,0,2,0V18a4.948,4.948,0,0,0-1.026-3H18A5,5,0,0,0,18,5Z"/></svg>