<svg xmlns="http://www.w3.org/2000/svg" viewBox="0 0 24 24"><path d="M18,23a3,3,0,0,0,3-3V4a3,3,0,0,0-3-3H15a1,1,0,0,0-1,1,2,2,0,0,1-4,0A1,1,0,0,0,9,1H6A3,3,0,0,0,3,4V20a3,3,0,0,0,3,3ZM5,20V11h.882a1,1,0,0,0,0-2H5V4A1,1,0,0,1,6,3H8.126a4,4,0,0,0,7.747,0H18a1,1,0,0,1,1,1V9h-.883a1,1,0,0,0,0,2H19v9a1,1,0,0,1-1,1H6A1,1,0,0,1,5,20Z"/><path d="M8.706,11h1.882a1,1,0,1,0,0-2H8.706a1,1,0,1,0,0,2Z"/><path d="M13.412,11h1.882a1,1,0,0,0,0-2H13.412a1,1,0,1,0,0,2Z"/><polygon points="11 15 9 15 9 17 11 17 11 19 13 19 13 17 15 17 15 15 13 15 13 13 11 13 11 15"/></svg>