<svg xmlns="http://www.w3.org/2000/svg" viewBox="0 0 24 24"><path d="M15,3.317V2a1,1,0,0,0-2,0V7a4,4,0,0,0,4,4,1,1,0,0,0,0-2,2,2,0,0,1-2-2V5.382c3.309.852,5,3.065,5,6.618a15.854,15.854,0,0,1-1.94,8.221,1.578,1.578,0,0,1-2.81-.175l-2.094-4.885C14.228,15.469,15,16.188,15,17a1,1,0,0,0,2,0c0-2.206-2.243-4-5-4s-5,1.794-5,4a1,1,0,0,0,2,0c0-.812.772-1.531,1.844-1.839L8.75,20.045a1.578,1.578,0,0,1-2.81.176A15.863,15.863,0,0,1,4,12C4,8.447,5.691,6.234,9,5.382V7A2,2,0,0,1,7,9a1,1,0,0,0,0,2,4,4,0,0,0,4-4V2A1,1,0,0,0,9,2V3.317C6.058,3.957,2,5.934,2,12a17.833,17.833,0,0,0,2.222,9.244,3.577,3.577,0,0,0,6.366-.411L12,17.539l1.412,3.295a3.577,3.577,0,0,0,6.366.41A17.821,17.821,0,0,0,22,12C22,5.934,17.942,3.957,15,3.317Z"/></svg>