<svg xmlns="http://www.w3.org/2000/svg" viewBox="0 0 24 24"><path d="M12.354,3.931a1,1,0,0,0-.8-.6A10.421,10.421,0,0,0,1.124,8.682a1,1,0,0,0,.395,1.358A6.067,6.067,0,0,1,2.9,11.069a6.054,6.054,0,0,1,1.786,4.31A6.051,6.051,0,0,1,2.9,19.689,1,1,0,0,0,4.311,21.1a6.085,6.085,0,0,1,9.65,1.378,1,1,0,0,0,1.357.395,10.419,10.419,0,0,0,5.351-10.431,1,1,0,0,0-1.592-.679,4.885,4.885,0,0,1-6.843-6.844A1,1,0,0,0,12.354,3.931Zm6.377,10.307a8.4,8.4,0,0,1-3.582,6.393,7.961,7.961,0,0,0-.8-.942,8.07,8.07,0,0,0-5.724-2.367,8.168,8.168,0,0,0-2.258.319,8.133,8.133,0,0,0,.319-2.262A8.042,8.042,0,0,0,4.311,9.655a7.975,7.975,0,0,0-.942-.8,8.254,8.254,0,0,1,.942-1.126A8.381,8.381,0,0,1,9.762,5.269a6.872,6.872,0,0,0,8.969,8.969Z"/><path d="M21.293,4.638l-.965.965L18.4,3.673l.965-.966a1,1,0,1,0-1.414-1.414L16.276,2.966,13.767,5.474a3.365,3.365,0,0,0,4.759,4.759l2.509-2.508,1.672-1.673a1,1,0,1,0-1.414-1.414ZM17.112,8.819a1.368,1.368,0,0,1-1.931,0,1.365,1.365,0,0,1,0-1.931l1.8-1.8,1.931,1.931Z"/></svg>