<svg xmlns="http://www.w3.org/2000/svg" viewBox="0 0 24 24"><path d="M19.839,4.161a4.2,4.2,0,1,0-7.658,3.223l-4.8,4.8a4.2,4.2,0,0,0-5.153,6.567,4.163,4.163,0,0,0,1.93,1.091,4.2,4.2,0,1,0,7.658-3.223l4.8-4.8a4.2,4.2,0,1,0,3.224-7.658Zm.515,5.621a2.253,2.253,0,0,1-3.116,0,1,1,0,0,0-1.414,0L9.783,15.824a1,1,0,0,0,0,1.414,2.2,2.2,0,1,1-3.748,1.674,1,1,0,0,0-.946-.947,2.2,2.2,0,1,1,1.673-3.748,1,1,0,0,0,1.414,0l6.041-6.041a1,1,0,0,0,0-1.414,2.2,2.2,0,1,1,3.748-1.674,1,1,0,0,0,.946.947,2.187,2.187,0,0,1,1.443.631h0a2.2,2.2,0,0,1,0,3.116Z"/></svg>