<svg xmlns="http://www.w3.org/2000/svg" viewBox="0 0 24 24"><path d="M12,23c3.113,0,9-1.463,9-7,0-4.943-3.6-8.466-6.029-10.282a8.057,8.057,0,0,0-2.264-4.425,1,1,0,0,0-1.414,0A8.057,8.057,0,0,0,9.029,5.718C6.6,7.534,3,11.057,3,16,3,21.537,8.887,23,12,23ZM12,3.561A4.644,4.644,0,0,1,13,6c0,.015,0,.026,0,.04-.006.033-.018.063-.021.1a.982.982,0,0,1-1.95,0c0-.034-.015-.064-.021-.1,0-.014,0-.025,0-.04A4.644,4.644,0,0,1,12,3.561ZM9.575,7.829A3.115,3.115,0,0,0,12,9h.011l.029,0a3.1,3.1,0,0,0,2.385-1.169C16.471,9.5,19,12.32,19,16c0,4.922-6.716,5-7,5s-7-.078-7-5C5,12.32,7.529,9.5,9.575,7.829Z"/><path d="M8.684,17.949l3,1a1,1,0,0,0,.632,0l3-1a1,1,0,0,0,.632-1.265C15.823,16.307,14.645,13,12,13s-3.823,3.307-3.948,3.684A1,1,0,0,0,8.684,17.949ZM12,15c.673,0,1.254.729,1.633,1.4L12,16.946,10.37,16.4C10.744,15.739,11.324,15,12,15Z"/></svg>