<svg xmlns="http://www.w3.org/2000/svg" viewBox="0 0 24 24"><path d="M22.948,2.316a1,1,0,0,0-1.319-1.245L17,2.923A16.344,16.344,0,0,0,12,2a16.019,16.019,0,0,0-5,.9L2.368,1.07A1,1,0,0,0,1.052,2.316L2.941,7.988A32.936,32.936,0,0,0,1,16c0,2.441,3.227,7,11,7s11-4.559,11-7a32.936,32.936,0,0,0-1.941-8.012ZM12,21c-6.41,0-9-3.528-9-5A32.513,32.513,0,0,1,4.939,8.343a.987.987,0,0,0,.009-.659L3.627,3.719,6.632,4.908a1,1,0,0,0,.759-.01,13.856,13.856,0,0,1,4.6-.9,14.163,14.163,0,0,1,4.62.92,1,1,0,0,0,.762.009l3-1.2L19.052,7.684a.987.987,0,0,0,.009.659A32.513,32.513,0,0,1,21,16C21,17.472,18.41,21,12,21Z"/><path d="M15.031,14.519H15a1.016,1.016,0,0,0-1,.953c-.009.133-.11.672-1,.911V15.051l1.383-2.625A.954.954,0,0,0,13.632,11H10.368a.954.954,0,0,0-.751,1.426L11,15.051v1.331c-.891-.238-.992-.771-1-.882a1,1,0,0,0-2,0c0,1.038.836,3,4,3s4-1.962,4-3A.984.984,0,0,0,15.031,14.519Z"/></svg>