<svg xmlns="http://www.w3.org/2000/svg" viewBox="0 0 24 24"><path d="M15.143,3.55,11.451,7.2a1.051,1.051,0,0,0-.446.967,1,1,0,0,0,1.7.607l3.846-3.8a3.392,3.392,0,0,1,3.918-.6L16.682,8.115a1,1,0,0,0,0,1.422,7.541,7.541,0,0,1,.658,10.012L11.934,14.2a1,1,0,0,0-1.6.26L7.881,19.323,3.7,15.188l4.9-2.422a1,1,0,0,0,.26-1.608L3.469,5.828a7.748,7.748,0,0,1,7.7-.964,1,1,0,1,0,.773-1.843A9.733,9.733,0,0,0,1.3,5.071a1,1,0,0,0,0,1.422l5.157,5.1-4.9,2.422a1,1,0,0,0-.26,1.607l6.154,6.087a1,1,0,0,0,.7.289.959.959,0,0,0,.16-.013,1,1,0,0,0,.732-.536L11.5,16.59l5.178,5.121a1,1,0,0,0,1.406,0A9.542,9.542,0,0,0,18.77,8.862L22.7,4.972a1,1,0,0,0,0-1.422A5.4,5.4,0,0,0,15.143,3.55Z"/></svg>