<svg xmlns="http://www.w3.org/2000/svg" viewBox="0 0 24 24"><path d="M1.5,12.865a1,1,0,0,0,1,0A12.014,12.014,0,0,0,5.928,9.846C8.068,13.138,10.947,15,14,15c3.881,0,7.051-3.055,8.885-6.534a1,1,0,0,0,0-.932,13.124,13.124,0,0,0-4.444-5.127A8.106,8.106,0,0,0,14,1C10.947,1,8.068,2.861,5.928,6.154A12,12,0,0,0,2.5,3.132,1,1,0,0,0,1,4v8A1,1,0,0,0,1.5,12.865Zm16.6-8.241A12.2,12.2,0,0,1,20.859,8a11.446,11.446,0,0,1-3.394,3.851,7.182,7.182,0,0,1,.629-7.227ZM14,3a5.821,5.821,0,0,1,2.409.559,9.113,9.113,0,0,0-.732,9.167A5.654,5.654,0,0,1,14,13c-2.568,0-5.047-1.815-6.86-5C8.952,4.815,11.432,3,14,3ZM3,5.947A11.178,11.178,0,0,1,4.806,8,11.178,11.178,0,0,1,3,10.053Z"/><path d="M22,17.667a1,1,0,0,0-1,1,2.334,2.334,0,0,1-4.667,0,1,1,0,1,0-2,0,2.333,2.333,0,1,1-4.666,0,1,1,0,0,0-2,0,2.334,2.334,0,0,1-4.667,0,1,1,0,0,0-2,0,4.332,4.332,0,0,0,7.667,2.766,4.328,4.328,0,0,0,6.666,0A4.332,4.332,0,0,0,23,18.667,1,1,0,0,0,22,17.667Z"/></svg>