<svg xmlns="http://www.w3.org/2000/svg" viewBox="0 0 24 24"><path d="M15,15a1,1,0,0,0-1,1c0,.7-.278,1-2,1s-2-.3-2-1a1,1,0,0,0-2,0c0,3,3.011,3,4,3s4,0,4-3A1,1,0,0,0,15,15Z"/><path d="M19,5c-.025,0-.052.008-.077.009a7.982,7.982,0,0,0-13.846,0C5.052,5.008,5.025,5,5,5a3.992,3.992,0,0,0-1,7.858v.634A4.394,4.394,0,0,0,2,17c0,3.364,4.393,6,10,6s10-2.636,10-6a4.394,4.394,0,0,0-2-3.508v-.634A3.992,3.992,0,0,0,19,5ZM12,3a6.019,6.019,0,0,1,6,6v3.613l-1-.334V8.829a2.978,2.978,0,0,0-.879-2.122A3.07,3.07,0,0,0,12,6.592a3.071,3.071,0,0,0-4.121.115A2.978,2.978,0,0,0,7,8.829v3.45l-1,.334V9A6.019,6.019,0,0,1,12,3ZM3,9A2,2,0,0,1,4.216,7.16,16.145,16.145,0,0,0,4,10.731,2,2,0,0,1,3,9Zm9,12c-4.714,0-8-2.108-8-4,0-.46.163-1.174,1.467-2.1l2.849-.95A1,1,0,0,0,9,13V8.829a1,1,0,0,1,1.707-.708l.586.586a1,1,0,0,0,1.414,0l.586-.586A1,1,0,0,1,15,8.829V13a1,1,0,0,0,.684.949l2.849.95C19.837,15.826,20,16.54,20,17,20,18.892,16.714,21,12,21Zm8-10.269a16.057,16.057,0,0,0-.2-3.494c-.006-.025-.008-.051-.014-.077A2,2,0,0,1,20,10.731Z"/></svg>