<svg xmlns="http://www.w3.org/2000/svg" viewBox="0 0 24 24"><path d="M13.684,1.051A5.361,5.361,0,0,0,10,6a1,1,0,0,0,.992,1H11a1,1,0,0,0,1-.989,3.366,3.366,0,0,1,2.316-3.058,1,1,0,0,0-.632-1.9Z"/><path d="M13.051,5.684a.994.994,0,0,0,.623,1.254A.969.969,0,0,0,14,6.993a1.011,1.011,0,0,0,.946-.665A2.622,2.622,0,0,1,17.9,4.818a1,1,0,0,0,.2-1.99A4.623,4.623,0,0,0,13.051,5.684Z"/><path d="M6,12a4,4,0,0,0,2.036,3.472A3.882,3.882,0,0,0,8,16a4,4,0,0,0,8,0,3.882,3.882,0,0,0-.036-.528A3.991,3.991,0,1,0,12,8.545,3.958,3.958,0,0,0,10,8,4,4,0,0,0,6,12Zm6.669-1.479A1.979,1.979,0,0,1,14,10a1.993,1.993,0,0,1,.519,3.919,1,1,0,0,0-.667,1.337,2,2,0,1,1-3.7,0,1,1,0,0,0-.667-1.337,1.992,1.992,0,1,1,1.85-3.4A1,1,0,0,0,12.669,10.521Z"/><path d="M20,5a2.994,2.994,0,0,0-2.219.993.972.972,0,0,0-.442.212,1,1,0,0,0-.089,1.411A7.1,7.1,0,0,1,19,12.246V14A7,7,0,0,1,5,14V12.246A7.121,7.121,0,0,1,8.5,6.184a1,1,0,0,0-1-1.733A8.96,8.96,0,0,0,5.878,5.672a2.991,2.991,0,1,0-2.757,5.181A18.7,18.7,0,0,0,3,14a9,9,0,0,0,18,0,19.439,19.439,0,0,0-.116-3.148A2.991,2.991,0,0,0,20,5ZM3.642,8.934A1,1,0,0,1,4,7a.992.992,0,0,1,.573.183A10.991,10.991,0,0,0,3.642,8.934Zm16.722,0a9.585,9.585,0,0,0-.933-1.751,1,1,0,1,1,.933,1.751Z"/></svg>