<svg xmlns="http://www.w3.org/2000/svg" viewBox="0 0 24 24"><path d="M19,1a3.979,3.979,0,0,0-3.268,1.729,9.917,9.917,0,0,0-7.464,0,3.984,3.984,0,1,0-5.539,5.54A9.941,9.941,0,0,0,2,12c0,8.11,5.166,11,10,11s10-2.89,10-11a9.941,9.941,0,0,0-.729-3.731A3.984,3.984,0,0,0,19,1ZM12,21c-5.084,0-8-3.28-8-9a8,8,0,0,1,16,0C20,17.72,17.084,21,12,21Z"/><path d="M15.031,15.019a1.047,1.047,0,0,0-1.03.952c-.009.133-.11.672-1,.911V14.991l1.383-2.1a.765.765,0,0,0-.751-1.14H10.368a.765.765,0,0,0-.751,1.14L11,14.991v1.891c-.891-.238-.992-.771-1-.882a1,1,0,0,0-2,0c0,1.038.836,3,4,3s4-1.962,4-3A.984.984,0,0,0,15.031,15.019Z"/><path d="M10.514,7.472s-1-1-3,0-2,4,0,4C10.514,11.472,10.514,7.472,10.514,7.472Z"/><path d="M16.486,7.444c-2-1-3,0-3,0s0,4,3,4C18.486,11.444,18.486,8.444,16.486,7.444Z"/></svg>