<svg xmlns="http://www.w3.org/2000/svg" viewBox="0 0 24 24"><path d="M15,5c0-2.243-1.317-4-3-4S9,2.757,9,5s1.317,4,3,4S15,7.243,15,5ZM11,5c0-1.221.592-2,1-2s1,.779,1,2-.592,2-1,2S11,6.221,11,5Z"/><path d="M1.069,6.281a4.865,4.865,0,0,0,1.36,2.426,4.528,4.528,0,0,0,3.1,1.429,2.555,2.555,0,0,0,1.846-.722A2.732,2.732,0,0,0,8.03,6.89,4.856,4.856,0,0,0,6.671,4.465C5.086,2.879,2.911,2.57,1.722,3.757A2.732,2.732,0,0,0,1.069,6.281ZM3.136,5.172a.612.612,0,0,1,.436-.138,2.58,2.58,0,0,1,1.685.845,2.884,2.884,0,0,1,.812,1.4.823.823,0,0,1-.1.719c-.289.289-1.258.155-2.121-.707a2.9,2.9,0,0,1-.813-1.4A.824.824,0,0,1,3.136,5.172Z"/><path d="M22.931,6.281a2.73,2.73,0,0,0-.653-2.523c-1.189-1.189-3.362-.879-4.949.707A4.856,4.856,0,0,0,15.97,6.89a2.732,2.732,0,0,0,.652,2.524,2.551,2.551,0,0,0,1.846.722,4.528,4.528,0,0,0,3.1-1.429A4.865,4.865,0,0,0,22.931,6.281ZM20.97,5.89a2.9,2.9,0,0,1-.813,1.4c-.863.862-1.833,1-2.121.707a.823.823,0,0,1-.105-.719,2.884,2.884,0,0,1,.812-1.4,2.578,2.578,0,0,1,1.684-.845.609.609,0,0,1,.437.139A.821.821,0,0,1,20.97,5.89Z"/><path d="M3.348,14.637a5.187,5.187,0,0,0,.2,4.208,7.582,7.582,0,0,0,4.667,3.706,2.567,2.567,0,0,0,1.846-.16,4.69,4.69,0,0,1,3.87,0,2.561,2.561,0,0,0,1.846.16,7.582,7.582,0,0,0,4.667-3.706,5.187,5.187,0,0,0,.2-4.208C19.607,11.863,16.431,10,12.746,10H11.254C7.569,10,4.393,11.863,3.348,14.637Zm1.871.705C5.96,13.374,8.442,12,11.254,12h1.492c2.812,0,5.294,1.374,6.035,3.342a3.239,3.239,0,0,1-.129,2.623,5.6,5.6,0,0,1-3.461,2.676.566.566,0,0,1-.42-.067,6.706,6.706,0,0,0-5.542,0,.566.566,0,0,1-.42.067,5.6,5.6,0,0,1-3.461-2.676A3.239,3.239,0,0,1,5.219,15.342Z"/></svg>