<svg xmlns="http://www.w3.org/2000/svg" viewBox="0 0 24 24"><path d="M18,17a1,1,0,0,0-1-1H13v-.949l1.383-2.625A.954.954,0,0,0,13.632,11H10.368a.954.954,0,0,0-.751,1.426L11,15.051V16H7a1,1,0,0,0,0,2H8v4a1,1,0,0,0,1,1h6a1,1,0,0,0,1-1V18h1A1,1,0,0,0,18,17Zm-8,1h1v3H10Zm4,3H13V18h1Z"/><path d="M18,1H6A5.006,5.006,0,0,0,1,6V17a6.017,6.017,0,0,0,4.8,5.88,1,1,0,0,0,.4-1.959,4,4,0,0,1,0-7.841A1,1,0,0,0,7,12.1V8A5,5,0,0,1,17,8v4.1a1,1,0,0,0,.8.979,4,4,0,0,1,0,7.841A1,1,0,0,0,18,22.9c1.937,0,5-2.416,5-5.9V6A5.006,5.006,0,0,0,18,1ZM5,11.343a6.711,6.711,0,0,0-2,1.19V6A3,3,0,0,1,6,3H7.105A7.109,7.109,0,0,0,5,8ZM19,8A7.152,7.152,0,0,0,16.9,3H18a3,3,0,0,1,3,3v6.533a6.7,6.7,0,0,0-2-1.19Z"/></svg>