<svg xmlns="http://www.w3.org/2000/svg" viewBox="0 0 24 24"><path d="M18.884,16.124a1,1,0,0,0,1.984-.248A17.015,17.015,0,0,0,4,1a1,1,0,0,0-.949,1.316,25.92,25.92,0,0,1,1.065,11.8l-.249,1.739a1,1,0,0,0,1.98.284L6.1,14.4a27.935,27.935,0,0,0-.727-11.34A15.013,15.013,0,0,1,18.884,16.124Z"/><path d="M22,17.667a1,1,0,0,0-1,1,2.334,2.334,0,0,1-4.667,0,1,1,0,1,0-2,0,2.333,2.333,0,1,1-4.666,0,1,1,0,0,0-2,0,2.334,2.334,0,0,1-4.667,0,1,1,0,0,0-2,0,4.332,4.332,0,0,0,7.667,2.766,4.328,4.328,0,0,0,6.666,0A4.332,4.332,0,0,0,23,18.667,1,1,0,0,0,22,17.667Z"/></svg>