<svg xmlns="http://www.w3.org/2000/svg" viewBox="0 0 24 24"><path d="M16,1H12a1,1,0,0,0,0,2h4a5.009,5.009,0,0,1,4.9,4h-8.44c-3.792.044-6.532-.539-9.137,1.8A7.119,7.119,0,0,0,1,14a9.01,9.01,0,0,0,9,9h8a1,1,0,0,0,1-1,3,3,0,0,0-3-3l-5.508-.321A1.863,1.863,0,0,1,9,16.857a1.8,1.8,0,0,1,.61-1.363c.875-.8,1.882-.373,2.849-.494H16A7,7,0,0,0,16,1ZM10.1,20.64l.9.179V21H10a7.009,7.009,0,0,1-7-7,4.958,4.958,0,0,1,.807-2.7A12.083,12.083,0,0,0,7.47,15.052a3.806,3.806,0,0,0-.47,1.8A3.868,3.868,0,0,0,10.1,20.64Zm.078-7.571c-.07.012-.138.027-.207.043a3.891,3.891,0,0,0-.471.147c-.073.027-.146.052-.216.084a4,4,0,0,0-.43.225,10.092,10.092,0,0,1-3.6-3.738c1.884-1.245,3.658-.7,5.937-.83a10.621,10.621,0,0,0,0,4h-.333A3.748,3.748,0,0,0,10.179,13.069ZM16,13H13.224a9.041,9.041,0,0,1,0-4H20.9A5.008,5.008,0,0,1,16,13Z"/></svg>