<svg xmlns="http://www.w3.org/2000/svg" viewBox="0 0 24 24"><path d="M19.593,11.914a1,1,0,0,0,1.3-.467l2-4a1,1,0,1,0-1.79-.894L19.533,9.7,17.247,8.68l2.086-.737A1,1,0,0,0,19.98,7.2l1-5A1,1,0,0,0,19.02,1.8l-.889,4.442L16,7V2a1,1,0,0,0-2,0V3.556a3.875,3.875,0,0,0-4,0V2A1,1,0,0,0,8,2V7L5.869,6.246,4.98,1.8A1,1,0,0,0,3.02,2.2l1,5a1,1,0,0,0,.647.747l2.086.737L4.467,9.7,2.9,6.553a1,1,0,0,0-1.79.894l2,4a1,1,0,0,0,1.3.467L5.5,11.43a6.951,6.951,0,0,0-.269.839l-1.673.836a1,1,0,0,0-.523.653l-2,8a1,1,0,0,0,.727,1.212A1.025,1.025,0,0,0,2,23a1,1,0,0,0,.969-.758l1.888-7.554.173-.086a6.994,6.994,0,0,0,13.938,0l.173.086,1.888,7.554A1,1,0,0,0,22,23a1.025,1.025,0,0,0,.244-.03,1,1,0,0,0,.727-1.212l-2-8a1,1,0,0,0-.523-.653l-1.673-.836a6.951,6.951,0,0,0-.269-.839ZM12,5a2,2,0,0,1,1.979,2.288A7.631,7.631,0,0,0,12,7a7.674,7.674,0,0,0-1.979.288A2,2,0,0,1,12,5Zm0,14a5,5,0,0,1-.032-10h.064A5,5,0,0,1,12,19Z"/><path d="M12,15a1,1,0,0,1-1-1,1,1,0,0,0-2,0,3,3,0,0,0,3,3,1,1,0,0,0,0-2Z"/></svg>