<svg xmlns="http://www.w3.org/2000/svg" viewBox="0 0 24 24"><path d="M23,12a1,1,0,0,0-1-1H17V8a1,1,0,0,0-2,0v3H13.1A5.231,5.231,0,0,1,8.292,7.79,3.761,3.761,0,0,0,11,4a1,1,0,0,0-.293-.707A4.5,4.5,0,0,0,9.066,2.3,3.427,3.427,0,0,0,6,2.712,3.426,3.426,0,0,0,2.934,2.3a4.5,4.5,0,0,0-1.641.991A1,1,0,0,0,1,4,3.766,3.766,0,0,0,3.941,7.846l-.407,6.105a8.436,8.436,0,0,0,2.8,6.878,1,1,0,1,0,1.336-1.488A6.449,6.449,0,0,1,5.7,16.008a9.638,9.638,0,0,0,3.775,1.9c1.078,1.4-.245,3.448-.3,3.536A1,1,0,0,0,10.2,22.98a6.022,6.022,0,0,0,4.143-2.515,4.9,4.9,0,0,0,.737-2.486,23.388,23.388,0,0,0,4.058-.507,8.984,8.984,0,0,1-3.534,2.78,1,1,0,1,0,.8,1.832,11,11,0,0,0,5.727-5.806c.015-.029.026-.058.038-.088A10.987,10.987,0,0,0,23,12ZM3.034,4.444a1.646,1.646,0,0,1,2.259.263,1,1,0,0,0,1.414,0,1.649,1.649,0,0,1,2.259-.264A1.885,1.885,0,0,1,7,6H5.008A1.888,1.888,0,0,1,3.034,4.444ZM14,16a1.005,1.005,0,0,0-.972,1.234,3.132,3.132,0,0,1-.391,2.181,2.944,2.944,0,0,1-.87.858,4.214,4.214,0,0,0-1.06-3.98,1,1,0,0,0-.543-.279,6.809,6.809,0,0,1-4.546-3.242L5.936,8h.293a7.242,7.242,0,0,0,6.87,5h7.845a8.958,8.958,0,0,1-.487,2.042A20.318,20.318,0,0,1,14,16Z"/><path d="M15,5a1,1,0,0,0,2,0,2,2,0,0,1,2-2,1,1,0,0,0,0-2,3.99,3.99,0,0,0-3,1.357A3.99,3.99,0,0,0,13,1a1,1,0,0,0,0,2A2,2,0,0,1,15,5Z"/></svg>