<svg xmlns="http://www.w3.org/2000/svg" viewBox="0 0 24 24"><path d="M2.707,20.707,8.67,14.744c.038.026.067.061.105.086a1,1,0,0,0,1.118-1.66,3.808,3.808,0,0,1-.583-.48A4.371,4.371,0,0,1,8.131,9.12a6.731,6.731,0,0,1,2-4.094c2.341-2.34,5.78-2.709,7.664-.825a4.646,4.646,0,0,1,1.006,4.543,1,1,0,1,0,1.933.512,6.617,6.617,0,0,0-1.525-6.469C16.549.123,11.842.493,8.721,3.612A8.723,8.723,0,0,0,6.139,8.939a6.475,6.475,0,0,0,1.115,4.393L1.293,19.293a1,1,0,1,0,1.414,1.414Z"/><path d="M17,11a6,6,0,1,0,6,6A6.006,6.006,0,0,0,17,11Zm0,10a4,4,0,1,1,4-4A4,4,0,0,1,17,21Z"/></svg>