<svg xmlns="http://www.w3.org/2000/svg" viewBox="0 0 24 24"><path d="M18.034,1a3.964,3.964,0,0,0-2.975,1.349c-.007-.008-.011-.017-.018-.025A3.984,3.984,0,0,0,12.071,1h-.142a3.984,3.984,0,0,0-2.97,1.324c-.007.008-.011.017-.018.025a3.974,3.974,0,0,0-6.208.3,3.854,3.854,0,0,0-.524,3.52L6.01,17.2a5.993,5.993,0,0,0,11.98,0l3.8-11.031a3.851,3.851,0,0,0-.526-3.514A3.986,3.986,0,0,0,18.034,1ZM10.451,3.657a2.143,2.143,0,0,1,3.1,0,1.868,1.868,0,0,1,.473,1.474L13.1,13.352,12.8,16H11.2l-.3-2.648L9.978,5.131A1.868,1.868,0,0,1,10.451,3.657ZM7.713,16,4.1,5.524a1.87,1.87,0,0,1,.256-1.707,1.976,1.976,0,0,1,3.559.894L9.19,16ZM12,21a4.008,4.008,0,0,1-3.874-3h7.748A4.008,4.008,0,0,1,12,21ZM19.9,5.519,16.287,16H14.81L16.083,4.711a1.976,1.976,0,0,1,3.559-.894A1.869,1.869,0,0,1,19.9,5.519Z"/></svg>