<svg xmlns="http://www.w3.org/2000/svg" viewBox="0 0 24 24"><path d="M12,23A11,11,0,1,0,1,12,11.031,11.031,0,0,0,12,23Zm7.792-6.516A4.964,4.964,0,0,1,17.111,13h3.83A8.92,8.92,0,0,1,19.792,16.484ZM20.941,11h-3.83a4.96,4.96,0,0,1,2.681-3.484A8.92,8.92,0,0,1,20.941,11ZM13,3.059A8.973,8.973,0,0,1,18.6,5.9,6.94,6.94,0,0,0,15.08,11H13ZM13,13h2.08A6.941,6.941,0,0,0,18.6,18.1a8.973,8.973,0,0,1-5.6,2.84Zm-2,7.941A8.973,8.973,0,0,1,5.4,18.1,6.941,6.941,0,0,0,8.92,13H11ZM11,3.059V11H8.92A6.94,6.94,0,0,0,5.4,5.9,8.973,8.973,0,0,1,11,3.059ZM4.208,7.516A4.96,4.96,0,0,1,6.889,11H3.059A8.92,8.92,0,0,1,4.208,7.516ZM6.889,13a4.964,4.964,0,0,1-2.681,3.484A8.92,8.92,0,0,1,3.059,13Z"/></svg>