<svg xmlns="http://www.w3.org/2000/svg" viewBox="0 0 24 24"><path d="M14,23h4a1,1,0,0,0,.707-.293A9.732,9.732,0,0,0,21,16a10.19,10.19,0,0,0-1.368-5.208A3.951,3.951,0,0,1,19,9a8.342,8.342,0,0,1,.351-1.655c.442-1.635.993-3.669-.083-5.076A3.881,3.881,0,0,0,16,1a3.881,3.881,0,0,0-3.268,1.269c-1.076,1.407-.525,3.441-.083,5.076A8.342,8.342,0,0,1,13,9a3.951,3.951,0,0,1-.632,1.792A10.19,10.19,0,0,0,11,16a9.732,9.732,0,0,0,2.293,6.707A1,1,0,0,0,14,23Zm.32-19.516A2.269,2.269,0,0,1,16,3a2.269,2.269,0,0,1,1.68.484c.475.622.05,2.192-.26,3.338L17.373,7H14.627l-.047-.178C14.27,5.676,13.845,4.106,14.32,3.484Zm-.178,8.234A5.711,5.711,0,0,0,15,9h2a5.711,5.711,0,0,0,.858,2.718A8.2,8.2,0,0,1,19,16a8.3,8.3,0,0,1-1.466,5H14.466A8.3,8.3,0,0,1,13,16,8.2,8.2,0,0,1,14.142,11.718Z"/><path d="M10.44,4.157A3.5,3.5,0,0,0,7.5,3,3.5,3.5,0,0,0,4.56,4.157c-1,1.3-.509,3.17-.114,4.673a7.674,7.674,0,0,1,.3,1.47,3.565,3.565,0,0,1-.544,1.576A9.445,9.445,0,0,0,3,16.6a8.99,8.99,0,0,0,2.033,6.1,1,1,0,0,0,.717.3h3.5a1,1,0,0,0,0-2H6.229A7.609,7.609,0,0,1,5,16.6a7.4,7.4,0,0,1,.989-3.818A5.291,5.291,0,0,0,6.75,10.3a8.467,8.467,0,0,0-.37-1.98C6.111,7.3,5.742,5.9,6.144,5.379A1.778,1.778,0,0,1,7.5,5a1.778,1.778,0,0,1,1.356.379c.4.519.033,1.92-.236,2.941a8.467,8.467,0,0,0-.37,1.98,4.7,4.7,0,0,0,.59,2.142,1,1,0,0,0,1.793-.884A2.828,2.828,0,0,1,10.25,10.3a7.674,7.674,0,0,1,.3-1.47C10.949,7.327,11.442,5.457,10.44,4.157Z"/></svg>