<svg xmlns="http://www.w3.org/2000/svg" viewBox="0 0 24 24"><path d="M6.381,20.077l3.369-3.37a1,1,0,0,0-1.414-1.414l-3.369,3.37a1.153,1.153,0,0,1-1.63-1.63l3.8-3.8a2.058,2.058,0,0,0,.609-1.48,2.523,2.523,0,0,0-.608-1.563L13.99,3.337a1.154,1.154,0,0,1,1.629,0l3.043,3.044a1.155,1.155,0,0,1,0,1.63,1,1,0,0,0,1.415,1.414,3.158,3.158,0,0,0,0-4.458L17.033,1.923a3.155,3.155,0,0,0-4.457,0L5.727,8.771a2.1,2.1,0,0,0-.611,1.492,2.01,2.01,0,0,0,.612,1.443l.7-.716-.7.824-3.8,3.805a3.152,3.152,0,0,0,4.458,4.458Z"/><path d="M17,11a6,6,0,1,0,6,6A6.006,6.006,0,0,0,17,11Zm0,10a4,4,0,1,1,4-4A4,4,0,0,1,17,21Z"/></svg>