<svg xmlns="http://www.w3.org/2000/svg" viewBox="0 0 24 24"><path d="M17,11a4,4,0,1,0,4,4A4,4,0,0,0,17,11Zm0,6a2,2,0,1,1,2-2A2,2,0,0,1,17,17Z"/><path d="M20,21H4a1,1,0,0,0,0,2H20a1,1,0,0,0,0-2Z"/><path d="M1.648,1.063a1,1,0,0,0-.585,1.289l6,16a1.015,1.015,0,0,0,1.211.61l3.5-1a1,1,0,0,0-.548-1.924l-2.613.747L6.405,10.9a.95.95,0,0,0,.109-.039C11.179,8.066,18.387,8.7,18.468,8.706a2.743,2.743,0,0,1,2.544,2.184,1,1,0,0,0,.987.846,1.139,1.139,0,0,0,.154-.011,1,1,0,0,0,.835-1.142,4.752,4.752,0,0,0-4.343-3.868c-.316-.032-7.715-.679-12.942,2.31L2.937,1.648A1,1,0,0,0,1.648,1.063Z"/></svg>