<svg xmlns="http://www.w3.org/2000/svg" viewBox="0 0 24 24"><path d="M17.948,11.258A.961.961,0,0,0,18,11V7A6,6,0,0,0,6,7v4a.969.969,0,0,0,.062.3A9.4,9.4,0,0,0,3,18.274V20a3,3,0,0,0,3,3H18a3,3,0,0,0,3-3V18a9.03,9.03,0,0,0-2.846-6.567C18.088,11.371,18.016,11.318,17.948,11.258ZM8,7a4,4,0,0,1,8,0V9.939a9.033,9.033,0,0,0-4.6-.919A8.671,8.671,0,0,0,8,9.964ZM19,20a1,1,0,0,1-1,1H6a1,1,0,0,1-1-1V18.274a7.158,7.158,0,0,1,6.532-7.258A7,7,0,0,1,19,18Z"/><path d="M12,13a3,3,0,1,0,3,3A3,3,0,0,0,12,13Zm0,4a1,1,0,1,1,1-1A1,1,0,0,1,12,17Z"/></svg>