<svg xmlns="http://www.w3.org/2000/svg" viewBox="0 0 24 24"><path d="M18.714,12.285l-5.518.6L6.767,3.441A3.2,3.2,0,0,0,2.541,2.414a3.053,3.053,0,0,0-.954,4.45l5.634,7.725a1,1,0,1,0,1.615-1.178L6.325,9.967,8.1,8.945l3.787,5.562a1,1,0,0,0,.934.431l6.115-.665a1.869,1.869,0,1,1,.2,3.727,1,1,0,1,0,0,2,3.869,3.869,0,1,0-.419-7.715ZM5.139,8.342,3.2,5.686a1.054,1.054,0,0,1,.353-1.547,1.2,1.2,0,0,1,1.559.427L6.967,7.287Z"/><path d="M14,16H10a3,3,0,0,0,0,6h4a3,3,0,0,0,0-6Zm0,4H10a1,1,0,0,1,0-2h4a1,1,0,0,1,0,2Z"/></svg>