<svg xmlns="http://www.w3.org/2000/svg" viewBox="0 0 24 24"><path d="M21.261,2.164C15.334-.112,9.125,1,5.062,5.062s-5.174,10.271-2.9,16.2a1,1,0,0,0,.575.574c5.707,2.192,11.986,1.317,16.2-2.9,4.063-4.064,5.174-10.271,2.9-16.2A1,1,0,0,0,21.261,2.164ZM3.875,20.127a15.152,15.152,0,0,1-.843-4.143,10.4,10.4,0,0,1,2.92,2.066,10.432,10.432,0,0,1,2.065,2.918A15.171,15.171,0,0,1,3.875,20.127Zm13.651-2.6a11.949,11.949,0,0,1-7.377,3.4,12.264,12.264,0,0,0-2.784-4.293A12.264,12.264,0,0,0,3.07,13.851,11.748,11.748,0,0,1,13.851,3.071a12.273,12.273,0,0,0,2.784,4.294,12.264,12.264,0,0,0,4.295,2.786A11.956,11.956,0,0,1,17.526,17.527Zm.522-11.575a10.428,10.428,0,0,1-2.065-2.919,15.143,15.143,0,0,1,4.142.842,15.152,15.152,0,0,1,.843,4.143A10.422,10.422,0,0,1,18.048,5.952Z"/><path d="M14.751,10.663l.63-.63a1,1,0,0,0-1.414-1.414l-.63.63L12.261,8.174a1,1,0,0,0-1.414,1.414l1.076,1.075-1.26,1.26L9.588,10.848a1,1,0,0,0-1.414,1.414l1.075,1.075-.629.63a1,1,0,1,0,1.414,1.414l.629-.63,1.076,1.075a1,1,0,0,0,1.414-1.414l-1.076-1.075,1.26-1.26,1.075,1.075a1,1,0,0,0,1.414-1.414Z"/></svg>