<svg xmlns="http://www.w3.org/2000/svg" viewBox="0 0 24 24"><path d="M22,17.667a1,1,0,0,0-1,1,2.334,2.334,0,0,1-4.667,0,1,1,0,1,0-2,0,2.333,2.333,0,1,1-4.666,0,1,1,0,0,0-2,0,2.334,2.334,0,0,1-4.667,0,1,1,0,0,0-2,0,4.332,4.332,0,0,0,7.667,2.766,4.328,4.328,0,0,0,6.666,0A4.332,4.332,0,0,0,23,18.667,1,1,0,0,0,22,17.667Z"/><path d="M17,16a1,1,0,0,0,1-1V6a3,3,0,0,1,3-3,1,1,0,0,0,0-2,5.006,5.006,0,0,0-5,5H8a3,3,0,0,1,3-3,1,1,0,0,0,0-2A5.006,5.006,0,0,0,6,6v9a1,1,0,0,0,2,0V13h8v2A1,1,0,0,0,17,16ZM8,11V8h8v3Z"/></svg>