<svg xmlns="http://www.w3.org/2000/svg" viewBox="0 0 24 24"><path d="M4.169,21a3.18,3.18,0,0,0,2.251-.932l.712-.71A12.294,12.294,0,0,1,9.512,17.5a1,1,0,1,0-1.025-1.717,14.318,14.318,0,0,0-2.768,2.164l-.712.71A1.188,1.188,0,0,1,3.2,18.5a1.272,1.272,0,0,1,.217-1.6l.751-.75A13.625,13.625,0,0,0,7.925,7.916,5.557,5.557,0,0,1,18.988,8.933,1,1,0,0,0,19.918,10a1.018,1.018,0,0,0,1.065-.931A7.556,7.556,0,0,0,5.938,7.689,11.648,11.648,0,0,1,2.75,14.734L2,15.484a3.269,3.269,0,0,0-.426,4.181A3.2,3.2,0,0,0,4.169,21Z"/><path d="M17,11a6,6,0,1,0,6,6A6.006,6.006,0,0,0,17,11Zm0,10a4,4,0,1,1,4-4A4,4,0,0,1,17,21Z"/></svg>