<svg xmlns="http://www.w3.org/2000/svg" viewBox="0 0 24 24"><path d="M16.957,9.783C16.74,10.972,15,12,15,12s-1.74-1.028-1.957-2.217C12.828,8.611,13.459,8,14.112,8A.98.98,0,0,1,15,8.471.98.98,0,0,1,15.888,8C16.541,8,17.172,8.611,16.957,9.783ZM9,12s1.74-1.028,1.957-2.217C11.172,8.611,10.541,8,9.888,8A.98.98,0,0,0,9,8.471.98.98,0,0,0,8.112,8c-.653,0-1.284.611-1.069,1.783C7.26,10.972,9,12,9,12Zm6.225,2.368a4,4,0,0,1-6.45,0,1,1,0,0,0-1.55,1.264,6,6,0,0,0,9.55,0,1,1,0,1,0-1.55-1.264ZM23,12A11,11,0,1,1,12,1,11.013,11.013,0,0,1,23,12Zm-2,0a9,9,0,1,0-9,9A9.01,9.01,0,0,0,21,12Z"/></svg>