<svg xmlns="http://www.w3.org/2000/svg" viewBox="0 0 24 24"><path d="M15,16.582C15,17.7,13.185,19,12,19s-3-1.3-3-2.418a1,1,0,0,1,1.97-.244A2.344,2.344,0,0,0,12.005,17a2.366,2.366,0,0,0,1.025-.662,1,1,0,0,1,1.97.244ZM23,12A11,11,0,1,1,12,1,11.013,11.013,0,0,1,23,12ZM17,7a3,3,0,1,0,3,3A3,3,0,0,0,17,7ZM12,3A8.955,8.955,0,0,0,6.26,5.075,4.87,4.87,0,0,1,7,5a5.009,5.009,0,0,1,4.9,4h.2A5.009,5.009,0,0,1,17,5a4.87,4.87,0,0,1,.74.075A8.955,8.955,0,0,0,12,3ZM4,10A3,3,0,1,0,7,7,3,3,0,0,0,4,10Zm16.933,3.05A4.978,4.978,0,0,1,12.1,11h-.2a4.978,4.978,0,0,1-8.832,2.05,8.994,8.994,0,0,0,17.866,0Z"/></svg>